<svg width="32" height="32" viewBox="0 0 32 32" fill="none" xmlns="http://www.w3.org/2000/svg">
<g clip-path="url(#clip0_1913_1344)">
<path d="M32 5.33002H0V26.66H32V5.33002Z" fill="#496E2D"/>
<path d="M30.6699 12.22H27.6699C27.6699 11.9548 27.5646 11.7005 27.377 11.5129C27.1895 11.3254 26.9351 11.22 26.6699 11.22C26.4047 11.22 26.1504 11.3254 25.9628 11.5129C25.7753 11.7005 25.6699 11.9548 25.6699 12.22H22.6699C22.6699 12.4852 22.7753 12.7396 22.9628 12.9271C23.1504 13.1147 23.4047 13.22 23.6699 13.22C23.6699 13.4852 23.7753 13.7396 23.9628 13.9271C24.1504 14.1147 24.4047 14.22 24.6699 14.22C24.6699 14.4852 24.7753 14.7396 24.9628 14.9271C25.1504 15.1147 25.4047 15.22 25.6699 15.22H27.6699C27.9351 15.22 28.1895 15.1147 28.377 14.9271C28.5646 14.7396 28.6699 14.4852 28.6699 14.22C28.9351 14.22 29.1895 14.1147 29.377 13.9271C29.5646 13.7396 29.6699 13.4852 29.6699 13.22C29.9351 13.22 30.1895 13.1147 30.377 12.9271C30.5646 12.7396 30.6699 12.4852 30.6699 12.22Z" fill="#FF9811"/>
<path d="M24.8901 16H21.3301V26.67H24.8901V16Z" fill="#D80027"/>
<path d="M32.0102 16H28.4502V26.67H32.0102V16Z" fill="#FF9811"/>
<path d="M28.4501 16H24.8901V26.67H28.4501V16Z" fill="black"/>
</g>
<defs>
<clipPath id="clip0_1913_1344">
<rect width="32" height="32" fill="white"/>
</clipPath>
</defs>
</svg>
