<svg width="32" height="32" viewBox="0 0 32 32" fill="none" xmlns="http://www.w3.org/2000/svg">
<path d="M32 5.33002H0V26.66H32V5.33002Z" fill="#FFDA44"/>
<path d="M32 5.33002H16V26.66H32V5.33002Z" fill="#F0F0F0"/>
<path d="M23.0001 17.66C23.0982 17.5857 23.2218 17.5535 23.3437 17.5704C23.4656 17.5873 23.5758 17.6519 23.6501 17.75C23.7244 17.8481 23.7566 17.9717 23.7397 18.0936C23.7228 18.2155 23.6582 18.3257 23.5601 18.4C23.5123 18.4386 23.457 18.4671 23.3978 18.4835C23.3385 18.5 23.2765 18.5041 23.2156 18.4957C23.1547 18.4873 23.0962 18.4664 23.0436 18.4345C22.9911 18.4026 22.9456 18.3602 22.9101 18.31C22.8374 18.2113 22.8061 18.0881 22.8229 17.9667C22.8397 17.8453 22.9033 17.7352 23.0001 17.66ZM20.1101 14.61L22.1101 17.27C21.9496 17.5083 21.8681 17.7909 21.8771 18.0781C21.8861 18.3652 21.9851 18.6422 22.1601 18.87C22.3133 19.0738 22.5197 19.2316 22.7566 19.326C22.9935 19.4204 23.2518 19.4478 23.5032 19.4052C23.7546 19.3626 23.9895 19.2517 24.1821 19.0846C24.3747 18.9175 24.5176 18.7006 24.5952 18.4577C24.6728 18.2148 24.6821 17.9552 24.622 17.7074C24.562 17.4595 24.4349 17.233 24.2547 17.0526C24.0745 16.8721 23.8482 16.7447 23.6005 16.6843C23.3527 16.6239 23.0931 16.6328 22.8501 16.71L19.7001 12.57L18.9601 13.13L17.8501 14L19.0001 15.45L20.1101 14.61Z" fill="#ACABB1"/>
<path d="M19.6199 18.31C19.5457 18.4081 19.4354 18.4727 19.3136 18.4896C19.1917 18.5065 19.068 18.4742 18.9699 18.4C18.8718 18.3257 18.8072 18.2155 18.7903 18.0936C18.7734 17.9717 18.8057 17.8481 18.8799 17.75C18.9167 17.7014 18.9627 17.6605 19.0152 17.6297C19.0678 17.5989 19.1259 17.5787 19.1863 17.5704C19.2466 17.562 19.308 17.5656 19.367 17.581C19.426 17.5964 19.4813 17.6232 19.5299 17.66C19.5785 17.6967 19.6194 17.7427 19.6502 17.7953C19.681 17.8479 19.7012 17.906 19.7095 17.9663C19.7179 18.0267 19.7143 18.0881 19.6989 18.1471C19.6835 18.206 19.6567 18.2614 19.6199 18.31ZM23.5199 15.45L24.6399 14L23.5299 13.16L22.7899 12.6L19.6699 16.74C19.4269 16.6627 19.1673 16.6538 18.9196 16.7143C18.6718 16.7747 18.4455 16.9021 18.2653 17.0825C18.0851 17.263 17.958 17.4895 17.898 17.7373C17.8379 17.9852 17.8472 18.2447 17.9248 18.4876C18.0024 18.7306 18.1453 18.9474 18.3379 19.1146C18.5305 19.2817 18.7654 19.3926 19.0168 19.4352C19.2683 19.4777 19.5265 19.4503 19.7634 19.3559C20.0003 19.2615 20.2067 19.1038 20.3599 18.9C20.5308 18.6704 20.6272 18.3939 20.6361 18.1078C20.6451 17.8217 20.5661 17.5398 20.4099 17.3L22.4099 14.64L23.5199 15.45Z" fill="#FFDA44"/>
</svg>
