<svg width="32" height="32" viewBox="0 0 32 32" fill="none" xmlns="http://www.w3.org/2000/svg">
<g clip-path="url(#clip0_1913_541)">
<path d="M32 5.33002H0V26.66H32V5.33002Z" fill="#F0F0F0"/>
<path d="M28.85 17.71C28.4005 17.5885 27.9746 17.3925 27.59 17.13C27.0095 16.7274 26.3407 16.4702 25.64 16.38C24.9397 16.4717 24.2713 16.7288 23.69 17.13C23.3054 17.3925 22.8795 17.5885 22.43 17.71C21.9773 17.5889 21.548 17.3928 21.16 17.13C20.5795 16.7274 19.9107 16.4702 19.21 16.38C18.51 16.474 17.842 16.73 17.26 17.13C16.876 17.394 16.45 17.59 16 17.71C15.5498 17.5904 15.1236 17.3942 14.74 17.13C14.1441 16.7213 13.4577 16.4639 12.74 16.38C12.04 16.47 11.37 16.727 10.79 17.13C10.402 17.3928 9.97273 17.5889 9.52 17.71C9.0705 17.5885 8.64458 17.3925 8.26 17.13C7.67873 16.7288 7.01031 16.4717 6.31 16.38C5.61 16.47 4.94 16.727 4.36 17.13C3.97542 17.3925 3.5495 17.5885 3.1 17.71C2.64727 17.5889 2.21801 17.3928 1.83 17.13C1.28025 16.7528 0.656376 16.4971 0 16.38L0 17.78C0.422 17.914 0.826 18.103 1.2 18.34C1.79239 18.757 2.48015 19.0184 3.2 19.1C3.90167 19.0072 4.57059 18.7465 5.15 18.34C5.53598 18.0823 5.96164 17.8898 6.41 17.77C6.858 17.89 7.284 18.082 7.67 18.34C8.2632 18.7555 8.95056 19.0167 9.67 19.1C10.3725 19.0103 11.0421 18.7493 11.62 18.34C12.01 18.084 12.439 17.891 12.89 17.77C13.3377 17.8916 13.7631 18.084 14.15 18.34C14.6987 18.7346 15.3324 18.9949 16 19.1C16.7198 19.0184 17.4076 18.757 18 18.34C18.3869 18.084 18.8123 17.8916 19.26 17.77C19.711 17.891 20.14 18.084 20.53 18.34C21.1079 18.7493 21.7775 19.0103 22.48 19.1C23.1821 19.0087 23.8513 18.7479 24.43 18.34C24.816 18.0823 25.2416 17.8898 25.69 17.77C26.138 17.89 26.564 18.082 26.95 18.34C27.544 18.754 28.231 19.0151 28.95 19.1C29.6525 19.0103 30.3221 18.7493 30.9 18.34C31.2744 18.1027 31.6777 17.9145 32.1 17.78V16.38C31.4262 16.4902 30.7846 16.7461 30.22 17.13C29.8027 17.4055 29.3383 17.6021 28.85 17.71ZM0 7.34C0.42 7.483 0.823 7.674 1.2 7.91C1.79239 8.32703 2.48015 8.58838 3.2 8.67C3.88426 8.56951 4.5352 8.30914 5.1 7.91C5.48593 7.64991 5.91144 7.45404 6.36 7.33C6.809 7.454 7.234 7.65 7.62 7.91C8.2132 8.32552 8.90056 8.58671 9.62 8.67C10.3225 8.58033 10.9921 8.31934 11.57 7.91C11.9603 7.6512 12.3888 7.45547 12.84 7.33C13.2878 7.45597 13.7131 7.65171 14.1 7.91C14.6633 8.31185 15.3149 8.57249 16 8.67C16.7198 8.58838 17.4076 8.32703 18 7.91C18.3869 7.65171 18.8122 7.45597 19.26 7.33C19.711 7.455 20.14 7.651 20.53 7.91C21.1079 8.31934 21.7775 8.58033 22.48 8.67C23.1821 8.57875 23.8513 8.3179 24.43 7.91C24.8159 7.64991 25.2414 7.45404 25.69 7.33C26.139 7.454 26.564 7.65 26.95 7.91C27.544 8.32403 28.231 8.58508 28.95 8.67C29.6525 8.58033 30.3221 8.31934 30.9 7.91C31.2449 7.68074 31.6138 7.48962 32 7.34V6C31.3237 6.10086 30.68 6.35763 30.12 6.75C29.73 7.006 29.301 7.199 28.85 7.32C28.4023 7.19841 27.9769 7.00598 27.59 6.75C27.0121 6.34067 26.3425 6.07968 25.64 5.99C24.9375 6.07968 24.2679 6.34067 23.69 6.75C23.3031 7.00598 22.8777 7.19841 22.43 7.32C21.979 7.19877 21.5503 7.00635 21.16 6.75C20.5821 6.34067 19.9125 6.07968 19.21 5.99C18.5079 6.08126 17.8387 6.34211 17.26 6.75C16.8708 6.99015 16.4453 7.16576 16 7.27C15.5516 7.15024 15.126 6.95768 14.74 6.7C14.146 6.28597 13.459 6.02492 12.74 5.94C12.0375 6.02968 11.3679 6.29067 10.79 6.7C10.3997 6.95634 9.97095 7.14876 9.52 7.27C9.08969 7.14352 8.68154 6.95125 8.31 6.7C7.73134 6.29211 7.06206 6.03126 6.36 5.94C5.65753 6.02968 4.98788 6.29067 4.41 6.7C4.02308 6.95598 3.59771 7.14841 3.15 7.27C2.69834 7.15075 2.2693 6.95819 1.88 6.7C1.31543 6.32534 0.672121 6.08581 0 6L0 7.34ZM28.85 10.75C28.4023 10.6284 27.9769 10.436 27.59 10.18C27.0121 9.77067 26.3425 9.50968 25.64 9.42C24.9379 9.51126 24.2687 9.77211 23.69 10.18C23.3031 10.436 22.8777 10.6284 22.43 10.75C21.9791 10.6287 21.5503 10.4363 21.16 10.18C20.5821 9.77067 19.9125 9.50968 19.21 9.42C18.5083 9.51281 17.8394 9.77352 17.26 10.18C16.874 10.4377 16.4484 10.6302 16 10.75C15.5516 10.6302 15.126 10.4377 14.74 10.18C14.1468 9.76449 13.4594 9.50329 12.74 9.42C12.0375 9.50968 11.3679 9.77067 10.79 10.18C10.4 10.436 9.971 10.629 9.52 10.75C9.07229 10.6284 8.64692 10.436 8.26 10.18C7.68134 9.77211 7.01206 9.51126 6.31 9.42C5.60753 9.50968 4.93788 9.77067 4.36 10.18C3.97308 10.436 3.54771 10.6284 3.1 10.75C2.64906 10.6287 2.22034 10.4363 1.83 10.18C1.28292 9.79588 0.658242 9.53645 0 9.42L0 10.82C0.422 10.959 0.826 11.15 1.2 11.39C1.79277 11.8046 2.48076 12.0626 3.2 12.14C3.90097 12.0509 4.57 11.7936 5.15 11.39C5.534 11.126 5.96 10.93 6.41 10.81C6.86 10.93 7.286 11.126 7.67 11.39C8.26358 11.8031 8.95116 12.0609 9.67 12.14C10.3719 12.0545 11.0417 11.7969 11.62 11.39C12.008 11.1271 12.4373 10.9311 12.89 10.81C13.34 10.931 13.765 11.127 14.15 11.39C14.7283 11.7969 15.3981 12.0545 16.1 12.14C16.7845 12.0466 17.4363 11.7893 18 11.39C18.385 11.127 18.81 10.931 19.26 10.81C19.713 10.931 20.142 11.127 20.53 11.39C21.1083 11.7969 21.7781 12.0545 22.48 12.14C23.1815 12.0529 23.851 11.7954 24.43 11.39C24.814 11.126 25.24 10.93 25.69 10.81C26.14 10.93 26.566 11.126 26.95 11.39C27.5446 11.8012 28.2317 12.0589 28.95 12.14C29.6519 12.0545 30.3217 11.7969 30.9 11.39C31.274 11.15 31.677 10.959 32.1 10.82V9.42C31.4243 9.52935 30.7818 9.78908 30.22 10.18C29.8001 10.4485 29.3364 10.6414 28.85 10.75ZM32 12.9C31.3243 13.0094 30.6818 13.2691 30.12 13.66C29.73 13.916 29.301 14.109 28.85 14.23C28.4023 14.1084 27.9769 13.916 27.59 13.66C27.0121 13.2507 26.3425 12.9897 25.64 12.9C24.9379 12.9913 24.2687 13.2521 23.69 13.66C23.3031 13.916 22.8777 14.1084 22.43 14.23C21.979 14.1088 21.5503 13.9164 21.16 13.66C20.5821 13.2507 19.9125 12.9897 19.21 12.9C18.5083 12.9928 17.8394 13.2535 17.26 13.66C16.874 13.918 16.448 14.11 16 14.23C15.5516 14.1103 15.126 13.9177 14.74 13.66C14.1468 13.2445 13.4594 12.9833 12.74 12.9C12.0375 12.9897 11.3679 13.2507 10.79 13.66C10.4 13.916 9.971 14.109 9.52 14.23C9.07229 14.1084 8.64692 13.916 8.26 13.66C7.68134 13.2521 7.01206 12.9913 6.31 12.9C5.60753 12.9897 4.93788 13.2507 4.36 13.66C3.97308 13.916 3.54771 14.1084 3.1 14.23C2.64903 14.1088 2.2203 13.9164 1.83 13.66C1.28291 13.2759 0.658233 13.0165 0 12.9L0 14.3C0.424 14.434 0.828 14.626 1.2 14.87C1.79514 15.2801 2.48195 15.5377 3.2 15.62C3.89984 15.5264 4.56784 15.2695 5.15 14.87C5.534 14.606 5.96 14.41 6.41 14.29C6.86 14.41 7.286 14.606 7.67 14.87C8.26589 15.2787 8.95233 15.5361 9.67 15.62C10.3707 15.5298 11.0395 15.2726 11.62 14.87C12.008 14.6072 12.4373 14.4111 12.89 14.29C13.34 14.412 13.765 14.608 14.15 14.87C14.73 15.273 15.4 15.53 16.1 15.62C16.7833 15.5222 17.4341 15.2653 18 14.87C18.3846 14.6075 18.8105 14.4115 19.26 14.29C19.7127 14.4111 20.142 14.6072 20.53 14.87C21.11 15.273 21.78 15.53 22.48 15.62C23.1803 15.5283 23.8487 15.2712 24.43 14.87C24.814 14.606 25.24 14.41 25.69 14.29C26.14 14.41 26.566 14.606 26.95 14.87C27.5468 15.2769 28.2328 15.5341 28.95 15.62C29.6507 15.5298 30.3195 15.2726 30.9 14.87C31.2408 14.6339 31.6105 14.4423 32 14.3V12.9ZM28.85 21.19C28.4005 21.0685 27.9746 20.8725 27.59 20.61C27.0117 20.2031 26.3419 19.9455 25.64 19.86C24.9385 19.9471 24.269 20.2046 23.69 20.61C23.3054 20.8725 22.8795 21.0685 22.43 21.19C21.9773 21.0689 21.548 20.8728 21.16 20.61C20.5817 20.2031 19.9119 19.9455 19.21 19.86C18.509 19.949 17.84 20.2064 17.26 20.61C16.876 20.874 16.45 21.07 16 21.19C15.5498 21.0704 15.1236 20.8742 14.74 20.61C14.1464 20.1969 13.4588 19.9391 12.74 19.86C12.0381 19.9455 11.3683 20.2031 10.79 20.61C10.402 20.8728 9.97273 21.0689 9.52 21.19C9.0705 21.0685 8.64458 20.8725 8.26 20.61C7.68096 20.2046 7.01147 19.9471 6.31 19.86C5.60813 19.9455 4.93826 20.2031 4.36 20.61C3.97542 20.8725 3.5495 21.0685 3.1 21.19C2.64727 21.0689 2.21801 20.8728 1.83 20.61C1.28237 20.2289 0.657612 19.9728 0 19.86L0 21.25C0.42 21.393 0.823 21.584 1.2 21.82C1.79239 22.237 2.48015 22.4984 3.2 22.58C3.90167 22.4872 4.57059 22.2265 5.15 21.82C5.536 21.562 5.962 21.37 6.41 21.25C6.858 21.37 7.284 21.562 7.67 21.82C8.2632 22.2355 8.95056 22.4967 9.67 22.58C10.3725 22.4903 11.0421 22.2293 11.62 21.82C12.01 21.564 12.439 21.371 12.89 21.25C13.3377 21.3716 13.7631 21.564 14.15 21.82C14.7279 22.2293 15.3975 22.4903 16.1 22.58C16.7851 22.4825 17.4367 22.2218 18 21.82C18.3869 21.564 18.8123 21.3716 19.26 21.25C19.711 21.371 20.14 21.564 20.53 21.82C21.1079 22.2293 21.7775 22.4903 22.48 22.58C23.1821 22.4887 23.8513 22.2279 24.43 21.82C24.816 21.562 25.242 21.37 25.69 21.25C26.138 21.37 26.564 21.562 26.95 21.82C27.544 22.234 28.231 22.4951 28.95 22.58C29.6525 22.4903 30.3221 22.2293 30.9 21.82C31.277 21.584 31.68 21.393 32.1 21.25V19.86C31.425 19.9657 30.7824 20.222 30.22 20.61C29.8026 20.8854 29.3383 21.082 28.85 21.19ZM32 23.34C31.325 23.4457 30.6824 23.702 30.12 24.09C29.73 24.349 29.301 24.545 28.85 24.67C28.4022 24.544 27.9769 24.3483 27.59 24.09C27.0121 23.6807 26.3425 23.4197 25.64 23.33C24.9379 23.4213 24.2687 23.6821 23.69 24.09C23.3031 24.3483 22.8778 24.544 22.43 24.67C21.9788 24.5446 21.5502 24.3488 21.16 24.09C20.5821 23.6807 19.9125 23.4197 19.21 23.33C18.5083 23.4228 17.8394 23.6835 17.26 24.09C16.874 24.35 16.449 24.546 16 24.67C15.5514 24.546 15.1259 24.3501 14.74 24.09C14.1468 23.6745 13.4594 23.4133 12.74 23.33C12.0375 23.4197 11.3679 23.6807 10.79 24.09C10.4 24.349 9.971 24.545 9.52 24.67C9.07215 24.544 8.64694 24.3483 8.26 24.09C7.68134 23.6821 7.01206 23.4213 6.31 23.33C5.60753 23.4197 4.93788 23.6807 4.36 24.09C3.97306 24.3483 3.54785 24.544 3.1 24.67C2.64883 24.5446 2.22024 24.3488 1.83 24.09C1.28237 23.7088 0.657612 23.4528 0 23.34V24.73C0.42 24.873 0.823 25.064 1.2 25.3C1.79239 25.717 2.48015 25.9784 3.2 26.06C3.88426 25.9595 4.5352 25.6991 5.1 25.3C5.48598 25.0423 5.91164 24.8498 6.36 24.73C6.808 24.85 7.234 25.042 7.62 25.3C8.2132 25.7155 8.90056 25.9767 9.62 26.06C10.3225 25.9703 10.9921 25.7093 11.57 25.3C11.96 25.044 12.389 24.851 12.84 24.73C13.2877 24.8516 13.7131 25.044 14.1 25.3C14.6779 25.7093 15.3475 25.9703 16.05 26.06C16.7525 25.9703 17.4221 25.7093 18 25.3C18.3869 25.044 18.8123 24.8516 19.26 24.73C19.711 24.851 20.14 25.044 20.53 25.3C21.1079 25.7093 21.7775 25.9703 22.48 26.06C23.1821 25.9687 23.8513 25.7079 24.43 25.3C24.816 25.0423 25.2416 24.8498 25.69 24.73C26.138 24.85 26.564 25.042 26.95 25.3C27.544 25.714 28.231 25.9751 28.95 26.06C29.6525 25.9703 30.3221 25.7093 30.9 25.3C31.277 25.064 31.68 24.873 32.1 24.73V23.34H32Z" fill="#0052B4"/>
<path d="M21.9102 10.55H26.0902L24.0002 12.64L21.9102 10.55Z" fill="#6DA544"/>
<path d="M24.47 12.17H23.54V14.72H24.47V12.17ZM24.47 18.9H23.54V21.45H24.47V18.9Z" fill="#A2001D"/>
<path d="M26.7798 17.51C26.7695 17.2459 26.6847 16.9902 26.5352 16.7723C26.3857 16.5544 26.1776 16.3833 25.935 16.2787C25.6923 16.1741 25.425 16.1403 25.164 16.1812C24.9029 16.2222 24.6588 16.3361 24.4598 16.51V15.69H24.9298V14.76H24.4598V14.3H23.5398V14.76H23.0698V15.69H23.5398V16.51C23.2825 16.2843 22.952 16.1599 22.6098 16.16C22.3293 16.1607 22.0556 16.2462 21.8247 16.4053C21.5937 16.5643 21.4163 16.7896 21.3157 17.0514C21.2151 17.3131 21.196 17.5992 21.261 17.8721C21.326 18.1449 21.472 18.3917 21.6798 18.58V19.4H26.3198V18.58C26.4698 18.4459 26.5887 18.2807 26.6682 18.0959C26.7476 17.9111 26.7857 17.7111 26.7798 17.51Z" fill="#FFDA44"/>
<path d="M25.3901 17C25.276 17.0027 25.1663 17.0451 25.0801 17.12L24.4601 17.68H23.5401L22.9201 17.12C22.8546 17.062 22.7743 17.0234 22.6881 17.0085C22.6019 16.9937 22.5132 17.0032 22.4321 17.036C22.3472 17.0719 22.2749 17.1325 22.2246 17.2098C22.1744 17.2872 22.1484 17.3778 22.1501 17.47C22.1481 17.5343 22.1605 17.5982 22.1865 17.657C22.2124 17.7159 22.2513 17.7682 22.3001 17.81L22.6101 18.09V18.39H25.3901V18.09L25.7001 17.81C25.7503 17.7687 25.7907 17.7168 25.8183 17.658C25.846 17.5992 25.8603 17.535 25.8601 17.47C25.8601 17.3453 25.8106 17.2258 25.7225 17.1377C25.6343 17.0495 25.5148 17 25.3901 17Z" fill="#D80027"/>
<path d="M16 5.33002H0V16H16V5.33002Z" fill="#F0F0F0"/>
<path d="M9 5.33002H7V9.67002H0V11.67H7V16H9V11.67H16V9.67002H9V5.33002Z" fill="#D80027"/>
<path d="M0 5.33002V6.28002L3.59 8.67002H5L0 5.33002Z" fill="#D80027"/>
<path d="M0 6.75002V8.67002H2.88L0 6.75002ZM6 5.33002V8.39002L1.41 5.33002H6Z" fill="#2E52B2"/>
<path d="M16 5.33002V6.28002L12.41 8.67002H11L16 5.33002Z" fill="#D80027"/>
<path d="M16 6.75002V8.67002H13.12L16 6.75002ZM10 5.33002V8.39002L14.59 5.33002H10Z" fill="#2E52B2"/>
<path d="M0 5.33002V6.28002L3.59 8.67002H5L0 5.33002Z" fill="#D80027"/>
<path d="M0 6.75002V8.67002H2.88L0 6.75002ZM6 5.33002V8.39002L1.41 5.33002H6Z" fill="#2E52B2"/>
<path d="M16 5.33002V6.28002L12.41 8.67002H11L16 5.33002Z" fill="#D80027"/>
<path d="M16 6.75002V8.67002H13.12L16 6.75002ZM10 5.33002V8.39002L14.59 5.33002H10Z" fill="#2E52B2"/>
<path d="M0 16V15.06L3.59 12.67H5L0 16Z" fill="#D80027"/>
<path d="M0 14.59V12.67H2.88L0 14.59ZM6 16V12.94L1.41 16H6Z" fill="#2E52B2"/>
<path d="M16 16V15.06L12.41 12.67H11L16 16Z" fill="#D80027"/>
<path d="M16 14.59V12.67H13.12L16 14.59ZM10 16V12.94L14.59 16H10Z" fill="#2E52B2"/>
</g>
<defs>
<clipPath id="clip0_1913_541">
<rect width="32" height="32" fill="white"/>
</clipPath>
</defs>
</svg>
