<svg width="32" height="32" viewBox="0 0 32 32" fill="none" xmlns="http://www.w3.org/2000/svg">
<path d="M32 5.33002H0V26.66H32V5.33002Z" fill="#F0F0F0"/>
<path d="M32 5.33002H0V12.44H32V5.33002Z" fill="#D80027"/>
<path d="M32 19.55H0V26.66H32V19.55Z" fill="#0052B4"/>
<path d="M18.1002 13.55L17.3102 14.33C17.6356 14.6566 17.8281 15.0924 17.8504 15.5529C17.8727 16.0134 17.7232 16.4657 17.4308 16.8222C17.1385 17.1787 16.7242 17.4139 16.2682 17.4823C15.8123 17.5506 15.3472 17.4471 14.9632 17.192C14.7336 17.0397 14.5409 16.838 14.3993 16.6017C14.2576 16.3653 14.1705 16.1004 14.1443 15.8261C14.1182 15.5518 14.1536 15.2751 14.248 15.0163C14.3425 14.7574 14.4936 14.523 14.6902 14.33L13.9002 13.55C13.6174 13.82 13.3919 14.1442 13.2373 14.5033C13.0827 14.8624 13.002 15.249 13.0002 15.64C12.9396 16.0654 12.9711 16.4989 13.0925 16.9111C13.214 17.3233 13.4226 17.7046 13.7042 18.0292C13.9858 18.3538 14.3339 18.6141 14.7248 18.7925C15.1158 18.9709 15.5405 19.0632 15.9702 19.0632C16.3999 19.0632 16.8247 18.9709 17.2156 18.7925C17.6065 18.6141 17.9546 18.3538 18.2362 18.0292C18.5178 17.7046 18.7264 17.3233 18.8479 16.9111C18.9694 16.4989 19.0008 16.0654 18.9402 15.64C18.945 15.2534 18.8732 14.8697 18.7291 14.511C18.5849 14.1523 18.3712 13.8257 18.1002 13.55Z" fill="#6DA544"/>
<path d="M16.0001 14.53L16.2801 15.38H17.1701L16.4501 15.91L16.7201 16.76L16.0001 16.23L15.2801 16.76L15.5501 15.91L14.8301 15.38H15.7201L16.0001 14.53Z" fill="#FFDA44"/>
</svg>
