<svg width="32" height="32" viewBox="0 0 32 32" fill="none" xmlns="http://www.w3.org/2000/svg">
<path d="M8 5.33002H0V12.44H8V5.33002Z" fill="#CC0000"/>
<path d="M8 12.44H0V19.55H8V12.44Z" fill="white"/>
<path d="M8 19.55H0V26.66H8V19.55Z" fill="#CC0000"/>
<path d="M32 5.33002H8V26.66H32V5.33002Z" fill="#0092C8"/>
<path d="M12.5099 15.25L13.1899 13C13.2236 12.8984 13.2812 12.8064 13.3577 12.7316C13.4343 12.6568 13.5276 12.6014 13.6299 12.57L14.4899 12.3C14.5789 12.2705 14.661 12.2234 14.7314 12.1616C14.8019 12.0997 14.8591 12.0244 14.8999 11.94L15.0399 11.62C15.0842 11.5234 15.1041 11.4173 15.0979 11.3112C15.0916 11.2051 15.0595 11.1021 15.0042 11.0113C14.9489 10.9205 14.8722 10.8446 14.7808 10.7904C14.6894 10.7361 14.5861 10.7051 14.4799 10.7H14.2299C14.1681 10.6975 14.1092 10.673 14.0638 10.6309C14.0185 10.5889 13.9896 10.532 13.9823 10.4706C13.9751 10.4092 13.99 10.3472 14.0244 10.2957C14.0588 10.2443 14.1104 10.2068 14.1699 10.19L14.9099 9.96C15.0076 9.92842 15.1113 9.92041 15.2126 9.93663C15.314 9.95285 15.41 9.99284 15.493 10.0533C15.5759 10.1138 15.6433 10.1931 15.6897 10.2846C15.7361 10.3761 15.7601 10.4774 15.7599 10.58V11.2C15.7596 11.2714 15.7742 11.3421 15.8029 11.4074C15.8316 11.4728 15.8737 11.5314 15.9265 11.5795C15.9793 11.6276 16.0416 11.664 16.1093 11.6865C16.1771 11.709 16.2488 11.717 16.3199 11.71C16.4294 11.6936 16.5412 11.714 16.6378 11.7679C16.7344 11.8219 16.8104 11.9064 16.8539 12.0081C16.8973 12.1099 16.9058 12.2232 16.8779 12.3303C16.8501 12.4375 16.7875 12.5323 16.6999 12.6L15.9199 13.25C15.8154 13.338 15.7418 13.4572 15.7099 13.59L15.0499 16.07C15.0404 16.1263 15.0404 16.1837 15.0499 16.24V17.24C15.0505 17.3373 15.0722 17.4334 15.1137 17.5215C15.1551 17.6095 15.2153 17.6875 15.2899 17.75L16.2899 18.62C16.3738 18.6917 16.4767 18.7375 16.5861 18.7518C16.6955 18.7661 16.8067 18.7484 16.9063 18.7007C17.0058 18.6531 17.0894 18.5776 17.1468 18.4834C17.2043 18.3892 17.2331 18.2803 17.2299 18.17C17.2296 18.0364 17.1824 17.9071 17.0965 17.8047C17.0106 17.7024 16.8915 17.6334 16.7599 17.61L16.2899 17.52C16.1938 17.5033 16.1027 17.4652 16.0233 17.4085C15.9439 17.3518 15.8783 17.2781 15.8313 17.1926C15.7842 17.1072 15.757 17.0123 15.7516 16.9149C15.7461 16.8175 15.7627 16.7201 15.7999 16.63L17.2999 12.94C17.3635 12.7836 17.4854 12.6581 17.6399 12.59L18.5399 12.18C18.6525 12.1257 18.749 12.0429 18.8199 11.94L19.5299 10.82C19.5804 10.741 19.6123 10.6516 19.6233 10.5584C19.6342 10.4653 19.6239 10.3709 19.5931 10.2824C19.5623 10.1938 19.5118 10.1134 19.4454 10.0471C19.3791 9.98091 19.2985 9.9306 19.2099 9.9C19.1574 9.87773 19.1142 9.8382 19.0873 9.78797C19.0603 9.73774 19.0514 9.67982 19.0619 9.62381C19.0724 9.56779 19.1017 9.51705 19.145 9.47998C19.1883 9.44292 19.2429 9.42175 19.2999 9.42H20.1099C20.2271 9.41923 20.3424 9.44969 20.4439 9.50824C20.5455 9.56679 20.6296 9.65132 20.6876 9.75315C20.7457 9.85498 20.7755 9.97042 20.7742 10.0876C20.7728 10.2048 20.7403 10.3195 20.6799 10.42L20.4899 10.78C20.4416 10.8709 20.4197 10.9736 20.4269 11.0763C20.434 11.179 20.4698 11.2776 20.5303 11.361C20.5907 11.4443 20.6733 11.5091 20.7687 11.5478C20.8641 11.5865 20.9685 11.5977 21.0699 11.58C21.1778 11.5596 21.2893 11.5719 21.3902 11.6154C21.491 11.6589 21.5765 11.7315 21.6357 11.8241C21.6948 11.9166 21.7249 12.0247 21.7221 12.1344C21.7193 12.2442 21.6837 12.3506 21.6199 12.44L21.4799 12.64C21.4473 12.6902 21.4205 12.7438 21.3999 12.8L19.9899 16.8C19.9835 16.8668 19.9869 16.9342 19.9999 17V17.52C20.0051 17.6395 19.9781 17.7582 19.9219 17.8637C19.8656 17.9693 19.782 18.0578 19.6799 18.1201C19.5778 18.1824 19.4609 18.2162 19.3413 18.2179C19.2217 18.2196 19.1038 18.1893 18.9999 18.13H18.9499C18.8494 18.0696 18.7347 18.0371 18.6175 18.0357C18.5003 18.0344 18.3849 18.0642 18.2831 18.1223C18.1812 18.1803 18.0967 18.2644 18.0381 18.366C17.9796 18.4675 17.9491 18.5828 17.9499 18.7V18.86C17.9508 19.0188 18.009 19.1719 18.1137 19.2913C18.2184 19.4107 18.3626 19.4883 18.5199 19.51L21.1699 19.87C21.3239 19.8931 21.481 19.8574 21.6099 19.77L22.8599 19C22.9852 18.9207 23.0807 18.8021 23.1313 18.6628C23.182 18.5234 23.185 18.3712 23.1399 18.23L22.8099 17.23C22.7905 17.1729 22.7578 17.1213 22.7145 17.0794C22.6713 17.0375 22.6186 17.0064 22.561 16.9889C22.5034 16.9713 22.4424 16.9676 22.3831 16.9783C22.3238 16.9889 22.2678 17.0135 22.2199 17.05C22.1604 17.1011 22.0861 17.1319 22.0079 17.138C21.9297 17.1442 21.8516 17.1253 21.7848 17.0841C21.718 17.0429 21.6661 16.9816 21.6364 16.9089C21.6068 16.8363 21.601 16.7561 21.6199 16.68L22.3199 13.29C22.3426 13.1835 22.3908 13.0842 22.4605 13.0005C22.5302 12.9169 22.6192 12.8515 22.7199 12.81L23.8699 12.35C23.9501 12.3183 24.0232 12.2711 24.0849 12.211C24.1467 12.151 24.196 12.0792 24.2299 12L24.5399 11.26C24.6058 11.0955 24.6039 10.9117 24.5345 10.7486C24.4652 10.5856 24.3341 10.4566 24.1699 10.39L23.7199 10.22C23.6542 10.2048 23.5969 10.1647 23.5602 10.1081C23.5235 10.0515 23.5103 9.98283 23.5233 9.91664C23.5362 9.85044 23.5744 9.79188 23.6298 9.75332C23.6851 9.71476 23.7533 9.69923 23.8199 9.71H25.0199C25.1191 9.71041 25.2169 9.73317 25.3061 9.77659C25.3953 9.82002 25.4735 9.88299 25.535 9.96082C25.5965 10.0387 25.6397 10.1293 25.6613 10.2262C25.6829 10.323 25.6824 10.4234 25.6599 10.52L25.5099 11.16C25.4946 11.2262 25.4963 11.2951 25.515 11.3604C25.5337 11.4257 25.5687 11.4852 25.6167 11.5332C25.6647 11.5812 25.7242 11.6162 25.7895 11.6349C25.8548 11.6536 25.9237 11.6553 25.9899 11.64C26.0746 11.6191 26.1638 11.6264 26.244 11.6609C26.3241 11.6953 26.3908 11.7551 26.4339 11.831C26.4769 11.9069 26.4939 11.9947 26.4824 12.0812C26.4709 12.1677 26.4313 12.2481 26.3699 12.31L25.4599 13.24C25.3396 13.359 25.2713 13.5208 25.2699 13.69L25.2199 15.46C25.2199 15.5239 25.2072 15.5871 25.1824 15.646C25.1577 15.7049 25.1214 15.7583 25.0758 15.803C25.0302 15.8477 24.9761 15.8828 24.9167 15.9064C24.8573 15.9299 24.7938 15.9413 24.7299 15.94C24.656 15.9396 24.583 15.956 24.5163 15.9878C24.4496 16.0197 24.3909 16.0662 24.3448 16.1239C24.2986 16.1816 24.2661 16.249 24.2497 16.3211C24.2332 16.3931 24.2333 16.468 24.2499 16.54L24.3199 16.85C24.3467 16.9716 24.4074 17.0832 24.495 17.1718C24.5826 17.2604 24.6935 17.3224 24.8148 17.3507C24.9361 17.3789 25.063 17.3722 25.1807 17.3314C25.2984 17.2906 25.4021 17.2173 25.4799 17.12L25.6399 16.91C25.704 16.8257 25.7874 16.7581 25.8832 16.7128C25.9789 16.6676 26.0841 16.646 26.1899 16.65L27.5199 16.7C27.6367 16.7042 27.7526 16.6778 27.8561 16.6234C27.9596 16.5691 28.0471 16.4886 28.1099 16.39L28.6399 15.5C28.6706 15.4532 28.6881 15.3989 28.6904 15.343C28.6928 15.2871 28.6799 15.2316 28.6533 15.1823C28.6266 15.1331 28.5871 15.092 28.539 15.0635C28.4908 15.0349 28.4359 15.0199 28.3799 15.02C28.3284 15.0207 28.2776 15.0086 28.232 14.9847C28.1864 14.9609 28.1475 14.926 28.1187 14.8834C28.0899 14.8407 28.0722 14.7915 28.0672 14.7403C28.0622 14.6891 28.07 14.6374 28.0899 14.59L28.3999 13.83C28.4465 13.7089 28.5289 13.6048 28.6361 13.5316C28.7432 13.4584 28.8701 13.4194 28.9999 13.42H29.2999C29.4163 13.421 29.5303 13.4527 29.6304 13.512C29.7305 13.5713 29.8132 13.656 29.8701 13.7575C29.9269 13.859 29.9559 13.9738 29.9542 14.0901C29.9524 14.2065 29.9199 14.3203 29.8599 14.42L26.1299 20.11C26.0528 20.2345 26.0179 20.3807 26.0305 20.5266C26.0431 20.6726 26.1025 20.8105 26.1999 20.92L26.5699 21.31C26.6569 21.4032 26.7149 21.5197 26.7371 21.6452C26.7593 21.7708 26.7447 21.9001 26.695 22.0175C26.6453 22.1349 26.5626 22.2354 26.457 22.3068C26.3514 22.3782 26.2274 22.4175 26.0999 22.42L15.4399 22.62C15.3087 22.6187 15.1805 22.5806 15.0699 22.51L11.2599 20C11.1419 19.9234 11.0564 19.8058 11.0199 19.67C10.9986 19.5861 10.9968 19.4984 11.0144 19.4137C11.0321 19.329 11.0688 19.2494 11.1218 19.1809C11.1748 19.1125 11.2427 19.057 11.3204 19.0188C11.398 18.9805 11.4833 18.9604 11.5699 18.96H12.3599C12.4782 18.973 12.5978 18.9532 12.7057 18.9028C12.8136 18.8525 12.9055 18.7735 12.9715 18.6744C13.0376 18.5754 13.0751 18.4601 13.0801 18.3412C13.0851 18.2223 13.0574 18.1042 12.9999 18L12.9399 17.81C12.906 17.7106 12.8956 17.6047 12.9095 17.5006C12.9233 17.3965 12.9611 17.297 13.0199 17.21L13.3199 16.8L13.3999 16.69C13.4494 16.6149 13.4781 16.5281 13.4832 16.4384C13.4884 16.3487 13.4697 16.2592 13.4291 16.179C13.3885 16.0988 13.3274 16.0307 13.252 15.9817C13.1767 15.9327 13.0897 15.9045 12.9999 15.9C12.9203 15.9021 12.8414 15.8851 12.7696 15.8505C12.6979 15.8159 12.6355 15.7647 12.5876 15.7011C12.5396 15.6376 12.5076 15.5635 12.4941 15.485C12.4806 15.4065 12.486 15.3259 12.5099 15.25Z" fill="#FFCF00"/>
</svg>
