<svg width="32" height="32" viewBox="0 0 32 32" fill="none" xmlns="http://www.w3.org/2000/svg">
<path d="M32 5.32996H0V26.66H32V5.32996Z" fill="#D80027"/>
<path d="M11.18 11.85L12.1 14.67H15.06L12.66 16.41L13.58 19.23L11.18 17.48L8.78005 19.23L9.70005 16.41L7.30005 14.67H10.27L11.18 11.85ZM16.95 21.23L16.06 20.57L15.16 21.23L15.5 20.17L14.6 19.51H15.71L16.06 18.46L16.4 19.51H17.51L16.61 20.17L16.95 21.23ZM19.3 18H18.19L17.85 19.05L17.5 18H16.39L17.29 17.34L16.95 16.29L17.85 16.94L18.75 16.29L18.4 17.34L19.3 18ZM19.3 14L18.4 14.66L18.75 15.71L17.85 15.06L16.95 15.71L17.29 14.66L16.39 14H17.5L17.85 12.95L18.19 14H19.3ZM16.95 10.77L16.61 11.83L17.51 12.48H16.4L16.05 13.54L15.71 12.48H14.6L15.5 11.83L15.16 10.77L16.05 11.43L16.95 10.77Z" fill="#FFDA44"/>
</svg>
