<svg width="32" height="32" viewBox="0 0 32 32" fill="none" xmlns="http://www.w3.org/2000/svg">
<path d="M32 5.33002H0V26.66H32V5.33002Z" fill="#FFDA44"/>
<path d="M32 5.33002H0V12.44H32V5.33002ZM32 19.56H0V26.67H32V19.56Z" fill="#6DA544"/>
<path d="M16 16L0 26.67V5.33002L16 16Z" fill="#D80027"/>
<path d="M18.8802 14.14L19.3402 15.56H20.8302L19.6202 16.44L20.0802 17.86L18.8802 16.98L17.6702 17.86L18.1302 16.44L16.9302 15.56H18.4202L18.8802 14.14ZM23.5202 14.14L23.9802 15.56H25.4702L24.2602 16.44L24.7202 17.86L23.5202 16.98L22.3102 17.86L22.7702 16.44L21.5702 15.56H23.0502L23.5202 14.14Z" fill="black"/>
</svg>
