<svg width="32" height="32" viewBox="0 0 32 32" fill="none" xmlns="http://www.w3.org/2000/svg">
<path d="M32 5.33002H0V26.66H32V5.33002Z" fill="#91DC5A"/>
<path d="M32 5.33002H0V26.66H32V5.33002Z" fill="#F0F0F0"/>
<path d="M32 5.33002H0V8.90002H32V5.33002ZM32 23.09H0V26.66H32V23.09Z" fill="#0052B4"/>
<path d="M32 10.33H0V21.68H32V10.33Z" fill="#D80027"/>
<path d="M11.9 20.1C12.9874 20.1 14.0303 19.6681 14.7992 18.8992C15.5681 18.1303 16 17.0874 16 16C16 14.9126 15.5681 13.8698 14.7992 13.1009C14.0303 12.332 12.9874 11.9 11.9 11.9C10.8127 11.9 9.76981 12.332 9.00091 13.1009C8.23201 13.8698 7.80005 14.9126 7.80005 16C7.80005 17.0874 8.23201 18.1303 9.00091 18.8992C9.76981 19.6681 10.8127 20.1 11.9 20.1Z" fill="#F0F0F0"/>
<path d="M11.9 11.9L12.82 14.73H15.8L13.39 16.48L14.31 19.32L11.9 17.56L9.47999 19.32L10.41 16.48L7.98999 14.73H10.97L11.9 11.9Z" fill="#D80027"/>
</svg>
