<svg width="32" height="32" viewBox="0 0 32 32" fill="none" xmlns="http://www.w3.org/2000/svg">
<path d="M32 5.33002H0V26.66H32V5.33002Z" fill="#F0F0F0"/>
<path d="M32 5.33002H0V12.44H32V5.33002ZM32 19.56H0V26.67H32V19.56Z" fill="#0052B4"/>
<path d="M14.29 16.37L16 13.4L17.71 16.37H14.29Z" fill="#FFDA44"/>
<path d="M18.23 17.35L16 18.46L13.77 17.35V15.87H18.23V17.35Z" fill="#6DA544"/>
<path d="M18.1 13.53L17.31 14.32C17.483 14.4912 17.62 14.6953 17.7127 14.9203C17.8055 15.1453 17.8522 15.3867 17.85 15.63C17.8156 16.0985 17.6052 16.5366 17.2611 16.8563C16.917 17.176 16.4647 17.3537 15.995 17.3537C15.5253 17.3537 15.073 17.176 14.7289 16.8563C14.3848 16.5366 14.1744 16.0985 14.14 15.63C14.1397 15.386 14.1882 15.1444 14.2827 14.9195C14.3771 14.6945 14.5156 14.4907 14.69 14.32L13.9 13.53C13.4744 13.9472 13.1828 14.4816 13.0621 15.0651C12.9415 15.6487 12.9974 16.255 13.2227 16.8066C13.4479 17.3583 13.8324 17.8304 14.3271 18.1627C14.8217 18.495 15.4041 18.6725 16 18.6725C16.5959 18.6725 17.1783 18.495 17.6729 18.1627C18.1676 17.8304 18.5521 17.3583 18.7773 16.8066C19.0026 16.255 19.0585 15.6487 18.9379 15.0651C18.8173 14.4816 18.5256 13.9472 18.1 13.53Z" fill="#FFDA44"/>
</svg>
