<svg width="32" height="32" viewBox="0 0 32 32" fill="none" xmlns="http://www.w3.org/2000/svg">
<path d="M32 5.32996H0V26.66H32V5.32996Z" fill="black"/>
<path d="M5.5501 13.87C5.25674 15.2748 5.25674 16.7251 5.5501 18.13L16.0001 18.78L26.4501 18.13C26.7434 16.7251 26.7434 15.2748 26.4501 13.87" fill="#0052B4"/>
<path d="M26.4501 18.13H5.55005C6.03627 20.5432 7.34274 22.7138 9.2476 24.2732C11.1525 25.8325 13.5383 26.6845 16 26.6845C18.4618 26.6845 20.8476 25.8325 22.7525 24.2732C24.6574 22.7138 25.9638 20.5432 26.4501 18.13Z" fill="#F0F0F0"/>
<path d="M20.6401 13.87H11.3601L13.2601 12.97L12.2501 11.14L14.3101 11.53L14.5701 9.45996L16.0001 10.98L17.4301 9.45996L17.6901 11.53L19.7501 11.14L18.7401 12.97L20.6401 13.87Z" fill="#FFDA44"/>
<path d="M16 26.67L0 5.32996V26.67H16ZM32 26.67V5.32996L16 26.67H32Z" fill="#A2001D"/>
</svg>
