<svg width="32" height="32" viewBox="0 0 32 32" fill="none" xmlns="http://www.w3.org/2000/svg">
<path d="M30.61 25.28H13.91V6.73002H30.61V25.28ZM0 5.33002V26.67H32V5.33002H0Z" fill="#FFDA44"/>
<path d="M30.6099 6.71997H13.9099V25.27H30.6099V6.71997Z" fill="#A2001D"/>
<path d="M13.9099 6.71997H1.38989V25.27H13.9099V6.71997Z" fill="#D80027"/>
<path d="M13.91 5.33002H12.52V26.66H13.91V5.33002Z" fill="#FFDA44"/>
<path d="M6.95989 6.71997H1.38989V25.27H6.95989V6.71997Z" fill="#6DA544"/>
<path d="M12.53 6.71997H6.95996V25.27H12.53V6.71997Z" fill="#FF9811"/>
<path d="M22.4199 15.65V12.87C22.4199 12.41 21.7199 11.94 21.7199 11.94C21.7199 11.94 21.0299 12.41 21.0299 12.87H18.2399V15.65H19.6299V17C19.6319 17.296 19.6929 17.588 19.8099 17.86L19.1699 18.39H17.3199V9.84998C16.9486 9.84998 16.5925 9.99748 16.33 10.26C16.0674 10.5226 15.9199 10.8787 15.9199 11.25V17.25C15.9239 17.4403 15.9678 17.6276 16.0488 17.7999C16.1297 17.9721 16.246 18.1255 16.3899 18.25V20.46H17.3199V19.36H21.4899V21.22H20.5599V22.14H22.4199V20.29L23.2699 19.36H25.9999V21.22H25.0699V22.14H26.9999V20.29L27.8499 19.36L28.6399 16.85L27.9499 15.65H22.4199Z" fill="#FFDA44"/>
<path d="M23.1599 13.24V14.82H27.6299V15.65H27.9099V14.54H23.4399V13.52H28.1899V13.24H23.1599ZM15.2999 6.71997H13.9099V8.10997H15.2999V6.71997ZM30.6099 6.71997H29.2199V8.10997H30.6099V6.71997ZM15.2999 23.88H13.9099V25.27H15.2999V23.88ZM30.6099 23.88H29.2199V25.27H30.6099V23.88Z" fill="#FFDA44"/>
</svg>
