<svg width="32" height="32" viewBox="0 0 32 32" fill="none" xmlns="http://www.w3.org/2000/svg">
<path d="M32 5.33002H0V26.66H32V5.33002Z" fill="black"/>
<path d="M32 8.39001H0V11.44H32V8.39001ZM32 20.6H0V23.65H32V20.6Z" fill="#FFDA44"/>
<path d="M32 5.33002H0V8.38002H32V5.33002Z" fill="#6DA544"/>
<path d="M32 11.44H0V14.49H32V11.44ZM32 17.55H0V20.6H32V17.55Z" fill="#D80027"/>
<path d="M32 23.66H0V26.67H32V23.66Z" fill="#6DA544"/>
<path d="M17.31 16L6.65 26.67H0V5.33002H6.65L17.31 16Z" fill="#F0F0F0"/>
<path d="M16.0001 16L5.33008 26.67H6.64008L17.3101 16L6.64008 5.33002H5.33008L16.0001 16Z" fill="black"/>
<path d="M6.40014 12.66L7.23014 15.21H9.91014L7.75014 16.79L8.57014 19.34L6.40014 17.76L4.23014 19.34L5.06014 16.79L2.89014 15.21H5.58014L6.40014 12.66Z" fill="#D80027"/>
<path d="M8.67984 16.21L6.51984 15.44C6.51984 15.44 6.35984 14 6.34984 13.9C6.31771 13.6913 6.2072 13.5026 6.04082 13.3725C5.87444 13.2424 5.66471 13.1806 5.45436 13.1997C5.24401 13.2188 5.04886 13.3174 4.90867 13.4754C4.76849 13.6334 4.6938 13.8389 4.69984 14.05C4.68945 14.123 4.68945 14.1971 4.69984 14.27L4.08984 14.88H5.19984C5.19984 16 4.36984 16 4.36984 17.11L4.82984 18.23H7.60984L8.07984 17.11C8.12162 17.0077 8.14856 16.9 8.15984 16.79C8.28091 16.7331 8.38932 16.6524 8.47864 16.5527C8.56796 16.4531 8.63638 16.3366 8.67984 16.21Z" fill="#FFDA44"/>
</svg>
