<svg width="32" height="32" viewBox="0 0 32 32" fill="none" xmlns="http://www.w3.org/2000/svg">
<path d="M32 5.33002H0V26.66H32V5.33002Z" fill="#F0F0F0"/>
<path d="M16 16V26.67H0V16H16Z" fill="#0052B4"/>
<path d="M32 5.33002V16H16V5.33002H32Z" fill="#D80027"/>
<path d="M8.00012 7.69L8.74012 9.96H11.1301L9.20012 11.37L9.94012 13.64L8.00012 12.24L6.07012 13.64L6.80012 11.37L4.87012 9.96H7.26012L8.00012 7.69Z" fill="#0052B4"/>
<path d="M24.0001 18.36L24.7401 20.63H27.1301L25.2001 22.04L25.9301 24.31L24.0001 22.91L22.0701 24.31L22.8001 22.04L20.8701 20.63H23.2601L24.0001 18.36Z" fill="#D80027"/>
</svg>
