<svg width="32" height="32" viewBox="0 0 32 32" fill="none" xmlns="http://www.w3.org/2000/svg">
<path d="M32 5.33002H0V26.66H32V5.33002Z" fill="#6DA544"/>
<path d="M11.47 18.09C11.4674 18.2707 11.5005 18.4502 11.5675 18.6181C11.6346 18.786 11.7342 18.9389 11.8606 19.0681C11.987 19.1973 12.1378 19.3003 12.3041 19.3709C12.4705 19.4416 12.6492 19.4787 12.83 19.48H16.9C16.8971 19.7782 17.0102 20.0659 17.2155 20.2824C17.4207 20.4988 17.702 20.627 18 20.64H19.4C19.7033 20.6347 19.9922 20.5099 20.2038 20.2926C20.4154 20.0753 20.5327 19.7833 20.53 19.48V18.09H11.47ZM20.64 11.36V14.61C20.6427 14.8523 20.5497 15.0859 20.3812 15.26C20.2127 15.4341 19.9823 15.5347 19.74 15.54V16.93C20.3465 16.9195 20.9243 16.6698 21.3476 16.2352C21.7709 15.8007 22.0054 15.2166 22 14.61V11.36H20.64ZM10.91 14.61C10.9113 14.7308 10.8888 14.8507 10.8438 14.9628C10.7988 15.0749 10.7321 15.1771 10.6476 15.2635C10.5631 15.3498 10.4624 15.4187 10.3513 15.4661C10.2402 15.5136 10.1208 15.5387 10 15.54V16.93C10.3008 16.9263 10.598 16.8634 10.8744 16.7448C11.1509 16.6262 11.4012 16.4542 11.6111 16.2387C11.8211 16.0232 11.9864 15.7684 12.0978 15.4889C12.2091 15.2095 12.2642 14.9108 12.26 14.61V11.36H10.91V14.61Z" fill="#F0F0F0"/>
<path d="M19.96 11.36H18.6V14.61H19.96V11.36ZM16.57 13.22C16.5675 13.2802 16.5425 13.3373 16.4999 13.3799C16.4573 13.4225 16.4002 13.4475 16.34 13.45C16.279 13.45 16.2205 13.4258 16.1773 13.3826C16.1342 13.3395 16.11 13.281 16.11 13.22V11.36H14.75V13.22C14.7571 13.2535 14.7566 13.2882 14.7486 13.3215C14.7406 13.3548 14.7252 13.3859 14.7037 13.4125C14.6821 13.4391 14.6549 13.4605 14.624 13.4753C14.593 13.49 14.5592 13.4977 14.525 13.4977C14.4907 13.4977 14.4569 13.49 14.426 13.4753C14.3951 13.4605 14.3678 13.4391 14.3463 13.4125C14.3247 13.3859 14.3094 13.3548 14.3014 13.3215C14.2933 13.2882 14.2929 13.2535 14.3 13.22V11.36H12.94V13.22C12.9373 13.6453 13.103 14.0543 13.4009 14.3579C13.6988 14.6614 14.1047 14.8347 14.53 14.84C14.8528 14.8388 15.1672 14.7374 15.43 14.55C15.696 14.738 16.014 14.839 16.34 14.84H16.54C16.4933 15.0394 16.3813 15.2175 16.2219 15.3461C16.0625 15.4747 15.8648 15.5465 15.66 15.55V16.94C15.9607 16.9362 16.2578 16.8732 16.5342 16.7545C16.8106 16.6358 17.0609 16.4639 17.2708 16.2484C17.4807 16.0329 17.6461 15.7782 17.7575 15.4988C17.8688 15.2194 17.9241 14.9208 17.92 14.62V11.36H16.57V13.22Z" fill="#F0F0F0"/>
<path d="M14.9799 15.54H12.9399V16.93H14.9799V15.54Z" fill="#F0F0F0"/>
</svg>
