<svg width="32" height="32" viewBox="0 0 32 32" fill="none" xmlns="http://www.w3.org/2000/svg">
<path d="M32 5.33002H0V26.66H32V5.33002Z" fill="black"/>
<path d="M32 5.33002H0V12.44H32V5.33002Z" fill="#D80027"/>
<path d="M32 19.55H0V26.66H32V19.55Z" fill="#496E2D"/>
<path d="M17.5902 14.75L18.1502 15.52L19.0602 15.23L18.5002 16L19.0502 16.77L18.1502 16.48L17.5902 17.25V16.29L16.6802 16L17.5902 15.7V14.75Z" fill="#F0F0F0"/>
<path d="M16.0598 17.93C15.768 17.9254 15.4809 17.8545 15.2204 17.7228C14.9599 17.5912 14.7326 17.4021 14.5558 17.1698C14.3789 16.9375 14.2571 16.6682 14.1995 16.382C14.1419 16.0958 14.15 15.8003 14.2232 15.5177C14.2963 15.2351 14.4327 14.9728 14.622 14.7505C14.8113 14.5283 15.0485 14.3519 15.3158 14.2347C15.5832 14.1174 15.8737 14.0624 16.1654 14.0737C16.4571 14.085 16.7424 14.1624 16.9998 14.3C16.6657 13.9754 16.2434 13.7565 15.7855 13.6706C15.3277 13.5848 14.8547 13.6357 14.4257 13.8171C13.9966 13.9984 13.6305 14.3022 13.3732 14.6905C13.1158 15.0787 12.9785 15.5342 12.9785 16C12.9785 16.4658 13.1158 16.9213 13.3732 17.3095C13.6305 17.6978 13.9966 18.0016 14.4257 18.183C14.8547 18.3643 15.3277 18.4153 15.7855 18.3294C16.2434 18.2435 16.6657 18.0246 16.9998 17.7C16.7098 17.85 16.3868 17.93 16.0598 17.93Z" fill="#F0F0F0"/>
</svg>
