<svg width="22" height="24" viewBox="0 0 22 24" fill="none" xmlns="http://www.w3.org/2000/svg">
<path d="M20.7053 2.97909L12.1117 0.176304C11.3882 -0.0587681 10.6118 -0.0587681 9.8883 0.176304L1.29472 2.97909C0.853575 3.12375 0.535946 3.53965 0.5183 4.02788C0.394778 7.4093 0.606528 20.5191 10.8235 23.9729C10.9471 24.009 11.0706 24.009 11.1765 23.9729C21.3935 20.5191 21.6052 7.4093 21.4817 4.02788C21.4641 3.53965 21.1464 3.12375 20.7053 2.97909Z" fill="url(#paint0_linear_1911_4016)"/>
<path d="M20.7053 2.97909L12.1117 0.176304C11.3882 -0.0587681 10.6118 -0.0587681 9.8883 0.176304L1.29472 2.97909C0.853575 3.12375 0.535946 3.53965 0.5183 4.02788C0.394778 7.4093 0.606528 20.5191 10.8235 23.9729C10.9471 24.009 11.0706 24.009 11.1765 23.9729C21.3935 20.5191 21.6052 7.4093 21.4817 4.02788C21.4641 3.53965 21.1464 3.12375 20.7053 2.97909Z" fill="black" fill-opacity="0.4"/>
<g filter="url(#filter0_di_1911_4016)">
<path d="M17.9323 5.11019L11.7941 3.12488C11.2773 2.95837 10.7227 2.95837 10.2059 3.12488L4.06766 5.11019C3.75255 5.21266 3.52568 5.50725 3.51307 5.85308C3.42484 8.24826 3.57609 17.5344 10.874 19.9808C10.9622 20.0064 11.0504 20.0064 11.126 19.9808C18.4239 17.5344 18.5752 8.24826 18.4869 5.85308C18.4743 5.50725 18.2474 5.21266 17.9323 5.11019Z" fill="url(#paint1_linear_1911_4016)"/>
</g>
<defs>
<filter id="filter0_di_1911_4016" x="2.25" y="2.375" width="17.5" height="19.5" filterUnits="userSpaceOnUse" color-interpolation-filters="sRGB">
<feFlood flood-opacity="0" result="BackgroundImageFix"/>
<feColorMatrix in="SourceAlpha" type="matrix" values="0 0 0 0 0 0 0 0 0 0 0 0 0 0 0 0 0 0 127 0" result="hardAlpha"/>
<feOffset dy="0.625"/>
<feGaussianBlur stdDeviation="0.625"/>
<feComposite in2="hardAlpha" operator="out"/>
<feColorMatrix type="matrix" values="0 0 0 0 0 0 0 0 0 0 0 0 0 0 0 0 0 0 0.4 0"/>
<feBlend mode="normal" in2="BackgroundImageFix" result="effect1_dropShadow_1911_4016"/>
<feBlend mode="normal" in="SourceGraphic" in2="effect1_dropShadow_1911_4016" result="shape"/>
<feColorMatrix in="SourceAlpha" type="matrix" values="0 0 0 0 0 0 0 0 0 0 0 0 0 0 0 0 0 0 127 0" result="hardAlpha"/>
<feOffset dy="0.833333"/>
<feGaussianBlur stdDeviation="0.833333"/>
<feComposite in2="hardAlpha" operator="arithmetic" k2="-1" k3="1"/>
<feColorMatrix type="matrix" values="0 0 0 0 1 0 0 0 0 1 0 0 0 0 1 0 0 0 0.7 0"/>
<feBlend mode="normal" in2="shape" result="effect2_innerShadow_1911_4016"/>
</filter>
<linearGradient id="paint0_linear_1911_4016" x1="6.90737" y1="27.7226" x2="12.5123" y2="-1.01318" gradientUnits="userSpaceOnUse">
<stop stop-color="#8A6EFF"/>
<stop offset="1" stop-color="#25ECC6"/>
</linearGradient>
<linearGradient id="paint1_linear_1911_4016" x1="11.7031" y1="24.1286" x2="11.6176" y2="1.72924" gradientUnits="userSpaceOnUse">
<stop offset="0.00514267" stop-color="#6898EC"/>
<stop offset="0.140625" stop-color="#41CAD6"/>
<stop offset="0.651042" stop-color="#25ECC6"/>
<stop offset="1" stop-color="white"/>
</linearGradient>
</defs>
</svg>
