<svg width="32" height="32" viewBox="0 0 32 32" fill="none" xmlns="http://www.w3.org/2000/svg">
<path d="M32 5.25H0V26.58H32V5.25Z" fill="#0052B4"/>
<path d="M32 6.78003L3.73 16.14L32 25.5V26.75L0 16.14L32 5.53003V6.78003Z" fill="#D80027"/>
<path d="M32 23.39V25.5L3.72998 16.14L32 6.78003V8.90003" fill="#F0F0F0"/>
<path d="M30.8299 15.84H28.9999C29.2326 15.563 29.3525 15.2087 29.3358 14.8474C29.3191 14.4861 29.1671 14.1443 28.9099 13.89C29.046 13.7552 29.154 13.5947 29.2277 13.418C29.3014 13.2412 29.3394 13.0515 29.3394 12.86C29.3394 12.6685 29.3014 12.4788 29.2277 12.302C29.154 12.1252 29.046 11.9648 28.9099 11.83C29.1842 11.5513 29.3378 11.176 29.3378 10.785C29.3378 10.394 29.1842 10.0187 28.9099 9.73999L20.6899 18C20.9572 18.2614 21.3161 18.4078 21.6899 18.4078C22.0638 18.4078 22.4227 18.2614 22.6899 18L22.8499 17.86L26.7799 17.5V19.19H28.1199V17.37L30.1199 17.19L30.8299 15.84Z" fill="#A2001D"/>
<path d="M20.81 19.75L19.48 19.09L20.81 18.42H29.5V19.75H20.81Z" fill="#FFDA44"/>
</svg>
