<svg width="32" height="32" viewBox="0 0 32 32" fill="none" xmlns="http://www.w3.org/2000/svg">
<path d="M32 5.71997H0V27.05H32V5.71997Z" fill="#F0F0F0"/>
<path d="M32 5.71997H0V7.65997H32V5.71997ZM32 9.59997H0V11.54H32V9.59997ZM32 13.47H0V15.41H32V13.47ZM32 17.35H0V19.29H32V17.35ZM32 21.23H0V23.17H32V21.23ZM32 25.11H0V27.05H32V25.11Z" fill="#D80027"/>
<path d="M16 4.95001H0V15.42H16V4.95001Z" fill="#0052B4"/>
<path d="M8.00007 7.40002L8.69007 9.52002H10.9301L9.12007 10.84L9.81007 12.96L8.00007 11.65L6.19007 12.96L6.88007 10.84L5.07007 9.52002H7.31007L8.00007 7.40002Z" fill="#F0F0F0"/>
</svg>
