<svg width="32" height="32" viewBox="0 0 32 32" fill="none" xmlns="http://www.w3.org/2000/svg">
<path d="M32 5.32996H0V26.66H32V5.32996Z" fill="#FFDA44"/>
<path d="M0 12.44L32 25.39V22.47L17.08 16.57L0 9.53003V12.44Z" fill="black"/>
<path d="M32 22.47V19.56L0 6.60999V9.52998" fill="#F0F0F0"/>
<path d="M19 14.84C18.9993 15.2964 18.8944 15.7465 18.6934 16.1562C18.4925 16.5658 18.2007 16.9243 17.8403 17.2042C17.4799 17.4841 17.0605 17.6781 16.6138 17.7715C16.1671 17.8649 15.7051 17.8551 15.2627 17.7429C14.8204 17.6308 14.4095 17.4192 14.0613 17.1243C13.7131 16.8294 13.4367 16.459 13.2532 16.0412C13.0697 15.6233 12.984 15.1692 13.0025 14.7132C13.021 14.2573 13.1433 13.8116 13.36 13.41C12.6748 14.0979 12.2901 15.0292 12.29 16C12.29 16.984 12.6809 17.9276 13.3767 18.6234C14.0724 19.3192 15.0161 19.71 16 19.71C16.984 19.71 17.9276 19.3192 18.6234 18.6234C19.3192 17.9276 19.71 16.984 19.71 16C19.7127 15.0306 19.3316 14.0995 18.65 13.41C18.884 13.85 19.004 14.342 19 14.84Z" fill="#D80027"/>
<path d="M16.7001 11.36H15.3101V18.32H16.7001V11.36Z" fill="#D80027"/>
<path d="M18.32 12.75H13.68C13.6852 12.9056 13.7507 13.0532 13.8627 13.1614C13.9746 13.2696 14.1243 13.3301 14.28 13.33C14.28 13.4838 14.3411 13.6314 14.4499 13.7401C14.5586 13.8489 14.7062 13.91 14.86 13.91C14.86 13.9862 14.875 14.0616 14.9042 14.132C14.9333 14.2023 14.976 14.2663 15.0299 14.3201C15.0837 14.374 15.1477 14.4167 15.218 14.4459C15.2884 14.475 15.3638 14.49 15.44 14.49H16.6C16.7538 14.49 16.9014 14.4289 17.0101 14.3201C17.1189 14.2114 17.18 14.0638 17.18 13.91C17.3338 13.91 17.4814 13.8489 17.5901 13.7401C17.6989 13.6314 17.76 13.4838 17.76 13.33C17.9087 13.3201 18.0484 13.2553 18.1519 13.1481C18.2554 13.0409 18.3154 12.899 18.32 12.75ZM19.24 18.78H12.75V20.17H19.24V18.78Z" fill="#D80027"/>
<path d="M20.1701 19.25H17.3901V20.64H20.1701V19.25ZM14.6101 19.25H11.8301V20.64H14.6101V19.25Z" fill="#D80027"/>
</svg>
