<svg width="24" height="24" viewBox="0 0 24 24" fill="none" xmlns="http://www.w3.org/2000/svg">
<path fill-rule="evenodd" clip-rule="evenodd" d="M10.7197 1.7199C11.0126 1.42702 11.4875 1.42703 11.7803 1.71992L13.8182 3.75785C14.2282 4.1679 14.2282 4.83272 13.8182 5.24277L13.8182 5.24278L11.7803 7.28058C11.4874 7.57347 11.0126 7.57346 10.7197 7.28057C10.4268 6.98767 10.4268 6.5128 10.7197 6.21991L11.6827 5.2569C7.68774 5.42316 4.5 8.71447 4.5 12.7503C4.5 16.8924 7.85786 20.2503 12 20.2503C16.1421 20.2503 19.5 16.8924 19.5 12.7503C19.5 10.5104 18.519 8.50048 16.9607 7.12512C16.6502 6.85102 16.6206 6.37706 16.8947 6.06651C17.1688 5.75596 17.6428 5.72641 17.9533 6.00051C19.8205 7.64853 21 10.0621 21 12.7503C21 17.7209 16.9706 21.7503 12 21.7503C7.02944 21.7503 3 17.7209 3 12.7503C3 7.882 6.86536 3.9165 11.6945 3.7554L10.7197 2.78056C10.4268 2.48767 10.4268 2.01279 10.7197 1.7199ZM12.7571 4.81809L12.7575 4.8185L12.7575 4.81851C12.7574 4.81837 12.7572 4.81823 12.7571 4.81809Z" fill="white"/>
</svg>
