<svg width="32" height="32" viewBox="0 0 32 32" fill="none" xmlns="http://www.w3.org/2000/svg">
<path d="M32 5.32996H0V26.66H32V5.32996Z" fill="#0052B4"/>
<path d="M32 20.17H0V21.56H32V20.17Z" fill="#D80027"/>
<path d="M32 18.78H0V20.17H32V18.78ZM32 21.56H0V22.95H32V21.56Z" fill="#F0F0F0"/>
<path d="M11.27 16.33L11.46 16.91H12.07L11.58 17.27L11.77 17.84L11.27 17.49L10.78 17.84L10.97 17.27L10.48 16.91H11.09L11.27 16.33ZM11.27 23.9L11.46 24.47H12.07L11.58 24.83L11.77 25.41L11.27 25.05L10.78 25.41L10.97 24.83L10.48 24.47H11.09L11.27 23.9ZM7.74996 21.34L7.93996 21.91H8.54996L8.04996 22.27L8.23996 22.85L7.74996 22.49L7.25996 22.85L7.44996 22.27L6.95996 21.91H7.55996L7.74996 21.34ZM9.09996 17.09L9.28996 17.66H9.88996L9.39996 18.02L9.58996 18.6L9.09996 18.24L8.60996 18.6L8.78996 18.02L8.29996 17.66H8.90996L9.09996 17.09ZM6.95996 19.47H7.55996L7.74996 18.89L7.93996 19.47H8.54996L8.04996 19.82L8.23996 20.4L7.74996 20.05L7.25996 20.4L7.44996 19.82L6.95996 19.47ZM8.59996 24.54L8.78996 23.96L8.29996 23.61H8.90996L9.09996 23.03L9.27996 23.61H9.88996L9.39996 23.96L9.58996 24.54L9.09996 24.18L8.59996 24.54ZM14.79 21.34L14.61 21.91H14L14.49 22.27L14.3 22.85L14.79 22.49L15.29 22.85L15.1 22.27L15.59 21.91H14.98L14.79 21.34ZM13.45 17.09L13.26 17.66H12.65L13.14 18.02L12.96 18.6L13.45 18.24L13.94 18.6L13.75 18.02L14.24 17.66H13.64L13.45 17.09ZM15.59 19.47H14.98L14.79 18.89L14.61 19.47H14L14.49 19.82L14.3 20.4L14.79 20.05L15.29 20.4L15.1 19.82L15.59 19.47ZM13.94 24.54L13.75 23.96L14.24 23.61H13.64L13.45 23.03L13.26 23.61H12.65L13.14 23.96L12.96 24.54L13.45 24.18L13.94 24.54Z" fill="#FFDA44"/>
</svg>
