<svg width="32" height="32" viewBox="0 0 32 32" fill="none" xmlns="http://www.w3.org/2000/svg">
<path d="M32 5.34998H0.0300293V26.66H32V5.34998Z" fill="#6DA544"/>
<path d="M0 19.71H31.96V5.33997H0" fill="#A2001D"/>
<path d="M6.25 19.71V5.33997H0V26.66H31.96H6.25V19.71Z" fill="#F0F0F0"/>
<path d="M4.29006 15.23L3.13006 13.13L4.29006 11.06L5.44006 13.13L4.29006 15.23ZM1.97006 15.23L0.810059 13.13L1.97006 11.06L3.13006 13.13L1.97006 15.23ZM4.29006 20.94L3.13006 18.84L4.29006 16.77L5.44006 18.84L4.29006 20.94ZM1.97006 20.94L0.810059 18.84L1.97006 16.77L3.13006 18.84L1.97006 20.94ZM4.29006 26.66L3.13006 24.55L4.29006 22.49L5.44006 24.55L4.29006 26.66ZM1.97006 26.66L0.810059 24.55L1.97006 22.49L3.13006 24.55L1.97006 26.66ZM4.29006 9.50997L3.13006 7.40997L4.29006 5.33997L5.44006 7.40997L4.29006 9.50997ZM1.97006 9.50997L0.810059 7.40997L1.97006 5.33997L3.13006 7.40997L1.97006 9.50997Z" fill="#A2001D"/>
</svg>
