<svg width="32" height="32" viewBox="0 0 32 32" fill="none" xmlns="http://www.w3.org/2000/svg">
<path d="M32 5.33002H0V26.66H32V5.33002Z" fill="#FFDA44"/>
<path d="M23.99 26.67L16 15.77L17.68 26.67H23.99ZM8.35 5.33002L16 15.77L14.39 5.33002H8.35ZM14.32 26.67L16 15.77L8.01 26.67H14.32ZM0 5.33002V13.31L16 15.77L1.77 5.33002H0ZM0 26.67H1.14L16 15.77L0 18.23V26.67ZM16 15.77L32 13.31V5.33002H30.23L16 15.77ZM17.61 5.33002L16 15.77L23.65 5.33002H17.61Z" fill="#D80027"/>
<path d="M32 26.67V18.23L16 15.77L30.86 26.67H32Z" fill="#D80027"/>
<path d="M16 19.48C16.4872 19.48 16.9697 19.384 17.4198 19.1976C17.8699 19.0111 18.2789 18.7379 18.6234 18.3934C18.9679 18.0489 19.2412 17.6399 19.4276 17.1898C19.6141 16.7396 19.71 16.2572 19.71 15.77C19.71 15.2828 19.6141 14.8004 19.4276 14.3502C19.2412 13.9001 18.9679 13.4911 18.6234 13.1466C18.2789 12.8021 17.8699 12.5288 17.4198 12.3424C16.9697 12.156 16.4872 12.06 16 12.06C15.0161 12.06 14.0724 12.4509 13.3767 13.1466C12.6809 13.8424 12.29 14.786 12.29 15.77C12.29 16.754 12.6809 17.6976 13.3767 18.3934C14.0724 19.0891 15.0161 19.48 16 19.48Z" fill="#D80027"/>
<path d="M16 18.55C16.365 18.55 16.7265 18.4781 17.0638 18.3384C17.4011 18.1987 17.7076 17.9939 17.9657 17.7357C18.2239 17.4776 18.4286 17.1711 18.5684 16.8339C18.7081 16.4966 18.78 16.1351 18.78 15.77C18.78 15.4049 18.7081 15.0434 18.5684 14.7061C18.4286 14.3688 18.2239 14.0624 17.9657 13.8042C17.7076 13.5461 17.4011 13.3413 17.0638 13.2016C16.7265 13.0619 16.365 12.99 16 12.99C15.2627 12.99 14.5556 13.2829 14.0342 13.8042C13.5129 14.3256 13.22 15.0327 13.22 15.77C13.22 16.5073 13.5129 17.2144 14.0342 17.7357C14.5556 18.2571 15.2627 18.55 16 18.55Z" fill="#FFDA44"/>
</svg>
