<svg width="32" height="32" viewBox="0 0 32 32" fill="none" xmlns="http://www.w3.org/2000/svg">
<path d="M32 5.32996H0V26.66H32V5.32996Z" fill="#FF9811"/>
<path d="M32 5.32996H0V26.67" fill="#FFDA44"/>
<path d="M22 11.36V9.51001H18.48L18.21 9.78001C17.8556 10.1675 17.6062 10.6392 17.4854 11.1503C17.3646 11.6614 17.3765 12.1948 17.52 12.7C17.63 13.46 17.65 13.75 17.36 14.03C17.07 14.31 16.79 14.31 16.02 14.2C15.5173 14.0551 14.9858 14.0416 14.4763 14.1606C13.9669 14.2797 13.4965 14.5274 13.11 14.88C12.7564 15.268 12.5075 15.7397 12.3868 16.2506C12.2661 16.7615 12.2775 17.2948 12.42 17.8C12.53 18.56 12.54 18.85 12.26 19.14C11.98 19.43 11.68 19.41 10.92 19.3C10.6131 19.2438 10.302 19.2137 9.98999 19.21V21.06C10.221 21.071 10.451 21.094 10.68 21.13C11.01 21.19 11.345 21.22 11.68 21.22C12.0509 21.2179 12.4178 21.1432 12.76 21V22.48H15.54V21.1H14.15V20.17H15.08V18.78H14.34C14.3559 18.3617 14.3291 17.9429 14.26 17.53C14.15 16.77 14.13 16.48 14.42 16.19C14.71 15.9 14.99 15.92 15.76 16.03C16.4571 16.1917 17.1859 16.1501 17.86 15.91V17.39H20.64V16H19.25V15.07H20.18V13.68H19.44C19.4559 13.2617 19.4291 12.8429 19.36 12.43C19.2739 12.0785 19.2739 11.7115 19.36 11.36H22Z" fill="#F0F0F0"/>
</svg>
