<svg width="32" height="32" viewBox="0 0 32 32" fill="none" xmlns="http://www.w3.org/2000/svg">
<path d="M32 5.32996H0V26.66H32V5.32996Z" fill="#F0F0F0"/>
<path d="M32 19.56H0V26.67H32V19.56ZM20.17 14.14V12.75H20.64V11.83H19.71V12.29H18.78V11.83H17.86V12.75H18.32V14.14H17.39V10.9H17.86V9.96997H16.93V10.43H16.46V9.96997H15.54V10.43H15.07V9.96997H14.14V10.9H14.61V14.14H13.68V12.75H14.14V11.83H13.22V12.29H12.29V11.83H11.36V12.75H11.83V14.14H10.9V17.85H21.1V14.14H20.17Z" fill="#D80027"/>
<path d="M16.0001 19.25C15.9068 19.252 15.8149 19.2261 15.7364 19.1757C15.6578 19.1253 15.596 19.0526 15.5588 18.9669C15.5217 18.8812 15.511 18.7864 15.528 18.6946C15.545 18.6028 15.5889 18.5181 15.6542 18.4514C15.7196 18.3846 15.8033 18.3389 15.8947 18.3199C15.9861 18.301 16.0811 18.3097 16.1676 18.3449C16.2541 18.3802 16.3281 18.4404 16.3802 18.5179C16.4323 18.5954 16.4601 18.6866 16.4601 18.78C16.4615 18.8413 16.4506 18.9022 16.428 18.9591C16.4055 19.0161 16.3718 19.068 16.329 19.1118C16.2861 19.1555 16.235 19.1903 16.1785 19.2141C16.122 19.2378 16.0614 19.25 16.0001 19.25ZM16.0001 17.39C15.6728 17.3911 15.3563 17.5077 15.1065 17.7193C14.8567 17.9309 14.6896 18.2238 14.6346 18.5466C14.5796 18.8693 14.6403 19.201 14.806 19.4834C14.9716 19.7657 15.2316 19.9806 15.5401 20.09V22H14.1401V23.85H16.4601V20.09C16.7687 19.9806 17.0287 19.7657 17.1943 19.4834C17.36 19.201 17.4206 18.8693 17.3657 18.5466C17.3107 18.2238 17.1436 17.9309 16.8938 17.7193C16.644 17.5077 16.3275 17.3911 16.0001 17.39Z" fill="#FFDA44"/>
</svg>
