<svg width="32" height="32" viewBox="0 0 32 32" fill="none" xmlns="http://www.w3.org/2000/svg">
<path d="M32 5.32996H0V26.66H32V5.32996Z" fill="#FFDA44"/>
<path d="M10.67 5.32996H0V26.66H10.67V5.32996ZM32 5.32996H21.33V26.66H32V5.32996Z" fill="#0052B4"/>
<path d="M19.2501 11.83L19.8701 12.14L19.2501 11.83L18.6201 11.51C18.0243 12.8553 17.6852 14.3001 17.6201 15.77H16.7001V11.83L16.0001 10.9L15.3001 11.83V15.77H14.3601C14.295 14.3001 13.9559 12.8553 13.3601 11.51L12.1101 12.14C12.7101 13.5 13.0141 14.973 13.0001 16.46V17.16H15.3001V21.1H16.7001V17.16H19.0001V16.46C19.0041 15.402 19.1481 14.35 19.4301 13.33C19.5391 12.922 19.6831 12.524 19.8601 12.14L19.2501 11.83Z" fill="black"/>
</svg>
