<svg width="32" height="32" viewBox="0 0 32 32" fill="none" xmlns="http://www.w3.org/2000/svg">
<path d="M32 5.32996H0V26.66H32V5.32996Z" fill="#D80027"/>
<path d="M32 5.32996H0V12.44H32V5.32996Z" fill="#338AF3"/>
<path d="M32 19.5601H0V26.6701H32V19.5601Z" fill="#6DA544"/>
<path d="M16.2 18.6001C15.7052 18.5977 15.2213 18.4542 14.8051 18.1865C14.3889 17.9188 14.0577 17.538 13.8503 17.0887C13.6429 16.6395 13.5678 16.1404 13.634 15.65C13.7002 15.1596 13.9049 14.6982 14.224 14.3201C14.609 13.8652 15.1386 13.5565 15.724 13.4454C16.3094 13.3344 16.9152 13.4278 17.44 13.7101C16.9895 13.2703 16.4192 12.9732 15.8006 12.856C15.182 12.7388 14.5426 12.8067 13.9624 13.0511C13.3822 13.2956 12.887 13.7057 12.5388 14.2303C12.1906 14.7548 12.0049 15.3705 12.0049 16.0001C12.0049 16.6296 12.1906 17.2453 12.5388 17.7698C12.887 18.2944 13.3822 18.7045 13.9624 18.949C14.5426 19.1934 15.182 19.2613 15.8006 19.1441C16.4192 19.0269 16.9895 18.7298 17.44 18.2901C17.0591 18.4954 16.6328 18.6019 16.2 18.6001Z" fill="#F0F0F0"/>
<path d="M18.1999 14.2L18.5399 15.17L19.4699 14.73L19.0299 15.65L19.9999 16L19.0299 16.34L19.4699 17.27L18.5399 16.83L18.1999 17.8L17.8599 16.83L16.9299 17.27L17.3699 16.34L16.3999 16L17.3699 15.65L16.9299 14.73L17.8599 15.17L18.1999 14.2Z" fill="#F0F0F0"/>
</svg>
