<svg width="32" height="32" viewBox="0 0 32 32" fill="none" xmlns="http://www.w3.org/2000/svg">
<path d="M32 5.33002H0V26.66H32V5.33002Z" fill="#F0F0F0"/>
<path d="M32 5.33002H0V12.44H32V5.33002Z" fill="#D80027"/>
<path d="M32 19.56H0V26.67H32V19.56Z" fill="black"/>
<path d="M11.71 13.45L12.28 15.22H14.14L12.64 16.32L13.21 18.09L11.71 16.99L10.2 18.09L10.78 16.32L9.27002 15.22H11.13L11.71 13.45ZM20.29 13.45L20.87 15.22H22.73L21.22 16.32L21.8 18.09L20.29 16.99L18.79 18.09L19.36 16.32L17.85 15.22H19.72L20.29 13.45Z" fill="#6DA544"/>
</svg>
