<svg width="32" height="32" viewBox="0 0 32 32" fill="none" xmlns="http://www.w3.org/2000/svg">
<path d="M32 5.33002H0V26.66H32V5.33002Z" fill="#F0F0F0"/>
<path d="M17.85 14.58H18.46L18.15 15.11L17.85 14.58ZM18.46 17.42H17.85L18.15 16.89L18.46 17.42ZM16 18.84L15.7 18.31H16.3L16 18.84ZM13.54 17.42L13.85 16.89L14.15 17.42H13.54ZM13.54 14.58H14.15L13.85 15.11L13.54 14.58ZM16 13.16L16.3 13.69H15.7L16 13.16ZM17.64 16L16.82 17.42H15.18L14.36 16L15.18 14.58H16.82L17.64 16ZM20 13.69H17.33L16 11.38L14.67 13.69H12L13.33 16L12 18.31H14.67L16 20.62L17.33 18.31H20L18.67 16L20 13.69ZM32 6.66998H0V9.33998H32V6.66998ZM32 22.67H0V25.34H32V22.67Z" fill="#2E52B2"/>
</svg>
