<svg width="32" height="32" viewBox="0 0 32 32" fill="none" xmlns="http://www.w3.org/2000/svg">
<path d="M32 5.33002H0V26.66H32V5.33002Z" fill="#F0F0F0"/>
<path d="M10.67 5.33002H0V26.66H10.67V5.33002ZM32 5.33002H21.33V26.66H32V5.33002Z" fill="#338AF3"/>
<path d="M19 17.92L17.06 15.98L18.91 14.13L18.83 13.15L18.3 12.62L16 14.92L13.7 12.62L13.17 13.15L13.09 14.13L14.94 15.98L12.99 17.92L14.05 18.98L16 17.04L17.94 18.98L19 17.92Z" fill="#ACABB1"/>
<path d="M18.83 13.15L17.77 14.21C18.119 14.5599 18.3565 15.0054 18.4524 15.4902C18.5484 15.9749 18.4985 16.4773 18.3091 16.9337C18.1197 17.3902 17.7993 17.7802 17.3883 18.0547C16.9773 18.3291 16.4942 18.4756 16 18.4756C15.5058 18.4756 15.0227 18.3291 14.6117 18.0547C14.2007 17.7802 13.8803 17.3902 13.6909 16.9337C13.5015 16.4773 13.4516 15.9749 13.5476 15.4902C13.6435 15.0054 13.881 14.5599 14.23 14.21L13.17 13.15C12.611 13.7096 12.2305 14.4224 12.0765 15.1982C11.9226 15.974 12.002 16.778 12.3049 17.5086C12.6078 18.2393 13.1205 18.8637 13.7782 19.3031C14.4359 19.7424 15.2091 19.9769 16 19.9769C16.7909 19.9769 17.5641 19.7424 18.2218 19.3031C18.8795 18.8637 19.3922 18.2393 19.6951 17.5086C19.998 16.778 20.0774 15.974 19.9235 15.1982C19.7695 14.4224 19.389 13.7096 18.83 13.15Z" fill="#6DA544"/>
</svg>
