<svg width="32" height="32" viewBox="0 0 32 32" fill="none" xmlns="http://www.w3.org/2000/svg">
<path d="M32 5.33002H0V26.66H32V5.33002Z" fill="#F0F0F0"/>
<path d="M32 5.33002H0V12.44H32V5.33002Z" fill="#6DA544"/>
<path d="M32 19.55H0V26.66H32V19.55Z" fill="#D80027"/>
<path d="M16 16L0 26.67V5.33002L16 16Z" fill="#0052B4"/>
<path d="M17.49 13.73V16.51C17.49 18.21 19.71 18.73 19.71 18.73C19.71 18.73 21.93 18.21 21.93 16.51V13.73H17.49Z" fill="#DEDDE0"/>
<path d="M20.2699 16.01H19.1599V17.62H20.2699V16.01Z" fill="#786145"/>
<path d="M20.82 15.4C20.82 15.2542 20.7913 15.1099 20.7355 14.9752C20.6797 14.8405 20.598 14.7182 20.4949 14.6151C20.3918 14.512 20.2694 14.4303 20.1348 14.3745C20.0001 14.3187 19.8558 14.29 19.71 14.29C19.5642 14.29 19.4199 14.3187 19.2852 14.3745C19.1505 14.4303 19.0282 14.512 18.9251 14.6151C18.822 14.7182 18.7403 14.8405 18.6845 14.9752C18.6287 15.1099 18.6 15.2542 18.6 15.4C18.5209 15.3893 18.4404 15.3957 18.3639 15.4187C18.2875 15.4418 18.2168 15.4809 18.1567 15.5334C18.0966 15.586 18.0484 15.6508 18.0154 15.7235C17.9824 15.7962 17.9653 15.8751 17.9653 15.955C17.9653 16.0348 17.9824 16.1137 18.0154 16.1865C18.0484 16.2592 18.0966 16.324 18.1567 16.3765C18.2168 16.4291 18.2875 16.4682 18.3639 16.4912C18.4404 16.5142 18.5209 16.5206 18.6 16.51H20.82C20.8997 16.5217 20.981 16.5162 21.0584 16.4937C21.1358 16.4712 21.2074 16.4323 21.2684 16.3796C21.3294 16.3269 21.3784 16.2618 21.4119 16.1885C21.4455 16.1152 21.4628 16.0356 21.4628 15.955C21.4628 15.8744 21.4455 15.7947 21.4119 15.7215C21.3784 15.6482 21.3294 15.583 21.2684 15.5303C21.2074 15.4777 21.1358 15.4388 21.0584 15.4163C20.981 15.3938 20.8997 15.3882 20.82 15.4Z" fill="#6DA544"/>
</svg>
