<svg width="32" height="32" viewBox="0 0 32 32" fill="none" xmlns="http://www.w3.org/2000/svg">
<path d="M32 5.32996H0V26.66H32V5.32996Z" fill="#496E2D"/>
<path d="M13.817 20.638C14.4261 20.6196 15.0255 20.4814 15.5812 20.2314C16.1369 19.9813 16.6379 19.6242 17.0555 19.1805C17.4732 18.7369 17.7994 18.2153 18.0155 17.6455C18.2316 17.0758 18.3334 16.469 18.315 15.86C18.2966 15.2509 18.1584 14.6514 17.9084 14.0957C17.6583 13.5401 17.3012 13.0391 16.8575 12.6214C16.4139 12.2037 15.8923 11.8775 15.3225 11.6614C14.7528 11.4454 14.1461 11.3436 13.537 11.362C12.3069 11.3991 11.142 11.9234 10.2984 12.8194C9.45489 13.7155 9.00185 14.9099 9.03898 16.14C9.07611 17.37 9.60036 18.535 10.4964 19.3785C11.3925 20.2221 12.5869 20.6751 13.817 20.638Z" fill="#D80027"/>
</svg>
