<svg width="32" height="32" viewBox="0 0 32 32" fill="none" xmlns="http://www.w3.org/2000/svg">
<path d="M32 5.32996H0V26.66H32V5.32996Z" fill="#F0F0F0"/>
<path d="M32 5.32996H0V12.44H32V5.32996ZM32 19.56H0V26.67H32V19.56Z" fill="#338AF3"/>
<path d="M18.5502 15.9999L17.5102 16.4899L18.0602 17.4999L16.9302 17.2799L16.7902 18.4299L16.0002 17.5899L15.2102 18.4299L15.0702 17.2799L13.9402 17.4999L14.4902 16.4899L13.4502 15.9999L14.4902 15.5099L13.9402 14.4999L15.0702 14.7199L15.2102 13.5699L16.0002 14.4099L16.7902 13.5699L16.9302 14.7199L18.0602 14.4999L17.5102 15.5099L18.5502 15.9999Z" fill="#FFDA44"/>
</svg>
