<svg width="32" height="32" viewBox="0 0 32 32" fill="none" xmlns="http://www.w3.org/2000/svg">
<path d="M32 5.33002H0V26.66H32V5.33002Z" fill="#A2001D"/>
<path d="M32 5.33002V15.75L0 16.01V5.33002H32Z" fill="#0052B4"/>
<path d="M19.71 18.78L16 18.32L12.29 18.78V13.22H19.71V18.78Z" fill="#F0F0F0"/>
<path d="M15.9999 18.32C16.4932 18.32 16.9663 18.124 17.3151 17.7752C17.6639 17.4264 17.8599 16.9533 17.8599 16.46C17.8599 15.9667 17.6639 15.4936 17.3151 15.1448C16.9663 14.7959 16.4932 14.6 15.9999 14.6C15.5066 14.6 15.0335 14.7959 14.6847 15.1448C14.3359 15.4936 14.1399 15.9667 14.1399 16.46C14.1399 16.9533 14.3359 17.4264 14.6847 17.7752C15.0335 18.124 15.5066 18.32 15.9999 18.32Z" fill="#0052B4"/>
<path d="M16.0001 17.39C16.2467 17.39 16.4833 17.292 16.6577 17.1176C16.8321 16.9432 16.9301 16.7067 16.9301 16.46C16.9301 16.2134 16.8321 15.9768 16.6577 15.8024C16.4833 15.628 16.2467 15.53 16.0001 15.53C15.7534 15.53 15.5169 15.628 15.3425 15.8024C15.1681 15.9768 15.0701 16.2134 15.0701 16.46C15.0701 16.7067 15.1681 16.9432 15.3425 17.1176C15.5169 17.292 15.7534 17.39 16.0001 17.39Z" fill="#A2001D"/>
<path d="M14.6101 14.15H17.3901L16.0001 15.54L14.6101 14.15Z" fill="#6DA544"/>
<path d="M16.47 15.07H15.54V17.85H16.47V15.07Z" fill="#FFDA44"/>
<path d="M17.48 17.58H14.52L12.29 18.78H19.71L17.48 17.58Z" fill="#6DA544"/>
</svg>
