<svg width="32" height="32" viewBox="0 0 32 32" fill="none" xmlns="http://www.w3.org/2000/svg">
<path d="M32 5.32996H0V26.66H32V5.32996Z" fill="#D80027"/>
<path d="M13.49 16L0 25V7.01001L13.49 16ZM32 7.01001V25L18.51 16L32 7.01001Z" fill="#6DA544"/>
<path d="M32 7.00996L18.51 16L32 24.99V26.67H29.49L16 17.67L2.51 26.67H0V24.99L13.49 16L0 7.00996V5.32996H2.51L16 14.33L29.49 5.32996H32V7.00996Z" fill="#0052B4"/>
<path d="M32 7.00996L18.51 16L32 24.99V26.67H29.49L16 17.67L2.51 26.67H0V24.99L13.49 16L0 7.00996V5.32996H2.51L16 14.33L29.49 5.32996H32V7.00996Z" fill="#F0F0F0"/>
<path d="M16.0001 20.64C17.2307 20.64 18.4109 20.1511 19.2811 19.281C20.1513 18.4108 20.6401 17.2306 20.6401 16C20.6401 14.7694 20.1513 13.5892 19.2811 12.719C18.4109 11.8488 17.2307 11.36 16.0001 11.36C14.7695 11.36 13.5893 11.8488 12.7191 12.719C11.849 13.5892 11.3601 14.7694 11.3601 16C11.3601 17.2306 11.849 18.4108 12.7191 19.281C13.5893 20.1511 14.7695 20.64 16.0001 20.64Z" fill="#F0F0F0"/>
<path d="M16 12.75L16.4 13.45H17.2L16.8 14.14L17.2 14.84H16.4L16 15.54L15.6 14.84H14.79L15.2 14.14L14.79 13.45H15.6L16 12.75ZM13.96 16L14.36 16.7H15.16L14.76 17.39L15.16 18.09H14.36L13.96 18.78L13.56 18.09H12.75L13.15 17.39L12.75 16.7H13.56L13.96 16ZM18.04 16L18.44 16.7H19.25L18.84 17.39L19.25 18.09H18.44L18.04 18.78L17.64 18.09H16.84L17.24 17.39L16.84 16.7H17.64L18.04 16Z" fill="#D80027"/>
</svg>
