<svg width="32" height="32" viewBox="0 0 32 32" fill="none" xmlns="http://www.w3.org/2000/svg">
<path d="M32 5.32996H0V26.66H32V5.32996Z" fill="#496E2D"/>
<path d="M0 14V18H32V14H0Z" fill="black"/>
<path d="M32 14H0V15.33H32V14Z" fill="#FFDA44"/>
<path d="M32 16.67H0V18H32V16.67Z" fill="#F0F0F0"/>
<path d="M18 5.32996H14V26.66H18V5.32996Z" fill="black"/>
<path d="M15.33 5.32996H14V26.66H15.33V5.32996Z" fill="#FFDA44"/>
<path d="M17.9999 5.32996H16.6699V26.66H17.9999V5.32996Z" fill="#F0F0F0"/>
<path d="M15.9999 21.1C16.6696 21.1 17.3328 20.9681 17.9516 20.7118C18.5703 20.4555 19.1326 20.0798 19.6061 19.6063C20.0797 19.1327 20.4554 18.5705 20.7117 17.9517C20.968 17.3329 21.0999 16.6698 21.0999 16C21.0999 15.3303 20.968 14.6671 20.7117 14.0483C20.4554 13.4296 20.0797 12.8674 19.6061 12.3938C19.1326 11.9202 18.5703 11.5445 17.9516 11.2882C17.3328 11.0319 16.6696 10.9 15.9999 10.9C14.6473 10.9 13.3501 11.4373 12.3937 12.3938C11.4372 13.3502 10.8999 14.6474 10.8999 16C10.8999 17.3526 11.4372 18.6498 12.3937 19.6063C13.3501 20.5627 14.6473 21.1 15.9999 21.1Z" fill="#D80027"/>
<path d="M17.16 16.57C16.78 15.81 16.29 15.04 16.29 15.04V14.48C16.2898 14.3289 16.2296 14.184 16.1228 14.0772C16.0159 13.9704 15.8711 13.9102 15.72 13.91C15.5782 13.9096 15.4415 13.9631 15.3375 14.0596C15.2336 14.1561 15.1702 14.2885 15.16 14.43C15.0613 14.4354 14.9671 14.4732 14.892 14.5376C14.8169 14.602 14.7651 14.6893 14.7446 14.786C14.7241 14.8828 14.7361 14.9836 14.7786 15.0729C14.8212 15.1622 14.892 15.2349 14.98 15.28C15.0144 15.1966 15.0661 15.1214 15.1315 15.0593C15.197 14.9973 15.2749 14.9498 15.36 14.92C15.3851 14.9465 15.4159 14.967 15.45 14.98H15.52C15.383 15.357 15.292 15.75 15.25 16.15C15.2143 16.4529 15.2659 16.7598 15.3987 17.0345C15.5316 17.3091 15.7403 17.54 16 17.7L15.62 18.08H16.38V17.32L16.76 17.7C16.9523 17.592 17.0988 17.418 17.1724 17.2101C17.2459 17.0023 17.2416 16.7748 17.16 16.57ZM16 11.83L16.17 12.36H16.73L16.28 12.69L16.45 13.22L16 12.89L15.55 13.22L15.72 12.69L15.27 12.36H15.83L16 11.83ZM13.55 12.62L14 12.95L14.45 12.62L14.28 13.15L14.73 13.48H14.17L14 14.02L13.83 13.48H13.27L13.72 13.15L13.55 12.62ZM12.03 14.71H12.59L12.76 14.18L12.93 14.71H13.49L13.04 15.04L13.21 15.57L12.76 15.24L12.31 15.57L12.48 15.04L12.03 14.71ZM12.03 17.29L12.48 16.96L12.31 16.43L12.76 16.76L13.21 16.43L13.04 16.96L13.49 17.29H12.93L12.76 17.82L12.59 17.29H12.03ZM13.55 19.38L13.72 18.85L13.27 18.52H13.83L14 17.99L14.17 18.52H14.73L14.28 18.85L14.45 19.38L14 19.05L13.55 19.38ZM16 20.18L15.83 19.64H15.27L15.72 19.32L15.55 18.78L16 19.11L16.45 18.78L16.28 19.32L16.73 19.64H16.17L16 20.18ZM18.45 19.38L18 19.05L17.55 19.38L17.72 18.85L17.27 18.52H17.83L18 17.99L18.17 18.52H18.73L18.28 18.85L18.45 19.38ZM19.97 17.29H19.41L19.24 17.82L19.07 17.29H18.51L18.96 16.96L18.79 16.43L19.24 16.76L19.69 16.43L19.52 16.96L19.97 17.29ZM19.97 14.71L19.52 15.04L19.69 15.57L19.24 15.24L18.79 15.57L18.96 15.04L18.51 14.71H19.07L19.24 14.18L19.41 14.71H19.97ZM18.45 12.62L18.28 13.15L18.73 13.48H18.17L18 14.02L17.83 13.48H17.27L17.72 13.15L17.55 12.62L18 12.95L18.45 12.62Z" fill="#496E2D"/>
</svg>
