<svg width="32" height="32" viewBox="0 0 32 32" fill="none" xmlns="http://www.w3.org/2000/svg">
<path d="M32 5.33002H0V26.66H32V5.33002Z" fill="#0052B4"/>
<path d="M26.58 14.61L26.79 15.26H27.48L26.92 15.66L27.14 16.32L26.58 15.91L26.03 16.32L26.24 15.66L25.68 15.26H26.37L26.58 14.61ZM24.13 19.3L24.45 20.28H25.48L24.65 20.88L24.96 21.86L24.13 21.26L23.3 21.86L23.62 20.88L22.79 20.28H23.81L24.13 19.3ZM24.22 11.62L24.49 12.44H25.34L24.65 12.94L24.92 13.76L24.22 13.25L23.53 13.76L23.8 12.94L23.1 12.44H23.96L24.22 11.62ZM21.87 14.58L22.18 15.56H23.21L22.38 16.16L22.7 17.14L21.87 16.54L21.04 17.14L21.35 16.16L20.52 15.56H21.55L21.87 14.58Z" fill="#D80027"/>
<path d="M16 5.33002V7.24002L13.18 8.81002H16V12.52H12.3L16 14.57V16H14.33L9.74 13.45V16H6.26V12.96L0.8 16H0V14.09L2.82 12.52H0V8.81002H3.69L0 6.76002V5.33002H1.67L6.26 7.89002V5.33002H9.74V8.37002L15.2 5.33002H16Z" fill="#F0F0F0"/>
<path d="M9 5.33002H7V9.67002H0V11.67H7V16H9V11.67H16V9.67002H9V5.33002Z" fill="#D80027"/>
<path d="M9.73999 12.52L16 16V15.02L11.51 12.52H9.73999Z" fill="#0052B4"/>
<path d="M9.73999 12.52L16 16V15.02L11.51 12.52H9.73999Z" fill="#F0F0F0"/>
<path d="M9.74 12.52L16 16V15.02L11.51 12.52H9.74ZM4.49 12.52L0 15.02V16L6.26 12.52H4.49Z" fill="#D80027"/>
<path d="M6.26 8.81002L0 5.33002V6.32002L4.49 8.81002H6.26Z" fill="#0052B4"/>
<path d="M6.26 8.81002L0 5.33002V6.32002L4.49 8.81002H6.26Z" fill="#F0F0F0"/>
<path d="M6.26 8.81002L0 5.33002V6.32002L4.49 8.81002H6.26ZM11.51 8.81002L16 6.32002V5.33002L9.74 8.81002H11.51Z" fill="#D80027"/>
</svg>
