<svg width="32" height="32" viewBox="0 0 32 32" fill="none" xmlns="http://www.w3.org/2000/svg">
<path d="M32 5.33002H0V26.66H32V5.33002Z" fill="#0052B4"/>
<path d="M21 12V16.89C21 19.27 24 20 24 20C24 20 27 19.27 27 16.89V12H21Z" fill="#35AFDF"/>
<path d="M16 5.33002V7.24002L13.18 8.81002H16V12.52H12.31L16 14.57V16H14.33L9.74 13.45V16H6.26V12.96L0.8 16H0V14.09L2.82 12.52H0V8.81002H3.69L0 6.76002V5.33002H1.67L6.26 7.88002V5.33002H9.74V8.37002L15.2 5.33002H16Z" fill="#F0F0F0"/>
<path d="M9 5.33002H7V9.67002H0V11.67H7V16H9V11.67H16V9.67002H9V5.33002Z" fill="#D80027"/>
<path d="M9.73999 12.52L16 16V15.02L11.51 12.52H9.73999Z" fill="#0052B4"/>
<path d="M9.73999 12.52L16 16V15.02L11.51 12.52H9.73999Z" fill="#F0F0F0"/>
<path d="M9.74 12.52L16 16V15.02L11.51 12.52H9.74ZM4.49 12.52L0 15.02V16L6.26 12.52H4.49Z" fill="#D80027"/>
<path d="M6.26 8.81002L0 5.33002V6.32002L4.49 8.81002H6.26Z" fill="#0052B4"/>
<path d="M6.26 8.81002L0 5.33002V6.32002L4.49 8.81002H6.26Z" fill="#F0F0F0"/>
<path d="M6.26 8.81002L0 5.33002V6.32002L4.49 8.81002H6.26ZM11.51 8.81002L16 6.32002V5.33002L9.74 8.81002H11.51Z" fill="#D80027"/>
<path d="M27 12H21V15H27V12Z" fill="#BDA86B"/>
<path d="M24 20.11C24 20.11 21 19.38 21 17H27C27 19.38 24 20.11 24 20.11Z" fill="#BCDAE6"/>
</svg>
