<svg width="32" height="32" viewBox="0 0 32 32" fill="none" xmlns="http://www.w3.org/2000/svg">
<path d="M32 5.33002H0V26.66H32V5.33002Z" fill="#F0F0F0"/>
<path d="M0 26.67V5.33002L17.53 16.25H5.48L16.95 26.67H0Z" fill="#0052B4"/>
<path d="M15.2999 15.62L0.639893 6.47998V26.03H15.2999L3.81989 15.62H15.2999Z" fill="#D80027"/>
<path d="M6.11991 20.28L5.20991 19.85L5.69991 18.96L4.70991 19.16L4.57991 18.15L3.88991 18.89L3.19991 18.15L3.07991 19.16L2.08991 18.96L2.56991 19.85L1.65991 20.28L2.56991 20.71L2.08991 21.59L3.07991 21.4L3.19991 22.4L3.88991 21.66L4.57991 22.4L4.70991 21.4L5.69991 21.59L5.20991 20.71L6.11991 20.28ZM5.51991 11.98L4.84991 11.67L5.20991 11.03L4.48991 11.16L4.38991 10.44L3.88991 10.97L3.38991 10.44L3.29991 11.16L2.57991 11.03L2.92991 11.67L2.26991 11.98L3.88991 12.3L5.51991 11.98ZM5.83991 12C5.83991 12.5172 5.63447 13.0132 5.26877 13.3789C4.90307 13.7446 4.40708 13.95 3.88991 13.95C3.37274 13.95 2.87675 13.7446 2.51105 13.3789C2.14536 13.0132 1.93991 12.5172 1.93991 12" fill="#F0F0F0"/>
</svg>
