<svg width="32" height="32" viewBox="0 0 32 32" fill="none" xmlns="http://www.w3.org/2000/svg">
<path d="M32 5.32996H0V26.66H32V5.32996Z" fill="#0052B4"/>
<path d="M26.73 18.49C27.068 18.04 27.25 17.493 27.25 16.93V12.29C26.7563 12.655 26.1388 12.8114 25.5308 12.7254C24.9228 12.6393 24.373 12.3177 24 11.83C23.627 12.3177 23.0772 12.6393 22.4692 12.7254C21.8612 12.8114 21.2437 12.655 20.75 12.29V16.93C20.75 17.49 20.93 18.037 21.26 18.49H26.73Z" fill="#F3F3F3"/>
<path d="M25.7699 16.07C25.9068 15.7012 25.9844 15.3131 25.9999 14.92C25.9999 14.5 25.4499 14.16 25.4499 14.16C25.4499 14.16 24.8999 14.5 24.8999 14.92C24.9299 15.315 25.0199 15.703 25.1699 16.07L24.8499 16.78C25.2379 16.94 25.6719 16.94 26.0599 16.78L25.7699 16.07ZM23.6199 13.75C23.2299 13.806 22.8519 13.925 22.4999 14.1C22.1299 14.31 22.1099 14.95 22.1099 14.95C22.1099 14.95 22.6799 15.26 23.0499 15.05C23.3732 14.8256 23.6627 14.5562 23.9099 14.25L24.6899 14.16C24.6613 13.9556 24.5934 13.7586 24.4899 13.58C24.3839 13.4049 24.2486 13.2493 24.0899 13.12L23.6199 13.75ZM22.6899 16.77C22.9369 17.076 23.2269 17.346 23.5499 17.57C23.9199 17.78 24.4899 17.47 24.4899 17.47C24.4899 17.47 24.4899 16.83 24.0999 16.62C23.7538 16.4465 23.3827 16.3284 22.9999 16.27L22.5399 15.64C22.3756 15.7662 22.2365 15.9223 22.1299 16.1C22.0299 16.28 21.9629 16.477 21.9299 16.68L22.6899 16.77Z" fill="#FF9811"/>
<path d="M21.1499 18.3199C21.8616 19.243 22.867 19.8957 23.9999 20.1699C25.1328 19.8957 26.1382 19.243 26.8499 18.3199H21.1499Z" fill="#338AF3"/>
<path d="M16 11.67H9V16H10V12.94L14.59 16H16L11 12.67H12.41L16 15.06V14.59L13.12 12.67H16V11.67ZM11 8.66996L16 5.32996H14.59L10 8.38996V5.32996H9V9.66996H16V8.66996H13.12L16 6.74996V6.27996L12.41 8.66996H11ZM6 5.32996V8.38996L1.41 5.32996H0L5 8.66996H3.59L0 6.27996V6.74996L2.88 8.66996H0V9.66996H7V5.32996H6ZM0 11.67V12.67H2.88L0 14.59V15.06L3.59 12.67H5L0 16H1.41L6 12.94V16H7V11.67H0Z" fill="#F0F0F0"/>
<path d="M9 5.32996H7V9.66996H0V11.67H7V16H9V11.67H16V9.66996H9V5.32996Z" fill="#D80027"/>
<path d="M5 8.66996L0 5.32996V6.27996L3.59 8.66996H5ZM11 8.66996H12.41L16 6.27996V5.32996L11 8.66996ZM3.59 12.67L0 15.06V16L5 12.67H3.59ZM11 12.67L16 16V15.06L12.41 12.67H11Z" fill="#D80027"/>
</svg>
