<svg width="32" height="32" viewBox="0 0 32 32" fill="none" xmlns="http://www.w3.org/2000/svg">
<path d="M32 5.33002H0V26.66H32V5.33002Z" fill="#0052B4"/>
<path d="M10.02 11.83L10.25 12.53H10.99L10.39 12.97L10.62 13.68L10.02 13.24L9.42004 13.68L9.65004 12.97L9.04004 12.53H9.79004L10.02 11.83ZM12.34 11.13L12.57 11.84H13.31L12.71 12.28L12.94 12.98L12.34 12.55L11.73 12.98L11.96 12.28L11.36 11.84H12.11L12.34 11.13ZM14.66 10.43L14.89 11.14H15.63L15.03 11.58L15.26 12.29L14.66 11.85L14.05 12.29L14.28 11.58L13.68 11.14H14.43L14.66 10.43ZM21.98 11.83L21.75 12.53H21L21.61 12.97L21.38 13.68L21.98 13.24L22.58 13.68L22.35 12.97L22.96 12.53H22.21L21.98 11.83ZM19.66 11.13L19.43 11.84H18.69L19.29 12.28L19.06 12.98L19.66 12.55L20.27 12.98L20.04 12.28L20.64 11.84H19.89L19.66 11.13ZM17.34 10.43L17.11 11.14H16.37L16.97 11.58L16.74 12.29L17.34 11.85L17.95 12.29L17.72 11.58L18.32 11.14H17.57L17.34 10.43Z" fill="#F0F0F0"/>
<path d="M17.86 16.46L16 14.14L15.07 14.61V15.54L13.68 16.46H12.75V17.66C13.4354 17.937 14.0225 18.4124 14.4359 19.0254C14.8492 19.6383 15.07 20.3607 15.07 21.1H16V20.17L16.93 19.25L17.86 20.17L18.78 19.25V18.32L19.71 16.93L17.86 16.46Z" fill="#FFDA44"/>
</svg>
