<svg width="32" height="32" viewBox="0 0 32 32" fill="none" xmlns="http://www.w3.org/2000/svg">
<path d="M32 5.33002H0V26.66H32V5.33002Z" fill="#D80027"/>
<path d="M15.4499 13.55L16.5499 15.06L18.3299 14.49L17.2299 16L18.3299 17.52L16.5499 16.94L15.4499 18.45V16.58L13.6699 16L15.4499 15.42V13.55Z" fill="#F0F0F0"/>
<path d="M12.4499 19.79C11.8723 19.7915 11.302 19.6609 10.7826 19.4083C10.2631 19.1557 9.80828 18.7876 9.45283 18.3323C9.09737 17.877 8.85068 17.3465 8.73161 16.7813C8.61254 16.2161 8.62424 15.6311 8.76581 15.0711C8.90739 14.5111 9.17509 13.9909 9.54847 13.5502C9.92185 13.1094 10.391 12.7599 10.9202 12.5282C11.4493 12.2966 12.0244 12.1889 12.6015 12.2135C13.1786 12.2381 13.7424 12.3942 14.2499 12.67C13.5943 12.0282 12.7639 11.5943 11.8627 11.4225C10.9615 11.2507 10.0296 11.3487 9.18389 11.7043C8.33817 12.0599 7.61622 12.6572 7.10855 13.4214C6.60089 14.1856 6.33008 15.0826 6.33008 16C6.33008 16.9175 6.60089 17.8145 7.10855 18.5787C7.61622 19.3428 8.33817 19.9402 9.18389 20.2958C10.0296 20.6514 10.9615 20.7494 11.8627 20.5776C12.7639 20.4058 13.5943 19.9718 14.2499 19.33C13.6979 19.6315 13.079 19.7897 12.4499 19.79Z" fill="#F0F0F0"/>
</svg>
