<svg width="24" height="24" viewBox="0 0 24 24" fill="none" xmlns="http://www.w3.org/2000/svg">
<path fill-rule="evenodd" clip-rule="evenodd" d="M14.2437 6.18184C14.3449 5.78 14.0988 5.37279 13.694 5.27233C13.2893 5.17186 12.8792 5.41618 12.778 5.81802L9.7563 17.8179C9.65511 18.2197 9.90118 18.6269 10.3059 18.7274C10.7107 18.8279 11.1208 18.5835 11.222 18.1817L14.2437 6.18184ZM7.31655 6.4503C7.56686 6.11893 7.49922 5.64883 7.16547 5.4003C6.83171 5.15177 6.35823 5.21893 6.10791 5.5503L1.71151 11.3703C1.4295 11.7436 1.4295 12.257 1.71151 12.6303L6.10791 18.4503C6.35823 18.7817 6.83171 18.8488 7.16547 18.6003C7.49922 18.3518 7.56686 17.8817 7.31655 17.5503L3.1241 12.0003L7.31655 6.4503ZM17.8921 5.5503C17.6418 5.21893 17.1683 5.15177 16.8345 5.4003C16.5008 5.64883 16.4331 6.11893 16.6835 6.4503L20.8759 12.0003L16.6835 17.5503C16.4331 17.8817 16.5008 18.3518 16.8345 18.6003C17.1683 18.8488 17.6418 18.7817 17.8921 18.4503L22.2885 12.6303C22.5705 12.257 22.5705 11.7436 22.2885 11.3703L17.8921 5.5503Z" fill="white"/>
</svg>
