<svg width="32" height="32" viewBox="0 0 32 32" fill="none" xmlns="http://www.w3.org/2000/svg">
<path d="M32 5.33002H0V26.66H32V5.33002Z" fill="#D80027"/>
<path d="M32 5.33002V15.75L0 16.01V5.33002H32Z" fill="#0052B4"/>
<path d="M13.2201 12.75C13.2138 12.4841 13.1314 12.2256 12.9826 12.0051C12.8339 11.7847 12.6249 11.6115 12.3807 11.5062C12.1364 11.401 11.8671 11.368 11.6047 11.4112C11.3422 11.4544 11.0977 11.572 10.9001 11.75V10.9H11.3601V10H10.9001V9.51001H10.0001V10H9.51011V10.93H10.0001V11.75C9.86792 11.6215 9.71133 11.5208 9.53958 11.4538C9.36783 11.3868 9.18439 11.3549 9.00011 11.36C8.63227 11.3626 8.28023 11.5099 8.02012 11.77C7.76001 12.0301 7.61273 12.3822 7.61011 12.75C7.61411 12.9403 7.65801 13.1276 7.73897 13.2999C7.81993 13.4721 7.93615 13.6255 8.08011 13.75V14.57H12.7101V13.75C12.8613 13.6292 12.9851 13.4775 13.073 13.305C13.161 13.1326 13.2111 12.9434 13.2201 12.75Z" fill="#FFDA44"/>
</svg>
