<svg width="32" height="32" viewBox="0 0 32 32" fill="none" xmlns="http://www.w3.org/2000/svg">
<path d="M32 5.33002H0V26.66H32V5.33002Z" fill="black"/>
<path d="M0 5.33002H32V26.67" fill="#A2001D"/>
<path d="M12.7899 20.41L12.9599 20.94H13.5199L13.0699 21.27L13.2399 21.8L12.7899 21.47L12.3399 21.8L12.5099 21.27L12.0599 20.94H12.6199L12.7899 20.41ZM11.3599 15.3L11.6499 16.19H12.5799L11.8299 16.74L12.1199 17.62L11.3599 17.08L10.6099 17.62L10.8999 16.74L10.1399 16.19H11.0699L11.3599 15.3ZM11.3599 21.8L11.6499 22.68H12.5799L11.8299 23.23L12.1199 24.12L11.3599 23.57L10.6099 24.12L10.8999 23.23L10.1399 22.68H11.0699L11.3599 21.8ZM14.0899 17.62L14.3699 18.51H15.2999L14.5499 19.06L14.8399 19.94L14.0899 19.39L13.3299 19.94L13.6199 19.06L12.8699 18.51H13.7999L14.0899 17.62ZM8.63992 17.62L8.92992 18.51H9.85992L9.10992 19.06L9.38992 19.94L8.63992 19.39L7.88992 19.94L8.16992 19.06L7.41992 18.51H8.34992L8.63992 17.62Z" fill="#F0F0F0"/>
<path d="M23.5302 12.76C23.0547 12.3022 22.4295 12.0322 21.7702 12L23.7702 10.45C23.3945 10.0733 22.9415 9.78261 22.4426 9.59789C21.9437 9.41316 21.4106 9.33882 20.8802 9.37997C20.7555 8.91773 20.5105 8.49678 20.1702 8.15997L19.3802 9.72997C19.3256 9.63465 19.2583 9.54718 19.1802 9.46997C18.961 9.26118 18.6688 9.14637 18.3661 9.15006C18.0633 9.15375 17.774 9.27565 17.56 9.48973C17.3459 9.70381 17.224 9.9931 17.2203 10.2958C17.2166 10.5986 17.3314 10.8907 17.5402 11.11C17.6192 11.19 17.7102 11.258 17.8102 11.31L16.2202 12C16.5582 12.34 16.9782 12.589 17.4402 12.72C17.4016 13.251 17.4781 13.7842 17.6645 14.2829C17.8509 14.7817 18.1428 15.2344 18.5202 15.61L20.2602 13.37C20.3244 13.3056 20.4008 13.2547 20.485 13.2203C20.5691 13.186 20.6593 13.1689 20.7502 13.17C20.8875 13.1728 21.0211 13.2154 21.1347 13.2926C21.2483 13.3698 21.337 13.4783 21.3902 13.605C21.4417 13.7317 21.455 13.8708 21.4283 14.0049C21.4017 14.1391 21.3363 14.2626 21.2402 14.36L21.8902 15.02C22.0422 14.8695 22.1628 14.6904 22.2452 14.493C22.3276 14.2956 22.3701 14.0839 22.3702 13.87C22.3799 13.51 22.267 13.1575 22.0502 12.87C22.3649 12.9535 22.652 13.1185 22.8825 13.3485C23.1129 13.5784 23.2786 13.8651 23.3629 14.1796C23.4471 14.4941 23.4468 14.8253 23.362 15.1396C23.2773 15.454 23.1111 15.7404 22.8802 15.97L23.5302 16.63C23.7896 16.3717 23.9955 16.0647 24.1359 15.7266C24.2764 15.3885 24.3487 15.0261 24.3487 14.66C24.3487 14.2939 24.2764 13.9314 24.1359 13.5933C23.9955 13.2553 23.7896 12.9483 23.5302 12.69V12.76Z" fill="#FFDA44"/>
</svg>
