<svg width="32" height="32" viewBox="0 0 32 32" fill="none" xmlns="http://www.w3.org/2000/svg">
<path d="M32 5.33002H0V26.66H32V5.33002Z" fill="#F0F0F0"/>
<path d="M7.13 16L0 8.87V23.13L7.13 16Z" fill="black"/>
<path d="M10.07 16L0 5.92004V8.87004L7.13 16L0 23.13V26.08L10.07 16Z" fill="#FFDA44"/>
<path d="M31.86 18.09C31.86 18.09 31.91 18 32 18V13.91H13.91L5.33 5.33002H0V5.92002L10.07 16L0 26.08V26.67H5.33L13.91 18.09H31.86Z" fill="#6DA544"/>
<path d="M31.45 20.17H14.78L8.28003 26.67H32V20.17H31.45Z" fill="#0052B4"/>
<path d="M31.45 11.83H32V5.33002H8.28003L14.78 11.83H31.45Z" fill="#D80027"/>
</svg>
