<svg width="32" height="32" viewBox="0 0 32 32" fill="none" xmlns="http://www.w3.org/2000/svg">
<path d="M32 5.33002H0V26.66H32V5.33002Z" fill="#338AF3"/>
<path d="M20.1099 20.87L20.3399 21.58H21.0799L20.4799 22.02L20.7099 22.72L20.1099 22.29L19.4999 22.72L19.7299 22.02L19.1299 21.58H19.8799L20.1099 20.87ZM26.0399 16.23L26.2699 16.94H27.0099L26.4099 17.38L26.6399 18.09L26.0399 17.65L25.4399 18.09L25.6699 17.38L25.0599 16.94H25.8099L26.0399 16.23ZM27.5299 9.28003L27.7599 9.98003H28.4999L27.8999 10.42L28.1299 11.13L27.5299 10.69L26.9199 11.13L27.1499 10.42L26.5499 9.98003H27.2999L27.5299 9.28003ZM27.8899 14.38L28.1199 15.09H28.8699L28.2699 15.52L28.4999 16.23L27.8899 15.79L27.2899 16.23L27.5199 15.52L26.9199 15.09H27.6599L27.8899 14.38ZM21.1699 19.2L21.8399 19.54L22.3599 19.01L22.2499 19.75L22.9099 20.09L22.1799 20.2L22.0599 20.94L21.7199 20.28L20.9799 20.39L21.5099 19.87L21.1699 19.2ZM21.1699 16.42L21.8399 16.76L22.3599 16.23L22.2499 16.97L22.9099 17.31L22.1799 17.42L22.0599 18.16L21.7199 17.49L20.9799 17.61L21.5099 17.08L21.1699 16.42ZM23.4899 18.2L24.1599 18.54L24.6799 18.02L24.5699 18.75L25.2299 19.09L24.4899 19.21L24.3799 19.94L24.0399 19.28L23.2999 19.39L23.8299 18.87L23.4899 18.2ZM23.4899 12.25L24.1599 12.58L24.6799 12.06L24.5699 12.79L25.2299 13.13L24.4899 13.25L24.3799 13.98L24.0399 13.32L23.2999 13.44L23.8299 12.91L23.4899 12.25ZM25.7399 12.18L26.3999 12.51L26.9299 11.99L26.8099 12.72L27.4799 13.06L26.7399 13.18L26.6299 13.91L26.2899 13.25L25.5499 13.37L26.0799 12.84L25.7399 12.18Z" fill="#FFDA44"/>
<path d="M16 5.33002H0V16H16V5.33002Z" fill="#F0F0F0"/>
<path d="M9 5.33002H7V9.67002H0V11.67H7V16H9V11.67H16V9.67002H9V5.33002Z" fill="#D80027"/>
<path d="M12.3 12.52L16 14.57V12.52H12.3ZM9.73999 12.52L16 16V15.02L11.51 12.52H9.73999ZM14.33 16L9.73999 13.45V16H14.33Z" fill="#0052B4"/>
<path d="M9.73999 12.52L16 16V15.02L11.51 12.52H9.73999Z" fill="#F0F0F0"/>
<path d="M9.73999 12.52L16 16V15.02L11.51 12.52H9.73999Z" fill="#D80027"/>
<path d="M2.82 12.52L0 14.09V12.52H2.82ZM6.26 12.96V16H0.8L6.26 12.96Z" fill="#0052B4"/>
<path d="M4.49 12.52L0 15.02V16L6.26 12.52H4.49Z" fill="#D80027"/>
<path d="M3.69 8.81002L0 6.76002V8.81002H3.69ZM6.26 8.81002L0 5.33002V6.32002L4.49 8.81002H6.26ZM1.67 5.33002L6.26 7.88002V5.33002H1.67Z" fill="#0052B4"/>
<path d="M6.26 8.81002L0 5.33002V6.32002L4.49 8.81002H6.26Z" fill="#F0F0F0"/>
<path d="M6.26 8.81002L0 5.33002V6.32002L4.49 8.81002H6.26Z" fill="#D80027"/>
<path d="M13.18 8.81002L16 7.24002V8.81002H13.18ZM9.73999 8.37002V5.33002H15.2L9.73999 8.37002Z" fill="#0052B4"/>
<path d="M11.51 8.81002L16 6.32002V5.33002L9.73999 8.81002H11.51Z" fill="#D80027"/>
</svg>
