<svg width="32" height="32" viewBox="0 0 32 32" fill="none" xmlns="http://www.w3.org/2000/svg">
<path d="M32 5.33002H0V26.66H32V5.33002Z" fill="#F0F0F0"/>
<path d="M32 5.33002H0V12.44H32V5.33002Z" fill="#A2001D"/>
<path d="M32 19.56H0V26.67H32V19.56Z" fill="black"/>
<path d="M13.7 15.38H11.87C11.9148 15.2021 12.0179 15.0443 12.1629 14.9319C12.308 14.8195 12.4865 14.759 12.67 14.76V13.52C12.121 13.52 11.5945 13.7381 11.2063 14.1263C10.8181 14.5145 10.6 15.041 10.6 15.59V16.59H13.7C13.7557 16.59 13.8091 16.6121 13.8485 16.6515C13.8879 16.6909 13.91 16.7443 13.91 16.8V17.21H9.77002V18.45H15.15V16.83C15.15 16.4455 14.9973 16.0766 14.7253 15.8047C14.4534 15.5328 14.0846 15.38 13.7 15.38ZM16.8 17.24V13.52H15.56V18.48H17.63V17.24H16.8ZM20.94 17.24V13.52H19.7V17.24H19.29V16H18.05V18.48H21.77V17.24H20.94Z" fill="#496E2D"/>
</svg>
