<svg width="32" height="32" viewBox="0 0 32 32" fill="none" xmlns="http://www.w3.org/2000/svg">
<path d="M32 5.32996H0V26.66H32V5.32996Z" fill="#D80027"/>
<path d="M22 13.2499H18.17C18.4213 12.9783 18.5575 12.6199 18.55 12.2499C18.5509 11.9507 18.4552 11.6592 18.2772 11.4187C18.0991 11.1782 17.8483 11.0016 17.5618 10.9151C17.2754 10.8286 16.9687 10.8369 16.6873 10.9386C16.4059 11.0404 16.1649 11.2302 16 11.4799C15.8936 11.3181 15.7547 11.1803 15.592 11.0752C15.4294 10.9702 15.2466 10.9002 15.0553 10.8698C14.8641 10.8394 14.6686 10.8492 14.4814 10.8987C14.2941 10.9481 14.1193 11.0361 13.968 11.1569C13.8167 11.278 13.6925 11.4293 13.6032 11.6012C13.5139 11.7731 13.4615 11.9618 13.4494 12.1551C13.4374 12.3484 13.4659 12.5422 13.5332 12.7238C13.6004 12.9055 13.7049 13.0711 13.84 13.2099H10C10.0156 13.7078 10.2251 14.1798 10.5838 14.5254C10.9425 14.871 11.4219 15.0628 11.92 15.0599H11.86C11.8478 15.3079 11.8856 15.5557 11.9712 15.7888C12.0568 16.0218 12.1884 16.2352 12.3583 16.4162C12.5281 16.5972 12.7327 16.7422 12.9598 16.8425C13.1868 16.9428 13.4318 16.9964 13.68 16.9999C13.681 17.3189 13.764 17.6319 13.92 17.9099L12.38 19.4499L13.56 20.6299L15.24 18.9599H15.44L14.44 21.2499L16 22.9999L17.57 21.2999L16.57 19.0099H16.77L18.45 20.6799L19.63 19.4999L18.09 17.9599C18.2463 17.682 18.3289 17.3688 18.33 17.0499C18.5738 17.0499 18.8152 17.0018 19.0403 16.9082C19.2654 16.8146 19.4698 16.6774 19.6417 16.5046C19.8136 16.3317 19.9497 16.1266 20.0421 15.901C20.1344 15.6754 20.1813 15.4337 20.18 15.1899H20.12C20.3708 15.186 20.6184 15.1328 20.8487 15.0331C21.0789 14.9335 21.2873 14.7895 21.4619 14.6094C21.6364 14.4292 21.7738 14.2164 21.8662 13.9832C21.9585 13.7499 22.004 13.5008 22 13.2499Z" fill="black"/>
</svg>
