<svg width="32" height="32" viewBox="0 0 32 32" fill="none" xmlns="http://www.w3.org/2000/svg">
<path d="M32 5.33002H0V26.66H32V5.33002Z" fill="#F0F0F0"/>
<path d="M32 8H0V10.67H32V8ZM32 13.33H0V16H32V13.33ZM32 18.67H0V21.34H32V18.67ZM32 24H0V26.67H32V24Z" fill="#D80027"/>
<path d="M16 5.33002H0V16.82H16V5.33002Z" fill="#2E52B2"/>
<path d="M6.24012 10.04L5.98012 10.83H5.15012L5.82012 11.32L5.56012 12.11L6.24012 11.62L6.91012 12.11L6.66012 11.32L7.33012 10.83H6.50012L6.24012 10.04ZM6.50012 13.69L6.24012 12.9L5.98012 13.69H5.15012L5.82012 14.18L5.56012 14.97L6.24012 14.49L6.91012 14.97L6.66012 14.18L7.33012 13.69H6.50012ZM2.97012 13.69L2.71012 12.9L2.46012 13.69H1.62012L2.30012 14.18L2.04012 14.97L2.71012 14.49L3.39012 14.97L3.13012 14.18L3.81012 13.69H2.97012ZM2.71012 10.04L2.46012 10.83H1.62012L2.30012 11.32L2.04012 12.11L2.71012 11.62L3.39012 12.11L3.13012 11.32L3.81012 10.83H2.97012L2.71012 10.04ZM6.24012 7.17999L5.98012 7.96999H5.15012L5.82012 8.45999L5.56012 9.24999L6.24012 8.75999L6.91012 9.24999L6.66012 8.45999L7.33012 7.96999H6.50012L6.24012 7.17999ZM2.71012 7.17999L2.46012 7.96999H1.62012L2.30012 8.45999L2.04012 9.24999L2.71012 8.75999L3.39012 9.24999L3.13012 8.45999L3.81012 7.96999H2.97012L2.71012 7.17999ZM9.76012 10.04L9.50012 10.83H8.67012L9.34012 11.32L9.09012 12.11L9.76012 11.62L10.4301 12.11L10.1801 11.32L10.8501 10.83H10.0201L9.76012 10.04ZM10.0201 13.69L9.76012 12.9L9.50012 13.69H8.67012L9.34012 14.18L9.09012 14.97L9.76012 14.49L10.4301 14.97L10.1801 14.18L10.8501 13.69H10.0201ZM13.5401 13.69L13.2801 12.9L13.0301 13.69H12.1901L12.8701 14.18L12.6101 14.97L13.2801 14.49L13.9601 14.97L13.7001 14.18L14.3701 13.69H13.5401ZM13.2801 10.04L13.0301 10.83H12.1901L12.8701 11.32L12.6101 12.11L13.2801 11.62L13.9601 12.11L13.7001 11.32L14.3701 10.83H13.5401L13.2801 10.04ZM9.76012 7.17999L9.50012 7.96999H8.67012L9.34012 8.45999L9.09012 9.24999L9.76012 8.75999L10.4301 9.24999L10.1801 8.45999L10.8501 7.96999H10.0201L9.76012 7.17999ZM13.2801 7.17999L13.0301 7.96999H12.1901L12.8701 8.45999L12.6101 9.24999L13.2801 8.75999L13.9601 9.24999L13.7001 8.45999L14.3701 7.96999H13.5401L13.2801 7.17999Z" fill="#F0F0F0"/>
</svg>
