<svg width="32" height="32" viewBox="0 0 32 32" fill="none" xmlns="http://www.w3.org/2000/svg">
<path d="M32 5.32996H0V26.66H32V5.32996Z" fill="#0052B4"/>
<path d="M15.9999 21.1C16.6696 21.1 17.3328 20.9681 17.9516 20.7118C18.5703 20.4555 19.1326 20.0798 19.6061 19.6063C20.0797 19.1327 20.4554 18.5705 20.7117 17.9517C20.968 17.3329 21.0999 16.6698 21.0999 16C21.0999 15.3303 20.968 14.6671 20.7117 14.0483C20.4554 13.4296 20.0797 12.8674 19.6061 12.3938C19.1326 11.9202 18.5703 11.5445 17.9516 11.2882C17.3328 11.0319 16.6696 10.9 15.9999 10.9C14.6473 10.9 13.3501 11.4373 12.3937 12.3938C11.4372 13.3502 10.8999 14.6474 10.8999 16C10.8999 17.3526 11.4372 18.6498 12.3937 19.6063C13.3501 20.5627 14.6473 21.1 15.9999 21.1Z" fill="#F0F0F0"/>
<path d="M16.0001 20.17C16.5477 20.17 17.0899 20.0621 17.5959 19.8525C18.1018 19.643 18.5615 19.3358 18.9487 18.9486C19.3359 18.5614 19.6431 18.1017 19.8527 17.5957C20.0622 17.0898 20.1701 16.5476 20.1701 16C20.1701 15.4523 20.0622 14.9101 19.8527 14.4042C19.6431 13.8982 19.3359 13.4385 18.9487 13.0513C18.5615 12.6641 18.1018 12.3569 17.5959 12.1474C17.0899 11.9378 16.5477 11.83 16.0001 11.83C14.8941 11.83 13.8335 12.2693 13.0514 13.0513C12.2694 13.8333 11.8301 14.894 11.8301 16C11.8301 17.1059 12.2694 18.1666 13.0514 18.9486C13.8335 19.7306 14.8941 20.17 16.0001 20.17Z" fill="#6DA544"/>
<path d="M16 18.78C16.7373 18.78 17.4444 18.4871 17.9657 17.9657C18.4871 17.4444 18.78 16.7373 18.78 16C18.78 15.2627 18.4871 14.5556 17.9657 14.0342C17.4444 13.5129 16.7373 13.22 16 13.22C15.2627 13.22 14.5556 13.5129 14.0342 14.0342C13.5129 14.5556 13.22 15.2627 13.22 16C13.22 16.7373 13.5129 17.4444 14.0342 17.9657C14.5556 18.4871 15.2627 18.78 16 18.78Z" fill="#F0F0F0"/>
<path d="M16 15.3L14.49 16V17.16L16 18.09L17.51 17.16V16L16 15.3Z" fill="#0052B4"/>
<path d="M17.5 14.61H14.49V16H17.5V14.61Z" fill="#FFDA44"/>
<path d="M32 5.32996H0V7.17996H32V5.32996ZM32 24.81H0V26.67H32V24.81Z" fill="#A2001D"/>
</svg>
