<svg width="32" height="32" viewBox="0 0 32 32" fill="none" xmlns="http://www.w3.org/2000/svg">
<path d="M32 5.33002H0V26.66H32V5.33002Z" fill="#F0F0F0"/>
<path d="M32 5.33002H0V12.44H32V5.33002Z" fill="#FF9811"/>
<path d="M32 19.55H0V26.66H32V19.55Z" fill="#6DA544"/>
<path d="M15.9998 18.74C16.7265 18.74 17.4234 18.4513 17.9372 17.9375C18.4511 17.4236 18.7398 16.7267 18.7398 16C18.7398 15.2733 18.4511 14.5764 17.9372 14.0625C17.4234 13.5487 16.7265 13.26 15.9998 13.26C15.2731 13.26 14.5761 13.5487 14.0623 14.0625C13.5484 14.5764 13.2598 15.2733 13.2598 16C13.2598 16.7267 13.5484 17.4236 14.0623 17.9375C14.5761 18.4513 15.2731 18.74 15.9998 18.74Z" fill="#0052B4"/>
<path d="M16 17.71C16.4536 17.71 16.8885 17.5298 17.2092 17.2091C17.5299 16.8884 17.71 16.4535 17.71 16C17.71 15.5465 17.5299 15.1115 17.2092 14.7908C16.8885 14.4701 16.4536 14.29 16 14.29C15.5465 14.29 15.1116 14.4701 14.7909 14.7908C14.4702 15.1115 14.29 15.5465 14.29 16C14.29 16.4535 14.4702 16.8884 14.7909 17.2091C15.1116 17.5298 15.5465 17.71 16 17.71Z" fill="#F0F0F0"/>
<path d="M15.9999 13.88L16.5299 15.08L17.8299 14.94L17.0599 16L17.8299 17.06L16.5299 16.92L15.9999 18.11L15.4699 16.92L14.1699 17.06L14.9399 16L14.1699 14.94L15.4699 15.08L15.9999 13.88Z" fill="#0052B4"/>
</svg>
