<svg width="32" height="32" viewBox="0 0 32 32" fill="none" xmlns="http://www.w3.org/2000/svg">
<path d="M32 5.33002H0V26.66H32V5.33002Z" fill="#FFDA44"/>
<path d="M31.9999 5.33002H20.6399V26.66H31.9999V5.33002Z" fill="#D80027"/>
<path d="M11.36 5.33002H0V26.66H11.36V5.33002Z" fill="#0052B4"/>
<path d="M19.71 13.72H17.16C17.16 13.4123 17.0378 13.1173 16.8203 12.8998C16.6027 12.6822 16.3077 12.56 16 12.56C15.6924 12.56 15.3973 12.6822 15.1798 12.8998C14.9623 13.1173 14.84 13.4123 14.84 13.72H12.29C12.2979 14.0277 12.4256 14.3202 12.6461 14.5351C12.8665 14.7499 13.1622 14.8701 13.47 14.87C13.4724 15.1638 13.5882 15.4453 13.7931 15.6559C13.9981 15.8664 14.2764 15.9897 14.57 16C14.5702 16.2658 14.6632 16.5233 14.833 16.7278C15.0028 16.9323 15.2388 17.071 15.5 17.12L14.6 19.12C15.044 19.301 15.52 19.393 16 19.39C16.48 19.392 16.956 19.3 17.4 19.12L16.5 17.12C16.7613 17.071 16.9973 16.9323 17.1671 16.7278C17.3369 16.5233 17.4299 16.2658 17.43 16C17.7324 16 18.0223 15.8799 18.2361 15.6661C18.4499 15.4523 18.57 15.1623 18.57 14.86C18.8692 14.85 19.1534 14.7267 19.3651 14.515C19.5767 14.3034 19.7001 14.0192 19.71 13.72Z" fill="#FF9811"/>
<path d="M16 15.3L14.49 16V17.39L16 18.32L17.51 17.39V16L16 15.3Z" fill="#0052B4"/>
<path d="M17.5 14.61H14.49V16H17.5V14.61Z" fill="#D80027"/>
</svg>
