<svg width="32" height="32" viewBox="0 0 32 32" fill="none" xmlns="http://www.w3.org/2000/svg">
<path d="M32 5.33002H0V26.66H32V5.33002Z" fill="black"/>
<path d="M32 8.89001H0V12.45H32V8.89001Z" fill="#FFDA44"/>
<path d="M32 12.44H0V16H32V12.44Z" fill="#D80027"/>
<path d="M32 19.56H0V23.12H32V19.56Z" fill="#FFDA44"/>
<path d="M32 23.11H0V26.67H32V23.11Z" fill="#D80027"/>
<path d="M15.9999 19.56C16.4674 19.56 16.9304 19.4679 17.3623 19.289C17.7942 19.1101 18.1867 18.8479 18.5172 18.5173C18.8478 18.1867 19.11 17.7943 19.289 17.3624C19.4679 16.9304 19.5599 16.4675 19.5599 16C19.5599 15.5325 19.4679 15.0696 19.289 14.6376C19.11 14.2057 18.8478 13.8133 18.5172 13.4827C18.1867 13.1521 17.7942 12.8899 17.3623 12.711C16.9304 12.5321 16.4674 12.44 15.9999 12.44C15.0558 12.44 14.1503 12.8151 13.4826 13.4827C12.815 14.1503 12.4399 15.0558 12.4399 16C12.4399 16.9442 12.815 17.8497 13.4826 18.5173C14.1503 19.1849 15.0558 19.56 15.9999 19.56Z" fill="#F0F0F0"/>
<path d="M17.2999 16.18L15.9999 15.62L16.3199 14.53C16.3248 14.4801 16.3248 14.4299 16.3199 14.38C16.3205 14.2868 16.3022 14.1944 16.2661 14.1085C16.23 14.0225 16.1769 13.9448 16.1099 13.88L16.4399 13.56C16.2224 13.3426 15.9275 13.2205 15.6199 13.2205C15.3124 13.2205 15.0175 13.3426 14.7999 13.56L15.1299 13.88C15.002 14.0151 14.9304 14.1939 14.9299 14.38C14.9202 14.4463 14.9202 14.5137 14.9299 14.58L14.4299 15.07H15.3299C15.1168 15.3896 14.9263 15.7237 14.7599 16.07C14.662 16.2943 14.6564 16.5481 14.7444 16.7765C14.8324 17.0049 15.0068 17.1894 15.2299 17.29L15.4999 17.41L15.9499 17.83V18.3L15.4899 18.76H16.4099V17.84L16.8399 17.41H17.7099C17.8151 17.1919 17.8312 16.9414 17.7546 16.7117C17.678 16.4821 17.5149 16.2913 17.2999 16.18Z" fill="black"/>
</svg>
