<svg width="32" height="32" viewBox="0 0 32 32" fill="none" xmlns="http://www.w3.org/2000/svg">
<path d="M32 5.32996H0V26.66H32V5.32996Z" fill="#FCFCFC"/>
<path d="M22 14.62H20.62C20.62 15.8453 20.1333 17.0204 19.2668 17.8868C18.4004 18.7532 17.2253 19.24 16 19.24C14.7747 19.24 13.5996 18.7532 12.7332 17.8868C11.8667 17.0204 11.38 15.8453 11.38 14.62H10C10.0003 15.9251 10.4262 17.1945 11.213 18.2357C11.9998 19.277 13.1046 20.0333 14.36 20.39C14.2227 20.6559 14.1648 20.9556 14.1932 21.2535C14.2216 21.5514 14.335 21.8348 14.52 22.07L16 20.86L17.51 22.07C17.7002 21.8351 17.816 21.5489 17.8427 21.2479C17.8695 20.9468 17.8058 20.6447 17.66 20.38C18.91 20.0201 20.0092 19.2637 20.792 18.2248C21.5748 17.1859 21.9987 15.9208 22 14.62Z" fill="#6DA544"/>
<path d="M12.3101 14.1601C12.3033 14.464 12.3581 14.7661 12.4713 15.0482C12.5845 15.3304 12.7536 15.5867 12.9686 15.8016C13.1835 16.0166 13.4398 16.1857 13.7219 16.2989C14.0041 16.4121 14.3062 16.4669 14.6101 16.4601L15.0801 16.9301H16.0001C16.0001 16.9301 16.4601 15.5401 17.3801 15.5401C17.3773 15.4176 17.3996 15.2959 17.4455 15.1824C17.4913 15.0688 17.5599 14.9658 17.647 14.8797C17.734 14.7936 17.8377 14.7261 17.9518 14.6815C18.0658 14.6368 18.1877 14.6159 18.3101 14.6201H19.6901C19.6901 14.6201 19.2301 12.7701 21.5401 11.3901L20.6101 10.9301C20.6101 10.9301 17.3801 13.2301 15.0801 12.7701V13.6901H14.1501L13.6901 13.2301L12.3101 14.1601Z" fill="#FFDA44"/>
</svg>
