<svg width="32" height="32" viewBox="0 0 32 32" fill="none" xmlns="http://www.w3.org/2000/svg">
<path d="M32 5.33002H0V26.66H32V5.33002Z" fill="#0052B4"/>
<path d="M20.75 12V16.89C20.75 19.27 24 20 24 20C24 20 27.25 19.27 27.25 16.89V12H20.75Z" fill="#FFDA44"/>
<path d="M23.5399 13.78C23.5399 14.27 23.1199 15.56 22.6099 15.56C22.0999 15.56 21.6799 14.27 21.6799 13.78C21.6799 13.29 22.6099 12.89 22.6099 12.89C22.6099 12.89 23.5399 13.29 23.5399 13.78Z" fill="#FF9811"/>
<path d="M26.0001 14.75C26.1467 14.3932 26.2345 14.0149 26.2601 13.63C26.2601 13.22 25.7101 12.89 25.7101 12.89C25.7101 12.89 25.1501 13.22 25.1501 13.63C25.1801 14.015 25.2701 14.393 25.4201 14.75L25.1001 15.44C25.2941 15.517 25.5011 15.558 25.7101 15.56C25.9189 15.5559 26.1253 15.5153 26.3201 15.44L26.0001 14.75Z" fill="#A2001D"/>
<path d="M23.3001 16.89C23.0256 17.4453 22.869 18.0513 22.8401 18.67H25.1601C25.1312 18.0513 24.9746 17.4453 24.7001 16.89L24.0001 16.44L23.3001 16.89Z" fill="#6DA544"/>
<path d="M24.7001 16.89V16.67C24.6948 16.4888 24.6184 16.3169 24.4875 16.1915C24.3565 16.0661 24.1814 15.9973 24.0001 16C23.9108 15.9987 23.8221 16.015 23.7391 16.0479C23.6561 16.0809 23.5804 16.1299 23.5163 16.1921C23.4522 16.2543 23.401 16.3285 23.3656 16.4105C23.3302 16.4925 23.3114 16.5807 23.3101 16.67V16.89H24.7001Z" fill="#D80027"/>
<path d="M16 5.33002V7.24002L13.18 8.81002H16V12.52H12.31L16 14.57V16H14.33L9.74 13.45V16H6.26V12.96L0.8 16H0V14.09L2.82 12.52H0V8.81002H3.69L0 6.76002V5.33002H1.67L6.26 7.88002V5.33002H9.74V8.37002L15.2 5.33002H16Z" fill="#F0F0F0"/>
<path d="M9 5.33002H7V9.67002H0V11.67H7V16H9V11.67H16V9.67002H9V5.33002Z" fill="#D80027"/>
<path d="M9.73999 12.52L16 16V15.02L11.51 12.52H9.73999Z" fill="#0052B4"/>
<path d="M9.73999 12.52L16 16V15.02L11.51 12.52H9.73999Z" fill="#F0F0F0"/>
<path d="M9.74 12.52L16 16V15.02L11.51 12.52H9.74ZM4.49 12.52L0 15.02V16L6.26 12.52H4.49Z" fill="#D80027"/>
<path d="M6.26 8.81002L0 5.33002V6.32002L4.49 8.81002H6.26Z" fill="#0052B4"/>
<path d="M6.26 8.81002L0 5.33002V6.32002L4.49 8.81002H6.26Z" fill="#F0F0F0"/>
<path d="M6.26 8.81002L0 5.33002V6.32002L4.49 8.81002H6.26ZM11.51 8.81002L16 6.32002V5.33002L9.74 8.81002H11.51Z" fill="#D80027"/>
</svg>
