<svg width="32" height="32" viewBox="0 0 32 32" fill="none" xmlns="http://www.w3.org/2000/svg">
<path d="M32 5.33002H0V26.66H32V5.33002Z" fill="#F0F0F0"/>
<path d="M32 5.33002H0V16H32V5.33002Z" fill="#D80027"/>
<path d="M5.2202 10.67C5.21736 9.92933 5.46916 9.21019 5.9334 8.63307C6.39765 8.05595 7.04613 7.65592 7.7702 7.49999C7.29829 7.40027 6.81007 7.40717 6.34117 7.52019C5.87227 7.63321 5.43451 7.84949 5.05985 8.15326C4.68519 8.45702 4.38308 8.8406 4.17556 9.27601C3.96804 9.71142 3.86035 10.1877 3.86035 10.67C3.86035 11.1523 3.96804 11.6286 4.17556 12.064C4.38308 12.4994 4.68519 12.883 5.05985 13.1867C5.43451 13.4905 5.87227 13.7068 6.34117 13.8198C6.81007 13.9328 7.29829 13.9397 7.7702 13.84C7.04786 13.6807 6.40148 13.2797 5.93784 12.7033C5.4742 12.127 5.22105 11.4097 5.2202 10.67ZM9.3902 7.64999L9.6202 8.35999H10.3702L9.7602 8.79999L9.9902 9.50999L9.3902 9.06999L8.7902 9.50999L9.0202 8.79999L8.4202 8.35999H9.1602L9.3902 7.64999Z" fill="#F0F0F0"/>
<path d="M7.57986 9.03998L7.80986 9.74998H8.55986L7.95986 10.19L8.18986 10.9L7.57986 10.46L6.97986 10.9L7.20986 10.19L6.60986 9.74998H7.34986L7.57986 9.03998ZM11.1999 9.03998L11.4299 9.74998H12.1699L11.5699 10.19L11.7999 10.9L11.1999 10.46L10.5999 10.9L10.8299 10.19L10.2199 9.74998H10.9699L11.1999 9.03998ZM10.4999 11.13L10.7299 11.84H11.4799L10.8799 12.28L11.1099 12.99L10.4999 12.55L9.89986 12.99L10.1299 12.28L9.52986 11.84H10.2699L10.4999 11.13ZM8.27986 11.13L8.50986 11.84H9.25986L8.64986 12.28L8.87986 12.99L8.27986 12.55L7.67986 12.99L7.90986 12.28L7.29986 11.84H8.04986L8.27986 11.13Z" fill="#F0F0F0"/>
</svg>
