<svg width="32" height="32" viewBox="0 0 32 32" fill="none" xmlns="http://www.w3.org/2000/svg">
<path d="M32 5.32996H0V26.66H32V5.32996Z" fill="#496E2D"/>
<path d="M32 5.32996H16V26.66H32V5.32996Z" fill="#F0F0F0"/>
<path d="M18.29 13.95L17.42 15.16L16 14.7L16.88 15.9L16 17.11L17.42 16.65L18.3 17.86L18.29 16.36L19.71 15.9L18.29 15.44V13.95Z" fill="#D80027"/>
<path d="M16.89 19C16.4372 18.9935 15.9917 18.8845 15.587 18.6813C15.1823 18.478 14.8289 18.1858 14.5532 17.8265C14.2775 17.4672 14.0868 17.0501 13.9953 16.6066C13.9038 16.1631 13.9139 15.7046 14.0248 15.2655C14.1357 14.8264 14.3446 14.4182 14.6358 14.0713C14.927 13.7245 15.293 13.4481 15.7062 13.2628C16.1195 13.0776 16.5693 12.9883 17.022 13.0017C17.4747 13.015 17.9184 13.1307 18.32 13.34C17.6306 12.6585 16.6995 12.2774 15.73 12.28C14.7461 12.28 13.8024 12.6709 13.1067 13.3667C12.4109 14.0624 12.02 15.0061 12.02 15.99C12.02 16.974 12.4109 17.9177 13.1067 18.6134C13.8024 19.3092 14.7461 19.7 15.73 19.7C16.6995 19.7027 17.6306 19.3216 18.32 18.64C17.8807 18.8771 17.3892 19.0009 16.89 19Z" fill="#D80027"/>
</svg>
