<svg width="32" height="32" viewBox="0 0 32 32" fill="none" xmlns="http://www.w3.org/2000/svg">
<path d="M32 11.14H0V20.82H32V11.14Z" fill="#B20404"/>
<path d="M32 5.33002H0V11.14H32V5.33002ZM32 20.82H0V26.63H32V20.82Z" fill="#3C5EBA"/>
<path d="M32 20.82H0V22.76H32V20.82ZM32 9.20001H0V11.14H32V9.20001ZM28 15.45H4V16.42H28V15.45Z" fill="#FFDA00"/>
<path d="M22 16C22 16 20 19.87 16 19.87C12 19.87 10 16 10 16C10 16 12 12.13 16 12.13C20 12.13 22 16 22 16Z" fill="black"/>
<path d="M22 16C22 16 20 19.87 16 19.87C15 17.94 15.5 17.45 16 16C16.5 14.55 15 14.55 16 12.13C20 12.11 22 16 22 16Z" fill="white"/>
</svg>
