<svg width="32" height="32" viewBox="0 0 32 32" fill="none" xmlns="http://www.w3.org/2000/svg">
<path d="M32 5.33002H0V26.66H32V5.33002Z" fill="#F0F0F0"/>
<path d="M32 5.33002H0V12.44H32V5.33002ZM32 19.56H0V26.67H32V19.56Z" fill="#338AF3"/>
<path d="M15.9999 17.48C15.6074 17.48 15.2309 17.3241 14.9534 17.0465C14.6758 16.769 14.5199 16.3925 14.5199 16C14.5199 15.6075 14.6758 15.2311 14.9534 14.9535C15.2309 14.676 15.6074 14.52 15.9999 14.52C16.3924 14.52 16.7689 14.676 17.0464 14.9535C17.324 15.2311 17.4799 15.6075 17.4799 16C17.4799 16.3925 17.324 16.769 17.0464 17.0465C16.7689 17.3241 16.3924 17.48 15.9999 17.48ZM15.9999 13.4C15.4857 13.4 14.983 13.5525 14.5554 13.8382C14.1279 14.1239 13.7946 14.53 13.5978 15.005C13.401 15.4801 13.3495 16.0029 13.4499 16.5073C13.5502 17.0116 13.7978 17.4749 14.1614 17.8385C14.525 18.2021 14.9883 18.4497 15.4927 18.5501C15.997 18.6504 16.5198 18.5989 16.9949 18.4021C17.47 18.2053 17.876 17.8721 18.1617 17.4445C18.4474 17.0169 18.5999 16.5143 18.5999 16C18.5973 15.3113 18.3225 14.6515 17.8355 14.1645C17.3484 13.6774 16.6887 13.4027 15.9999 13.4Z" fill="#FFDA44"/>
<path d="M17.29 16.37L16 16L14.71 16.37L14.29 17.11H17.71L17.29 16.37Z" fill="#0052B4"/>
<path d="M16.0001 14.14L15.1401 15.63L16.0001 16L16.8601 15.63L16.0001 14.14Z" fill="#338AF3"/>
<path d="M14.71 16.37H17.29L16.86 15.63H15.14L14.71 16.37Z" fill="#6DA544"/>
</svg>
