<svg width="32" height="32" viewBox="0 0 32 32" fill="none" xmlns="http://www.w3.org/2000/svg">
<path d="M32 5.33002H0V26.66H32V5.33002Z" fill="#D80027"/>
<path d="M17.1001 13.4C16.8601 14.4 16.4301 14.22 16.2201 15.1C15.9154 15.0375 15.6263 14.9144 15.3702 14.7379C15.114 14.5615 14.8959 14.3353 14.7289 14.0729C14.5619 13.8105 14.4494 13.5171 14.398 13.2103C14.3467 12.9035 14.3576 12.5895 14.43 12.287C14.5024 11.9845 14.635 11.6997 14.8197 11.4494C15.0045 11.1992 15.2377 10.9886 15.5054 10.8303C15.7732 10.672 16.07 10.5691 16.3784 10.5278C16.6867 10.4866 17.0001 10.5077 17.3001 10.59C16.8801 12.35 17.3201 12.5 17.1001 13.4ZM13.8701 14.15C14.7501 14.69 14.4401 15.04 15.2101 15.51C14.8892 16.0405 14.3707 16.4217 13.7687 16.5698C13.1667 16.718 12.5305 16.6209 12.0001 16.3C11.4697 15.9791 11.0884 15.4606 10.9403 14.8586C10.7921 14.2566 10.8892 13.6205 11.2101 13.09C12.8001 14 13.0801 13.66 13.8701 14.15ZM13.5801 17.45C14.3701 16.78 14.5801 17.19 15.2901 16.6C15.5169 16.8264 15.6943 17.0972 15.8112 17.3955C15.9281 17.6938 15.9819 18.0131 15.9693 18.3332C15.9567 18.6534 15.8779 18.9674 15.738 19.2556C15.598 19.5438 15.3998 19.7999 15.156 20.0077C14.9121 20.2155 14.6279 20.3706 14.3212 20.4631C14.0144 20.5557 13.6919 20.5837 13.3738 20.5454C13.0557 20.5071 12.749 20.4033 12.473 20.2406C12.197 20.0779 11.9576 19.8598 11.7701 19.6C13.1401 18.44 12.8801 18.06 13.5801 17.45ZM16.6401 18.75C16.2401 17.75 16.7001 17.69 16.3501 16.86C16.9114 16.6554 17.5299 16.6753 18.077 16.9153C18.624 17.1554 19.0573 17.5973 19.2867 18.1489C19.5161 18.7005 19.5239 19.3193 19.3085 19.8765C19.093 20.4337 18.6709 20.8863 18.1301 21.14C17.4401 19.47 17.0001 19.61 16.6401 18.75ZM18.8101 16.24C17.8101 16.33 17.8101 15.86 16.9201 15.93C16.871 15.316 17.0679 14.7077 17.4673 14.2389C17.8668 13.77 18.4361 13.4791 19.0501 13.43C19.6641 13.381 20.2724 13.5778 20.7412 13.9773C21.2101 14.3767 21.501 14.946 21.5501 15.56C19.7401 15.71 19.7301 16.17 18.8101 16.24Z" fill="#F0F0F0"/>
</svg>
