<svg width="32" height="32" viewBox="0 0 32 32" fill="none" xmlns="http://www.w3.org/2000/svg">
<path d="M32 5.32996H0V26.66H32V5.32996Z" fill="#FFDA44"/>
<path d="M32 16H0V21.33H32V16Z" fill="#0052B4"/>
<path d="M32 21.33H0V26.66H32V21.33Z" fill="#D80027"/>
<path d="M16 19.71C16.4872 19.71 16.9697 19.6141 17.4198 19.4276C17.8699 19.2412 18.2789 18.9679 18.6234 18.6234C18.9679 18.2789 19.2412 17.8699 19.4276 17.4198C19.6141 16.9697 19.71 16.4872 19.71 16C19.71 15.5128 19.6141 15.0304 19.4276 14.5803C19.2412 14.1302 18.9679 13.7212 18.6234 13.3767C18.2789 13.0322 17.8699 12.7589 17.4198 12.5724C16.9697 12.386 16.4872 12.29 16 12.29C15.0161 12.29 14.0724 12.6809 13.3767 13.3767C12.6809 14.0724 12.29 15.0161 12.29 16C12.29 16.984 12.6809 17.9276 13.3767 18.6234C14.0724 19.3192 15.0161 19.71 16 19.71Z" fill="#FFDA44"/>
<path d="M15.9999 18.46C15.3668 18.4574 14.7604 18.2047 14.3128 17.7571C13.8651 17.3094 13.6125 16.703 13.6099 16.07V14.63C13.6099 13.9961 13.8617 13.3882 14.3099 12.94C14.7581 12.4918 15.366 12.24 15.9999 12.24C16.6337 12.24 17.2416 12.4918 17.6898 12.94C18.1381 13.3882 18.3899 13.9961 18.3899 14.63V16.07C18.3872 16.703 18.1346 17.3094 17.6869 17.7571C17.2393 18.2047 16.6329 18.4574 15.9999 18.46Z" fill="#338AF3"/>
<path d="M19.8299 10.33H16.9999C17.0428 10.1812 17.0504 10.0245 17.0223 9.87231C16.9943 9.72009 16.9312 9.57646 16.8381 9.45279C16.745 9.32911 16.6244 9.22876 16.4859 9.15965C16.3474 9.09054 16.1947 9.05457 16.0399 9.05457C15.8851 9.05457 15.7324 9.09054 15.5939 9.15965C15.4554 9.22876 15.3349 9.32911 15.2418 9.45279C15.1487 9.57646 15.0856 9.72009 15.0575 9.87231C15.0294 10.0245 15.0371 10.1812 15.0799 10.33H12.1699C12.1828 10.5864 12.2938 10.8281 12.4799 11.005C12.6661 11.1818 12.9131 11.2803 13.1699 11.28C13.1699 11.5452 13.2753 11.7995 13.4628 11.9871C13.6504 12.1746 13.9047 12.28 14.1699 12.28C14.1696 12.5367 14.2681 12.7838 14.4449 12.97C14.6218 13.1561 14.8635 13.2671 15.1199 13.28H16.9999C17.2564 13.2671 17.4981 13.1561 17.6749 12.97C17.8518 12.7838 17.9502 12.5367 17.9499 12.28C18.2151 12.28 18.4695 12.1746 18.657 11.9871C18.8446 11.7995 18.9499 11.5452 18.9499 11.28C19.1854 11.2517 19.4033 11.1407 19.5645 10.9667C19.7257 10.7926 19.8197 10.567 19.8299 10.33Z" fill="black"/>
</svg>
