<svg width="32" height="32" viewBox="0 0 32 32" fill="none" xmlns="http://www.w3.org/2000/svg">
<path d="M32 5.32996H0V26.66H32V5.32996Z" fill="#338AF3"/>
<path d="M16.0002 9.96997L16.4602 11.39H17.9502L16.7502 12.26L17.2002 13.68L16.0002 12.8L14.7902 13.68L15.2602 12.26L14.0502 11.39H15.5402L16.0002 9.96997ZM9.97021 16L11.3902 15.54V14.05L12.2702 15.26L13.6802 14.79L12.8102 16L13.6802 17.2L12.2702 16.75L11.3902 17.95V16.46L9.97021 16ZM16.0002 22.03L15.5402 20.61H14.0502L15.2602 19.73L14.7902 18.32L16.0002 19.19L17.2002 18.32L16.7502 19.73L17.9502 20.61H16.4602L16.0002 22.03ZM22.0302 16L20.6102 16.46V17.95L19.7402 16.75L18.3202 17.2L19.2002 16L18.3202 14.79L19.7402 15.26L20.6102 14.05V15.54L22.0302 16Z" fill="#F0F0F0"/>
</svg>
