<svg width="32" height="32" viewBox="0 0 32 32" fill="none" xmlns="http://www.w3.org/2000/svg">
<path d="M32 5.33002H0V26.66H32V5.33002Z" fill="#D80027"/>
<path d="M16.0001 26.67C21.8931 26.67 26.6701 21.893 26.6701 16C26.6701 10.107 21.8931 5.33002 16.0001 5.33002C10.1071 5.33002 5.33008 10.107 5.33008 16C5.33008 21.893 10.1071 26.67 16.0001 26.67Z" fill="#D80027"/>
<path d="M21.2198 16L19.0898 17L20.2198 19.07L17.9098 18.62L17.6098 20.96L15.9998 19.24L14.3898 20.96L14.0898 18.62L11.7798 19.07L12.9098 17L10.7798 16L12.9098 15L11.7798 12.93L14.0898 13.38L14.3898 11.04L15.9998 12.76L17.6098 11.04L17.9098 13.38L20.2198 12.93L19.0898 15L21.2198 16Z" fill="#FFDA44"/>
<path d="M16 19.25C16.862 19.25 17.6886 18.9076 18.2981 18.2981C18.9076 17.6886 19.25 16.862 19.25 16C19.25 15.138 18.9076 14.3114 18.2981 13.7019C17.6886 13.0924 16.862 12.75 16 12.75C15.138 12.75 14.3114 13.0924 13.7019 13.7019C13.0924 14.3114 12.75 15.138 12.75 16C12.75 16.862 13.0924 17.6886 13.7019 18.2981C14.3114 18.9076 15.138 19.25 16 19.25Z" fill="#D80027"/>
<path d="M14.3799 16H14.1499C14.1489 16.432 14.3009 16.85 14.5799 17.18C14.7272 16.8111 14.9407 16.4722 15.2099 16.18C14.9467 16.0692 14.6653 16.0082 14.3799 16ZM15.3799 17.75C15.7829 17.881 16.2169 17.881 16.6199 17.75C16.5187 17.3361 16.304 16.9586 15.9999 16.66C15.6958 16.9586 15.4811 17.3361 15.3799 17.75ZM17.6099 15.07C17.4466 14.7876 17.2118 14.5532 16.9292 14.3902C16.6466 14.2272 16.3261 14.1414 15.9999 14.1414C15.6737 14.1414 15.3532 14.2272 15.0706 14.3902C14.788 14.5532 14.5533 14.7876 14.3899 15.07C14.9559 15.0731 15.5111 15.2248 15.9999 15.51C16.4888 15.2248 17.044 15.0731 17.6099 15.07ZM16.7899 16.15C17.0599 16.442 17.2729 16.781 17.4199 17.15C17.6921 16.8281 17.8441 16.4216 17.8499 16H17.6199C17.3364 15.9987 17.055 16.0496 16.7899 16.15Z" fill="#FFDA44"/>
</svg>
