<svg width="32" height="32" viewBox="0 0 32 32" fill="none" xmlns="http://www.w3.org/2000/svg">
<path d="M32 5.33002H0V26.66H32V5.33002Z" fill="#F0F0F0"/>
<path d="M32 5.33002V16H16L0 5.33002H32Z" fill="#0052B4"/>
<path d="M32 16V26.67H0L16 16H32Z" fill="#D80027"/>
<path d="M10.1199 16L8.40992 15.2L9.31992 13.55L7.46992 13.9L7.23992 12.03L5.94992 13.4L4.65992 12.03L4.41992 13.9L2.56992 13.55L3.47992 15.2L1.76992 16L3.47992 16.8L2.56992 18.45L4.41992 18.1L4.65992 19.97L5.94992 18.59L7.23992 19.97L7.46992 18.1L9.31992 18.45L8.40992 16.8L10.1199 16ZM1.35992 7.34998L1.92992 8.13998L2.85992 7.84998L2.27992 8.62998L2.84992 9.42998L1.91992 9.11998L1.33992 9.89998L1.34992 8.92998L0.419922 8.61998L1.34992 8.32998L1.35992 7.34998ZM1.35992 22.1L1.92992 22.89L2.85992 22.59L2.27992 23.38L2.84992 24.17L1.91992 23.86L1.33992 24.65L1.34992 23.67L0.419922 23.37L1.34992 23.07L1.35992 22.1ZM13.1499 14.72L12.5799 15.52L11.6499 15.22L12.2299 16.01L11.6599 16.8L12.5899 16.49L13.1699 17.28L13.1599 16.3L14.0899 15.99L13.1599 15.7L13.1499 14.72Z" fill="#FFDA44"/>
</svg>
