<svg width="73" height="130" viewBox="0 0 73 130" fill="none" xmlns="http://www.w3.org/2000/svg">
<g filter="url(#filter0_i_1087_146924)">
<rect x="0.166504" width="72" height="130" rx="10" fill="#DBD7D3"/>
<rect x="0.166504" width="72" height="130" rx="10" fill="url(#paint0_linear_1087_146924)" fill-opacity="0.2"/>
</g>
<rect x="4.1665" y="4" width="64" height="122" rx="8" fill="url(#paint1_linear_1087_146924)"/>
<rect x="9.1665" y="70" width="55" height="35" rx="5" fill="#F5F4F2"/>
<rect x="13.1665" y="89" width="47" height="12" rx="3" fill="white"/>
<rect x="13.1665" y="76" width="25" height="6" rx="3" fill="white"/>
<path d="M61.7388 37.1439C49.3902 32.0708 33.7211 30.9558 19.9951 52.8135" stroke="url(#paint2_linear_1087_146924)" stroke-linecap="round"/>
<circle opacity="0.5" cx="20.6586" cy="51.9921" r="10.9921" fill="url(#paint3_radial_1087_146924)"/>
<circle cx="20.6587" cy="51.9922" r="2.74802" fill="white"/>
<circle cx="20.6587" cy="52.0351" r="1.37401" fill="#2DDCCC"/>
<g clip-path="url(#clip0_1087_146924)">
<circle cx="61.6665" cy="37" r="3" fill="white"/>
<circle cx="61.6665" cy="37" r="1.5" fill="#8A6EFF"/>
</g>
<rect x="20.1665" y="16" width="32" height="4" rx="2" fill="#2DDCCC"/>
<rect x="24.1665" y="121" width="24" height="2" rx="1" fill="#1C1B24"/>
<defs>
<filter id="filter0_i_1087_146924" x="0.166504" y="0" width="72" height="131.172" filterUnits="userSpaceOnUse" color-interpolation-filters="sRGB">
<feFlood flood-opacity="0" result="BackgroundImageFix"/>
<feBlend mode="normal" in="SourceGraphic" in2="BackgroundImageFix" result="shape"/>
<feColorMatrix in="SourceAlpha" type="matrix" values="0 0 0 0 0 0 0 0 0 0 0 0 0 0 0 0 0 0 127 0" result="hardAlpha"/>
<feOffset dy="1.17225"/>
<feGaussianBlur stdDeviation="0.586126"/>
<feComposite in2="hardAlpha" operator="arithmetic" k2="-1" k3="1"/>
<feColorMatrix type="matrix" values="0 0 0 0 1 0 0 0 0 1 0 0 0 0 1 0 0 0 0.9 0"/>
<feBlend mode="normal" in2="shape" result="effect1_innerShadow_1087_146924"/>
</filter>
<linearGradient id="paint0_linear_1087_146924" x1="54.6981" y1="185.498" x2="-26.1435" y2="158.504" gradientUnits="userSpaceOnUse">
<stop stop-color="white"/>
<stop offset="0.553424" stop-color="white" stop-opacity="0"/>
</linearGradient>
<linearGradient id="paint1_linear_1087_146924" x1="42.1559" y1="-27.8264" x2="-24.4914" y2="45.5072" gradientUnits="userSpaceOnUse">
<stop stop-color="#ECECEC"/>
<stop offset="1" stop-color="white"/>
</linearGradient>
<linearGradient id="paint2_linear_1087_146924" x1="71.5795" y1="6.3006" x2="9.26309" y2="32.6397" gradientUnits="userSpaceOnUse">
<stop stop-color="#8A6EFF"/>
<stop offset="1" stop-color="#25ECC6"/>
</linearGradient>
<radialGradient id="paint3_radial_1087_146924" cx="0" cy="0" r="1" gradientUnits="userSpaceOnUse" gradientTransform="translate(20.6586 51.9921) rotate(90) scale(10.9921)">
<stop offset="0.442708" stop-color="#2DDCCC" stop-opacity="0"/>
<stop offset="1" stop-color="#2DDCCC"/>
</radialGradient>
<clipPath id="clip0_1087_146924">
<rect width="6" height="6" fill="white" transform="translate(58.6665 34)"/>
</clipPath>
</defs>
</svg>
