<svg width="32" height="32" viewBox="0 0 32 32" fill="none" xmlns="http://www.w3.org/2000/svg">
<path d="M32 5.32996H0V26.66H32V5.32996Z" fill="#0052B4"/>
<path d="M25.85 18.3199V18.7799H22.14V18.3199H20.75V20.1699H21.68V20.6399H26.32V20.1699H27.25V18.3199H25.85Z" fill="#FFDA44"/>
<path d="M20.75 11.36V16.46C20.75 19 24 19.71 24 19.71C24 19.71 27.25 18.95 27.25 16.46V11.36H20.75Z" fill="#338AF3"/>
<path d="M24 15.1699C23.19 15.1699 23.19 15.9099 22.38 15.9099C21.57 15.9099 21.57 15.1699 20.75 15.1699V16.4699C21.57 16.4699 21.57 17.2099 22.38 17.2099C23.19 17.2099 23.19 16.4699 24 16.4699C24.81 16.4699 24.81 17.2099 25.62 17.2099C26.43 17.2099 26.44 16.4699 27.25 16.4699V15.1699C26.44 15.1699 26.44 15.9099 25.62 15.9099C24.8 15.9099 24.81 15.1699 24 15.1699ZM24 12.5699C23.19 12.5699 23.19 13.3099 22.38 13.3099C21.57 13.3099 21.57 12.5699 20.75 12.5699V13.8699C21.57 13.8699 21.57 14.6099 22.38 14.6099C23.19 14.6099 23.19 13.8699 24 13.8699C24.81 13.8699 24.81 14.6099 25.62 14.6099C26.43 14.6099 26.44 13.8699 27.25 13.8699V12.5699C26.44 12.5699 26.44 13.3099 25.62 13.3099C24.8 13.3099 24.81 12.5699 24 12.5699Z" fill="#F3F3F3"/>
<path d="M16 5.32996V7.23996L13.18 8.80996H16V12.52H12.31L16 14.57V16H14.33L9.74 13.45V16H6.26V12.96L0.8 16H0V14.09L2.82 12.52H0V8.80996H3.69L0 6.75996V5.32996H1.67L6.26 7.87996V5.32996H9.74V8.36996L15.2 5.32996H16Z" fill="#F0F0F0"/>
<path d="M9 5.32996H7V9.66996H0V11.67H7V16H9V11.67H16V9.66996H9V5.32996Z" fill="#D80027"/>
<path d="M9.73999 12.52L16 16V15.02L11.51 12.52H9.73999Z" fill="#0052B4"/>
<path d="M9.73999 12.52L16 16V15.02L11.51 12.52H9.73999Z" fill="#F0F0F0"/>
<path d="M9.74 12.52L16 16V15.02L11.51 12.52H9.74ZM4.49 12.52L0 15.02V16L6.26 12.52H4.49Z" fill="#D80027"/>
<path d="M6.26 8.80996L0 5.32996V6.31996L4.49 8.80996H6.26Z" fill="#0052B4"/>
<path d="M6.26 8.80996L0 5.32996V6.31996L4.49 8.80996H6.26Z" fill="#F0F0F0"/>
<path d="M6.26 8.80996L0 5.32996V6.31996L4.49 8.80996H6.26ZM11.51 8.80996L16 6.31996V5.32996L9.74 8.80996H11.51Z" fill="#D80027"/>
</svg>
