<svg width="32" height="32" viewBox="0 0 32 32" fill="none" xmlns="http://www.w3.org/2000/svg">
<path d="M32 5.33002H0V26.66H32V5.33002Z" fill="#D80027"/>
<path d="M22.95 10.9H9.04004V21.1H22.95V10.9Z" fill="#6DA544"/>
<path d="M17.7201 19C17.2673 18.9934 16.8218 18.8845 16.4171 18.6812C16.0124 18.478 15.659 18.1857 15.3833 17.8264C15.1076 17.4671 14.9169 17.0501 14.8254 16.6065C14.7338 16.163 14.7439 15.7045 14.8549 15.2654C14.9658 14.8264 15.1747 14.4181 15.4659 14.0713C15.7571 13.7244 16.1231 13.448 16.5363 13.2628C16.9496 13.0775 17.3994 12.9882 17.8521 13.0016C18.3047 13.015 18.7485 13.1307 19.1501 13.34C18.4607 12.6584 17.5295 12.2774 16.5601 12.28C15.5761 12.28 14.6325 12.6709 13.9367 13.3666C13.241 14.0624 12.8501 15.006 12.8501 15.99C12.8501 16.9739 13.241 17.9176 13.9367 18.6133C14.6325 19.3091 15.5761 19.7 16.5601 19.7C17.5295 19.7026 18.4607 19.3215 19.1501 18.64C18.7108 18.8771 18.2193 19.0008 17.7201 19Z" fill="#F0F0F0"/>
</svg>
