<svg width="32" height="32" viewBox="0 0 32 32" fill="none" xmlns="http://www.w3.org/2000/svg">
<path d="M32 5.32996H0V26.66H32V5.32996Z" fill="#D80027"/>
<path d="M16 5.32996H0V16H16V5.32996Z" fill="#F0F0F0"/>
<path d="M9 5.32996H7V9.66996H0V11.67H7V16H9V11.67H16V9.66996H9V5.32996Z" fill="#D80027"/>
<path d="M0 5.32996V6.27996L3.59 8.66996H5L0 5.32996Z" fill="#D80027"/>
<path d="M0 6.74996V8.66996H2.88L0 6.74996ZM6 5.32996V8.38996L1.41 5.32996H6Z" fill="#2E52B2"/>
<path d="M16 5.32996V6.27996L12.41 8.66996H11L16 5.32996Z" fill="#D80027"/>
<path d="M16 6.74996V8.66996H13.12L16 6.74996ZM10 5.32996V8.38996L14.59 5.32996H10Z" fill="#2E52B2"/>
<path d="M0 5.32996V6.27996L3.59 8.66996H5L0 5.32996Z" fill="#D80027"/>
<path d="M0 6.74996V8.66996H2.88L0 6.74996ZM6 5.32996V8.38996L1.41 5.32996H6Z" fill="#2E52B2"/>
<path d="M16 5.32996V6.27996L12.41 8.66996H11L16 5.32996Z" fill="#D80027"/>
<path d="M16 6.74996V8.66996H13.12L16 6.74996ZM10 5.32996V8.38996L14.59 5.32996H10Z" fill="#2E52B2"/>
<path d="M0 16V15.06L3.59 12.67H5L0 16Z" fill="#D80027"/>
<path d="M0 14.59V12.67H2.88L0 14.59ZM6 16V12.94L1.41 16H6Z" fill="#2E52B2"/>
<path d="M16 16V15.06L12.41 12.67H11L16 16Z" fill="#D80027"/>
<path d="M16 14.59V12.67H13.12L16 14.59ZM10 16V12.94L14.59 16H10Z" fill="#2E52B2"/>
<path d="M20.75 11.83V16.93C20.75 19.41 27.25 19.41 27.25 16.93V11.83H20.75Z" fill="#F3F3F3"/>
<path d="M20.75 16.9301C20.75 19.4101 24 20.1701 24 20.1701C24 20.1701 27.25 19.4101 27.25 16.9301H20.75Z" fill="#6DA544"/>
<path d="M24 14.89L22.49 15.54V16.93L24 17.86L25.51 16.93V15.54L24 14.89Z" fill="#A2001D"/>
<path d="M25.5 14.14H22.49V15.53H25.5V14.14Z" fill="#338AF3"/>
</svg>
