<svg width="32" height="32" viewBox="0 0 32 32" fill="none" xmlns="http://www.w3.org/2000/svg">
<path d="M32 5.32996H0V26.66H32V5.32996Z" fill="#338AF3"/>
<path d="M32 5.32996H0V16H32V5.32996Z" fill="#6DA544"/>
<path d="M0 26.67L32 16L0 5.32996V26.67Z" fill="#D80027"/>
<path d="M10.9199 16.63C10.917 17.0772 10.7721 17.5119 10.5061 17.8714C10.2401 18.2308 9.86674 18.4965 9.43994 18.63V17.26L10.3399 16.37L9.43994 15.48V14.74H8.17994V16L7.28994 16.89L8.17994 17.79V18.64C7.75501 18.5047 7.38385 18.2383 7.11975 17.879C6.85565 17.5197 6.71218 17.0859 6.70994 16.64V15.37C6.69004 15.0814 6.7297 14.7917 6.82647 14.5191C6.92325 14.2464 7.07506 13.9966 7.27247 13.7851C7.46989 13.5736 7.70869 13.4049 7.97404 13.2896C8.23939 13.1743 8.52562 13.1148 8.81494 13.1148C9.10426 13.1148 9.39049 13.1743 9.65584 13.2896C9.92119 13.4049 10.16 13.5736 10.3574 13.7851C10.5548 13.9966 10.7066 14.2464 10.8034 14.5191C10.9002 14.7917 10.9398 15.0814 10.9199 15.37V16.63ZM8.80994 12C7.91616 12 7.05899 12.3551 6.42699 12.9871C5.79499 13.619 5.43994 14.4762 5.43994 15.37V16.63C5.43994 17.0726 5.52711 17.5108 5.69647 17.9196C5.86583 18.3285 6.11406 18.7 6.42699 19.0129C6.73992 19.3259 7.11143 19.5741 7.5203 19.7435C7.92917 19.9128 8.36739 20 8.80994 20C9.2525 20 9.69072 19.9128 10.0996 19.7435C10.5085 19.5741 10.88 19.3259 11.1929 19.0129C11.5058 18.7 11.7541 18.3285 11.9234 17.9196C12.0928 17.5108 12.1799 17.0726 12.1799 16.63V15.37C12.1799 14.4762 11.8249 13.619 11.1929 12.9871C10.5609 12.3551 9.70372 12 8.80994 12Z" fill="#FFDA44"/>
</svg>
