<svg width="32" height="32" viewBox="0 0 32 32" fill="none" xmlns="http://www.w3.org/2000/svg">
<path d="M32 5.32996H0V26.66H32V5.32996Z" fill="#D80027"/>
<path d="M32 5.32996V15.75L0 16.01V5.32996H32Z" fill="#F0F0F0"/>
<path d="M12.7499 21.1C13.4196 21.1 14.0828 20.9681 14.7016 20.7118C15.3203 20.4555 15.8826 20.0798 16.3561 19.6063C16.8297 19.1327 17.2054 18.5705 17.4617 17.9517C17.718 17.3329 17.8499 16.6698 17.8499 16C17.8499 15.3303 17.718 14.6671 17.4617 14.0483C17.2054 13.4296 16.8297 12.8674 16.3561 12.3938C15.8826 11.9202 15.3203 11.5445 14.7016 11.2882C14.0828 11.0319 13.4196 10.9 12.7499 10.9C11.3973 10.9 10.1001 11.4373 9.14366 12.3938C8.18722 13.3502 7.6499 14.6474 7.6499 16C7.6499 17.3526 8.18722 18.6498 9.14366 19.6063C10.1001 20.5627 11.3973 21.1 12.7499 21.1Z" fill="#F0F0F0"/>
<path d="M7.6499 16C7.6499 15.3303 7.78182 14.6671 8.03812 14.0483C8.29442 13.4296 8.67008 12.8674 9.14366 12.3938C9.61724 11.9202 10.1795 11.5445 10.7982 11.2882C11.417 11.0319 12.0802 10.9 12.7499 10.9C13.4196 10.9 14.0828 11.0319 14.7016 11.2882C15.3203 11.5445 15.8826 11.9202 16.3561 12.3938C16.8297 12.8674 17.2054 13.4296 17.4617 14.0483C17.718 14.6671 17.8499 15.3303 17.8499 16" fill="#D80027"/>
</svg>
