<svg width="32" height="32" viewBox="0 0 32 32" fill="none" xmlns="http://www.w3.org/2000/svg">
<path d="M32 5.32996H0V26.66H32V5.32996Z" fill="#6DA544"/>
<path d="M16 10.11L24 16L16 21.89L8 16L16 10.11Z" fill="#FFDA44"/>
<path d="M19.3698 16.103C19.3902 15.6567 19.3218 15.2109 19.1684 14.7913C19.015 14.3717 18.7797 13.9869 18.4762 13.6591C18.1727 13.3312 17.8071 13.0671 17.4006 12.8818C16.9941 12.6966 16.5548 12.594 16.1083 12.5801C15.6618 12.5662 15.217 12.6412 14.7997 12.8007C14.3825 12.9603 14.0011 13.2012 13.6778 13.5095C13.3545 13.8177 13.0957 14.1872 12.9164 14.5964C12.7372 15.0056 12.6411 15.4463 12.6338 15.893C12.6192 16.7781 12.9534 17.6333 13.5643 18.274C14.1751 18.9147 15.0135 19.2893 15.8983 19.3169C16.7831 19.3444 17.6432 19.0228 18.2927 18.4214C18.9423 17.8201 19.3292 16.9872 19.3698 16.103Z" fill="#F0F0F0"/>
<path d="M14.3199 15.79C13.7474 15.7911 13.1781 15.8753 12.6299 16.04C12.639 16.7529 12.8741 17.4445 13.3012 18.0154C13.7282 18.5863 14.3254 19.007 15.0067 19.217C15.688 19.4271 16.4184 19.4157 17.0928 19.1844C17.7672 18.9531 18.3509 18.5139 18.7599 17.93C18.2275 17.2633 17.5521 16.7248 16.7836 16.3544C16.015 15.9839 15.173 15.7911 14.3199 15.79ZM19.3099 16.64C19.4619 15.8266 19.3093 14.9857 18.8812 14.2776C18.4531 13.5695 17.7795 13.0436 16.9886 12.8001C16.1978 12.5567 15.345 12.6127 14.5928 12.9576C13.8406 13.3024 13.2416 13.9119 12.9099 14.67C14.0563 14.4374 15.2427 14.4959 16.3607 14.84C17.4787 15.1842 18.4927 15.803 19.3099 16.64Z" fill="#0052B4"/>
</svg>
