<svg width="24" height="24" viewBox="0 0 24 24" fill="none" xmlns="http://www.w3.org/2000/svg">
<path fill-rule="evenodd" clip-rule="evenodd" d="M15.664 4.78486C15.905 5.12457 16.1006 5.49876 16.2418 5.89819H17.25H18.75V7.39819V8.92135C19.9883 8.92135 21 7.91006 21 6.65282C21 6.23861 21.3358 5.90282 21.75 5.90282C22.1642 5.90282 22.5 6.23861 22.5 6.65282C22.5 8.72976 20.8254 10.4214 18.75 10.4214V12.6945H21.75C22.1642 12.6945 22.5 13.0303 22.5 13.4445C22.5 13.8587 22.1642 14.1945 21.75 14.1945H18.75V15.7501C18.75 16.2557 18.6944 16.7484 18.589 17.2223H18.75C20.8254 17.2223 22.5 18.9139 22.5 20.9908C22.5 21.405 22.1642 21.7408 21.75 21.7408C21.3358 21.7408 21 21.405 21 20.9908C21 19.7336 19.9883 18.7223 18.75 18.7223H18.0621C16.9629 20.9599 14.6613 22.5001 12 22.5001C9.33868 22.5001 7.03708 20.9599 5.93791 18.7223H5.25C4.01171 18.7223 3 19.7336 3 20.9908C3 21.405 2.66421 21.7408 2.25 21.7408C1.83579 21.7408 1.5 21.405 1.5 20.9908C1.5 18.9139 3.17458 17.2223 5.25 17.2223H5.41102C5.3056 16.7484 5.25 16.2557 5.25 15.7501V14.1945H2.25C1.83579 14.1945 1.5 13.8587 1.5 13.4445C1.5 13.0303 1.83579 12.6945 2.25 12.6945H5.25V10.4214C3.17458 10.4214 1.5 8.72976 1.5 6.65282C1.5 6.23861 1.83579 5.90282 2.25 5.90282C2.66421 5.90282 3 6.23861 3 6.65282C3 7.91006 4.01171 8.92135 5.25 8.92135V7.39819V5.89819H6.75H7.75819C7.89943 5.49874 8.09503 5.12453 8.33606 4.78481L6.35021 2.78669C6.05822 2.4929 6.05822 2.01656 6.35021 1.72277C6.6422 1.42898 7.11561 1.42898 7.4076 1.72277L9.39318 3.72061C10.1287 3.19184 11.0284 2.87966 12 2.87966C12.9716 2.87966 13.8714 3.19186 14.6069 3.72065L16.5927 1.72254C16.8847 1.42875 17.3581 1.42875 17.6501 1.72254C17.9421 2.01634 17.9421 2.49267 17.6501 2.78646L15.664 4.78486ZM9 7.40745H7.5L7.50001 7.39819H6.75V15.7501C6.75 18.6496 9.1005 21.0001 12 21.0001C14.8995 21.0001 17.25 18.6496 17.25 15.7501V7.39819H16.5L16.5 7.40745H15L9 7.40745ZM14.5979 5.89819C14.0769 4.99146 13.1037 4.37966 12 4.37966C10.8963 4.37966 9.9231 4.99146 9.40215 5.89819H14.5979Z" fill="white"/>
</svg>
