<svg width="32" height="32" viewBox="0 0 32 32" fill="none" xmlns="http://www.w3.org/2000/svg">
<path d="M32 5.32996H0V26.66H32V5.32996Z" fill="#D80027"/>
<path d="M31.9999 5.32996H20.6399V26.66H31.9999V5.32996Z" fill="#496E2D"/>
<path d="M11.36 5.32996H0V26.66H11.36V5.32996Z" fill="black"/>
<path d="M15.9999 18.32C15.6913 18.3264 15.3844 18.2712 15.0974 18.1575C14.8104 18.0438 14.5489 17.874 14.3284 17.658C14.1078 17.4419 13.9326 17.1841 13.813 16.8995C13.6934 16.6149 13.6318 16.3093 13.6318 16.0005C13.6318 15.6918 13.6934 15.3862 13.813 15.1016C13.9326 14.817 14.1078 14.5591 14.3284 14.3431C14.5489 14.1271 14.8104 13.9573 15.0974 13.8436C15.3844 13.7299 15.6913 13.6746 15.9999 13.681C16.6068 13.6936 17.1845 13.9436 17.6092 14.3772C18.0339 14.8108 18.2718 15.3936 18.2718 16.0005C18.2718 16.6075 18.0339 17.1903 17.6092 17.6239C17.1845 18.0575 16.6068 18.3074 15.9999 18.32ZM15.9999 12.29C15.2649 12.29 14.5459 12.538 13.9359 12.947C13.4024 13.3043 12.9707 13.7938 12.6831 14.3679C12.3955 14.9419 12.2618 15.5808 12.295 16.222C12.3283 16.8632 12.5274 17.4847 12.8728 18.026C13.2183 18.5672 13.6983 19.0094 14.2659 19.3096C14.8335 19.6097 15.4692 19.7574 16.111 19.7382C16.7528 19.7189 17.3786 19.5335 17.9272 19.2C18.4759 18.8665 18.9286 18.3963 19.241 17.8354C19.5535 17.2745 19.7151 16.6421 19.7099 16C19.7099 15.0161 19.319 14.0724 18.6233 13.3767C17.9275 12.6809 16.9839 12.29 15.9999 12.29Z" fill="#FFDA44"/>
<path d="M16.0001 14.61C15.7534 14.61 15.5169 14.708 15.3425 14.8824C15.1681 15.0568 15.0701 15.2933 15.0701 15.54V16.93H16.9301V15.54C16.9301 15.2933 16.8321 15.0568 16.6577 14.8824C16.4833 14.708 16.2467 14.61 16.0001 14.61Z" fill="#FFDA44"/>
</svg>
