<svg width="32" height="32" viewBox="0 0 32 32" fill="none" xmlns="http://www.w3.org/2000/svg">
<path d="M32 5.32996H0V26.66H32V5.32996Z" fill="#F0F0F0"/>
<path d="M32 5.32996H0V12.44H32V5.32996Z" fill="#D80027"/>
<path d="M32 19.5601H0V26.6701H32V19.5601Z" fill="black"/>
<path d="M20 14.77H17C17 14.5048 16.8946 14.2504 16.7071 14.0629C16.5196 13.8754 16.2652 13.77 16 13.77C15.7348 13.77 15.4804 13.8754 15.2929 14.0629C15.1054 14.2504 15 14.5048 15 14.77H12C12 15.0352 12.1054 15.2896 12.2929 15.4771C12.4804 15.6647 12.7348 15.77 13 15.77C13 16.0352 13.1054 16.2896 13.2929 16.4771C13.4804 16.6647 13.7348 16.77 14 16.77C14 17.0352 14.1054 17.2896 14.2929 17.4771C14.4804 17.6647 14.7348 17.77 15 17.77H17C17.2652 17.77 17.5196 17.6647 17.7071 17.4771C17.8946 17.2896 18 17.0352 18 16.77C18.2652 16.77 18.5196 16.6647 18.7071 16.4771C18.8946 16.2896 19 16.0352 19 15.77C19.2652 15.77 19.5196 15.6647 19.7071 15.4771C19.8946 15.2896 20 15.0352 20 14.77Z" fill="#FF9811"/>
</svg>
