<svg width="32" height="32" viewBox="0 0 32 32" fill="none" xmlns="http://www.w3.org/2000/svg">
<path d="M0 5.33002V26.67H32V5.33002H0Z" fill="#D80027"/>
<path d="M16.75 18L17.54 17.43L18 18.9L16.75 18ZM14 18.9L14.49 17.4L15.28 17.97L14 18.9ZM14.3 15L14 16L12.72 15H14.3ZM18 16L17.7 15H19.28L18 16ZM16.49 14.19H15.49L16 12.65L16.49 14.19ZM14.75 16.54L15.22 15H16.77L17.25 16.47L16 17.42L14.75 16.54ZM22 14.16H17.42L16 9.79999L14.58 14.16H10L13.71 16.85L12.29 21.21L16 18.51L19.71 21.21L18.29 16.85L22 14.16Z" fill="#006233"/>
</svg>
