<svg width="32" height="32" viewBox="0 0 32 32" fill="none" xmlns="http://www.w3.org/2000/svg">
<path d="M32 5.33002H0V26.66H32V5.33002Z" fill="#FFDA44"/>
<path d="M16 5.33002H0V16H16V5.33002Z" fill="#F0F0F0"/>
<path d="M9 5.33002H7V9.67002H0V11.67H7V16H9V11.67H16V9.67002H9V5.33002Z" fill="#D80027"/>
<path d="M0 5.33002V6.28002L3.59 8.67002H5L0 5.33002Z" fill="#D80027"/>
<path d="M0 6.75002V8.67002H2.88L0 6.75002ZM6 5.33002V8.39002L1.41 5.33002H6Z" fill="#2E52B2"/>
<path d="M16 5.33002V6.28002L12.41 8.67002H11L16 5.33002Z" fill="#D80027"/>
<path d="M16 6.75002V8.67002H13.12L16 6.75002ZM10 5.33002V8.39002L14.59 5.33002H10Z" fill="#2E52B2"/>
<path d="M0 5.33002V6.28002L3.59 8.67002H5L0 5.33002Z" fill="#D80027"/>
<path d="M0 6.75002V8.67002H2.88L0 6.75002ZM6 5.33002V8.39002L1.41 5.33002H6Z" fill="#2E52B2"/>
<path d="M16 5.33002V6.28002L12.41 8.67002H11L16 5.33002Z" fill="#D80027"/>
<path d="M16 6.75002V8.67002H13.12L16 6.75002ZM10 5.33002V8.39002L14.59 5.33002H10Z" fill="#2E52B2"/>
<path d="M0 16V15.06L3.59 12.67H5L0 16Z" fill="#D80027"/>
<path d="M0 14.59V12.67H2.88L0 14.59ZM6 16V12.94L1.41 16H6Z" fill="#2E52B2"/>
<path d="M16 16V15.06L12.41 12.67H11L16 16Z" fill="#D80027"/>
<path d="M16.0001 14.59V12.67H13.1201L16.0001 14.59ZM10.0001 16V12.94L14.5901 16H10.0001ZM9.40008 10.65C9.40008 10.276 9.25152 9.9174 8.9871 9.65297C8.72267 9.38854 8.36403 9.23999 7.99008 9.23999C7.61612 9.23999 7.25748 9.38854 6.99306 9.65297C6.72863 9.9174 6.58008 10.276 6.58008 10.65C6.58008 11.0239 6.72863 11.3826 6.99306 11.647C7.25748 11.9114 7.61612 12.06 7.99008 12.06C8.36403 12.06 8.72267 11.9114 8.9871 11.647C9.25152 11.3826 9.40008 11.0239 9.40008 10.65Z" fill="#2E52B2"/>
<path d="M8 9.66997L8.25 10.43H9.05L8.4 10.9L8.65 11.67L8 11.2L7.35 11.67L7.6 10.9L6.95 10.43H7.75L8 9.66997ZM8 13.74L8.15 14.19H8.63L8.24 14.47L8.39 14.93L8 14.65L7.61 14.93L7.76 14.47L7.38 14.19H7.85L8 13.74ZM8 6.40997L8.15 6.85997H8.63L8.24 7.13997L8.39 7.59997L8 7.31997L7.61 7.59997L7.76 7.13997L7.38 6.85997H7.85L8 6.40997ZM12.37 10.07L12.52 10.53H13L12.61 10.81L12.76 11.26L12.37 10.98L11.98 11.26L12.13 10.81L11.74 10.53H12.22L12.37 10.07ZM3.63 10.07L3.78 10.53H4.26L3.87 10.81L4.02 11.26L3.63 10.98L3.24 11.26L3.39 10.81L3 10.53H3.48L3.63 10.07Z" fill="#FFDA44"/>
</svg>
