<svg width="32" height="32" viewBox="0 0 32 32" fill="none" xmlns="http://www.w3.org/2000/svg">
<path d="M32 5.33002H0V26.66H32V5.33002Z" fill="#338AF3"/>
<path d="M15.72 21.75C15.6041 21.7457 15.492 21.7074 15.3977 21.6399C15.3035 21.5723 15.2312 21.4784 15.19 21.37C15.1181 21.4613 15.0212 21.5297 14.9112 21.567C14.8011 21.6043 14.6826 21.6088 14.57 21.58C14.4595 21.5503 14.36 21.4891 14.2837 21.4039C14.2074 21.3186 14.1574 21.2131 14.14 21.1C14.0535 21.1848 13.9429 21.2409 13.8233 21.2606C13.7038 21.2804 13.581 21.2629 13.4718 21.2104C13.3625 21.158 13.2721 21.0732 13.2127 20.9676C13.1534 20.8619 13.128 20.7406 13.14 20.62C13.0433 20.6667 12.9356 20.6862 12.8286 20.6762C12.7216 20.6663 12.6194 20.6273 12.5329 20.5635C12.4465 20.4996 12.3791 20.4134 12.338 20.3141C12.297 20.2148 12.2839 20.1062 12.3 20C12.19 20.0351 12.0721 20.0371 11.9609 20.0059C11.8498 19.9746 11.7502 19.9114 11.6746 19.8241C11.599 19.7368 11.5507 19.6292 11.5357 19.5147C11.5206 19.4002 11.5395 19.2838 11.59 19.18C11.4749 19.1901 11.3592 19.1672 11.2565 19.1141C11.1538 19.061 11.0683 18.9798 11.01 18.88C10.9536 18.7787 10.9282 18.663 10.9371 18.5474C10.946 18.4318 10.9887 18.3214 11.06 18.23C10.9529 18.2122 10.8528 18.1653 10.7707 18.0943C10.6886 18.0234 10.6276 17.9311 10.5945 17.8277C10.5615 17.7244 10.5575 17.6139 10.5832 17.5084C10.6089 17.4029 10.6631 17.3066 10.74 17.23C10.6298 17.195 10.5318 17.1294 10.4575 17.0409C10.3831 16.9524 10.3355 16.8445 10.32 16.73C10.3087 16.6147 10.331 16.4985 10.3842 16.3956C10.4374 16.2927 10.5193 16.2074 10.62 16.15C10.5193 16.0926 10.4374 16.0073 10.3842 15.9044C10.331 15.8014 10.3087 15.6853 10.32 15.57C10.3323 15.4558 10.3776 15.3476 10.4504 15.2588C10.5233 15.17 10.6204 15.1044 10.73 15.07C10.6432 14.993 10.5801 14.8928 10.5483 14.7812C10.5164 14.6696 10.517 14.5512 10.55 14.44C10.5851 14.3289 10.6522 14.2308 10.743 14.1578C10.8337 14.0848 10.944 14.0404 11.06 14.03C10.9887 13.9385 10.946 13.8281 10.9371 13.7125C10.9282 13.5969 10.9536 13.4812 11.01 13.38C11.0626 13.2774 11.1456 13.1935 11.2476 13.1398C11.3496 13.0861 11.4657 13.0652 11.58 13.08C11.5303 12.9746 11.5123 12.857 11.5283 12.7416C11.5443 12.6262 11.5935 12.5179 11.67 12.43C11.743 12.3408 11.8414 12.2759 11.9521 12.2437C12.0628 12.2116 12.1806 12.2138 12.29 12.25C12.259 12.1375 12.262 12.0183 12.2987 11.9075C12.3354 11.7968 12.4041 11.6994 12.4962 11.6277C12.5882 11.5559 12.6995 11.5131 12.8159 11.5046C12.9323 11.4962 13.0485 11.5224 13.15 11.58C13.138 11.4594 13.1634 11.338 13.2227 11.2324C13.2821 11.1267 13.3725 11.0419 13.4818 10.9895C13.591 10.9371 13.7138 10.9195 13.8333 10.9393C13.9529 10.9591 14.0635 11.0152 14.15 11.1C14.1677 10.986 14.2185 10.8797 14.296 10.7942C14.3735 10.7087 14.4744 10.6479 14.5861 10.6191C14.6978 10.5904 14.8155 10.5951 14.9247 10.6325C15.0338 10.67 15.1295 10.7387 15.2 10.83C15.2282 10.7481 15.2744 10.6736 15.3352 10.6119C15.3959 10.5503 15.4697 10.503 15.5511 10.4735C15.6326 10.4441 15.7195 10.4332 15.8057 10.4418C15.8918 10.4504 15.975 10.4781 16.049 10.523C16.1481 10.5815 16.2283 10.6672 16.28 10.77C16.3268 10.6963 16.3891 10.6338 16.4625 10.5867C16.536 10.5396 16.6188 10.5091 16.7052 10.4973C16.7917 10.4855 16.8797 10.4927 16.963 10.5183C17.0464 10.544 17.1232 10.5876 17.188 10.646C17.2735 10.7246 17.3334 10.827 17.36 10.94C17.4401 10.8623 17.5404 10.8089 17.6495 10.7859C17.7586 10.7629 17.872 10.7712 17.9766 10.8099C18.0812 10.8486 18.1727 10.9161 18.2405 11.0046C18.3084 11.0931 18.3498 11.1989 18.36 11.31C18.4552 11.2435 18.5679 11.2065 18.684 11.2038C18.8001 11.201 18.9144 11.2326 19.0126 11.2945C19.1108 11.3564 19.1886 11.446 19.2362 11.5519C19.2837 11.6578 19.299 11.7754 19.28 11.89C19.3591 11.8532 19.4454 11.8347 19.5326 11.8359C19.6198 11.837 19.7056 11.8579 19.7836 11.8968C19.8617 11.9357 19.9299 11.9917 19.9833 12.0607C20.0367 12.1296 20.0739 12.2097 20.092 12.295C20.1167 12.4065 20.1091 12.5227 20.07 12.63C20.184 12.6078 20.3019 12.6186 20.41 12.6611C20.5181 12.7036 20.6117 12.7761 20.68 12.87C20.7437 12.9664 20.7776 13.0794 20.7776 13.195C20.7776 13.3105 20.7437 13.4235 20.68 13.52C20.7954 13.5206 20.908 13.5551 21.004 13.6191C21.0999 13.683 21.1751 13.7738 21.22 13.88C21.2676 13.9855 21.2826 14.1028 21.263 14.2168C21.2434 14.3309 21.1901 14.4364 21.11 14.52C21.1945 14.5383 21.2741 14.5747 21.3432 14.6267C21.4123 14.6786 21.4694 14.7449 21.5105 14.821C21.5517 14.8971 21.5759 14.9811 21.5815 15.0674C21.5871 15.1537 21.574 15.2402 21.543 15.321C21.5002 15.4298 21.4261 15.5234 21.33 15.59C21.4098 15.6237 21.4812 15.6747 21.5391 15.7391C21.5969 15.8036 21.6399 15.88 21.6649 15.963C21.6899 16.0459 21.6964 16.1334 21.6838 16.2191C21.6712 16.3048 21.6398 16.3867 21.592 16.459C21.528 16.5565 21.437 16.6334 21.33 16.68C21.4241 16.7462 21.4967 16.8385 21.5389 16.9455C21.5812 17.0525 21.5913 17.1695 21.5679 17.2822C21.5445 17.3948 21.4887 17.4981 21.4074 17.5795C21.326 17.6608 21.2227 17.7166 21.11 17.74C21.1895 17.8238 21.2431 17.9288 21.2644 18.0423C21.2857 18.1558 21.2737 18.2731 21.23 18.38C21.1833 18.487 21.1064 18.578 21.0087 18.642C20.911 18.7059 20.7968 18.74 20.68 18.74C20.7411 18.838 20.7721 18.9517 20.7692 19.0672C20.7663 19.1826 20.7295 19.2947 20.6635 19.3894C20.5975 19.4842 20.5051 19.5575 20.3979 19.6002C20.2906 19.643 20.1731 19.6533 20.06 19.63C20.1013 19.7395 20.1091 19.8588 20.0824 19.9728C20.0557 20.0868 19.9957 20.1902 19.91 20.27C19.8265 20.3501 19.7209 20.4033 19.6069 20.4229C19.4928 20.4425 19.3755 20.4276 19.27 20.38C19.289 20.4945 19.2737 20.6121 19.2262 20.7181C19.1786 20.824 19.1008 20.9135 19.0026 20.9754C18.9044 21.0374 18.7901 21.0689 18.674 21.0662C18.5579 21.0634 18.4452 21.0265 18.35 20.96C18.3458 21.0759 18.3075 21.188 18.2399 21.2822C18.1723 21.3765 18.0784 21.4488 17.97 21.49C17.8603 21.53 17.7413 21.5371 17.6277 21.5104C17.514 21.4838 17.4105 21.4245 17.33 21.34C17.3009 21.4517 17.24 21.5527 17.1549 21.6308C17.0698 21.7088 16.9639 21.7606 16.85 21.78C16.7351 21.7953 16.6183 21.777 16.5136 21.7273C16.4089 21.6776 16.3208 21.5986 16.26 21.5C16.2119 21.6002 16.1368 21.6851 16.0432 21.7451C15.9496 21.8051 15.8412 21.838 15.73 21.84L15.72 21.75Z" fill="#F3F3F3"/>
<path d="M16.0001 19.99C16.5175 19.99 17.0298 19.8881 17.5078 19.6901C17.9859 19.4921 18.4202 19.2018 18.7861 18.836C19.1519 18.4701 19.4421 18.0358 19.6401 17.5578C19.8381 17.0797 19.9401 16.5674 19.9401 16.05C19.9401 15.5326 19.8381 15.0202 19.6401 14.5422C19.4421 14.0642 19.1519 13.6298 18.7861 13.264C18.4202 12.8981 17.9859 12.6079 17.5078 12.4099C17.0298 12.2119 16.5175 12.11 16.0001 12.11C14.9551 12.11 13.953 12.5251 13.2141 13.264C12.4752 14.0029 12.0601 15.005 12.0601 16.05C12.0601 17.0949 12.4752 18.0971 13.2141 18.836C13.953 19.5749 14.9551 19.99 16.0001 19.99Z" fill="#338AF3"/>
<path d="M16.8599 14.72C16.9599 14.6461 17.041 14.5496 17.0967 14.4384C17.1523 14.3272 17.1808 14.2044 17.1799 14.08V13.69C17.1799 13.4822 17.0981 13.2828 16.9521 13.1349C16.8061 12.987 16.6077 12.9027 16.3999 12.9H15.6099C15.4004 12.9 15.1995 12.9833 15.0513 13.1314C14.9032 13.2796 14.8199 13.4805 14.8199 13.69V14.08C14.8214 14.2039 14.851 14.3259 14.9064 14.4368C14.9619 14.5476 15.0417 14.6445 15.1399 14.72L14.4299 22C14.8888 22.3159 15.4466 22.4544 15.9999 22.39C16.5563 22.4533 17.1169 22.3149 17.5799 22L16.8599 14.72Z" fill="#BDBCC1"/>
<path d="M16.0001 12.9L16.6801 15.01H18.9001L17.1101 16.31L17.7901 18.41L16.0001 17.11L14.2101 18.41L14.8901 16.31L13.1001 15.01H15.3201L16.0001 12.9Z" fill="#F0F0F0"/>
</svg>
