<svg width="32" height="32" viewBox="0 0 32 32" fill="none" xmlns="http://www.w3.org/2000/svg">
<path d="M32 5.33002H0V26.66H32V5.33002Z" fill="#F0F0F0"/>
<path d="M32 5.33002H0V26.66H32V5.33002Z" fill="#F0F0F0"/>
<path d="M18.83 16L32 7.22002V5.33002H29.17L16 14.12L2.83 5.33002H0V7.22002L13.17 16L0 24.78V26.67H2.83L16 17.89L29.17 26.67H32V24.78L18.83 16Z" fill="#D80027"/>
<path d="M14.6101 10.44L16.0001 10.78L17.3901 10.44V9.25001L16.8401 9.53001L16.0001 8.70001L15.1701 9.53001L14.6101 9.25001V10.44Z" fill="#FFDA44"/>
<path d="M14.6101 10.43V11.3C14.6101 12.37 16.0001 12.7 16.0001 12.7C16.0001 12.7 17.3901 12.37 17.3901 11.3V10.43H14.6101Z" fill="#D80027"/>
</svg>
