<svg width="32" height="32" viewBox="0 0 32 32" fill="none" xmlns="http://www.w3.org/2000/svg">
<path d="M32 5.33002H0V26.66H32V5.33002Z" fill="#F0F0F0"/>
<path d="M32 5.33002H0V12.44H32V5.33002Z" fill="#D80027"/>
<path d="M32 19.55H0V26.66H32V19.55Z" fill="#6DA544"/>
<path d="M14.15 18.78H17.86V17.2L17.11 17.58L16 16.46L14.89 17.58L14.15 17.2V18.78ZM12.02 16.93L12.2 17.46H12.75L12.3 17.79L12.47 18.32L12.02 17.99L11.57 18.32L11.74 17.79L11.29 17.46H11.85L12.02 16.93ZM12.56 15.07L12.73 15.6H13.29L12.84 15.93L13.01 16.46L12.56 16.14L12.11 16.46L12.28 15.93L11.83 15.6H12.38L12.56 15.07ZM14.09 13.68L14.26 14.21H14.82L14.37 14.54L14.54 15.07L14.09 14.74L13.64 15.07L13.81 14.54L13.36 14.21H13.91L14.09 13.68ZM19.98 16.93L19.81 17.46H19.25L19.7 17.79L19.53 18.32L19.98 17.99L20.43 18.32L20.26 17.79L20.71 17.46H20.15L19.98 16.93ZM19.44 15.07L19.27 15.6H18.71L19.16 15.93L18.99 16.46L19.44 16.14L19.89 16.46L19.72 15.93L20.18 15.6H19.62L19.44 15.07ZM17.91 13.68L17.74 14.21H17.18L17.63 14.54L17.46 15.07L17.91 14.74L18.36 15.07L18.19 14.54L18.64 14.21H18.09L17.91 13.68ZM16 12.98L16.17 13.52H16.73L16.28 13.85L16.45 14.38L16 14.05L15.55 14.38L15.72 13.85L15.27 13.52H15.83L16 12.98Z" fill="#FFDA44"/>
</svg>
