<svg width="32" height="32" viewBox="0 0 32 32" fill="none" xmlns="http://www.w3.org/2000/svg">
<path d="M32 5.32996H0V26.66H32V5.32996Z" fill="#A2001D"/>
<path d="M16 16L2.78003 23.88V8.12L16 16Z" fill="#496E2D"/>
<path d="M16 16L29.22 23.88H2.78003L16 16ZM29.22 8.12L16 16L2.78003 8.12H29.22Z" fill="#FFDA44"/>
<path d="M29.22 8.12V23.88L16 16L29.22 8.12Z" fill="#496E2D"/>
<path d="M16 5.97998L16.21 6.61998H16.88L16.34 7.00998L16.54 7.64998L16 7.25998L15.46 7.64998L15.66 7.00998L15.12 6.61998H15.79L16 5.97998ZM10.63 5.97998L10.84 6.61998H11.51L10.97 7.00998L11.17 7.64998L10.63 7.25998L10.09 7.64998L10.3 7.00998L9.75 6.61998H10.42L10.63 5.97998ZM21.37 5.97998L21.58 6.61998H22.25L21.7 7.00998L21.91 7.64998L21.37 7.25998L20.83 7.64998L21.03 7.00998L20.49 6.61998H21.16L21.37 5.97998ZM16 24.35L16.21 24.99H16.88L16.34 25.38L16.54 26.02L16 25.62L15.46 26.02L15.66 25.38L15.12 24.99H15.79L16 24.35ZM10.63 24.35L10.84 24.99H11.51L10.97 25.38L11.17 26.02L10.63 25.62L10.09 26.02L10.3 25.38L9.75 24.99H10.42L10.63 24.35ZM21.37 24.35L21.58 24.99H22.25L21.7 25.38L21.91 26.02L21.37 25.62L20.83 26.02L21.03 25.38L20.49 24.99H21.16L21.37 24.35Z" fill="#FFDA44"/>
<path d="M15.9999 18.37C16.6284 18.37 17.2313 18.1203 17.6757 17.6758C18.1202 17.2314 18.3699 16.6286 18.3699 16C18.3699 15.3714 18.1202 14.7686 17.6757 14.3242C17.2313 13.8797 16.6284 13.63 15.9999 13.63C15.3713 13.63 14.7685 13.8797 14.324 14.3242C13.8796 14.7686 13.6299 15.3714 13.6299 16C13.6299 16.6286 13.8796 17.2314 14.324 17.6758C14.7685 18.1203 15.3713 18.37 15.9999 18.37Z" fill="#A2001D"/>
<path d="M15.9999 13.63L16.5299 15.26H18.2499L16.8599 16.28L17.3899 17.91L15.9999 16.9L14.6099 17.91L15.1399 16.28L13.7399 15.26H15.4699L15.9999 13.63ZM6.72991 15.82C6.79557 15.9231 6.84028 16.0381 6.8615 16.1585C6.88271 16.2788 6.88001 16.4022 6.85354 16.5215C6.82708 16.6409 6.77737 16.7538 6.70726 16.8539C6.63714 16.954 6.548 17.0393 6.44491 17.105C6.34182 17.1707 6.22681 17.2154 6.10644 17.2366C5.98607 17.2578 5.86271 17.2551 5.74338 17.2286C5.62406 17.2022 5.51112 17.1525 5.411 17.0824C5.31089 17.0122 5.22557 16.9231 5.15991 16.82C4.88596 16.165 4.82986 15.4393 4.99991 14.75C5.6754 14.9143 6.28121 15.289 6.72991 15.82Z" fill="#FFDA44"/>
<path d="M6.18998 17.17C6.31198 17.17 6.42898 17.1215 6.51525 17.0353C6.60152 16.949 6.64998 16.832 6.64998 16.71C6.64998 16.588 6.60152 16.471 6.51525 16.3847C6.42898 16.2985 6.31198 16.25 6.18998 16.25C6.06798 16.25 5.95098 16.2985 5.86471 16.3847C5.77844 16.471 5.72998 16.588 5.72998 16.71C5.72998 16.832 5.77844 16.949 5.86471 17.0353C5.95098 17.1215 6.06798 17.17 6.18998 17.17Z" fill="#A2001D"/>
</svg>
