<svg width="32" height="32" viewBox="0 0 32 32" fill="none" xmlns="http://www.w3.org/2000/svg">
<path d="M32 5.33002H0V26.66H32V5.33002Z" fill="#D80027"/>
<path d="M32 5.33002H0V26.67" fill="#6DA544"/>
<path d="M27.92 5.33002H26.11L0 22.74V26.67H5.88L32 9.26002V5.33002H27.92Z" fill="#FFDA44"/>
<path d="M32 5.33002H27.92L0 23.95V26.67H4.08L32 8.05002V5.33002Z" fill="black"/>
<path d="M11.6401 16.62L12.8201 17.53L14.0501 16.69L13.5501 18.09L14.7301 19L13.2401 18.96L12.7401 20.36L12.3201 18.93L10.8301 18.89L12.0601 18.05L11.6401 16.62ZM18.0701 12.21L19.2501 13.12L20.4801 12.27L19.9801 13.68L21.1701 14.59L19.6801 14.54L19.1801 15.95L18.7601 14.52L17.2701 14.48L18.5001 13.64L18.0701 12.21Z" fill="#F0F0F0"/>
</svg>
