<svg width="32" height="32" viewBox="0 0 32 32" fill="none" xmlns="http://www.w3.org/2000/svg">
<path d="M32 5.32996H0V26.66H32V5.32996Z" fill="#F0F0F0"/>
<path d="M18 5.32996H14V14H0V18H14V26.67H18V18H32V14H18V5.32996Z" fill="#D80027"/>
<path d="M24.61 19.71L32 23.82V19.71H24.61ZM19.48 19.71L32 26.67V24.7L23.02 19.71H19.48ZM28.66 26.67L19.48 21.56V26.67H28.66Z" fill="#0052B4"/>
<path d="M19.48 19.71L32 26.67V24.7L23.02 19.71H19.48Z" fill="#F0F0F0"/>
<path d="M19.48 19.71L32 26.67V24.7L23.02 19.71H19.48Z" fill="#D80027"/>
<path d="M5.65 19.71L0 22.85V19.71H5.65ZM12.52 20.59V26.67H1.59L12.52 20.59Z" fill="#0052B4"/>
<path d="M8.98 19.71L0 24.7V26.67L12.52 19.71H8.98Z" fill="#D80027"/>
<path d="M7.39 12.29L0 8.17996V12.29H7.39ZM12.52 12.29L0 5.32996V7.29996L8.98 12.29H12.52ZM3.34 5.32996L12.52 10.44V5.32996H3.34Z" fill="#0052B4"/>
<path d="M12.52 12.29L0 5.32996V7.29996L8.98 12.29H12.52Z" fill="#F0F0F0"/>
<path d="M12.52 12.29L0 5.32996V7.29996L8.98 12.29H12.52Z" fill="#D80027"/>
<path d="M26.35 12.29L32 9.14996V12.29H26.35ZM19.48 11.41V5.32996H30.41L19.48 11.41Z" fill="#0052B4"/>
<path d="M23.02 12.29L32 7.29996V5.32996L19.48 12.29H23.02Z" fill="#D80027"/>
</svg>
