<?xml version="1.0" encoding="UTF-8"?>
<!--Generator: Apple Native CoreSVG 232.5-->
<!DOCTYPE svg
PUBLIC "-//W3C//DTD SVG 1.1//EN"
       "http://www.w3.org/Graphics/SVG/1.1/DTD/svg11.dtd">
<svg version="1.1" xmlns="http://www.w3.org/2000/svg" xmlns:xlink="http://www.w3.org/1999/xlink" width="3300" height="2200">
 <!--glyph: "", point size: 100.0, font version: "19.0d6e1", template writer version: "123"-->
 <style>.monochrome-0 {}

.multicolor-0:tintColor {}

.hierarchical-0:primary {}

.SFSymbolsPreview007AFF {fill:#007AFF;opacity:1.0}
</style>
 <g id="Notes">
  <rect height="2200" id="artboard" style="fill:white;opacity:1" width="3300" x="0" y="0"/>
  <line style="fill:none;stroke:black;opacity:1;stroke-width:0.5;" x1="263" x2="3036" y1="292" y2="292"/>
  <text style="stroke:none;fill:black;font-family:sans-serif;font-size:13;font-weight:bold;" transform="matrix(1 0 0 1 263 322)">Weight/Scale Variations</text>
  <text style="stroke:none;fill:black;font-family:sans-serif;font-size:13;text-anchor:middle;" transform="matrix(1 0 0 1 559.711 322)">Ultralight</text>
  <text style="stroke:none;fill:black;font-family:sans-serif;font-size:13;text-anchor:middle;" transform="matrix(1 0 0 1 856.422 322)">Thin</text>
  <text style="stroke:none;fill:black;font-family:sans-serif;font-size:13;text-anchor:middle;" transform="matrix(1 0 0 1 1153.13 322)">Light</text>
  <text style="stroke:none;fill:black;font-family:sans-serif;font-size:13;text-anchor:middle;" transform="matrix(1 0 0 1 1449.84 322)">Regular</text>
  <text style="stroke:none;fill:black;font-family:sans-serif;font-size:13;text-anchor:middle;" transform="matrix(1 0 0 1 1746.56 322)">Medium</text>
  <text style="stroke:none;fill:black;font-family:sans-serif;font-size:13;text-anchor:middle;" transform="matrix(1 0 0 1 2043.27 322)">Semibold</text>
  <text style="stroke:none;fill:black;font-family:sans-serif;font-size:13;text-anchor:middle;" transform="matrix(1 0 0 1 2339.98 322)">Bold</text>
  <text style="stroke:none;fill:black;font-family:sans-serif;font-size:13;text-anchor:middle;" transform="matrix(1 0 0 1 2636.69 322)">Heavy</text>
  <text style="stroke:none;fill:black;font-family:sans-serif;font-size:13;text-anchor:middle;" transform="matrix(1 0 0 1 2933.4 322)">Black</text>
  <line style="fill:none;stroke:black;opacity:1;stroke-width:0.5;" x1="263" x2="3036" y1="1903" y2="1903"/>
  <g transform="matrix(0.2 0 0 0.2 263 1933)">
   <path d="m46.2402 4.15039c21.5332 0 39.4531-17.8711 39.4531-39.4043s-17.9688-39.4043-39.502-39.4043c-21.4844 0-39.3555 17.8711-39.3555 39.4043s17.9199 39.4043 39.4043 39.4043Zm0-7.42188c-17.7246 0-31.8848-14.209-31.8848-31.9824s14.1113-31.9824 31.8359-31.9824c17.7734 0 32.0312 14.209 32.0312 31.9824s-14.209 31.9824-31.9824 31.9824Zm-17.9688-31.9824c0 2.14844 1.51367 3.61328 3.75977 3.61328h10.498v10.5957c0 2.19727 1.46484 3.71094 3.61328 3.71094 2.24609 0 3.71094-1.51367 3.71094-3.71094v-10.5957h10.5957c2.19727 0 3.71094-1.46484 3.71094-3.61328 0-2.19727-1.51367-3.71094-3.71094-3.71094h-10.5957v-10.5469c0-2.24609-1.46484-3.75977-3.71094-3.75977-2.14844 0-3.61328 1.51367-3.61328 3.75977v10.5469h-10.498c-2.24609 0-3.75977 1.51367-3.75977 3.71094Z"/>
  </g>
  <g transform="matrix(0.2 0 0 0.2 281.506 1933)">
   <path d="m58.5449 14.5508c27.2461 0 49.8047-22.6074 49.8047-49.8047 0-27.2461-22.6074-49.8047-49.8535-49.8047-27.1973 0-49.7559 22.5586-49.7559 49.8047 0 27.1973 22.6074 49.8047 49.8047 49.8047Zm0-8.30078c-23.0469 0-41.4551-18.457-41.4551-41.5039s18.3594-41.5039 41.4062-41.5039 41.5527 18.457 41.5527 41.5039-18.457 41.5039-41.5039 41.5039Zm-22.6562-41.5039c0 2.39258 1.66016 4.00391 4.15039 4.00391h14.3555v14.4043c0 2.44141 1.66016 4.15039 4.05273 4.15039 2.44141 0 4.15039-1.66016 4.15039-4.15039v-14.4043h14.4043c2.44141 0 4.15039-1.61133 4.15039-4.00391 0-2.44141-1.70898-4.15039-4.15039-4.15039h-14.4043v-14.3555c0-2.49023-1.70898-4.19922-4.15039-4.19922-2.39258 0-4.05273 1.70898-4.05273 4.19922v14.3555h-14.3555c-2.49023 0-4.15039 1.70898-4.15039 4.15039Z"/>
  </g>
  <g transform="matrix(0.2 0 0 0.2 304.924 1933)">
   <path d="m74.8535 28.3203c34.8145 0 63.623-28.8086 63.623-63.5742 0-34.8145-28.8574-63.623-63.6719-63.623-34.7656 0-63.5254 28.8086-63.5254 63.623 0 34.7656 28.8086 63.5742 63.5742 63.5742Zm0-9.08203c-30.1758 0-54.4434-24.3164-54.4434-54.4922 0-30.2246 24.2188-54.4922 54.3945-54.4922 30.2246 0 54.541 24.2676 54.541 54.4922 0 30.1758-24.2676 54.4922-54.4922 54.4922Zm-28.8574-54.4922c0 2.58789 1.85547 4.39453 4.58984 4.39453h19.7266v19.7754c0 2.68555 1.85547 4.58984 4.44336 4.58984 2.68555 0 4.54102-1.85547 4.54102-4.58984v-19.7754h19.7754c2.68555 0 4.58984-1.80664 4.58984-4.39453 0-2.73438-1.85547-4.58984-4.58984-4.58984h-19.7754v-19.7266c0-2.73438-1.85547-4.63867-4.54102-4.63867-2.58789 0-4.44336 1.9043-4.44336 4.63867v19.7266h-19.7266c-2.73438 0-4.58984 1.85547-4.58984 4.58984Z"/>
  </g>
  <text style="stroke:none;fill:black;font-family:sans-serif;font-size:13;font-weight:bold;" transform="matrix(1 0 0 1 263 1953)">Design Variations</text>
  <text style="stroke:none;fill:black;font-family:sans-serif;font-size:13;" transform="matrix(1 0 0 1 263 1971)">Symbols are supported in up to nine weights and three scales.</text>
  <text style="stroke:none;fill:black;font-family:sans-serif;font-size:13;" transform="matrix(1 0 0 1 263 1989)">For optimal layout with text and other symbols, vertically align</text>
  <text style="stroke:none;fill:black;font-family:sans-serif;font-size:13;" transform="matrix(1 0 0 1 263 2007)">symbols with the adjacent text.</text>
  <line style="fill:none;stroke:#00AEEF;stroke-width:0.5;opacity:1.0;" x1="776" x2="776" y1="1919" y2="1933"/>
  <g transform="matrix(0.2 0 0 0.2 776 1933)">
   <path d="m16.5527 0.78125c2.58789 0 3.85742-0.976562 4.78516-3.71094l6.29883-17.2363h28.8086l6.29883 17.2363c0.927734 2.73438 2.19727 3.71094 4.73633 3.71094 2.58789 0 4.24805-1.5625 4.24805-4.00391 0-0.830078-0.146484-1.61133-0.537109-2.63672l-22.9004-60.9863c-1.12305-2.97852-3.125-4.49219-6.25-4.49219-3.02734 0-5.07812 1.46484-6.15234 4.44336l-22.9004 61.084c-0.390625 1.02539-0.537109 1.80664-0.537109 2.63672 0 2.44141 1.5625 3.95508 4.10156 3.95508Zm13.4766-28.3691 11.8652-32.8613h0.244141l11.8652 32.8613Z"/>
  </g>
  <line style="fill:none;stroke:#00AEEF;stroke-width:0.5;opacity:1.0;" x1="792.836" x2="792.836" y1="1919" y2="1933"/>
  <text style="stroke:none;fill:black;font-family:sans-serif;font-size:13;font-weight:bold;" transform="matrix(1 0 0 1 776 1953)">Margins</text>
  <text style="stroke:none;fill:black;font-family:sans-serif;font-size:13;" transform="matrix(1 0 0 1 776 1971)">Leading and trailing margins on the left and right side of each symbol</text>
  <text style="stroke:none;fill:black;font-family:sans-serif;font-size:13;" transform="matrix(1 0 0 1 776 1989)">can be adjusted by modifying the x-location of the margin guidelines.</text>
  <text style="stroke:none;fill:black;font-family:sans-serif;font-size:13;" transform="matrix(1 0 0 1 776 2007)">Modifications are automatically applied proportionally to all</text>
  <text style="stroke:none;fill:black;font-family:sans-serif;font-size:13;" transform="matrix(1 0 0 1 776 2025)">scales and weights.</text>
  <g transform="matrix(0.2 0 0 0.2 1289 1933)">
   <path d="m14.209 9.32617 8.49609 8.54492c4.29688 4.3457 9.22852 4.05273 13.8672-1.07422l53.4668-58.9355-4.83398-4.88281-53.0762 58.3984c-1.75781 2.00195-3.41797 2.49023-5.76172 0.146484l-5.85938-5.81055c-2.34375-2.29492-1.80664-4.00391 0.195312-5.81055l57.373-54.0039-4.88281-4.83398-57.959 54.4434c-4.93164 4.58984-5.32227 9.47266-1.02539 13.8184Zm32.0801-90.9668c-2.09961 2.05078-2.24609 4.93164-1.07422 6.88477 1.17188 1.80664 3.4668 2.97852 6.68945 2.14844 7.32422-1.70898 14.9414-2.00195 22.0703 2.68555l-2.92969 7.27539c-1.70898 4.15039-0.830078 7.08008 1.85547 9.81445l11.4746 11.5723c2.44141 2.44141 4.49219 2.53906 7.32422 2.05078l5.32227-0.976562 3.32031 3.36914-0.195312 2.7832c-0.195312 2.49023 0.439453 4.39453 2.88086 6.78711l3.80859 3.71094c2.39258 2.39258 5.46875 2.53906 7.8125 0.195312l14.5508-14.5996c2.34375-2.34375 2.24609-5.32227-0.146484-7.71484l-3.85742-3.80859c-2.39258-2.39258-4.24805-3.17383-6.64062-2.97852l-2.88086 0.244141-3.22266-3.17383 1.2207-5.61523c0.634766-2.83203-0.146484-5.0293-3.07617-7.95898l-10.9863-10.9375c-16.6992-16.6016-38.8672-16.2109-53.3203-1.75781Zm7.4707 1.85547c12.1582-8.88672 28.6133-7.37305 39.7461 3.75977l12.1582 12.0605c1.17188 1.17188 1.36719 2.09961 1.02539 3.80859l-1.61133 7.42188 7.51953 7.42188 4.93164-0.292969c1.26953-0.0488281 1.66016 0.0488281 2.63672 1.02539l2.88086 2.88086-12.207 12.207-2.88086-2.88086c-0.976562-0.976562-1.12305-1.36719-1.07422-2.68555l0.341797-4.88281-7.4707-7.42188-7.61719 1.26953c-1.61133 0.341797-2.34375 0.195312-3.56445-0.976562l-10.0098-10.0098c-1.26953-1.17188-1.41602-2.00195-0.634766-3.85742l4.39453-10.4492c-7.8125-7.27539-17.9688-10.4004-28.125-7.42188-0.78125 0.195312-1.07422-0.439453-0.439453-0.976562Z"/>
  </g>
  <text style="stroke:none;fill:black;font-family:sans-serif;font-size:13;font-weight:bold;" transform="matrix(1 0 0 1 1289 1953)">Exporting</text>
  <text style="stroke:none;fill:black;font-family:sans-serif;font-size:13;" transform="matrix(1 0 0 1 1289 1971)">Symbols should be outlined when exporting to ensure the</text>
  <text style="stroke:none;fill:black;font-family:sans-serif;font-size:13;" transform="matrix(1 0 0 1 1289 1989)">design is preserved when submitting to Xcode.</text>
  <text id="template-version" style="stroke:none;fill:black;font-family:sans-serif;font-size:13;text-anchor:end;" transform="matrix(1 0 0 1 3036 1933)">Template v.4.0</text>
  <text style="stroke:none;fill:black;font-family:sans-serif;font-size:13;text-anchor:end;" transform="matrix(1 0 0 1 3036 1951)">Requires Xcode 14 or greater</text>
  <text id="descriptive-name" style="stroke:none;fill:black;font-family:sans-serif;font-size:13;text-anchor:end;" transform="matrix(1 0 0 1 3036 1969)">Generated from ic-brand-tor</text>
  <text style="stroke:none;fill:black;font-family:sans-serif;font-size:13;text-anchor:end;" transform="matrix(1 0 0 1 3036 1987)">Typeset at 100.0 points</text>
  <text style="stroke:none;fill:black;font-family:sans-serif;font-size:13;" transform="matrix(1 0 0 1 263 726)">Small</text>
  <text style="stroke:none;fill:black;font-family:sans-serif;font-size:13;" transform="matrix(1 0 0 1 263 1156)">Medium</text>
  <text style="stroke:none;fill:black;font-family:sans-serif;font-size:13;" transform="matrix(1 0 0 1 263 1586)">Large</text>
 </g>
 <g id="Guides">
  <g id="H-reference" style="fill:#27AAE1;stroke:none;" transform="matrix(1 0 0 1 339 696)">
   <path d="M0.993654 0L3.63775 0L29.3281-67.1323L30.0303-67.1323L30.0303-70.459L28.1226-70.459ZM11.6885-24.4799L46.9815-24.4799L46.2315-26.7285L12.4385-26.7285ZM55.1196 0L57.7637 0L30.6382-70.459L29.4326-70.459L29.4326-67.1323Z"/>
  </g>
  <line id="Baseline-S" style="fill:none;stroke:#27AAE1;opacity:1;stroke-width:0.5;" x1="263" x2="3036" y1="696" y2="696"/>
  <line id="Capline-S" style="fill:none;stroke:#27AAE1;opacity:1;stroke-width:0.5;" x1="263" x2="3036" y1="625.541" y2="625.541"/>
  <g id="H-reference" style="fill:#27AAE1;stroke:none;" transform="matrix(1 0 0 1 339 1126)">
   <path d="M0.993654 0L3.63775 0L29.3281-67.1323L30.0303-67.1323L30.0303-70.459L28.1226-70.459ZM11.6885-24.4799L46.9815-24.4799L46.2315-26.7285L12.4385-26.7285ZM55.1196 0L57.7637 0L30.6382-70.459L29.4326-70.459L29.4326-67.1323Z"/>
  </g>
  <line id="Baseline-M" style="fill:none;stroke:#27AAE1;opacity:1;stroke-width:0.5;" x1="263" x2="3036" y1="1126" y2="1126"/>
  <line id="Capline-M" style="fill:none;stroke:#27AAE1;opacity:1;stroke-width:0.5;" x1="263" x2="3036" y1="1055.54" y2="1055.54"/>
  <g id="H-reference" style="fill:#27AAE1;stroke:none;" transform="matrix(1 0 0 1 339 1556)">
   <path d="M0.993654 0L3.63775 0L29.3281-67.1323L30.0303-67.1323L30.0303-70.459L28.1226-70.459ZM11.6885-24.4799L46.9815-24.4799L46.2315-26.7285L12.4385-26.7285ZM55.1196 0L57.7637 0L30.6382-70.459L29.4326-70.459L29.4326-67.1323Z"/>
  </g>
  <line id="Baseline-L" style="fill:none;stroke:#27AAE1;opacity:1;stroke-width:0.5;" x1="263" x2="3036" y1="1556" y2="1556"/>
  <line id="Capline-L" style="fill:none;stroke:#27AAE1;opacity:1;stroke-width:0.5;" x1="263" x2="3036" y1="1485.54" y2="1485.54"/>
  <line id="left-margin-Ultralight-S" style="fill:none;stroke:#00AEEF;stroke-width:0.5;opacity:1.0;" x1="517.811" x2="517.811" y1="600.785" y2="720.121"/>
  <line id="right-margin-Ultralight-S" style="fill:none;stroke:#00AEEF;stroke-width:0.5;opacity:1.0;" x1="601.611" x2="601.611" y1="600.785" y2="720.121"/>
  <line id="left-margin-Regular-S" style="fill:none;stroke:#00AEEF;stroke-width:0.5;opacity:1.0;" x1="1405.69" x2="1405.69" y1="600.785" y2="720.121"/>
  <line id="right-margin-Regular-S" style="fill:none;stroke:#00AEEF;stroke-width:0.5;opacity:1.0;" x1="1493.99" x2="1493.99" y1="600.785" y2="720.121"/>
  <line id="left-margin-Black-S" style="fill:none;stroke:#00AEEF;stroke-width:0.5;opacity:1.0;" x1="2886" x2="2886" y1="600.785" y2="720.121"/>
  <line id="right-margin-Black-S" style="fill:none;stroke:#00AEEF;stroke-width:0.5;opacity:1.0;" x1="2980.8" x2="2980.8" y1="600.785" y2="720.121"/>
 </g>
 <g id="Symbols">
  <g id="Black-S" transform="matrix(1 0 0 1 2886 696)">
   <path class="monochrome-0 multicolor-0:tintColor hierarchical-0:primary SFSymbolsPreview007AFF" d="M47.39-81.6C48.69-81.6 49.79-80.8 50.29-79.7C53.09-72.7 58.09-68.1 63.39-64.1C64.89-63 66.29-62 67.79-61C68.99-60.2 70.09-59.4 71.19-58.6C73.59-56.8 75.99-54.9 77.69-52.6C82.09-46.7 84.49-39.5 84.49-32.2C84.49-22.7 79.79-13.4 72.99-6.6C66.19 0.3 56.99 5 47.39 5C37.79 5 28.59 0.3 21.79-6.5C14.99-13.3 10.29-22.6 10.29-32.1C10.29-39.8 12.79-46.8 17.09-52.5C18.79-54.8 21.19-56.7 23.59-58.5C24.69-59.3 25.89-60.1 26.99-60.9L27.39-61.2C28.69-62.1 30.09-63.1 31.39-64.1C36.69-68.1 41.69-72.7 44.49-79.7C44.99-80.9 46.09-81.6 47.39-81.6ZM50.49-1.4C56.99-2.3 63.49-5.8 68.59-10.9C74.49-16.8 78.29-24.6 78.29-32.1C78.29-38.4 76.19-44.2 72.69-48.8C71.59-50.3 69.79-51.8 67.49-53.5C66.49-54.3 65.39-55 64.19-55.9C62.69-57 61.09-58 59.59-59.2C56.49-61.5 53.29-64.2 50.39-67.6C50.49-67.5 50.49-1.4 50.49-1.4ZM44.29-60.5C43.49-59 42.59-57.7 41.79-56.3C40.49-54.2 39.19-52.1 37.79-49.4L36.79-47.3C34.09-41.9 31.99-37.8 31.99-32.2C31.99-23.8 34.19-16.7 37.29-11.7C39.49-8.2 41.89-6 44.29-5L44.29-60.5ZM27.29-53.5C24.89-51.8 23.19-50.3 22.09-48.8C18.49-44 16.49-38.1 16.49-32.1C16.49-24.6 20.29-16.8 26.19-10.9C28.79-8.3 31.79-6.1 34.99-4.4C33.89-5.6 32.89-7 31.99-8.4C28.19-14.5 25.69-22.8 25.69-32.2C25.69-39.4 28.49-44.9 31.19-50.1C31.49-50.8 31.89-51.4 32.19-52.1C33.59-54.9 35.09-57.6 36.79-60.2L37.19-60.9C36.49-60.3 35.69-59.8 34.99-59.2C33.49-58.1 31.99-57 30.39-55.9C29.49-55.1 28.29-54.3 27.29-53.5Z"/>
  </g>
  <g id="Regular-S" transform="matrix(1 0 0 1 1405.69 696)">
   <path class="monochrome-0 multicolor-0:tintColor hierarchical-0:primary SFSymbolsPreview007AFF" d="M44.63-81.6C45.93-81.6 47.03-80.8 47.53-79.7C50.33-72.7 55.33-68.1 60.63-64.1C62.13-63 63.53-62 65.03-61C66.23-60.2 67.33-59.4 68.43-58.6C70.83-56.8 73.23-54.9 74.93-52.6C79.33-46.7 81.73-39.5 81.73-32.2C81.73-22.7 77.03-13.4 70.23-6.6C63.43 0.3 54.23 5 44.63 5C35.03 5 25.83 0.3 19.03-6.5C12.23-13.3 7.53-22.6 7.53-32.1C7.53-39.8 10.03-46.8 14.33-52.5C16.03-54.8 18.43-56.7 20.83-58.5C21.93-59.3 23.13-60.1 24.23-60.9L24.63-61.2C25.93-62.1 27.33-63.1 28.63-64.1C33.93-68.1 38.93-72.7 41.73-79.7C42.23-80.9 43.43-81.6 44.63-81.6ZM47.73-1.4C54.23-2.3 60.73-5.8 65.83-10.9C71.73-16.8 75.53-24.6 75.53-32.1C75.53-38.4 73.43-44.2 69.93-48.8C68.83-50.3 67.03-51.8 64.73-53.5C63.73-54.3 62.63-55 61.43-55.9C59.93-57 58.33-58 56.83-59.2C53.73-61.5 50.53-64.2 47.63-67.6C47.73-67.5 47.73-1.4 47.73-1.4ZM41.53-60.5C40.73-59 39.83-57.7 39.03-56.3C37.73-54.2 36.43-52.1 35.03-49.4L34.03-47.3C31.33-41.9 29.23-37.8 29.23-32.2C29.23-23.8 31.43-16.7 34.53-11.7C36.73-8.2 39.23-6 41.53-5L41.53-60.5ZM24.53-53.5C22.13-51.8 20.43-50.3 19.33-48.8C15.73-44 13.73-38.1 13.73-32.1C13.73-24.6 17.53-16.8 23.43-10.9C26.03-8.3 29.03-6.1 32.23-4.4C31.13-5.6 30.13-7 29.23-8.4C25.43-14.4 23.03-22.8 23.03-32.1C23.03-39.3 25.83-44.8 28.53-50C28.83-50.7 29.23-51.3 29.53-52C30.93-54.8 32.43-57.5 34.13-60.1L34.53-60.8C33.83-60.2 33.03-59.7 32.33-59.1C30.83-58 29.33-56.9 27.73-55.8C26.73-55.1 25.63-54.3 24.53-53.5Z"/>
  </g>
  <g id="Ultralight-S" transform="matrix(1 0 0 1 517.811 696)">
   <path class="monochrome-0 multicolor-0:tintColor hierarchical-0:primary SFSymbolsPreview007AFF" d="M41.897-81.6C43.197-81.6 44.297-80.8 44.797-79.7C47.597-72.7 52.597-68.1 57.897-64.1C59.397-63 60.797-62 62.297-61C63.497-60.2 64.597-59.4 65.697-58.6C68.097-56.8 70.497-54.9 72.197-52.6C76.597-46.7 78.997-39.5 78.997-32.2C78.997-22.7 74.297-13.4 67.497-6.6C60.697 0.3 51.397 5 41.897 5C32.397 5 23.097 0.3 16.297-6.5C9.497-13.3 4.797-22.6 4.797-32.1C4.797-39.8 7.297-46.8 11.597-52.5C13.297-54.8 15.697-56.7 18.097-58.5C19.197-59.3 20.397-60.1 21.497-60.9L21.897-61.2C23.197-62.1 24.597-63.1 25.897-64.1C31.197-68.1 36.197-72.7 38.997-79.7C39.497-80.9 40.597-81.6 41.897-81.6ZM44.997-1.4C51.497-2.3 57.997-5.8 63.097-10.9C68.997-16.8 72.797-24.6 72.797-32.1C72.797-38.4 70.697-44.2 67.197-48.8C66.097-50.3 64.297-51.8 61.997-53.5C60.997-54.3 59.897-55 58.697-55.9C57.197-57 55.597-58 54.097-59.2C50.997-61.5 47.797-64.2 44.897-67.6C44.997-67.5 44.997-1.4 44.997-1.4ZM38.797-60.5C37.997-59 37.097-57.7 36.297-56.3C34.997-54.2 33.697-52.1 32.297-49.4L31.297-47.3C28.597-41.9 26.497-37.8 26.497-32.2C26.497-23.8 28.697-16.7 31.797-11.7C33.897-8.2 36.397-6 38.797-5L38.797-60.5ZM21.697-53.5C19.297-51.8 17.597-50.3 16.497-48.8C12.897-44 10.897-38.1 10.897-32.1C10.897-24.6 14.697-16.8 20.597-10.9C23.197-8.3 26.197-6.1 29.397-4.4C28.297-5.6 27.297-7 26.397-8.4C22.597-14.5 20.097-22.8 20.097-32.2C20.097-39.4 22.897-44.9 25.597-50.1C25.897-50.8 26.297-51.4 26.597-52.1C27.997-54.9 29.497-57.6 31.197-60.2L31.597-60.9C30.897-60.3 30.097-59.8 29.397-59.2C27.897-58.1 26.397-57 24.797-55.9C23.897-55.1 22.797-54.3 21.697-53.5Z"/>
  </g>
 </g>
</svg>
