<svg width="32" height="32" viewBox="0 0 32 32" fill="none" xmlns="http://www.w3.org/2000/svg">
<path d="M32 5.33002H0V26.66H32V5.33002Z" fill="#6DA544"/>
<path d="M13.49 16L0 24.99V7.01001L13.49 16ZM32 7.01001V24.99L18.51 16L32 7.01001Z" fill="black"/>
<path d="M32 7.01002L18.51 16L32 25V26.67H29.49L16 17.67L2.51 26.67H0V25L13.49 16L0 7.01002V5.33002H2.51L16 14.33L29.49 5.33002H32V7.01002Z" fill="#0052B4"/>
<path d="M32 7.01002L18.51 16L32 25V26.67H29.49L16 17.67L2.51 26.67H0V25L13.49 16L0 7.01002V5.33002H2.51L16 14.33L29.49 5.33002H32V7.01002Z" fill="#FFDA44"/>
</svg>
