<svg width="32" height="32" viewBox="0 0 32 32" fill="none" xmlns="http://www.w3.org/2000/svg">
<path d="M32 5.33002H0V26.66H32V5.33002Z" fill="#338AF3"/>
<path d="M32 16H0V21.1H32V16Z" fill="#FFDA44"/>
<path d="M32 21.1H0V26.67H32V21.1Z" fill="#496E2D"/>
<path d="M17.3899 11.58L18.6899 12.19L17.9999 13.45L19.4099 13.18L19.5899 14.61L20.5799 13.56L21.5699 14.61L21.7399 13.18L23.1599 13.45L22.4599 12.19L23.7699 11.58L22.4599 10.96L23.1599 9.69998L21.7399 9.96998L21.5699 8.53998L20.5799 9.58998L19.5899 8.53998L19.4099 9.96998L17.9999 9.69998L18.6899 10.96L17.3899 11.58Z" fill="#FFDA44"/>
</svg>
