<svg width="32" height="32" viewBox="0 0 32 32" fill="none" xmlns="http://www.w3.org/2000/svg">
<path d="M32 5.32996H0V26.66H32V5.32996Z" fill="#FFDA44"/>
<path d="M10.67 5.32996H0V26.66H10.67V5.32996Z" fill="#0052B4"/>
<path d="M32 5.32996H21.33V26.66H32V5.32996ZM16 19.71V16H18.78V17.39C18.4969 18.1907 17.9218 18.855 17.17 19.25C16.8014 19.4531 16.4082 19.6077 16 19.71ZM16 13.22H13.22V16H16V13.22Z" fill="#D80027"/>
<path d="M18.32 16.93C18.32 17.17 18.32 17.93 17.17 18.63C16.804 18.863 16.41 19.05 16 19.19C15.5891 19.0506 15.1964 18.8626 14.83 18.63C13.68 17.9 13.68 17.17 13.68 16.93V13.68H18.32V16.93ZM17.39 12.29C17.39 12.0433 17.2921 11.8068 17.1176 11.6324C16.9432 11.458 16.7067 11.36 16.46 11.36C16.2979 11.3616 16.139 11.4064 16 11.49C15.8605 11.4077 15.702 11.363 15.54 11.36C15.2934 11.36 15.0568 11.458 14.8824 11.6324C14.708 11.8068 14.61 12.0433 14.61 12.29H12.29V16.93C12.3453 17.6479 12.6055 18.3349 13.0399 18.9093C13.4742 19.4837 14.0643 19.9212 14.74 20.17C14.6586 20.3135 14.6139 20.475 14.61 20.64C14.6103 20.7616 14.6346 20.8819 14.6816 20.9941C14.7285 21.1062 14.7972 21.208 14.8836 21.2935C14.9701 21.379 15.0726 21.4466 15.1852 21.4923C15.2979 21.538 15.4185 21.561 15.54 21.56C15.7012 21.5605 15.8597 21.5192 16 21.44C16.1398 21.5205 16.2987 21.5619 16.46 21.56C16.5817 21.5613 16.7024 21.5385 16.8152 21.4928C16.928 21.4472 17.0306 21.3796 17.1171 21.2941C17.2035 21.2085 17.2722 21.1067 17.3191 20.9944C17.3659 20.8821 17.39 20.7616 17.39 20.64C17.3862 20.475 17.3416 20.3135 17.26 20.17C17.9358 19.9212 18.5259 19.4837 18.9602 18.9093C19.3945 18.3349 19.6548 17.6479 19.71 16.93V12.29H17.39Z" fill="#FF9811"/>
</svg>
