<svg width="32" height="32" viewBox="0 0 32 32" fill="none" xmlns="http://www.w3.org/2000/svg">
<path d="M32 5.33002H0V26.66H32V5.33002Z" fill="#0052B4"/>
<path d="M16 5.33002V12.67H13.12L16 14.59V16H14.59L10 12.94V16H6V12.94L1.41 16H0V14.59L2.88 12.67H0V8.67002H2.88L0 6.75002V5.33002H1.41L6 8.39002V5.33002H10V8.39002L14.59 5.33002H16Z" fill="#F0F0F0"/>
<path d="M9 5.33002H7V9.67002H0V11.67H7V16H9V11.67H16V9.67002H9V5.33002Z" fill="#D80027"/>
<path d="M0 5.33002V6.28002L3.59 8.67002H5L0 5.33002ZM16 5.33002V6.28002L12.41 8.67002H11L16 5.33002Z" fill="#D80027"/>
<path d="M16.0001 6.75V8.67H13.1201L16.0001 6.75Z" fill="#2E52B2"/>
<path d="M0 5.33002V6.28002L3.59 8.67002H5L0 5.33002ZM16 5.33002V6.28002L12.41 8.67002H11L16 5.33002Z" fill="#D80027"/>
<path d="M16.0001 6.75V8.67H13.1201L16.0001 6.75Z" fill="#2E52B2"/>
<path d="M0 16V15.06L3.59 12.67H5L0 16ZM16 16V15.06L12.41 12.67H11L16 16Z" fill="#D80027"/>
<path d="M24.0001 16.23L21.1201 19.11C21.3927 19.6388 21.8056 20.0824 22.3136 20.3921C22.8217 20.7018 23.4051 20.8657 24.0001 20.8657C24.5951 20.8657 25.1786 20.7018 25.6866 20.3921C26.1946 20.0824 26.6075 19.6388 26.8801 19.11L24.0001 16.23Z" fill="#FFDA44"/>
<path d="M20.75 11.13V16.23C20.75 18.72 24 19.48 24 19.48C24 19.48 27.25 18.72 27.25 16.23V11.13H20.75Z" fill="#6DA544"/>
<path d="M24.7001 13.45H23.3101V17.16H24.7001V13.45Z" fill="#F0F0F0"/>
<path d="M23.9998 14.15C24.1855 14.15 24.3635 14.0763 24.4948 13.945C24.6261 13.8137 24.6998 13.6357 24.6998 13.45C24.6998 13.2643 24.6261 13.0863 24.4948 12.955C24.3635 12.8238 24.1855 12.75 23.9998 12.75C23.8142 12.75 23.6361 12.8238 23.5048 12.955C23.3736 13.0863 23.2998 13.2643 23.2998 13.45C23.2998 13.6357 23.3736 13.8137 23.5048 13.945C23.6361 14.0763 23.8142 14.15 23.9998 14.15Z" fill="#A2001D"/>
<path d="M22.6102 12.06H21.6802V12.99H22.6102V12.06ZM22.6102 14.14H21.6802V15.07H22.6102V14.14ZM22.6102 16.23H21.6802V17.16H22.6102V16.23ZM26.3202 12.06H25.3902V12.99H26.3202V12.06ZM26.3202 14.14H25.3902V15.07H26.3202V14.14ZM26.3202 16.23H25.3902V17.16H26.3202V16.23Z" fill="#FFDA44"/>
</svg>
