<svg width="32" height="32" viewBox="0 0 32 32" fill="none" xmlns="http://www.w3.org/2000/svg">
<path d="M32 5.33002H0V26.66H32V5.33002Z" fill="#D80027"/>
<path d="M16 22C17.5913 22 19.1174 21.3679 20.2426 20.2426C21.3679 19.1174 22 17.5913 22 16C22 14.4087 21.3679 12.8826 20.2426 11.7574C19.1174 10.6321 17.5913 10 16 10C14.4087 10 12.8826 10.6321 11.7574 11.7574C10.6321 12.8826 10 14.4087 10 16C10 17.5913 10.6321 19.1174 11.7574 20.2426C12.8826 21.3679 14.4087 22 16 22Z" fill="#F0F0F0"/>
<path d="M16.7401 13.71L17.7701 15.12L19.4401 14.58L18.4101 16L19.4301 17.42L17.7701 16.88L16.7401 18.29V16.54L15.0701 16L16.7401 15.46V13.71Z" fill="#D80027"/>
<path d="M17.3601 19.55C16.6826 19.5503 16.0192 19.3567 15.4482 18.9922C14.8772 18.6277 14.4223 18.1075 14.1373 17.4929C13.8523 16.8783 13.749 16.1951 13.8397 15.5237C13.9304 14.8524 14.2112 14.221 14.6491 13.704C15.1764 13.0821 15.9018 12.6607 16.7033 12.5107C17.5047 12.3606 18.3334 12.491 19.0501 12.88C18.4362 12.2808 17.6592 11.876 16.8163 11.7163C15.9735 11.5565 15.1023 11.649 14.3117 11.9821C13.5212 12.3151 12.8465 12.874 12.372 13.5887C11.8976 14.3034 11.6445 15.1422 11.6445 16C11.6445 16.8579 11.8976 17.6966 12.372 18.4113C12.8465 19.126 13.5212 19.6849 14.3117 20.018C15.1023 20.351 15.9735 20.4435 16.8163 20.2838C17.6592 20.124 18.4362 19.7192 19.0501 19.12C18.5311 19.4012 17.9503 19.549 17.3601 19.55Z" fill="#D80027"/>
</svg>
