<svg width="32" height="32" viewBox="0 0 32 32" fill="none" xmlns="http://www.w3.org/2000/svg">
<path d="M32 5.33002H0V26.66H32V5.33002Z" fill="#0052B4"/>
<path d="M14.62 11.57L13.31 12.18L14.01 13.44L12.59 13.17L12.41 14.6L11.43 13.55L10.44 14.6L10.26 13.17L8.85 13.44L9.54 12.18L8.24 11.57L9.54 10.96L8.85 9.70002L10.26 9.97002L10.44 8.54002L11.43 9.59002L12.41 8.54002L12.59 9.97002L14.01 9.70002L13.31 10.96L14.62 11.57ZM26.68 5.33002L0 26.34V26.58L31.48 5.33002H26.68Z" fill="#F0F0F0"/>
<path d="M32 5.33002H31.48L0 26.58V26.67H0.23L32 8.56002V5.33002Z" fill="#FF9811"/>
</svg>
