<svg width="32" height="32" viewBox="0 0 32 32" fill="none" xmlns="http://www.w3.org/2000/svg">
<path d="M32 5.33002H0V26.66H32V5.33002Z" fill="#F0F0F0"/>
<path d="M32 12.44H0V19.55H32V12.44Z" fill="#0052B4"/>
<path d="M32 19.56H0V26.67H32V19.56Z" fill="#D80027"/>
<path d="M14.6 12.29V13.22C14.6 15.35 11.82 16 11.82 16C11.82 16 9 15.35 9 13.22V9.53003H14.56L14.6 12.29Z" fill="#F0F0F0"/>
<path d="M14.6 12.29V13.22C14.6 15.35 11.82 16 11.82 16C11.82 16 9 15.35 9 13.22V9.53003H14.56L14.6 12.29Z" fill="#0052B4"/>
<path d="M14.6 12.29V13.22C14.6 15.35 11.82 16 11.82 16C11.82 16 9 15.35 9 13.22V12.29L9.93 13.22L11.79 11.83L13.64 13.22L14.6 12.29Z" fill="#F0F0F0"/>
</svg>
