<svg width="32" height="32" viewBox="0 0 32 32" fill="none" xmlns="http://www.w3.org/2000/svg">
<path d="M24.5901 10.66L25.6901 11.84L27.1501 11.16L26.3601 12.57L27.4601 13.75L25.8801 13.44L25.1001 14.84L24.9101 13.24L23.3301 12.93L24.7901 12.26L24.5901 10.66Z" fill="#F0F0F0"/>
<path d="M32 5.33002H0V26.66H32V5.33002Z" fill="#F0F0F0"/>
<path d="M32 5.33002H8V26.66H32V5.33002Z" fill="#496E2D"/>
<path d="M22.62 18.67C22.0854 19.0534 21.4706 19.3099 20.8221 19.4202C20.1736 19.5305 19.5085 19.4915 18.8774 19.3064C18.2462 19.1212 17.6655 18.7946 17.1793 18.3515C16.6932 17.9084 16.3144 17.3603 16.0717 16.7489C15.8291 16.1375 15.7289 15.4789 15.7788 14.823C15.8287 14.1671 16.0273 13.5312 16.3597 12.9635C16.6921 12.3959 17.1494 11.9115 17.697 11.547C18.2446 11.1825 18.868 10.9475 19.52 10.86C18.4827 10.7074 17.4235 10.8641 16.475 11.3106C15.5265 11.7572 14.7307 12.4736 14.1875 13.3702C13.6442 14.2669 13.3775 15.3039 13.4208 16.3513C13.4641 17.3988 13.8155 18.4103 14.4309 19.259C15.0453 20.1081 15.8963 20.7572 16.8776 21.1252C17.8589 21.4932 18.9269 21.5637 19.948 21.328C20.9692 21.0922 21.8982 20.5607 22.6189 19.7998C23.3396 19.0389 23.82 18.0824 23.9999 17.05C23.6788 17.6943 23.205 18.2504 22.62 18.67ZM22.54 10.81L23.6299 11.98L25.0899 11.31L24.2999 12.71L25.3999 13.89L23.8199 13.58L23.04 14.98L22.8499 13.39L21.27 13.08L22.7299 12.4L22.54 10.81Z" fill="#F0F0F0"/>
</svg>
