<svg width="32" height="32" viewBox="0 0 32 32" fill="none" xmlns="http://www.w3.org/2000/svg">
<path d="M32 5.33002H0V26.66H32V5.33002Z" fill="#F0F0F0"/>
<path d="M32 5.33002H0V8.38002H32V5.33002ZM32 11.43H0V14.48H32V11.43ZM32 17.52H0V20.57H32V17.52ZM32 23.62H0V26.67H32V23.62Z" fill="#338AF3"/>
<path d="M16 5.33002H0V17.52H16V5.33002Z" fill="#F0F0F0"/>
<path d="M12 11.43L10.37 12.2L11.24 13.78L9.46 13.44L9.24 15.23L8 13.91L6.76 15.23L6.54 13.44L4.76 13.78L5.63 12.2L4 11.43L5.63 10.66L4.76 9.08L6.54 9.42L6.76 7.62L8 8.93999L9.24 7.62L9.46 9.42L11.24 9.08L10.37 10.66L12 11.43Z" fill="#FFDA44"/>
</svg>
