<svg width="32" height="32" viewBox="0 0 32 32" fill="none" xmlns="http://www.w3.org/2000/svg">
<path d="M32 5.33002H0V26.66H32V5.33002Z" fill="#496E2D"/>
<path d="M16 18.68C14.6369 18.6816 13.3139 18.219 12.2487 17.3683C11.1836 16.5177 10.4399 15.3297 10.14 14C10.05 14.41 10.004 14.83 10 15.25C10 16.8413 10.6321 18.3674 11.7574 19.4926C12.8826 20.6179 14.4087 21.25 16 21.25C17.5913 21.25 19.1174 20.6179 20.2426 19.4926C21.3679 18.3674 22 16.8413 22 15.25C21.996 14.83 21.95 14.41 21.86 14C21.5601 15.3297 20.8164 16.5177 19.7513 17.3683C18.6861 18.219 17.3631 18.6816 16 18.68Z" fill="#FFDA44"/>
<path d="M15.9999 10.75L16.5599 12.47H18.3599L16.8999 13.53L17.4599 15.25L15.9999 14.19L14.5399 15.25L15.0999 13.53L13.6299 12.47H15.4399L15.9999 10.75Z" fill="#FFDA44"/>
</svg>
