<svg width="32" height="32" viewBox="0 0 32 32" fill="none" xmlns="http://www.w3.org/2000/svg">
<g clip-path="url(#clip0_1913_620)">
<path d="M32 5.33002H0V17.05H32V5.33002Z" fill="#C81010"/>
<path d="M15.75 20.19C16.7446 20.19 17.6984 19.7949 18.4017 19.0917C19.1049 18.3884 19.5 17.4346 19.5 16.44C19.5 15.4454 19.1049 14.4916 18.4017 13.7884C17.6984 13.0851 16.7446 12.69 15.75 12.69C14.7554 12.69 13.8016 13.0851 13.0983 13.7884C12.3951 14.4916 12 15.4454 12 16.44C12 17.4346 12.3951 18.3884 13.0983 19.0917C13.8016 19.7949 14.7554 20.19 15.75 20.19Z" fill="#F8D000"/>
<path d="M32 17.04H0V26.63H32V17.04Z" fill="#183070"/>
<path d="M15.5501 9.28002H12.0801C12.0201 9.28002 12.0101 9.36003 12.0801 9.39003L12.8001 9.75002H12.8601L13.4701 9.68003L14.6901 9.79002C14.7126 9.79337 14.7336 9.80365 14.7501 9.81945C14.7666 9.83524 14.7777 9.85577 14.782 9.87818C14.7863 9.90059 14.7835 9.92378 14.774 9.94454C14.7645 9.9653 14.7488 9.98259 14.7291 9.99403C14.7113 10.0048 14.6909 10.0104 14.6701 10.01H14.3501C14.3375 10.0045 14.3238 10.0017 14.3101 10.0017C14.2963 10.0017 14.2827 10.0045 14.2701 10.01L14.0401 10.32L13.2701 10.53C13.2594 10.5347 13.2503 10.5424 13.2439 10.5522C13.2375 10.5619 13.2341 10.5733 13.2341 10.585C13.2341 10.5967 13.2375 10.6081 13.2439 10.6179C13.2503 10.6277 13.2594 10.6354 13.2701 10.64H14.6401L15.3701 11.04C15.3811 11.0448 15.393 11.0472 15.4051 11.0472C15.4171 11.0472 15.429 11.0448 15.4401 11.04L18.8601 10.29C18.8708 10.2854 18.8799 10.2777 18.8863 10.2679C18.8927 10.2581 18.8961 10.2467 18.8961 10.235C18.8961 10.2233 18.8927 10.2119 18.8863 10.2022C18.8799 10.1924 18.8708 10.1847 18.8601 10.18H17.4901C17.4695 10.1771 17.45 10.169 17.4335 10.1563C17.4171 10.1436 17.4042 10.1269 17.3961 10.1077C17.388 10.0886 17.3851 10.0677 17.3875 10.047C17.39 10.0264 17.3977 10.0068 17.4101 9.99002L18.1401 9.16002C18.1525 9.15386 18.1662 9.15065 18.1801 9.15065C18.194 9.15065 18.2076 9.15386 18.2201 9.16002H19.7401C19.8101 9.16002 19.8201 9.06002 19.7401 9.05002L17.9201 8.55002C17.9079 8.543 17.8941 8.53931 17.8801 8.53931C17.866 8.53931 17.8522 8.543 17.8401 8.55002L16.2901 9.77003C16.2722 9.78164 16.2514 9.78783 16.2301 9.78783C16.2088 9.78783 16.1879 9.78164 16.1701 9.77003L15.6101 9.31003L15.5501 9.28002Z" fill="#F8D000"/>
<path d="M0 17.36V16C0.530944 16.0398 1.05147 16.1683 1.54 16.38C1.96921 16.5729 2.43444 16.6726 2.905 16.6726C3.37556 16.6726 3.84079 16.5729 4.27 16.38C4.84755 16.1227 5.47275 15.9898 6.105 15.9898C6.73725 15.9898 7.36245 16.1227 7.94 16.38C8.36921 16.5729 8.83444 16.6726 9.305 16.6726C9.77557 16.6726 10.2408 16.5729 10.67 16.38C11.2733 16.1272 11.9209 15.9971 12.575 15.9971C13.2291 15.9971 13.8767 16.1272 14.48 16.38C15.471 16.78 16.579 16.78 17.57 16.38C18.1733 16.1272 18.8209 15.9971 19.475 15.9971C20.1291 15.9971 20.7767 16.1272 21.38 16.38C21.8092 16.5729 22.2744 16.6726 22.745 16.6726C23.2156 16.6726 23.6808 16.5729 24.11 16.38C24.6876 16.1227 25.3127 15.9898 25.945 15.9898C26.5773 15.9898 27.2024 16.1227 27.78 16.38C28.2092 16.5729 28.6744 16.6726 29.145 16.6726C29.6156 16.6726 30.0808 16.5729 30.51 16.38C30.9827 16.1731 31.486 16.0447 32 16V17.37C31.6547 17.4135 31.3177 17.5079 31 17.65C30.4212 17.9024 29.7965 18.0328 29.165 18.0328C28.5335 18.0328 27.9088 17.9024 27.33 17.65C26.9008 17.4571 26.4356 17.3574 25.965 17.3574C25.4944 17.3574 25.0292 17.4571 24.6 17.65C24.0212 17.9024 23.3965 18.0328 22.765 18.0328C22.1335 18.0328 21.5088 17.9024 20.93 17.65C20.4698 17.4544 19.975 17.3536 19.475 17.3536C18.975 17.3536 18.4802 17.4544 18.02 17.65C16.7527 18.16 15.3373 18.16 14.07 17.65C13.6098 17.4544 13.115 17.3536 12.615 17.3536C12.115 17.3536 11.6202 17.4544 11.16 17.65C10.5812 17.9024 9.95648 18.0328 9.325 18.0328C8.69352 18.0328 8.06882 17.9024 7.49 17.65C7.06079 17.4571 6.59556 17.3574 6.125 17.3574C5.65444 17.3574 5.18921 17.4571 4.76 17.65C4.18116 17.9024 3.55647 18.0327 2.925 18.0327C2.29353 18.0327 1.66884 17.9024 1.09 17.65C0.7458 17.492 0.37718 17.394 0 17.36H0ZM0 20.37V19C0.530944 19.0398 1.05147 19.1683 1.54 19.38C1.96921 19.5729 2.43444 19.6726 2.905 19.6726C3.37556 19.6726 3.84079 19.5729 4.27 19.38C4.84755 19.1227 5.47275 18.9898 6.105 18.9898C6.73725 18.9898 7.36245 19.1227 7.94 19.38C8.36921 19.5729 8.83444 19.6726 9.305 19.6726C9.77557 19.6726 10.2408 19.5729 10.67 19.38C11.2733 19.1272 11.9209 18.9971 12.575 18.9971C13.2291 18.9971 13.8767 19.1272 14.48 19.38C15.471 19.78 16.579 19.78 17.57 19.38C18.1733 19.1272 18.8209 18.9971 19.475 18.9971C20.1291 18.9971 20.7767 19.1272 21.38 19.38C21.8092 19.5729 22.2744 19.6726 22.745 19.6726C23.2156 19.6726 23.6808 19.5729 24.11 19.38C24.6876 19.1227 25.3127 18.9898 25.945 18.9898C26.5773 18.9898 27.2024 19.1227 27.78 19.38C28.2092 19.5729 28.6744 19.6726 29.145 19.6726C29.6156 19.6726 30.0808 19.5729 30.51 19.38C30.9827 19.1731 31.486 19.0447 32 19V20.37C31.6547 20.4135 31.3177 20.5079 31 20.65C30.4224 20.9072 29.7973 21.0402 29.165 21.0402C28.5327 21.0402 27.9076 20.9072 27.33 20.65C26.9008 20.4571 26.4356 20.3574 25.965 20.3574C25.4944 20.3574 25.0292 20.4571 24.6 20.65C24.0224 20.9072 23.3973 21.0402 22.765 21.0402C22.1327 21.0402 21.5076 20.9072 20.93 20.65C20.4698 20.4544 19.975 20.3536 19.475 20.3536C18.975 20.3536 18.4802 20.4544 18.02 20.65C16.7527 21.16 15.3373 21.16 14.07 20.65C13.6098 20.4544 13.115 20.3536 12.615 20.3536C12.115 20.3536 11.6202 20.4544 11.16 20.65C10.5824 20.9072 9.95724 21.0401 9.325 21.0401C8.69275 21.0401 8.06757 20.9072 7.49 20.65C7.06079 20.4571 6.59556 20.3574 6.125 20.3574C5.65444 20.3574 5.18921 20.4571 4.76 20.65C4.18245 20.9072 3.55725 21.0402 2.925 21.0402C2.29275 21.0402 1.66755 20.9072 1.09 20.65C0.745183 20.4955 0.376587 20.4008 0 20.37H0ZM0 23.38V22C0.530944 22.0398 1.05147 22.1683 1.54 22.38C1.96921 22.5729 2.43444 22.6726 2.905 22.6726C3.37556 22.6726 3.84079 22.5729 4.27 22.38C4.84755 22.1227 5.47275 21.9898 6.105 21.9898C6.73725 21.9898 7.36245 22.1227 7.94 22.38C8.36921 22.5729 8.83444 22.6726 9.305 22.6726C9.77557 22.6726 10.2408 22.5729 10.67 22.38C11.2733 22.1272 11.9209 21.9971 12.575 21.9971C13.2291 21.9971 13.8767 22.1272 14.48 22.38C15.471 22.78 16.579 22.78 17.57 22.38C18.1733 22.1272 18.8209 21.9971 19.475 21.9971C20.1291 21.9971 20.7767 22.1272 21.38 22.38C21.8092 22.5729 22.2744 22.6726 22.745 22.6726C23.2156 22.6726 23.6808 22.5729 24.11 22.38C24.6876 22.1227 25.3127 21.9898 25.945 21.9898C26.5773 21.9898 27.2024 22.1227 27.78 22.38C28.2092 22.5729 28.6744 22.6726 29.145 22.6726C29.6156 22.6726 30.0808 22.5729 30.51 22.38C30.9827 22.1731 31.486 22.0447 32 22V23.37C31.6547 23.4135 31.3177 23.5079 31 23.65C30.4224 23.9072 29.7973 24.0402 29.165 24.0402C28.5327 24.0402 27.9076 23.9072 27.33 23.65C26.9008 23.4571 26.4356 23.3574 25.965 23.3574C25.4944 23.3574 25.0292 23.4571 24.6 23.65C24.0224 23.9072 23.3973 24.0402 22.765 24.0402C22.1327 24.0402 21.5076 23.9072 20.93 23.65C20.4698 23.4544 19.975 23.3536 19.475 23.3536C18.975 23.3536 18.4802 23.4544 18.02 23.65C16.7527 24.16 15.3373 24.16 14.07 23.65C13.6098 23.4544 13.115 23.3536 12.615 23.3536C12.115 23.3536 11.6202 23.4544 11.16 23.65C10.5824 23.9072 9.95724 24.0401 9.325 24.0401C8.69275 24.0401 8.06757 23.9072 7.49 23.65C7.06079 23.4571 6.59556 23.3574 6.125 23.3574C5.65444 23.3574 5.18921 23.4571 4.76 23.65C4.18245 23.9072 3.55725 24.0402 2.925 24.0402C2.29275 24.0402 1.66755 23.9072 1.09 23.65C0.744583 23.4989 0.376004 23.4076 0 23.38H0Z" fill="white"/>
</g>
<defs>
<clipPath id="clip0_1913_620">
<rect width="32" height="32" fill="white"/>
</clipPath>
</defs>
</svg>
