<svg width="32" height="32" viewBox="0 0 32 32" fill="none" xmlns="http://www.w3.org/2000/svg">
<path d="M32 5.33002H0V26.66H32V5.33002Z" fill="#F0F0F0"/>
<path d="M17.8099 12.78C17.8099 12.2999 17.6192 11.8395 17.2798 11.5001C16.9404 11.1607 16.48 10.97 15.9999 10.97C15.5199 10.97 15.0595 11.1607 14.7201 11.5001C14.3806 11.8395 14.1899 12.2999 14.1899 12.78H10.1899C10.203 13.261 10.404 13.7177 10.7498 14.0523C11.0956 14.3869 11.5588 14.5728 12.0399 14.57H11.9999C11.9999 15.0421 12.1875 15.4948 12.5213 15.8286C12.8551 16.1624 13.3079 16.35 13.7799 16.35C13.7797 16.7649 13.9245 17.167 14.1893 17.4865C14.4541 17.806 14.8222 18.023 15.2299 18.1H16.7899C17.1977 18.023 17.5658 17.806 17.8306 17.4865C18.0953 17.167 18.2401 16.7649 18.2399 16.35C18.7086 16.3447 19.1562 16.1548 19.4857 15.8216C19.8152 15.4884 20 15.0386 19.9999 14.57C20.4811 14.5728 20.9443 14.3869 21.2901 14.0523C21.6359 13.7177 21.8369 13.261 21.8499 12.78H17.8099Z" fill="#FFDA44"/>
<path d="M15.2001 17.93L14.0801 20.47C15.3126 20.963 16.6875 20.963 17.9201 20.47L16.8001 17.93H15.2001Z" fill="#FFDA44"/>
<path d="M13.6802 13.68V16.8C13.6802 18.57 16.0002 19.12 16.0002 19.12C16.0002 19.12 18.3202 18.57 18.3202 16.8V13.68H13.6802Z" fill="#F0F0F0"/>
<path d="M7.92022 16.07L9.18022 19.58L10.4202 16.07H11.3602L9.55022 20.71H8.80022L6.97021 16.07H7.92022ZM23.3902 16.07H22.4902V20.71H23.3902V16.07Z" fill="#338AF3"/>
<path d="M14.6099 14.68V18.47C14.8969 18.674 15.2099 18.838 15.5399 18.96V14.68H14.6099ZM17.3899 14.68V18.47C17.1029 18.674 16.7899 18.838 16.4599 18.96V14.68H17.3899Z" fill="#D80027"/>
<path d="M18.3202 13.68H13.6802V15.15H18.3202V13.68Z" fill="#0052B4"/>
</svg>
