<svg width="32" height="32" viewBox="0 0 32 32" fill="none" xmlns="http://www.w3.org/2000/svg">
<path d="M32 5.32996H0V26.66H32V5.32996Z" fill="#F0F0F0"/>
<path d="M0 26.67H32V5.32996L0 26.67Z" fill="#0052B4"/>
<path d="M15.65 5.32996H0V15.77L15.65 5.32996Z" fill="#FFDA44"/>
<path d="M8.53992 17C8.17205 17 7.81244 16.8909 7.50656 16.6865C7.20069 16.4822 6.96229 16.1917 6.82151 15.8518C6.68073 15.5119 6.64389 15.1379 6.71566 14.7771C6.78743 14.4163 6.96458 14.0849 7.2247 13.8248C7.48483 13.5647 7.81625 13.3875 8.17705 13.3157C8.53786 13.244 8.91184 13.2808 9.25171 13.4216C9.59158 13.5624 9.88208 13.8008 10.0865 14.1066C10.2908 14.4125 10.3999 14.7721 10.3999 15.14C10.4011 15.3846 10.3538 15.627 10.2608 15.8532C10.1677 16.0794 10.0308 16.2849 9.8578 16.4579C9.68484 16.6308 9.47933 16.7678 9.25312 16.8608C9.02692 16.9539 8.78451 17.0012 8.53992 17ZM11.7499 15.64L12.6699 15.14L11.7499 14.64C11.6415 13.9536 11.3159 13.3201 10.821 12.8324C10.326 12.3447 9.68779 12.0284 8.99992 11.93L8.53992 11L8.04992 11.92C7.36931 12.0262 6.74005 12.3459 6.25296 12.833C5.76587 13.3201 5.44614 13.9494 5.33992 14.63L4.41992 15.13L5.33992 15.63C5.44466 16.3112 5.76391 16.9413 6.25127 17.4287C6.73862 17.916 7.3687 18.2353 8.04992 18.34L8.53992 19.26L9.03992 18.34C9.71972 18.2358 10.3487 17.918 10.8359 17.4326C11.3231 16.9472 11.6432 16.3194 11.7499 15.64Z" fill="black"/>
<path d="M8.53984 13.75L8.94984 14.45H9.74984L9.34984 15.14L9.74984 15.84H8.94984L8.53984 16.53L8.13984 15.84H7.33984L7.73984 15.14L7.33984 14.45H8.13984L8.53984 13.75Z" fill="#D80027"/>
</svg>
