<svg width="32" height="32" viewBox="0 0 32 32" fill="none" xmlns="http://www.w3.org/2000/svg">
<path d="M32 5.33002H0V26.66H32V5.33002Z" fill="#D80027"/>
<path d="M16 5.33002H0V16H16V5.33002Z" fill="#0052B4"/>
<path d="M10.34 11.36L10.52 11.89H11.07L10.62 12.22L10.79 12.75L10.34 12.42L9.88996 12.75L10.06 12.22L9.60996 11.89H10.17L10.34 11.36ZM7.53996 7.19L7.81996 8.07H8.75996L7.99996 8.62L8.28996 9.51L7.53996 8.96L6.77996 9.51L7.06996 8.62L6.31996 8.07H7.24996L7.53996 7.19ZM10.32 8.11L10.61 9H11.54L10.79 9.55L11.07 10.43L10.32 9.88L9.56996 10.43L9.84996 9.55L9.09996 9H10.03L10.32 8.11ZM8.11996 11.83L8.40996 12.71H9.33996L8.58996 13.26L8.86996 14.14L8.11996 13.6L7.36996 14.14L7.64996 13.26L6.89996 12.71H7.82996L8.11996 11.83ZM5.67996 9.51L5.96996 10.39H6.89996L6.14996 10.94L6.42996 11.82L5.67996 11.28L4.92996 11.82L5.21996 10.94L4.45996 10.39H5.38996L5.67996 9.51Z" fill="#F0F0F0"/>
</svg>
