<svg width="32" height="32" viewBox="0 0 32 32" fill="none" xmlns="http://www.w3.org/2000/svg">
<path d="M32 5.33002H0V26.66H32V5.33002Z" fill="#F0F0F0"/>
<path d="M32 5.33002H0V12.44H32V5.33002Z" fill="#6DA544"/>
<path d="M32 19.56H0V26.67H32V19.56ZM18.77 13.77H17.65V14.14C17.6642 14.9116 17.4671 15.6724 17.08 16.34C16.9416 16.571 16.7579 16.7717 16.54 16.93V13.77H15.44V16.93C15.2221 16.7717 15.0384 16.571 14.9 16.34C14.5129 15.6724 14.3158 14.9116 14.33 14.14V13.77H13.23V14.14C13.23 16.43 14.45 18.23 16.01 18.23C17.57 18.23 18.79 16.43 18.79 14.14C18.78 14 18.78 13.9 18.77 13.77Z" fill="#D80027"/>
<path d="M4.17 11.52H2.78V13.05H4.17V11.52ZM1.39 11.52H0V13.05H1.39V11.52ZM6.96 11.52H5.57V13.05H6.96V11.52ZM9.74 11.52H8.35V13.05H9.74V11.52ZM12.52 11.52H11.13V13.05H12.52V11.52ZM15.3 11.52H13.91V13.05H15.3V11.52ZM18.08 11.52H16.69V13.05H18.08V11.52ZM20.87 11.52H19.48V13.05H20.87V11.52ZM23.65 11.52H22.26V13.05H23.65V11.52ZM26.43 11.52H25.04V13.05H26.43V11.52ZM29.22 11.52H27.83V13.05H29.22V11.52ZM32 11.52H30.61V13.05H32V11.52ZM4.17 18.89H2.78V20.49H4.17V18.89ZM1.39 18.89H0V20.49H1.39V18.89ZM6.96 18.89H5.57V20.49H6.96V18.89ZM9.74 18.89H8.35V20.49H9.74V18.89ZM12.52 18.89H11.13V20.49H12.52V18.89ZM15.3 18.89H13.91V20.49H15.3V18.89ZM18.08 18.89H16.69V20.49H18.08V18.89ZM20.87 18.89H19.48V20.49H20.87V18.89ZM23.65 18.89H22.26V20.49H23.65V18.89ZM26.43 18.89H25.04V20.49H26.43V18.89ZM29.22 18.89H27.83V20.49H29.22V18.89ZM32 18.89H30.61V20.49H32V18.89Z" fill="#F0F0F0"/>
</svg>
