<svg width="32" height="32" viewBox="0 0 32 32" fill="none" xmlns="http://www.w3.org/2000/svg">
<path d="M32 5.32996H0V26.66H32V5.32996Z" fill="#F0F0F0"/>
<path d="M13.22 18.78H0V26.66H13.22V18.78Z" fill="#D80027"/>
<path d="M13.22 5.32996H0V13.21H13.22V5.32996Z" fill="#0052B4"/>
<path d="M32 5.32996H18.78V13.21H32V5.32996Z" fill="#D80027"/>
<path d="M32 18.78H18.78V26.66H32V18.78Z" fill="#0052B4"/>
<path d="M18.78 16C18.78 16.7373 18.4871 17.4444 17.9657 17.9657C17.4444 18.4871 16.7373 18.78 16 18.78C15.2627 18.78 14.5556 18.4871 14.0342 17.9657C13.5129 17.4444 13.22 16.7373 13.22 16C13.22 14.46 16 13.22 16 13.22C16 13.22 18.78 14.46 18.78 16Z" fill="#496E2D"/>
<path d="M13.22 16C13.22 15.2627 13.5129 14.5556 14.0342 14.0342C14.5556 13.5129 15.2627 13.22 16 13.22C16.7373 13.22 17.4444 13.5129 17.9657 14.0342C18.4871 14.5556 18.78 15.2627 18.78 16" fill="#0052B4"/>
<path d="M14.4299 14.61V16.35C14.4299 16.7664 14.5953 17.1657 14.8898 17.4601C15.1842 17.7546 15.5835 17.92 15.9999 17.92C16.4163 17.92 16.8157 17.7546 17.1101 17.4601C17.4045 17.1657 17.5699 16.7664 17.5699 16.35V14.61H14.4299Z" fill="#D80027"/>
</svg>
