<svg width="32" height="32" viewBox="0 0 32 32" fill="none" xmlns="http://www.w3.org/2000/svg">
<path d="M32 5.33002H0V26.66H32V5.33002Z" fill="#0052B4"/>
<path d="M13.1699 10.9L13.3999 11.61H14.1499L13.5399 12.04L13.7699 12.75L13.1699 12.32L12.5699 12.75L12.7999 12.04L12.1999 11.61H12.9399L13.1699 10.9ZM7.29988 17.62L7.58988 18.51H8.51988L7.76988 19.06L8.04988 19.94L7.29988 19.39L6.54988 19.94L6.83988 19.06L6.07988 18.51H7.00988L7.29988 17.62ZM9.03988 7.47998L9.32988 8.36998H10.2599L9.50988 8.90998L9.79988 9.79998L9.03988 9.24998L8.28988 9.79998L8.57988 8.90998L7.82988 8.36998H8.75988L9.03988 7.47998ZM4.34988 10.96L4.62988 11.84H5.56988L4.80988 12.39L5.09988 13.28L4.34988 12.73L3.58988 13.28L3.87988 12.39L3.12988 11.84H4.05988L4.34988 10.96Z" fill="#F0F0F0"/>
<path d="M30.2098 22.16H7.3598C7.3598 22.16 14.1898 16.62 26.7698 8.34998C26.7698 8.34998 21.2498 16.41 30.2098 22.16ZM7.3598 22.88C7.22795 22.8979 7.10707 22.963 7.01955 23.0632C6.93202 23.1634 6.88379 23.2919 6.88379 23.425C6.88379 23.558 6.93202 23.6866 7.01955 23.7868C7.10707 23.887 7.22795 23.9521 7.3598 23.97H30.2098C30.3416 23.9521 30.4625 23.887 30.55 23.7868C30.6376 23.6866 30.6858 23.558 30.6858 23.425C30.6858 23.2919 30.6376 23.1634 30.55 23.0632C30.4625 22.963 30.3416 22.8979 30.2098 22.88H7.3598Z" fill="#FFDA44"/>
</svg>
