<svg width="25" height="24" viewBox="0 0 25 24" fill="none" xmlns="http://www.w3.org/2000/svg">
<path fill-rule="evenodd" clip-rule="evenodd" d="M12.1665 1.5C14.9513 1.5 17.622 2.60625 19.5911 4.57538C21.5603 6.54451 22.6665 9.21523 22.6665 12C22.6665 17.799 17.9655 22.5 12.1665 22.5C6.36751 22.5 1.6665 17.799 1.6665 12C1.6665 6.20101 6.36751 1.5 12.1665 1.5ZM12.1665 3C7.19594 3 3.1665 7.02944 3.1665 12C3.1665 16.9706 7.19594 21 12.1665 21C14.5535 21 16.8426 20.0518 18.5305 18.364C20.2183 16.6761 21.1665 14.3869 21.1665 12C21.1665 7.02944 17.1371 3 12.1665 3Z" fill="#A7A4B5"/>
</svg>
