<svg width="32" height="32" viewBox="0 0 32 32" fill="none" xmlns="http://www.w3.org/2000/svg">
<path d="M32 5.33002H0V26.66H32V5.33002Z" fill="#D80027"/>
<path d="M31.2999 6.03003H0.689941V25.97H31.2999V6.03003Z" fill="#0052B4"/>
<path d="M15.4001 22.73C15.2501 22.61 11.8301 19.63 11.8301 16C11.8301 12.37 15.2501 9.39 15.4001 9.27L16.0001 8.75L16.6001 9.27C16.7501 9.39 20.1701 12.37 20.1701 16C20.1701 19.63 16.7501 22.61 16.6001 22.73L16.0001 23.25L15.4001 22.73Z" fill="#D80027"/>
<path d="M19.25 16C19.25 12.75 16 10 16 10C16 10 12.75 12.78 12.75 16C12.7752 16.9706 13.025 17.9222 13.48 18.78H18.48C18.9489 17.9256 19.2125 16.9739 19.25 16Z" fill="#338AF3"/>
<path d="M19.25 16C19.2248 16.9706 18.975 17.9222 18.52 18.78L16 19.25L13.48 18.78C13.025 17.9222 12.7752 16.9706 12.75 16H19.25Z" fill="#0052B4"/>
<path d="M16 22C17.0239 21.0727 17.8769 19.9726 18.52 18.75H13.52C14.1511 19.9695 14.9904 21.0693 16 22Z" fill="#FFDA44"/>
<path d="M13.9099 14.14H18.0899L15.9999 16.23L13.9099 14.14Z" fill="#6DA544"/>
<path d="M16.7001 15.54H15.3101V19.71H16.7001V15.54Z" fill="#A2001D"/>
</svg>
