<svg width="32" height="32" viewBox="0 0 32 32" fill="none" xmlns="http://www.w3.org/2000/svg">
<path d="M32 5.33002H0V26.66H32V5.33002Z" fill="#338AF3"/>
<path d="M22 16.61H10C10.0105 17.0132 10.1787 17.3962 10.4685 17.6767C10.7584 17.9572 11.1467 18.1127 11.55 18.11H11.5C11.5 18.5078 11.658 18.8893 11.9393 19.1706C12.2206 19.4519 12.6022 19.61 13 19.61C13 20.0078 13.158 20.3893 13.4393 20.6706C13.7206 20.9519 14.1022 21.11 14.5 21.11H17.5C17.8978 21.11 18.2794 20.9519 18.5607 20.6706C18.842 20.3893 19 20.0078 19 19.61C19.3978 19.61 19.7794 19.4519 20.0607 19.1706C20.342 18.8893 20.5 18.5078 20.5 18.11H20.45C20.8533 18.1127 21.2416 17.9572 21.5315 17.6767C21.8213 17.3962 21.9895 17.0132 22 16.61Z" fill="#FFDA44"/>
<path d="M20.1501 14.65C20.1501 15.7507 19.7129 16.8062 18.9346 17.5845C18.1563 18.3628 17.1007 18.8 16.0001 18.8C14.8994 18.8 13.8439 18.3628 13.0656 17.5845C12.2873 16.8062 11.8501 15.7507 11.8501 14.65" fill="#338AF3"/>
<path d="M20.1199 14.26L18.4399 14.94L19.3299 16.34L17.4999 16.04L17.2699 17.63L15.9999 16.46L14.7299 17.63L14.4999 16.04L12.6699 16.34L13.5699 14.94L11.8799 14.26L13.5699 13.58L12.6699 12.18L14.4999 12.48L14.7299 10.89L15.9999 12.06L17.2699 10.89L17.4999 12.48L19.3299 12.18L18.4399 13.58L20.1199 14.26Z" fill="#FFDA44"/>
</svg>
