<svg width="32" height="32" viewBox="0 0 32 32" fill="none" xmlns="http://www.w3.org/2000/svg">
<path d="M32 5.32996H0V26.66H32V5.32996Z" fill="black"/>
<path d="M32 5.32996H0V16H32V5.32996Z" fill="#D80027"/>
<path d="M14.54 13.82L15.44 14.47L15.1 15.54L16 14.88L16.9 15.54L16.56 14.47L17.46 13.81L16.34 13.82L16 12.75L15.65 13.82H14.54Z" fill="#FFDA44"/>
<path d="M18.67 11.38C17.8572 10.9146 16.9367 10.6698 16 10.67V12.06C16.9096 12.0672 17.7886 12.3888 18.4881 12.9702C19.1876 13.5516 19.6645 14.3571 19.8378 15.25C20.0111 16.1429 19.8702 17.0683 19.439 17.8692C19.0078 18.6701 18.3129 19.2971 17.472 19.644C16.914 19.8735 16.3108 19.9717 15.7088 19.9311C15.1068 19.8906 14.5222 19.7123 14 19.41C13.4674 19.1079 13.0149 18.6827 12.68 18.17L11.52 18.94C11.9648 19.6076 12.5545 20.1662 13.2453 20.5741C13.936 20.9821 14.7099 21.2288 15.5092 21.296C16.3086 21.3632 17.1128 21.2491 17.862 20.9622C18.6111 20.6753 19.2858 20.223 19.8358 19.639C20.3858 19.055 20.7968 18.3545 21.0384 17.5895C21.2799 16.8245 21.3456 16.0149 21.2307 15.221C21.1157 14.4271 20.8231 13.6694 20.3745 13.0043C19.9259 12.3393 19.333 11.784 18.64 11.38H18.67Z" fill="#FFDA44"/>
<path d="M12.9201 15.0699C12.826 15.2325 12.7658 15.4123 12.7431 15.5987C12.7204 15.7851 12.7357 15.9742 12.788 16.1545C12.8403 16.3349 12.9286 16.5027 13.0476 16.648C13.1665 16.7933 13.3137 16.913 13.4801 16.9999L18.0001 19.4299C17.9217 19.5594 17.8701 19.7032 17.8483 19.8529C17.8265 20.0026 17.835 20.1552 17.8732 20.3016C17.9114 20.448 17.9787 20.5852 18.0709 20.7052C18.1631 20.8251 18.2785 20.9254 18.4101 20.9999L19.6301 21.6699C19.901 21.8167 20.2188 21.8508 20.5146 21.7647C20.8105 21.6785 21.0604 21.4792 21.2101 21.2099L21.8701 19.9999L12.9201 15.0699Z" fill="#FFDA44"/>
</svg>
