<svg width="32" height="32" viewBox="0 0 32 32" fill="none" xmlns="http://www.w3.org/2000/svg">
<path d="M32 5.33002H0V26.66H32V5.33002Z" fill="#0052B4"/>
<path d="M32 5.33002H0V12.44H32V5.33002Z" fill="#D80027"/>
<path d="M32 19.56H0V26.67H32V19.56Z" fill="#F0F0F0"/>
<path d="M8.09009 11.36V16.68C8.09009 19.68 12.0901 20.68 12.0901 20.68C12.0901 20.68 16.0401 19.75 16.0401 16.68V11.36H8.09009Z" fill="#D80027"/>
<path d="M9.73004 12.29H14.37V10.44L13.44 10.9L12.05 9.51001L10.66 10.9L9.73004 10.44V12.29ZM15.07 17.42L12.06 14.41L9.04004 17.42L10.03 18.41L12.06 16.38L14.09 18.41L15.07 17.42Z" fill="#FFDA44"/>
<path d="M15.07 14.61H13.67C13.7504 14.4665 13.7918 14.3045 13.79 14.14C13.7929 13.9322 13.7254 13.7295 13.5985 13.565C13.4715 13.4004 13.2926 13.2837 13.0908 13.2338C12.889 13.184 12.6763 13.2039 12.4873 13.2904C12.2983 13.3768 12.1442 13.5248 12.05 13.71C11.9696 13.5625 11.8511 13.4393 11.7069 13.3531C11.5627 13.2669 11.398 13.221 11.23 13.22C10.9851 13.22 10.75 13.3166 10.5759 13.4889C10.4018 13.6611 10.3026 13.8951 10.3 14.14C10.3039 14.305 10.3485 14.4665 10.43 14.61H9C9.01775 14.8629 9.13089 15.0996 9.31653 15.2723C9.50218 15.4449 9.74648 15.5406 10 15.54C10.0026 15.7849 10.1018 16.0189 10.2759 16.1912C10.45 16.3634 10.6851 16.46 10.93 16.46C10.9291 16.677 11.0048 16.8873 11.1439 17.0538C11.2829 17.2203 11.4764 17.3323 11.69 17.37L10.92 19C11.28 19.153 11.668 19.231 12.06 19.23C12.4484 19.2312 12.8329 19.1529 13.19 19L12.46 17.35C12.6736 17.3123 12.8671 17.2003 13.0061 17.0338C13.1452 16.8673 13.2209 16.657 13.22 16.44C13.4649 16.44 13.7 16.3434 13.8741 16.1712C14.0482 15.9989 14.1474 15.7649 14.15 15.52C14.3863 15.502 14.6085 15.4006 14.777 15.2339C14.9455 15.0672 15.0494 14.8461 15.07 14.61Z" fill="#F0F0F0"/>
</svg>
