<svg width="32" height="32" viewBox="0 0 32 32" fill="none" xmlns="http://www.w3.org/2000/svg">
<path d="M32 5.33002H0V26.66H32V5.33002Z" fill="#0052B4"/>
<path d="M32 14.61V17.39H17.39V26.66H14.61V17.39H0V14.61H14.61V5.33002H17.39V14.61H32Z" fill="#F0F0F0"/>
<path d="M24.1599 11C24.1599 10.9311 24.1873 10.8649 24.2361 10.8162C24.2848 10.7674 24.3509 10.74 24.4199 10.74H24.9999C25.2173 10.7574 25.4359 10.7295 25.642 10.6582C25.8481 10.5869 26.0372 10.4738 26.1974 10.3258C26.3576 10.1779 26.4855 9.99835 26.5729 9.79858C26.6604 9.59881 26.7055 9.3831 26.7055 9.16502C26.7055 8.94695 26.6604 8.73124 26.5729 8.53146C26.4855 8.33169 26.3576 8.15218 26.1974 8.00424C26.0372 7.85629 25.8481 7.74311 25.642 7.67183C25.4359 7.60054 25.2173 7.57269 24.9999 7.59002H24.4799C24.2889 7.44946 24.057 7.37567 23.8199 7.38002C23.5936 7.35743 23.3675 7.42432 23.19 7.56636C23.0124 7.70841 22.8975 7.91432 22.8699 8.14002C22.8975 8.36461 23.0106 8.56991 23.1857 8.7133C23.3607 8.85669 23.5843 8.92714 23.8099 8.91002H24.9999C25.0376 8.90252 25.0765 8.90347 25.1138 8.91281C25.1511 8.92215 25.1859 8.93964 25.2156 8.96403C25.2453 8.98842 25.2692 9.0191 25.2857 9.05385C25.3021 9.08861 25.3106 9.12658 25.3106 9.16502C25.3106 9.20347 25.3021 9.24144 25.2857 9.27619C25.2692 9.31095 25.2453 9.34162 25.2156 9.36601C25.1859 9.3904 25.1511 9.4079 25.1138 9.41723C25.0765 9.42657 25.0376 9.42753 24.9999 9.42002H24.4499C24.0309 9.42002 23.629 9.58649 23.3327 9.88279C23.0364 10.1791 22.8699 10.581 22.8699 11C22.8699 11.4191 23.0364 11.8209 23.3327 12.1173C23.629 12.4136 24.0309 12.58 24.4499 12.58H26.5799V11.25H24.4199C24.3526 11.2501 24.288 11.2241 24.2395 11.1774C24.191 11.1308 24.1625 11.0672 24.1599 11ZM6.7699 11C6.76694 10.9343 6.78903 10.8698 6.83172 10.8197C6.8744 10.7696 6.93451 10.7376 6.9999 10.73H7.5499C7.93399 10.7624 8.31665 10.6532 8.62576 10.4229C8.93487 10.1927 9.14909 9.85729 9.22804 9.48001C9.30699 9.10274 9.24521 8.70962 9.05435 8.37474C8.8635 8.03987 8.55674 7.78637 8.1919 7.66202C7.98585 7.59068 7.76727 7.56276 7.5499 7.58002H7.0599C6.86892 7.43946 6.63699 7.36567 6.3999 7.37002C6.284 7.35172 6.1656 7.35705 6.05181 7.3857C5.93802 7.41435 5.83121 7.46572 5.73779 7.53671C5.64437 7.60771 5.56628 7.69687 5.50821 7.79884C5.45014 7.9008 5.4133 8.01345 5.3999 8.13002C5.42754 8.35461 5.54062 8.55991 5.71567 8.7033C5.89072 8.84669 6.11427 8.91714 6.3399 8.90002H7.5799C7.61761 8.89252 7.65651 8.89347 7.69381 8.90281C7.7311 8.91215 7.76586 8.92964 7.79558 8.95403C7.8253 8.97842 7.84924 9.0091 7.86568 9.04385C7.88212 9.07861 7.89065 9.11658 7.89065 9.15502C7.89065 9.19347 7.88212 9.23144 7.86568 9.26619C7.84924 9.30095 7.8253 9.33162 7.79558 9.35601C7.76586 9.3804 7.7311 9.39789 7.69381 9.40723C7.65651 9.41657 7.61761 9.41753 7.5799 9.41002H6.9999C6.58086 9.41002 6.17898 9.57649 5.88267 9.87279C5.58637 10.1691 5.4199 10.571 5.4199 10.99C5.4199 11.4091 5.58637 11.8109 5.88267 12.1073C6.17898 12.4036 6.58086 12.57 6.9999 12.57H9.1599V11.25H6.9999C6.93796 11.2429 6.88065 11.2137 6.83843 11.1678C6.79621 11.1219 6.77189 11.0623 6.7699 11ZM24.1599 23.05C24.1599 22.9811 24.1873 22.9149 24.2361 22.8662C24.2848 22.8174 24.3509 22.79 24.4199 22.79H24.9999C25.4189 22.79 25.8208 22.6236 26.1171 22.3273C26.4134 22.0309 26.5799 21.6291 26.5799 21.21C26.5799 20.791 26.4134 20.3891 26.1171 20.0928C25.8208 19.7965 25.4189 19.63 24.9999 19.63H24.4799C24.2877 19.493 24.0558 19.4228 23.8199 19.43C23.5936 19.4074 23.3675 19.4743 23.19 19.6164C23.0124 19.7584 22.8975 19.9643 22.8699 20.19C22.8951 20.4149 23.0079 20.6208 23.1839 20.763C23.3598 20.9053 23.5847 20.9725 23.8099 20.95H24.9999C25.0672 20.95 25.1318 20.976 25.1803 21.0226C25.2288 21.0692 25.2573 21.1328 25.2599 21.2C25.2599 21.269 25.2325 21.3351 25.1838 21.3839C25.135 21.4326 25.0689 21.46 24.9999 21.46H24.4499C24.0309 21.46 23.629 21.6265 23.3327 21.9228C23.0364 22.2191 22.8699 22.621 22.8699 23.04C22.8699 23.4591 23.0364 23.8609 23.3327 24.1573C23.629 24.4536 24.0309 24.62 24.4499 24.62H26.5799V23.31H24.4199C24.3509 23.31 24.2848 23.2826 24.2361 23.2339C24.1873 23.1851 24.1599 23.119 24.1599 23.05ZM6.7699 23.05C6.76947 22.986 6.79271 22.924 6.83516 22.876C6.8776 22.828 6.93627 22.7974 6.9999 22.79H7.5499C7.96894 22.79 8.37082 22.6236 8.66713 22.3273C8.96344 22.0309 9.1299 21.6291 9.1299 21.21C9.1299 20.791 8.96344 20.3891 8.66713 20.0928C8.37082 19.7965 7.96894 19.63 7.5499 19.63H7.0599C6.86767 19.493 6.63585 19.4228 6.3999 19.43C6.284 19.4117 6.1656 19.4171 6.05181 19.4457C5.93802 19.4743 5.83121 19.5257 5.73779 19.5967C5.64437 19.6677 5.56628 19.7569 5.50821 19.8588C5.45014 19.9608 5.4133 20.0735 5.3999 20.19C5.4251 20.4149 5.5379 20.6208 5.71385 20.763C5.88981 20.9053 6.11475 20.9725 6.3399 20.95H7.5799C7.64716 20.95 7.71182 20.976 7.7603 21.0226C7.80878 21.0692 7.83732 21.1328 7.8399 21.2C7.8399 21.269 7.81251 21.3351 7.76375 21.3839C7.71499 21.4326 7.64886 21.46 7.5799 21.46H6.9999C6.58086 21.46 6.17898 21.6265 5.88267 21.9228C5.58637 22.2191 5.4199 22.621 5.4199 23.04C5.4199 23.4591 5.58637 23.8609 5.88267 24.1573C6.17898 24.4536 6.58086 24.62 6.9999 24.62H9.1599V23.31H6.9999C6.93627 23.3026 6.8776 23.272 6.83516 23.224C6.79271 23.176 6.76947 23.1141 6.7699 23.05Z" fill="#F0F0F0"/>
</svg>
