<svg width="32" height="32" viewBox="0 0 32 32" fill="none" xmlns="http://www.w3.org/2000/svg">
<path d="M32 5.32996H0V26.66H32V5.32996Z" fill="#F0F0F0"/>
<path d="M32 5.32996H0V12.44H32V5.32996Z" fill="black"/>
<path d="M32 19.55H0V26.66H32V19.55Z" fill="#496E2D"/>
<path d="M16 16L0 26.67V5.32996L16 16ZM19.11 16C19.1077 15.413 19.3041 14.8425 19.6672 14.3813C20.0304 13.9201 20.5389 13.5954 21.11 13.46C20.9253 13.4246 20.738 13.4046 20.55 13.4C20.0933 13.4014 19.645 13.5231 19.2502 13.7527C18.8554 13.9823 18.528 14.3118 18.3008 14.7081C18.0737 15.1043 17.9549 15.5534 17.9563 16.0101C17.9578 16.4668 18.0794 16.9151 18.309 17.31C18.5859 17.7847 19.0062 18.1595 19.5095 18.3805C20.0127 18.6015 20.573 18.6573 21.11 18.54C20.5389 18.4045 20.0304 18.0798 19.6672 17.6186C19.3041 17.1574 19.1077 16.5869 19.11 16Z" fill="#D80027"/>
<path d="M21.26 14.33L21.6299 15.47H22.82L21.85 16.17L22.2199 17.3L21.26 16.6L20.29 17.3L20.66 16.17L19.7 15.47H20.8899L21.26 14.33Z" fill="#D80027"/>
</svg>
