<svg width="32" height="32" viewBox="0 0 32 32" fill="none" xmlns="http://www.w3.org/2000/svg">
<path d="M32 12.8H0V26.66H32V12.8Z" fill="#040404"/>
<path d="M32 5.33002H0V12.8H32V5.33002Z" fill="#003087"/>
<path d="M22.2901 23.06L9.79006 14L9.21006 14.81L21.7101 23.88L22.2901 23.06ZM9.79006 14C9.69618 13.9336 9.58227 13.9015 9.46753 13.9093C9.35279 13.917 9.24422 13.9641 9.16013 14.0425C9.07604 14.121 9.02157 14.226 9.00589 14.34C8.99021 14.4539 9.01429 14.5698 9.07406 14.668C9.10933 14.724 9.15559 14.7723 9.21006 14.81L9.79006 14ZM21.7101 23.88C21.763 23.9181 21.823 23.9453 21.8866 23.9599C21.9502 23.9745 22.016 23.9763 22.0803 23.9651C22.1446 23.9539 22.2059 23.93 22.2609 23.8948C22.3158 23.8596 22.3631 23.8138 22.4001 23.76C22.44 23.7082 22.469 23.6488 22.4851 23.5853C22.5013 23.5219 22.5043 23.4559 22.494 23.3913C22.4837 23.3266 22.4603 23.2648 22.4252 23.2096C22.3902 23.1543 22.3442 23.1068 22.2901 23.07L21.7101 23.88Z" fill="#43B02A"/>
<path d="M23.16 21.39L10.66 17.12L10.34 18.07L22.84 22.33L23.16 21.39ZM10.66 17.12C10.534 17.0775 10.3964 17.0869 10.2773 17.146C10.1582 17.205 10.0674 17.309 10.025 17.435C9.98257 17.561 9.99192 17.6986 10.051 17.8177C10.1101 17.9368 10.214 18.0275 10.34 18.07L10.66 17.12ZM22.84 22.33C22.9597 22.3554 23.0846 22.3361 23.191 22.2757C23.2973 22.2152 23.3779 22.1179 23.4173 22.002C23.4568 21.8862 23.4523 21.7599 23.4049 21.6471C23.3575 21.5343 23.2704 21.4428 23.16 21.39L22.84 22.33Z" fill="#43B02A"/>
<path d="M16.5 23.93C17.6935 23.93 18.8381 23.4559 19.682 22.612C20.5259 21.7681 21 20.6235 21 19.43C21 18.2366 20.5259 17.092 19.682 16.248C18.8381 15.4041 17.6935 14.93 16.5 14.93C15.3065 14.93 14.1619 15.4041 13.318 16.248C12.4741 17.092 12 18.2366 12 19.43C12 20.6235 12.4741 21.7681 13.318 22.612C14.1619 23.4559 15.3065 23.93 16.5 23.93ZM15 8.53002C15 7.94002 15.45 6.40002 16 6.40002C16.55 6.40002 17 7.94002 17 8.53002C17 8.53002 16.68 9.53002 16.5 10.13C16.27 10.95 16.5 12.26 16 12.26C15.5 12.26 15.73 10.95 15.5 10.13C15.32 9.50002 15 8.53002 15 8.53002Z" fill="#FEDD00"/>
<path d="M16.33 10.72L16 12.1C15.9948 12.1124 15.992 12.1258 15.9919 12.1394C15.9919 12.1529 15.9944 12.1663 15.9996 12.1789C16.0047 12.1914 16.0122 12.2028 16.0217 12.2125C16.0312 12.2221 16.0426 12.2297 16.055 12.235C16.0675 12.2402 16.0809 12.243 16.0944 12.2431C16.108 12.2432 16.1214 12.2406 16.1339 12.2355C16.1465 12.2304 16.1579 12.2228 16.1675 12.2133C16.1771 12.2038 16.1848 12.1925 16.19 12.18L16.88 11C16.9095 10.9543 16.9531 10.9195 17.0041 10.9008C17.0551 10.8821 17.1109 10.8806 17.1629 10.8964C17.2149 10.9122 17.2603 10.9446 17.2923 10.9885C17.3242 11.0325 17.341 11.0856 17.34 11.14C17.3365 11.1912 17.3489 11.2423 17.3754 11.2863C17.402 11.3303 17.4414 11.365 17.4884 11.3858C17.5354 11.4065 17.5876 11.4123 17.638 11.4023C17.6884 11.3923 17.7345 11.3671 17.77 11.33L18.11 10.96C18.1784 10.8856 18.2226 10.7923 18.2369 10.6924C18.2511 10.5924 18.2348 10.4905 18.19 10.4L18 9.88998C17.9602 9.80395 17.8968 9.73102 17.8171 9.67968C17.7375 9.62833 17.6448 9.60069 17.55 9.59998H17.17C17.0753 9.60069 16.9826 9.62833 16.903 9.67968C16.8233 9.73102 16.7599 9.80395 16.72 9.88998L16.38 10.61L16.33 10.72Z" fill="#FEDD00"/>
<path d="M15.67 10.72L16 12.1C16.0106 12.1252 16.0108 12.1536 16.0005 12.1789C15.9902 12.2042 15.9702 12.2244 15.945 12.235C15.9198 12.2456 15.8915 12.2458 15.8661 12.2355C15.8408 12.2252 15.8206 12.2052 15.81 12.18L15.12 11C15.0906 10.9544 15.047 10.9195 14.996 10.9009C14.9449 10.8822 14.8892 10.8806 14.8372 10.8964C14.7852 10.9123 14.7398 10.9446 14.7078 10.9886C14.6758 11.0325 14.6591 11.0857 14.66 11.14C14.6635 11.1913 14.6512 11.2424 14.6246 11.2863C14.5981 11.3303 14.5586 11.3651 14.5117 11.3858C14.4647 11.4066 14.4124 11.4124 14.362 11.4024C14.3116 11.3924 14.2656 11.3671 14.23 11.33L13.89 10.96C13.8224 10.8854 13.7779 10.7928 13.762 10.6934C13.746 10.594 13.7592 10.4921 13.8 10.4L14 9.89002C14.0398 9.804 14.1033 9.73107 14.1829 9.67972C14.2626 9.62838 14.3552 9.60074 14.45 9.60002H14.83C14.9248 9.60074 15.0174 9.62838 15.0971 9.67972C15.1768 9.73107 15.2402 9.804 15.28 9.89002L15.62 10.61L15.67 10.72ZM24.75 8.53002C24.75 7.94002 25.2 6.40002 25.75 6.40002C26.3 6.40002 26.75 7.94002 26.75 8.53002C26.75 8.53002 26.43 9.53002 26.25 10.13C26.02 10.95 26.25 12.26 25.75 12.26C25.25 12.26 25.48 10.95 25.25 10.13C25.08 9.50002 24.75 8.53002 24.75 8.53002Z" fill="#FEDD00"/>
<path d="M26.08 10.72L25.76 12.1C25.7558 12.117 25.7561 12.1349 25.761 12.1518C25.7659 12.1686 25.7752 12.1839 25.7878 12.1961C25.8005 12.2083 25.8162 12.2169 25.8332 12.2211C25.8503 12.2252 25.8681 12.2249 25.885 12.22C25.9074 12.2135 25.9269 12.1993 25.94 12.18L26.63 11C26.6595 10.9543 26.703 10.9195 26.7541 10.9008C26.8051 10.8821 26.8608 10.8806 26.9128 10.8964C26.9648 10.9122 27.0102 10.9446 27.0422 10.9885C27.0742 11.0325 27.091 11.0856 27.09 11.14C27.0865 11.1912 27.0988 11.2423 27.1254 11.2863C27.1519 11.3303 27.1914 11.365 27.2384 11.3858C27.2854 11.4065 27.3376 11.4123 27.388 11.4023C27.4384 11.3923 27.4845 11.3671 27.52 11.33L27.86 10.96C27.9276 10.8854 27.9721 10.7927 27.9881 10.6933C28.004 10.5939 27.9908 10.492 27.95 10.4L27.73 9.93997C27.6912 9.85319 27.628 9.77958 27.5481 9.72808C27.4682 9.67659 27.3751 9.64945 27.28 9.64997H26.9C26.8052 9.65069 26.7126 9.67833 26.6329 9.72967C26.5532 9.78102 26.4898 9.85395 26.45 9.93997L26.12 10.66C26.1047 10.6786 26.0913 10.6987 26.08 10.72Z" fill="#FEDD00"/>
<path d="M25.43 10.72L25.75 12.1C25.7558 12.1229 25.7534 12.147 25.7432 12.1682C25.7329 12.1895 25.7155 12.2064 25.694 12.216C25.6724 12.2256 25.6481 12.2273 25.6254 12.2207C25.6027 12.2141 25.5831 12.1997 25.57 12.18L24.87 11C24.8405 10.9544 24.797 10.9195 24.7459 10.9009C24.6949 10.8822 24.6392 10.8806 24.5872 10.8964C24.5352 10.9123 24.4897 10.9446 24.4578 10.9886C24.4258 11.0325 24.409 11.0857 24.41 11.14C24.4109 11.1768 24.4037 11.2132 24.3889 11.2469C24.3741 11.2805 24.3521 11.3105 24.3244 11.3346C24.2967 11.3588 24.2641 11.3766 24.2287 11.3866C24.1934 11.3967 24.1563 11.3989 24.12 11.393C24.0714 11.3853 24.0262 11.3634 23.99 11.33L23.64 10.96C23.5717 10.8857 23.5275 10.7924 23.5132 10.6924C23.4989 10.5925 23.5152 10.4905 23.56 10.4L23.77 9.94002C23.8098 9.854 23.8732 9.78107 23.9529 9.72972C24.0326 9.67838 24.1252 9.65074 24.22 9.65002H24.6C24.695 9.64951 24.7882 9.67665 24.8681 9.72814C24.948 9.77963 25.0112 9.85325 25.05 9.94002L25.39 10.66C25.39 10.66 25.42 10.68 25.43 10.72ZM5.23999 8.53002C5.23999 7.94002 5.68999 6.40002 6.23999 6.40002C6.78999 6.40002 7.23999 7.94002 7.23999 8.53002C7.23999 8.53002 6.91999 9.53002 6.73999 10.13C6.50999 10.95 6.73999 12.26 6.23999 12.26C5.73999 12.26 5.99999 11 5.73999 10.13C5.56999 9.50002 5.23999 8.53002 5.23999 8.53002Z" fill="#FEDD00"/>
<path d="M6.57004 10.72L6.25004 12.1C6.24435 12.1228 6.24689 12.1469 6.25721 12.168C6.26753 12.1892 6.28497 12.206 6.30646 12.2155C6.32795 12.2251 6.35212 12.2267 6.37472 12.2202C6.39732 12.2137 6.41691 12.1995 6.43004 12.18L7.12004 11C7.14951 10.9543 7.19307 10.9195 7.2441 10.9008C7.29513 10.8821 7.35087 10.8806 7.40287 10.8964C7.45486 10.9122 7.50028 10.9446 7.53225 10.9885C7.56422 11.0325 7.581 11.0856 7.58004 11.14C7.57652 11.1912 7.58887 11.2423 7.61542 11.2863C7.64197 11.3303 7.68142 11.365 7.72841 11.3858C7.7754 11.4065 7.82764 11.4123 7.87803 11.4023C7.92842 11.3923 7.97451 11.3671 8.01004 11.33L8.35004 10.96C8.41764 10.8854 8.46213 10.7927 8.47811 10.6933C8.49409 10.5939 8.48086 10.492 8.44004 10.4L8.22004 9.93997C8.18124 9.85319 8.11804 9.77958 8.03814 9.72808C7.95824 9.67659 7.86509 9.64945 7.77004 9.64997H7.39004C7.29525 9.65069 7.20263 9.67833 7.12295 9.72967C7.04328 9.78102 6.97984 9.85395 6.94004 9.93997L6.61004 10.66C6.59472 10.6786 6.58132 10.6987 6.57004 10.72Z" fill="#FEDD00"/>
<path d="M5.91988 10.72L6.23988 12.1C6.24557 12.1228 6.24303 12.1469 6.23271 12.168C6.22239 12.1892 6.20495 12.206 6.18346 12.2155C6.16197 12.2251 6.1378 12.2267 6.1152 12.2202C6.0926 12.2137 6.07301 12.1995 6.05988 12.18L5.35988 11C5.3304 10.9543 5.28685 10.9195 5.23582 10.9008C5.18478 10.8821 5.12905 10.8806 5.07705 10.8964C5.02506 10.9122 4.97963 10.9446 4.94767 10.9885C4.9157 11.0325 4.89892 11.0856 4.89988 11.14C4.90122 11.1892 4.88799 11.2377 4.86186 11.2794C4.83574 11.3212 4.79787 11.3542 4.75301 11.3745C4.70816 11.3948 4.65831 11.4014 4.60972 11.3935C4.56113 11.3856 4.51596 11.3635 4.47988 11.33L4.12988 10.96C4.06156 10.8856 4.01735 10.7923 4.00307 10.6924C3.98879 10.5924 4.00511 10.4905 4.04988 10.4L4.25988 9.93997C4.29969 9.85395 4.36313 9.78102 4.4428 9.72967C4.52247 9.67833 4.6151 9.65069 4.70988 9.64997H5.08988C5.18493 9.64945 5.27809 9.67659 5.35799 9.72808C5.43789 9.77958 5.50108 9.85319 5.53988 9.93997L5.87988 10.66C5.87988 10.66 5.90988 10.68 5.91988 10.72Z" fill="#FEDD00"/>
</svg>
