<svg width="32" height="32" viewBox="0 0 32 32" fill="none" xmlns="http://www.w3.org/2000/svg">
<path d="M32 5.32996H0V26.66H32V5.32996Z" fill="#0052B4"/>
<path d="M6.25 5.32996H27.58V26.67" fill="#FFDA44"/>
<path d="M2.29004 6.28996L3.21004 5.61996L4.14004 6.28996L3.83004 5.32996H2.60004L2.29004 6.28996Z" fill="#F0F0F0"/>
<path d="M5.51991 6.48L5.16991 5.38L4.80991 6.48H3.65991L4.58991 7.15L4.23991 8.24L5.16991 7.57L6.09991 8.24L5.73991 7.15L6.66991 6.48H5.51991Z" fill="#F0F0F0"/>
<path d="M7.47012 8.42997L7.12012 7.33997L6.76012 8.42997H5.62012L6.55012 9.10997L6.19012 10.2L7.12012 9.51997L8.05012 10.2L7.69012 9.10997L8.62012 8.42997H7.47012Z" fill="#F0F0F0"/>
<path d="M9.43007 10.38L9.07007 9.29004L8.72007 10.38H7.57007L8.50007 11.06L8.15007 12.15L9.07007 11.48L10.0001 12.15L9.65007 11.06L10.5801 10.38H9.43007Z" fill="#F0F0F0"/>
<path d="M11.38 12.34L11.03 11.24L10.67 12.34H9.53003L10.45 13.01L10.1 14.1L11.03 13.43L11.96 14.1L11.6 13.01L12.53 12.34H11.38Z" fill="#F0F0F0"/>
<path d="M13.34 14.29L12.98 13.2L12.63 14.29H11.48L12.41 14.97L12.05 16.06L12.98 15.38L13.91 16.06L13.55 14.96L14.48 14.29H13.34Z" fill="#F0F0F0"/>
<path d="M15.2899 16.25L14.9299 15.15L14.5799 16.25H13.4299L14.3599 16.92L14.0099 18.01L14.9399 17.34L15.8599 18.01L15.5099 16.92L16.4399 16.24L15.2899 16.25Z" fill="#F0F0F0"/>
<path d="M17.2399 18.2L16.8899 17.11L16.5299 18.2H15.3799L16.3099 18.87L15.9599 19.96L16.8899 19.29L17.8199 19.96L17.4599 18.87L18.3899 18.2H17.2399Z" fill="#F0F0F0"/>
<path d="M19.2001 20.1501L18.8401 19.0601L18.4901 20.1501H17.3401L18.2701 20.8301L17.9101 21.9201L18.8401 21.2401L19.7701 21.9201L19.4201 20.8301L20.3401 20.1501H19.2001Z" fill="#F0F0F0"/>
<path d="M21.15 22.11L20.79 21.01L20.44 22.11H19.29L20.22 22.78L19.87 23.87L20.8 23.2L21.72 23.87L21.37 22.78L22.3 22.11H21.15Z" fill="#F0F0F0"/>
<path d="M23.1 24.06L22.75 22.97L22.39 24.06H21.25L22.17 24.73L21.82 25.83L22.75 25.15L23.68 25.82L23.32 24.73L24.25 24.06H23.1Z" fill="#F0F0F0"/>
<path d="M24.7 24.92L24.35 26.01H23.2L24.1 26.67H25.2999L26.2 26.01H25.0599L24.7 24.92Z" fill="#F0F0F0"/>
</svg>
