<svg width="32" height="32" viewBox="0 0 32 32" fill="none" xmlns="http://www.w3.org/2000/svg">
<path d="M32 5.33002H0V26.66H32V5.33002Z" fill="#496E2D"/>
<path d="M0 26.67V5.33002H32" fill="#0052B4"/>
<path d="M0 24.78V26.67H2.83L32 7.22002V5.33002H29.17L0 24.78Z" fill="#FFDA44"/>
<path d="M5.36 6.79999L5.67 7.77999H6.71L5.87 8.38999L6.19 9.37999L5.36 8.76999L4.52 9.37999L4.84 8.38999L4 7.77999H5.04L5.36 6.79999ZM10.64 6.79999L10.96 7.77999H12L11.16 8.38999L11.48 9.37999L10.64 8.76999L9.81 9.37999L10.13 8.38999L9.29 7.77999H10.32L10.64 6.79999ZM5.36 11.96L5.67 12.94H6.71L5.87 13.55L6.19 14.53L5.36 13.93L4.52 14.53L4.84 13.55L4 12.94H5.04L5.36 11.96ZM10.64 11.96L10.96 12.94H12L11.16 13.55L11.48 14.53L10.64 13.93L9.81 14.53L10.13 13.55L9.29 12.94H10.32L10.64 11.96ZM8 9.37999L8.32 10.36H9.36L8.52 10.97L8.84 11.96L8 11.35L7.16 11.96L7.48 10.97L6.64 10.36H7.68L8 9.37999Z" fill="#F0F0F0"/>
</svg>
