<svg width="32" height="32" viewBox="0 0 32 32" fill="none" xmlns="http://www.w3.org/2000/svg">
<path d="M32 5.33002H0V26.66H32V5.33002Z" fill="white"/>
<path d="M19.9001 16C19.6806 16.9009 19.1881 17.7121 18.49 18.3225C17.7919 18.9329 16.9223 19.3127 16.0001 19.41C15.0779 19.3127 14.2083 18.9329 13.5102 18.3225C12.8121 17.7121 12.3196 16.9009 12.1001 16C12.1001 14.9656 12.511 13.9737 13.2424 13.2423C13.9738 12.5109 14.9658 12.1 16.0001 12.1C17.0344 12.1 18.0264 12.5109 18.7578 13.2423C19.4892 13.9737 19.9001 14.9656 19.9001 16Z" fill="#D80027"/>
<path d="M19.9001 16C19.9001 17.0343 19.4892 18.0263 18.7578 18.7577C18.0264 19.4891 17.0344 19.9 16.0001 19.9C14.9658 19.9 13.9738 19.4891 13.2424 18.7577C12.511 18.0263 12.1001 17.0343 12.1001 16" fill="#0052B4"/>
<path d="M21.158 18.411L20.125 19.443L20.811 20.129L21.844 19.097L21.158 18.411ZM19.445 20.14L18.413 21.173L19.098 21.859L20.131 20.826L19.445 20.141V20.14ZM23.235 20.471L22.203 21.503L22.889 22.189L23.921 21.157L23.235 20.471ZM21.505 22.194L20.473 23.226L21.159 23.912L22.191 22.88L21.505 22.194ZM22.199 19.441L21.166 20.474L21.852 21.159L22.884 20.127L22.199 19.441ZM20.472 21.17L19.439 22.203L20.125 22.889L21.157 21.857L20.472 21.171V21.17ZM20.135 9.11701L19.449 9.80301L22.207 12.561L22.893 11.875L20.135 9.11701ZM19.095 10.154L18.409 10.84L19.441 11.872L20.127 11.186L19.095 10.154ZM20.824 11.867L20.138 12.552L21.17 13.585L21.856 12.899L20.824 11.867ZM21.164 8.08601L20.478 8.77201L21.511 9.80501L22.197 9.11901L21.164 8.08601ZM22.877 9.80601L22.191 10.492L23.223 11.525L23.909 10.839L22.877 9.80601ZM8.77497 20.473L8.08897 21.159L10.847 23.916L11.533 23.23L8.77497 20.473ZM11.517 21.162L10.831 21.848L11.863 22.88L12.549 22.194L11.517 21.162ZM9.79397 19.442L9.10897 20.128L10.141 21.16L10.827 20.474L9.79397 19.442ZM10.828 18.412L10.142 19.098L12.9 21.856L13.586 21.17L10.828 18.412ZM10.832 8.07501L8.07397 10.832L8.75997 11.518L11.518 8.76101L10.832 8.07501ZM11.873 9.10501L9.11497 11.862L9.80097 12.548L12.558 9.79101L11.873 9.10501ZM12.9 10.145L10.141 12.902L10.827 13.588L13.585 10.831L12.899 10.145H12.9Z" fill="black"/>
</svg>
