<svg width="32" height="32" viewBox="0 0 32 32" fill="none" xmlns="http://www.w3.org/2000/svg">
<path d="M32 5.33002H0V26.66H32V5.33002Z" fill="#496E2D"/>
<path d="M17.8601 15.56C17.6051 15.56 17.3511 15.605 17.1101 15.69C17.2511 15.4 17.3261 15.082 17.3301 14.76C17.2762 14.3036 17.1305 13.8629 16.902 13.4642C16.6734 13.0655 16.3667 12.7171 16.0001 12.44C15.6334 12.7171 15.3266 13.0654 15.098 13.4641C14.8695 13.8628 14.7239 14.3036 14.6701 14.76C14.6741 15.082 14.7501 15.4 14.8901 15.69C14.6492 15.6048 14.3956 15.5608 14.1401 15.56C13.6858 15.6123 13.2468 15.7563 12.8497 15.9832C12.4527 16.21 12.1058 16.5152 11.8301 16.88C12.1044 17.2471 12.4508 17.5544 12.848 17.7831C13.2452 18.0118 13.6848 18.157 14.1401 18.21C14.8416 18.1655 15.5029 17.8669 16.0001 17.37C16.4973 17.8669 17.1586 18.1655 17.8601 18.21C18.3153 18.157 18.755 18.0118 19.1522 17.7831C19.5493 17.5544 19.8957 17.2471 20.1701 16.88C19.8944 16.5151 19.5475 16.21 19.1505 15.9831C18.7534 15.7562 18.3144 15.6123 17.8601 15.56Z" fill="#F0F0F0"/>
<path d="M15.9999 9.51001L16.2699 10.35H17.1599L16.4399 10.87L16.7199 11.71L15.9999 11.19L15.2799 11.71L15.5599 10.87L14.8399 10.35H15.7299L15.9999 9.51001ZM12.6299 10.98L13.1599 11.45L13.7699 11.1L13.4799 11.75L14.0099 12.22L13.3099 12.15L13.0199 12.79L12.8699 12.1L12.1599 12.03L12.7799 11.67L12.6299 10.98ZM10.1699 13.45L10.8599 13.59L11.2099 12.98L11.2899 13.69L11.9799 13.83L11.3299 14.12L11.4099 14.82L10.9299 14.3L10.2899 14.59L10.6399 13.97L10.1699 13.45ZM19.3699 10.98L18.8399 11.45L18.2299 11.1L18.5199 11.75L17.9899 12.22L18.6899 12.15L18.9799 12.79L19.1299 12.1L19.8299 12.03L19.2199 11.67L19.3699 10.98ZM21.8299 13.45L21.1399 13.59L20.7899 12.98L20.7099 13.69L20.0199 13.83L20.6699 14.12L20.5899 14.82L21.0699 14.3L21.7099 14.59L21.3599 13.97L21.8299 13.45Z" fill="#FFDA44"/>
<path d="M16 21.92C17.0179 21.9036 18.002 21.5521 18.8 20.92H13.2C13.998 21.5521 14.9821 21.9036 16 21.92ZM11.75 19.13C11.896 19.467 12.08 19.786 12.3 20.08H19.7C19.92 19.786 20.104 19.467 20.25 19.13H11.75Z" fill="#F0F0F0"/>
</svg>
