<svg width="32" height="32" viewBox="0 0 32 32" fill="none" xmlns="http://www.w3.org/2000/svg">
<path d="M32 5.33002H0V26.66H32V5.33002Z" fill="#0052B4"/>
<path d="M32 5.33002H20.64V26.66H32V5.33002ZM11.36 5.33002H0V26.66H11.36V5.33002Z" fill="#A2001D"/>
<path d="M7.99986 16.7H7.06986V20.41H7.99986V16.7ZM4.28986 16.7H3.35986V20.41H4.28986V16.7ZM5.67986 19.02C5.92651 19.02 6.16306 18.922 6.33747 18.7476C6.51188 18.5732 6.60986 18.3367 6.60986 18.09C6.60986 17.8434 6.51188 17.6068 6.33747 17.4324C6.16306 17.258 5.92651 17.16 5.67986 17.16C5.43321 17.16 5.19666 17.258 5.02225 17.4324C4.84785 17.6068 4.74986 17.8434 4.74986 18.09C4.74986 18.3367 4.84785 18.5732 5.02225 18.7476C5.19666 18.922 5.43321 19.02 5.67986 19.02ZM5.67986 15.3C5.80186 15.3 5.91887 15.2516 6.00513 15.1653C6.0914 15.079 6.13986 14.962 6.13986 14.84C6.13986 14.718 6.0914 14.601 6.00513 14.5148C5.91887 14.4285 5.80186 14.38 5.67986 14.38C5.55786 14.38 5.44086 14.4285 5.35459 14.5148C5.26833 14.601 5.21986 14.718 5.21986 14.84C5.21986 14.962 5.26833 15.079 5.35459 15.1653C5.44086 15.2516 5.55786 15.3 5.67986 15.3ZM6.60986 19.48H4.74986V20.41H6.60986V19.48ZM6.60986 15.77H4.74986V16.7H6.60986V15.77ZM5.67986 11.59L6.00986 12.61H7.06986L6.20986 13.23L6.53986 14.24L5.67986 13.62L4.81986 14.24L5.14986 13.23L4.28986 12.61H5.34986L5.67986 11.59Z" fill="#FFDA44"/>
</svg>
