<svg width="32" height="32" viewBox="0 0 32 32" fill="none" xmlns="http://www.w3.org/2000/svg">
<path d="M32 5.32996H0V26.66H32V5.32996Z" fill="#FFDA44"/>
<path d="M32 5.32996H0V12.44H32V5.32996Z" fill="#6DA544"/>
<path d="M32 19.5601H0V26.6701H32V19.5601Z" fill="#D80027"/>
<path d="M15.9999 21.1C16.6696 21.1 17.3328 20.9681 17.9516 20.7118C18.5703 20.4555 19.1326 20.0798 19.6061 19.6063C20.0797 19.1327 20.4554 18.5705 20.7117 17.9517C20.968 17.3329 21.0999 16.6698 21.0999 16C21.0999 15.3303 20.968 14.6671 20.7117 14.0483C20.4554 13.4296 20.0797 12.8674 19.6061 12.3938C19.1326 11.9202 18.5703 11.5445 17.9516 11.2882C17.3328 11.0319 16.6696 10.9 15.9999 10.9C14.6473 10.9 13.3501 11.4373 12.3937 12.3938C11.4372 13.3502 10.8999 14.6474 10.8999 16C10.8999 17.3526 11.4372 18.6498 12.3937 19.6063C13.3501 20.5627 14.6473 21.1 15.9999 21.1Z" fill="#0052B4"/>
<path d="M16.0001 12.05L16.9201 14.88H19.9001L17.4901 16.64L18.4201 19.48L16.0001 17.72L13.5801 19.48L14.5101 16.64L12.1001 14.88H15.0801L16.0001 12.05Z" fill="#FFDA44"/>
<path d="M19.6701 16.7L16.7501 15.76L18.5601 13.27L17.8101 12.73L16.0001 15.21L14.2001 12.73L13.4401 13.27L15.2501 15.76L12.3301 16.7L12.6201 17.59L15.5401 16.64V19.71H16.4601V16.64L19.3901 17.59L19.6701 16.7Z" fill="#FFDA44"/>
</svg>
