<svg width="32" height="32" viewBox="0 0 32 32" fill="none" xmlns="http://www.w3.org/2000/svg">
<path d="M32 5.33002H0V26.66H32V5.33002Z" fill="#F0F0F0"/>
<path d="M32 5.33002H0V12.44H32V5.33002ZM32 19.55H0V26.66H32V19.55Z" fill="#D80027"/>
<path d="M18.3699 16C18.3633 16.2964 18.2952 16.5882 18.1699 16.8569C18.0446 17.1256 17.8648 17.3653 17.642 17.5609C17.4192 17.7564 17.1582 17.9036 16.8755 17.9929C16.5928 18.0823 16.2946 18.1119 15.9999 18.08C15.7051 18.1119 15.407 18.0823 15.1243 17.9929C14.8416 17.9036 14.5806 17.7564 14.3578 17.5609C14.1349 17.3653 13.9552 17.1256 13.8299 16.8569C13.7046 16.5882 13.6365 16.2964 13.6299 16C13.6299 15.3714 13.8796 14.7686 14.324 14.3242C14.7685 13.8797 15.3713 13.63 15.9999 13.63C16.6284 13.63 17.2313 13.8797 17.6757 14.3242C18.1202 14.7686 18.3699 15.3714 18.3699 16Z" fill="#FFDA44"/>
<path d="M18.3701 16C18.331 16.6033 18.0637 17.169 17.6226 17.5824C17.1815 17.9958 16.5996 18.2258 15.9951 18.2258C15.3906 18.2258 14.8087 17.9958 14.3676 17.5824C13.9265 17.169 13.6593 16.6033 13.6201 16" fill="#0052B4"/>
<path d="M15.11 15.41H14.52V16.6H15.11V15.41ZM17.48 15.41H16.89V16.6H17.48V15.41ZM16.29 14.52H15.7V16.6H16.29V14.52Z" fill="#D80027"/>
</svg>
