<svg width="320" height="180" viewBox="0 0 320 180" fill="none" xmlns="http://www.w3.org/2000/svg">
<path d="M178.488 9H143.947C135.252 9 128.203 16.0491 128.203 24.7445V59.2855C128.203 67.981 135.252 75.03 143.947 75.03H178.488C187.183 75.03 194.233 67.981 194.233 59.2855V24.7445C194.233 16.0491 187.183 9 178.488 9Z" fill="white"/>
<path d="M148.636 24.2333L176.052 28.2078C176.937 28.3357 177.776 28.6899 178.489 29.2369C179.202 29.7839 179.765 30.5055 180.125 31.3338C180.486 32.162 180.631 33.0695 180.549 33.9705C180.466 34.8716 180.158 35.7364 179.653 36.4834L163.895 59.8062C163.363 60.593 162.633 61.2213 161.779 61.6253C160.926 62.0294 159.981 62.1944 159.043 62.1033C158.105 62.0122 157.209 61.6683 156.447 61.1074C155.685 60.5464 155.086 59.7891 154.712 58.9143L143.054 31.617C142.683 30.7478 142.548 29.7942 142.662 28.8545C142.777 27.9148 143.137 27.0229 143.705 26.2707C144.274 25.5186 145.031 24.9333 145.897 24.5751C146.764 24.217 147.709 24.099 148.636 24.2333Z" fill="url(#paint0_linear_86_4687)"/>
<path d="M176.053 28.2076L148.636 24.2333C147.709 24.099 146.764 24.217 145.897 24.5751C145.031 24.9332 144.274 25.5185 143.705 26.2706C143.137 27.0228 142.777 27.9146 142.662 28.8543C142.548 29.7939 142.683 30.7475 143.054 31.6167L143.085 31.689L166.8 35.1255C167.368 35.2081 167.905 35.4356 168.362 35.7864C168.819 36.1373 169.179 36.6 169.41 37.1309C169.641 37.6619 169.734 38.2435 169.682 38.821C169.629 39.3985 169.431 39.9528 169.108 40.4317L158.124 56.6889C156.103 59.6774 154.03 57.3108 154.03 57.3108L154.713 58.9127C154.941 59.4452 155.253 59.9367 155.637 60.3678L155.713 60.45C155.751 60.4891 155.788 60.5302 155.827 60.5713C155.912 60.6547 155.999 60.7369 156.088 60.8177L156.19 60.9038C156.268 60.9683 156.345 61.0289 156.426 61.0876C156.453 61.1091 156.48 61.1306 156.509 61.1502C156.614 61.2265 156.722 61.2969 156.832 61.3634L156.912 61.4084C157.016 61.469 157.124 61.5277 157.233 61.5805L157.26 61.5961C158.395 62.1521 159.689 62.2768 160.907 61.9475C162.126 61.6183 163.186 60.857 163.895 59.8026L179.654 36.4809C180.158 35.734 180.466 34.8693 180.549 33.9686C180.631 33.0679 180.485 32.1608 180.125 31.3328C179.765 30.5049 179.202 29.7835 178.489 29.2367C177.777 28.6899 176.938 28.3357 176.053 28.2076Z" fill="url(#paint1_linear_86_4687)"/>
<path d="M128.203 24.5505C128.203 15.9622 135.165 9 143.753 9H178.682C187.27 9 194.233 15.9622 194.233 24.5505V59.4795C194.233 68.0678 187.27 75.03 178.682 75.03H143.753C135.165 75.03 128.203 68.0678 128.203 59.4795V24.5505Z" fill="white"/>
<path d="M128.703 24.5505C128.703 16.2384 135.441 9.5 143.753 9.5H178.682C186.994 9.5 193.733 16.2384 193.733 24.5505V59.4795C193.733 67.7917 186.994 74.53 178.682 74.53H143.753C135.441 74.53 128.703 67.7917 128.703 59.4795V24.5505Z" stroke="black" stroke-opacity="0.1"/>
<path fill-rule="evenodd" clip-rule="evenodd" d="M157.346 59.2068C158.913 62.046 162.938 62.1998 164.717 59.4884L181.306 34.2071C183.066 31.5261 181.382 27.9316 178.197 27.5663L145.589 23.8272C142.113 23.4285 139.638 27.1228 141.329 30.1864L157.346 59.2068Z" fill="url(#paint2_linear_86_4687)"/>
<path fill-rule="evenodd" clip-rule="evenodd" d="M157.346 59.2068C158.913 62.046 162.938 62.1998 164.717 59.4884L181.306 34.2071C183.066 31.5261 181.382 27.9316 178.197 27.5663L145.589 23.8272C142.113 23.4285 139.638 27.1228 141.329 30.1864L157.346 59.2068Z" fill="url(#paint3_linear_86_4687)"/>
<path fill-rule="evenodd" clip-rule="evenodd" d="M159.753 54.3458L158.281 56.5589C157.684 57.4556 156.349 57.4004 155.829 56.4575L157.346 59.207C157.617 59.6973 157.961 60.1075 158.354 60.4367L158.354 60.4364C160.236 62.0135 163.245 61.7314 164.717 59.4883L181.306 34.207C183.066 31.5259 181.382 27.9315 178.197 27.5662L145.589 23.827C142.113 23.4285 139.638 27.1228 141.329 30.1863L141.457 30.4194L169.212 33.6307C170.981 33.8354 171.914 35.8322 170.936 37.3208L159.753 54.3458Z" fill="url(#paint4_linear_86_4687)"/>
<path d="M160.638 171.248H107.149C105.003 171.248 103.248 169.488 103.248 167.337V108.263H160.638V171.248Z" fill="url(#paint5_linear_86_4687)"/>
<path d="M103.07 108.263H160.638L144.984 92.5173H87.4161L103.07 108.263Z" fill="#FFE3BA"/>
<path d="M160.638 171.248H215.048C217.231 171.248 219.017 169.488 219.017 167.337V108.263H160.638V171.248Z" fill="url(#paint6_linear_86_4687)"/>
<path d="M218.205 108.263H160.638L176.292 92.5173H233.859L218.205 108.263Z" fill="#FFD390"/>
<path d="M137.88 156.486H121.058V171.248H137.88V156.486Z" fill="#FFE3BA"/>
<path d="M215.06 117.121H198.238V119.089H215.06V117.121Z" fill="#FFD390"/>
<path d="M215.06 122.041H198.238V124.01H215.06V122.041Z" fill="#FFD390"/>
<path d="M80.5874 52.8103L77.1691 50.1997L68.6165 61.2774L72.0348 63.8881L80.5874 52.8103Z" fill="#27DDB1"/>
<path d="M230.748 49.1828L233.236 42.9575C233.678 41.8531 233.139 40.6033 232.033 40.166C230.927 39.7288 229.672 40.2696 229.231 41.374L226.743 47.5993C226.302 48.7037 226.84 49.9535 227.946 50.3908C229.053 50.828 230.307 50.2872 230.748 49.1828Z" fill="url(#paint7_linear_86_4687)"/>
<path d="M98.5672 63.9775L95.3322 66.8101L104.612 77.2937L107.847 74.4612L98.5672 63.9775Z" fill="#28B0E8"/>
<path d="M253.231 72.6834L251.208 68.8982L238.807 75.454L240.83 79.2392L253.231 72.6834Z" fill="#FF9900"/>
<path d="M77.8099 114.325C79.4762 114.325 80.8269 112.981 80.8269 111.324C80.8269 109.667 79.4762 108.323 77.8099 108.323C76.1436 108.323 74.7928 109.667 74.7928 111.324C74.7928 112.981 76.1436 114.325 77.8099 114.325Z" fill="#FA528E"/>
<path d="M88.0215 13.7869H83.7833L81.6642 17.4306L83.7833 21.11H88.0215L90.1766 17.4306L88.0215 13.7869Z" fill="#FF9900"/>
<path d="M271.881 32.4854H267.643L265.523 36.1291L267.643 39.8085H271.881L274 36.1291L271.881 32.4854Z" fill="#27DDB1"/>
<path d="M44.6608 65.6279L40.844 74.5684L50.5108 73.4015L44.6608 65.6279Z" fill="#28B0E8"/>
<path d="M246.728 102.036L239.078 108.038L248.165 111.61L246.728 102.036Z" fill="#FA528E"/>
<defs>
<linearGradient id="paint0_linear_86_4687" x1="163.237" y1="34.4869" x2="146.474" y2="73.8238" gradientUnits="userSpaceOnUse">
<stop offset="0.10797" stop-color="#6F4CFF"/>
<stop offset="0.823617" stop-color="#52FCBE"/>
</linearGradient>
<linearGradient id="paint1_linear_86_4687" x1="190.577" y1="52.9213" x2="153.148" y2="1.19259" gradientUnits="userSpaceOnUse">
<stop offset="0.0935126" stop-color="#D4CAFF"/>
<stop offset="0.395876" stop-color="#C4B7FF"/>
<stop offset="0.951481" stop-color="#6D4AFF"/>
</linearGradient>
<linearGradient id="paint2_linear_86_4687" x1="163.439" y1="0.987837" x2="164.842" y2="48.6881" gradientUnits="userSpaceOnUse">
<stop offset="0.988738" stop-color="#6D4AFF"/>
</linearGradient>
<linearGradient id="paint3_linear_86_4687" x1="163.713" y1="7.59126" x2="152.054" y2="57.7882" gradientUnits="userSpaceOnUse">
<stop offset="0.47989" stop-color="#24ECC6" stop-opacity="0"/>
<stop offset="0.994421" stop-color="#24ECC6"/>
</linearGradient>
<linearGradient id="paint4_linear_86_4687" x1="167.57" y1="63.288" x2="141.72" y2="19.082" gradientUnits="userSpaceOnUse">
<stop offset="0.0660125" stop-color="#ABFFEF"/>
<stop offset="0.44988" stop-color="#CAC9FF"/>
<stop offset="1" stop-color="#6D4AFF"/>
</linearGradient>
<linearGradient id="paint5_linear_86_4687" x1="141.178" y1="108.763" x2="116.357" y2="171.208" gradientUnits="userSpaceOnUse">
<stop stop-color="#FFD391"/>
<stop offset="1" stop-color="#FFA26D"/>
</linearGradient>
<linearGradient id="paint6_linear_86_4687" x1="219.563" y1="171.248" x2="161.454" y2="107.908" gradientUnits="userSpaceOnUse">
<stop stop-color="#FF7E62"/>
<stop offset="1" stop-color="#FFA26D"/>
</linearGradient>
<linearGradient id="paint7_linear_86_4687" x1="227.142" y1="52.9481" x2="232.359" y2="39.4114" gradientUnits="userSpaceOnUse">
<stop offset="0.00514267" stop-color="#6898EC"/>
<stop offset="0.140625" stop-color="#41CAD6"/>
<stop offset="0.651042" stop-color="#25ECC6"/>
<stop offset="1" stop-color="white"/>
</linearGradient>
</defs>
</svg>
