<svg width="32" height="32" viewBox="0 0 32 32" fill="none" xmlns="http://www.w3.org/2000/svg">
<path d="M32 5.33002H0V26.66H32V5.33002Z" fill="#ED4135"/>
<path d="M32 5.33002H0V12.44H32V5.33002Z" fill="#0035AD"/>
<path d="M32 19.55H0V26.66H32V19.55Z" fill="#6DA544"/>
<path d="M12 21C13.3261 21 14.5979 20.4732 15.5355 19.5355C16.4732 18.5979 17 17.3261 17 16C17 14.6739 16.4732 13.4021 15.5355 12.4645C14.5979 11.5268 13.3261 11 12 11C10.6739 11 9.40215 11.5268 8.46447 12.4645C7.52678 13.4021 7 14.6739 7 16C7 17.3261 7.52678 18.5979 8.46447 19.5355C9.40215 20.4732 10.6739 21 12 21Z" fill="#FAE600"/>
</svg>
