<svg width="32" height="32" viewBox="0 0 32 32" fill="none" xmlns="http://www.w3.org/2000/svg">
<path d="M32 5.33002H0V26.66H32V5.33002Z" fill="#D80027"/>
<path d="M32 11.36H0V20.64H32V11.36Z" fill="#0052B4"/>
<path d="M22.96 17.87L22.45 18.26L22.67 18.86L22.14 18.5L21.64 18.89L21.82 18.28L21.29 17.92L21.93 17.9L22.1 17.29L22.32 17.89L22.96 17.87ZM21.67 15.64L21.33 16.18L21.74 16.67L21.13 16.51L20.79 17.05L20.74 16.42L20.13 16.26L20.72 16.02L20.67 15.39L21.08 15.88L21.67 15.64ZM19.7 13.99L19.57 14.61L20.12 14.93L19.49 14.99L19.36 15.62L19.1 15.04L18.46 15.1L18.94 14.68L18.68 14.09L19.23 14.41L19.7 13.99ZM17.29 13.11L17.38 13.74L18 13.85L17.43 14.13L17.52 14.76L17.08 14.3L16.5 14.58L16.8 14.02L16.36 13.56L16.99 13.67L17.29 13.11ZM14.72 13.11L15.02 13.67L15.64 13.56L15.2 14.02L15.5 14.58L14.93 14.3L14.48 14.76L14.57 14.13L14 13.85L14.63 13.74L14.72 13.11ZM12.3 13.99L12.77 14.41L13.32 14.09L13.06 14.68L13.54 15.1L12.9 15.04L12.65 15.62L12.51 14.99L11.88 14.93L12.43 14.61L12.3 13.99ZM10.33 15.64L10.92 15.88L11.33 15.39L11.29 16.02L11.88 16.26L11.26 16.42L11.21 17.05L10.88 16.51L10.26 16.67L10.67 16.18L10.33 15.64ZM9.04004 17.87L9.68004 17.89L9.90004 17.29L10.07 17.9L10.71 17.92L10.18 18.28L10.36 18.89L9.86004 18.5L9.33004 18.86L9.55004 18.26L9.04004 17.87Z" fill="#F0F0F0"/>
<path d="M32 5.33002H0V11.36H32V5.33002Z" fill="#FFDA44"/>
</svg>
