<svg width="32" height="32" viewBox="0 0 32 32" fill="none" xmlns="http://www.w3.org/2000/svg">
<path d="M32 5.33002H0V26.66H32V5.33002Z" fill="#496E2D"/>
<path d="M22.33 11.48C22.5765 10.7824 22.5792 10.0219 22.3376 9.32261C22.0961 8.62332 21.6245 8.02662 21 7.62998C21.232 7.66398 21.46 7.72098 21.68 7.79998C22.0986 7.93069 22.4864 8.14478 22.8201 8.42933C23.1538 8.71389 23.4264 9.06304 23.6216 9.45575C23.8168 9.84847 23.9305 10.2766 23.9558 10.7144C23.9812 11.1522 23.9177 11.5907 23.7691 12.0033C23.6205 12.4159 23.39 12.7942 23.0914 13.1153C22.7927 13.4365 22.4322 13.6939 22.0315 13.872C21.6307 14.0502 21.1981 14.1454 20.7596 14.1519C20.3211 14.1584 19.8858 14.0761 19.48 13.91C19.2588 13.8311 19.0474 13.7271 18.85 13.6C19.5848 13.6964 20.3305 13.5387 20.9635 13.1531C21.5964 12.7675 22.0786 12.1772 22.33 11.48ZM19.41 7.22998L18.96 7.81998L18.26 7.56998L18.68 8.18998L18.22 8.77998L18.94 8.56998L19.36 9.17998L19.38 8.43998L20.09 8.22998L19.39 7.97998L19.41 7.22998Z" fill="#F0F0F0"/>
<path d="M20.65 9.14999L20.19 9.73999L19.49 9.48999L19.91 10.11L19.45 10.7L20.17 10.49L20.59 11.1L20.61 10.36L21.32 10.15L20.62 9.89999L20.65 9.14999ZM17.24 7.92999L16.79 8.51999L16.09 8.26999L16.51 8.88999L16.05 9.47999L16.77 9.26999L17.18 9.87999L17.21 9.13999L17.92 8.92999L17.22 8.67999L17.24 7.92999ZM17.19 10.13L16.74 10.72L16.04 10.47L16.46 11.09L16 11.68L16.71 11.47L17.14 12.08L17.16 11.34L17.87 11.13L17.17 10.88L17.19 10.13ZM19.29 10.88L18.83 11.47L18.13 11.22L18.55 11.84L18.09 12.43L18.81 12.22L19.23 12.83L19.25 12.09L19.96 11.88L19.26 11.63L19.29 10.88Z" fill="#F0F0F0"/>
<path d="M10.79 5.33002H5.21997V26.66H10.79V5.33002Z" fill="#D80027"/>
<path d="M7.33991 10.95L6.40991 10.26V9.27002L7.33991 8.58002H8.65991L9.58991 9.27002V10.26L8.65991 10.95H7.33991Z" fill="#F0F0F0"/>
<path d="M7.99991 8.58002H7.33991L6.40991 9.27002V9.75002H7.99991V8.58002ZM7.99991 10.95H8.65991L9.58991 10.26V9.75002H7.99991V10.95Z" fill="#FF9811"/>
<path d="M7.33991 23.42L6.40991 22.73V21.75L7.33991 21.05H8.65991L9.58991 21.75V22.73L8.65991 23.42H7.33991Z" fill="#F0F0F0"/>
<path d="M7.99991 21.05H7.33991L6.40991 21.75V22.23H7.99991V21.05ZM7.99991 23.42H8.65991L9.58991 22.73V22.23H7.99991V23.42Z" fill="#FF9811"/>
<path d="M7.33988 17.18L6.40988 16.49V15.51L7.33988 14.81H8.65988L9.58988 15.51V16.49L8.65988 17.18H7.33988ZM9.61988 18.71H9.21988V18.31H8.49988L7.99988 17.8L7.49988 18.31H6.77988V18.71H6.37988V19.52H6.77988V19.93H7.49988L7.99988 20.43L8.49988 19.93H9.21988V19.52H9.61988V18.71ZM9.61988 12.48H9.21988V12.07H8.49988L7.99988 11.57L7.49988 12.07H6.77988V12.48H6.37988V13.29H6.77988V13.69H7.49988L7.99988 14.2L8.49988 13.69H9.21988V13.29H9.61988V12.48Z" fill="#496E2D"/>
<path d="M8.47004 15.54H7.54004V16.47H8.47004V15.54ZM8.00004 13.34C8.06045 13.34 8.12026 13.3281 8.17607 13.305C8.23188 13.2819 8.28259 13.248 8.32531 13.2053C8.36802 13.1625 8.40191 13.1118 8.42502 13.056C8.44814 13.0002 8.46004 12.9404 8.46004 12.88C8.46004 12.8196 8.44814 12.7598 8.42502 12.7039C8.40191 12.6481 8.36802 12.5974 8.32531 12.5547C8.28259 12.512 8.23188 12.4781 8.17607 12.455C8.12026 12.4319 8.06045 12.42 8.00004 12.42C7.87804 12.42 7.76104 12.4684 7.67477 12.5547C7.5885 12.641 7.54004 12.758 7.54004 12.88C7.54004 13.002 7.5885 13.119 7.67477 13.2053C7.76104 13.2915 7.87804 13.34 8.00004 13.34ZM8.00004 19.58C8.12204 19.58 8.23904 19.5315 8.32531 19.4453C8.41157 19.359 8.46004 19.242 8.46004 19.12C8.46004 18.998 8.41157 18.881 8.32531 18.7947C8.23904 18.7084 8.12204 18.66 8.00004 18.66C7.87804 18.66 7.76104 18.7084 7.67477 18.7947C7.5885 18.881 7.54004 18.998 7.54004 19.12C7.54004 19.242 7.5885 19.359 7.67477 19.4453C7.76104 19.5315 7.87804 19.58 8.00004 19.58Z" fill="#D80027"/>
</svg>
