<svg width="32" height="32" viewBox="0 0 32 32" fill="none" xmlns="http://www.w3.org/2000/svg">
<path d="M32 5.33002H0V26.66H32V5.33002Z" fill="#F0F0F0"/>
<path d="M32 12.29H0V19.71H32V12.29Z" fill="#0052B4"/>
<path d="M32 19.71H0V26.67H32V19.71Z" fill="#D80027"/>
<path d="M8.09009 11.36V16.68C8.09009 19.68 12.0901 20.68 12.0901 20.68C12.0901 20.68 16.0401 19.75 16.0401 16.68V11.36H8.09009Z" fill="#F0F0F0"/>
<path d="M9.12998 11.52V16.64C9.12675 16.9868 9.20556 17.3295 9.35998 17.64H14.73C14.8844 17.3295 14.9632 16.9868 14.96 16.64V11.52H9.12998Z" fill="#D80027"/>
<path d="M13.83 15.09H12.49V14.2H13.38V13.3H12.49V12.41H11.6V13.3H10.71V14.2H11.6V15.09H10.26V15.98H11.6V16.88H12.49V15.98H13.83V15.09Z" fill="#F0F0F0"/>
<path d="M10.5801 18.85C11.0401 19.133 11.5351 19.358 12.0501 19.52C12.5633 19.3597 13.0539 19.1346 13.5101 18.85C14.0235 18.5573 14.4457 18.1281 14.7301 17.61C14.4683 17.4208 14.1532 17.3192 13.8301 17.32C13.7137 17.3098 13.5966 17.3098 13.4801 17.32C13.3588 17.0417 13.1588 16.8048 12.9048 16.6385C12.6508 16.4721 12.3537 16.3835 12.0501 16.3835C11.7465 16.3835 11.4494 16.4721 11.1954 16.6385C10.9414 16.8048 10.7415 17.0417 10.6201 17.32C10.5001 17.31 10.3801 17.31 10.2601 17.32C9.93711 17.32 9.62211 17.42 9.36011 17.61C9.64447 18.1281 10.0667 18.5573 10.5801 18.85Z" fill="#0052B4"/>
</svg>
