<svg width="32" height="32" viewBox="0 0 32 32" fill="none" xmlns="http://www.w3.org/2000/svg">
<path d="M32 5.33002H0V26.66H32V5.33002Z" fill="#0052B4"/>
<path d="M32 5.33002H0V12.44H32V5.33002ZM32 19.56H0V26.67H32V19.56Z" fill="#D80027"/>
<path d="M15.9998 18.97C16.7875 18.97 17.5429 18.6571 18.0999 18.1001C18.6569 17.5432 18.9698 16.7877 18.9698 16C18.9698 15.2123 18.6569 14.4569 18.0999 13.8999C17.5429 13.3429 16.7875 13.03 15.9998 13.03C15.2121 13.03 14.4567 13.3429 13.8997 13.8999C13.3427 14.4569 13.0298 15.2123 13.0298 16C13.0298 16.7877 13.3427 17.5432 13.8997 18.1001C14.4567 18.6571 15.2121 18.97 15.9998 18.97Z" fill="#F0F0F0"/>
</svg>
