<svg width="32" height="32" viewBox="0 0 32 32" fill="none" xmlns="http://www.w3.org/2000/svg">
<path d="M32 5.32996H0V26.66H32V5.32996Z" fill="#2E52B2"/>
<path d="M16 5.32996V6.74996L13.12 8.66996H16V12.67H13.12L16 14.59V16H14.59L10 12.94V16H6V12.94L1.41 16H0V14.59L2.88 12.67H0V8.66996H2.88L0 6.74996V5.32996H1.41L6 8.38996V5.32996H10V8.38996L14.59 5.32996H16Z" fill="#F0F0F0"/>
<path d="M9 5.32996H7V9.66996H0V11.67H7V16H9V11.67H16V9.66996H9V5.32996Z" fill="#D80027"/>
<path d="M0 5.32996V6.27996L3.59 8.66996H5L0 5.32996ZM16 5.32996V6.27996L12.41 8.66996H11L16 5.32996Z" fill="#D80027"/>
<path d="M0 5.32996V6.27996L3.59 8.66996H5L0 5.32996ZM16 5.32996V6.27996L12.41 8.66996H11L16 5.32996ZM0 16V15.06L3.59 12.67H5L0 16ZM16 16V15.06L12.41 12.67H11L16 16Z" fill="#D80027"/>
<path d="M20.75 13.0001V16.7001C20.75 19.1801 24 19.9401 24 19.9401C24 19.9401 27.25 19.1801 27.25 16.7001V13.0001L24 12.0601L20.75 13.0001Z" fill="#F3F3F3"/>
<path d="M27.25 13.22V11.83H20.75V13.22H23.54V16H20.75V16.93H23.54V20C23.69 20.055 23.844 20.102 24 20.14C24.1558 20.102 24.3094 20.0552 24.46 20V16.9H27.25V16H24.46V13.22H27.25Z" fill="#D80027"/>
</svg>
