<svg width="32" height="32" viewBox="0 0 32 32" fill="none" xmlns="http://www.w3.org/2000/svg">
<path d="M32 5.33002H0V26.66H32V5.33002Z" fill="black"/>
<path d="M32 16V26.67H0L13.45 16H32Z" fill="#6DA544"/>
<path d="M32 5.33002V16H13.45L0 5.33002H32Z" fill="#D80027"/>
<path d="M13.81 14.96L1.68 5.33002H0.56L13.57 15.65H32V14.96H13.81ZM0.56 26.67H1.68L13.81 17.04H32V16.35H13.57L0.56 26.67ZM0 5.78002V6.67002L11.77 16L0 25.34V26.22L12.89 16L0 5.78002Z" fill="black"/>
<path d="M0.56 5.33002H0V5.78002L12.89 16L0 26.22V26.67H0.56L13.57 16.35H32V15.65H13.57L0.56 5.33002Z" fill="#FFDA44"/>
<path d="M4.00003 18.27V17.38C4.4262 17.3748 4.83314 17.2018 5.13263 16.8985C5.43213 16.5953 5.60006 16.1862 5.60003 15.76C5.60003 15.6095 5.57022 15.4604 5.51231 15.3215C5.45439 15.1825 5.36952 15.0564 5.2626 14.9504C5.15568 14.8444 5.02883 14.7606 4.88936 14.7039C4.74989 14.6472 4.60058 14.6187 4.45003 14.62C4.2449 14.6227 4.04906 14.706 3.90494 14.852C3.76082 14.998 3.68001 15.1949 3.68003 15.4C3.68 15.5309 3.73131 15.6566 3.82292 15.7501C3.91454 15.8436 4.03916 15.8974 4.17003 15.9C4.24524 15.9001 4.31753 15.8709 4.37163 15.8187C4.42574 15.7664 4.45744 15.6952 4.46003 15.62H5.35003C5.34739 15.9313 5.22191 16.2288 5.0009 16.448C4.77989 16.6671 4.48126 16.7901 4.17003 16.79C3.80138 16.79 3.44783 16.6436 3.18715 16.3829C2.92648 16.1222 2.78003 15.7687 2.78003 15.4C2.78003 14.9571 2.95598 14.5324 3.26916 14.2192C3.58235 13.906 4.00712 13.73 4.45003 13.73C4.98046 13.73 5.48917 13.9408 5.86424 14.3158C6.23932 14.6909 6.45003 15.1996 6.45003 15.73C6.45811 16.3906 6.20542 17.0278 5.74677 17.5033C5.28812 17.9788 4.66049 18.2543 4.00003 18.27Z" fill="#FFDA44"/>
</svg>
