<svg width="32" height="32" viewBox="0 0 32 32" fill="none" xmlns="http://www.w3.org/2000/svg">
<path d="M32 5.33002H0V26.66H32V5.33002Z" fill="#F0F0F0"/>
<path d="M32 20.17H0V26.66H32V20.17Z" fill="#FFDA44"/>
<path d="M32 5.33002H0V11.86H32V5.33002Z" fill="#496E2D"/>
<path d="M32 13.18H0V18.78H32V13.18Z" fill="black"/>
<path d="M16 16L0 26.67V5.33002L16 16Z" fill="#A2001D"/>
<path d="M5.21997 12.2L6.15997 15.1H9.21997L6.74997 16.9L7.68997 19.8L5.21997 18.01L2.74997 19.8L3.68997 16.9L1.21997 15.1H4.26997L5.21997 12.2Z" fill="#FFDA44"/>
<path d="M7.97995 16H2.44995V18.54H7.97995V16Z" fill="#F0F0F0"/>
<path d="M9.02991 13.09L8.12991 12.2L5.21991 15.11L2.29991 12.2L1.40991 13.09L4.31991 16L1.40991 18.92L2.29991 19.8L5.21991 16.9L8.12991 19.8L9.02991 18.92L6.10991 16L9.02991 13.09Z" fill="black"/>
</svg>
