<svg width="32" height="32" viewBox="0 0 32 32" fill="none" xmlns="http://www.w3.org/2000/svg">
<path d="M32 5.33002H0V26.66H32V5.33002Z" fill="#F0F0F0"/>
<path d="M32 8H0V10.67H32V8ZM32 13.33H0V16H32V13.33ZM32 18.67H0V21.34H32V18.67ZM32 24H0V26.67H32V24Z" fill="#D80027"/>
<path d="M16 5.33002H0V16.82H16V5.33002Z" fill="#0052B4"/>
<path d="M8.80991 13.71C8.45023 13.7322 8.08981 13.6805 7.75086 13.5581C7.41192 13.4357 7.10162 13.2452 6.83908 12.9983C6.57654 12.7515 6.36732 12.4535 6.2243 12.1227C6.08129 11.7919 6.00751 11.4354 6.00751 11.075C6.00751 10.7146 6.08129 10.3581 6.2243 10.0273C6.36732 9.69654 6.57654 9.39854 6.83908 9.15169C7.10162 8.90483 7.41192 8.71434 7.75086 8.59194C8.08981 8.46955 8.45023 8.41784 8.80991 8.44001C9.24723 8.43685 9.67791 8.5471 10.0599 8.76001C9.76164 8.46286 9.40749 8.2277 9.01788 8.06808C8.62828 7.90847 8.21094 7.82755 7.78991 7.83001C7.25651 7.82903 6.73107 7.95935 6.25995 8.20947C5.78883 8.45959 5.38651 8.82183 5.08849 9.26422C4.79048 9.7066 4.60593 10.2155 4.55113 10.7461C4.49633 11.2767 4.57297 11.8126 4.77428 12.3066C4.97558 12.8005 5.29537 13.2373 5.70543 13.5785C6.11549 13.9196 6.6032 14.1546 7.12554 14.2626C7.64789 14.3707 8.18879 14.3485 8.70054 14.1981C9.21229 14.0476 9.67915 13.7736 10.0599 13.4C9.67538 13.6053 9.24583 13.7119 8.80991 13.71Z" fill="#FFDA44"/>
<path d="M9.5499 9.21997L10.0199 10.2L11.0799 9.95997L10.5999 10.93L11.4499 11.61L10.3899 11.85L10.3999 12.93L9.5499 12.25L8.7099 12.93V11.85L7.6499 11.61L8.4999 10.93L8.0299 9.95997L9.0799 10.2L9.5499 9.21997Z" fill="#FFDA44"/>
</svg>
