<svg width="32" height="32" viewBox="0 0 32 32" fill="none" xmlns="http://www.w3.org/2000/svg">
<path d="M32 5.33002H0V26.66H32V5.33002Z" fill="#F0F0F0"/>
<path d="M32 5.33002H0V12.44H32V5.33002ZM32 19.56H0V26.67H32V19.56ZM12.72 13.03L12.99 13.88H13.89L13.17 14.41L13.44 15.26L12.72 14.73L11.99 15.26L12.27 14.41L11.55 13.88H12.44L12.72 13.03ZM12.72 16.74L12.99 17.59H13.89L13.17 18.12L13.44 18.97L12.72 18.44L11.99 18.97L12.27 18.12L11.55 17.59H12.44L12.72 16.74ZM19.28 13.03L19.56 13.88H20.45L19.73 14.41L20 15.26L19.28 14.73L18.56 15.26L18.84 14.41L18.11 13.88H19L19.28 13.03ZM19.28 16.74L19.56 17.59H20.45L19.73 18.12L20 18.97L19.28 18.44L18.56 18.97L18.84 18.12L18.11 17.59H19L19.28 16.74ZM16 14.89L16.28 15.74H17.17L16.45 16.26L16.72 17.11L16 16.59L15.28 17.11L15.55 16.26L14.83 15.74H15.72L16 14.89Z" fill="#338AF3"/>
</svg>
