<svg width="32" height="32" viewBox="0 0 32 32" fill="none" xmlns="http://www.w3.org/2000/svg">
<path d="M32 5.32996H0V26.66H32V5.32996Z" fill="#F0F0F0"/>
<path d="M18 5.32996H14V14H0V18H14V26.67H18V18H32V14H18V5.32996Z" fill="#D80027"/>
<path d="M7.69991 8.96996V7.57996H6.29991V8.96996H4.90991V10.36H6.29991V11.75H7.69991V10.36H9.08991V8.96996H7.69991ZM25.6999 8.96996V7.57996H24.2999V8.96996H22.9099V10.36H24.2999V11.75H25.6999V10.36H27.0899V8.96996H25.6999ZM7.69991 21.64V20.25H6.29991V21.64H4.90991V23.03H6.29991V24.42H7.69991V23.03H9.08991V21.64H7.69991ZM25.6999 21.64V20.25H24.2999V21.64H22.9099V23.03H24.2999V24.42H25.6999V23.03H27.0899V21.64H25.6999Z" fill="#D80027"/>
</svg>
