<svg width="32" height="32" viewBox="0 0 32 32" fill="none" xmlns="http://www.w3.org/2000/svg">
<path d="M32 5.33002H0V26.66H32V5.33002Z" fill="#FFDA44"/>
<path d="M32 7.19H0V24.81H32V7.19Z" fill="#A2001D"/>
<path d="M13.6801 13.22H18.3201V11.36L17.3901 11.83L16.0001 10.44L14.6101 11.83L13.6801 11.36V13.22ZM20.1701 16H17.8601C17.9522 15.8365 18.0001 15.6518 17.9991 15.4641C17.9981 15.2764 17.9482 15.0923 17.8543 14.9297C17.7604 14.7672 17.6258 14.632 17.4637 14.5373C17.3017 14.4427 17.1177 14.3919 16.9301 14.39C16.7338 14.3955 16.5429 14.4555 16.3786 14.5632C16.2144 14.6709 16.0834 14.8222 16.0001 15C15.9468 14.8569 15.8636 14.7269 15.7559 14.6187C15.6483 14.5104 15.5187 14.4265 15.3759 14.3724C15.2332 14.3184 15.0805 14.2956 14.9281 14.3054C14.7758 14.3153 14.6273 14.3577 14.4927 14.4296C14.3581 14.5016 14.2404 14.6016 14.1476 14.7228C14.0548 14.844 13.9891 14.9837 13.9547 15.1325C13.9204 15.2812 13.9182 15.4356 13.9485 15.5852C13.9787 15.7348 14.0407 15.8763 14.1301 16H11.8301C11.8379 16.3439 11.9808 16.671 12.2278 16.9105C12.4748 17.15 12.8061 17.2827 13.1501 17.28C13.1435 17.5486 13.2222 17.8123 13.3749 18.0333C13.5276 18.2544 13.7465 18.4212 14.0001 18.51L13.0001 19.51L14.0001 20.51L15.4001 19.11L15.5601 19.16L14.7201 21.07C15.5617 21.4031 16.4985 21.4031 17.3401 21.07L16.5001 19.16L16.6701 19.11L18.0001 20.54L19.0001 19.54L18.0001 18.54C18.2667 18.4636 18.501 18.302 18.6671 18.0799C18.8332 17.8577 18.9221 17.5874 18.9201 17.31C19.257 17.2946 19.575 17.1497 19.8078 16.9057C20.0407 16.6617 20.1704 16.3373 20.1701 16Z" fill="#FFDA44"/>
<path d="M16 16.7L14.49 17.39V18.78L16 19.71L17.51 18.78V17.39L16 16.7Z" fill="#6DA544"/>
<path d="M17.5 16H14.49V17.86H17.5V16Z" fill="#0052B4"/>
</svg>
