<svg width="32" height="32" viewBox="0 0 32 32" fill="none" xmlns="http://www.w3.org/2000/svg">
<path d="M32 5.32996H0V26.66H32V5.32996Z" fill="#D80027"/>
<path d="M13.22 16H0V21.33H13.22V16ZM32 16H18.78V21.33H32V16Z" fill="#6DA544"/>
<path d="M0 5.32996V10.67H13.22V5.32996H18.78V10.67H32V5.32996H0Z" fill="#0052B4"/>
<path d="M32 10.67H18.78V16H32V10.67ZM13.22 10.67H0V16H13.22V10.67Z" fill="#F0F0F0"/>
<path d="M18.78 26.67H13.22V21.33H0V26.67H32V21.33H18.78V26.67ZM7.48 6.95996L7.77 7.83996H8.7L7.95 8.38996L8.23 9.27996L7.48 8.72996L6.73 9.27996L7.01 8.38996L6.26 7.83996H7.19L7.48 6.95996Z" fill="#FFDA44"/>
</svg>
