<svg width="32" height="32" viewBox="0 0 32 32" fill="none" xmlns="http://www.w3.org/2000/svg">
<path d="M32 5.33002H0V26.66H32V5.33002Z" fill="white"/>
<path d="M22.2901 12.2L24.7501 9C24.8649 8.85027 25.0197 8.73607 25.1967 8.6706C25.3736 8.60513 25.5655 8.59105 25.7501 8.63L26.0501 8.69C26.1731 8.714 26.2911 8.758 26.4001 8.82L28.1001 9.91C28.2428 9.99916 28.3606 10.1229 28.4428 10.2697C28.525 10.4166 28.5687 10.5817 28.5701 10.75V12.75C28.5696 12.9539 28.5068 13.1528 28.3901 13.32L27.9101 14.02C27.886 14.0717 27.8735 14.128 27.8735 14.185C27.8735 14.242 27.886 14.2983 27.9101 14.35C27.9397 14.4332 27.9989 14.5025 28.0763 14.545C28.1537 14.5874 28.2441 14.5998 28.3301 14.58H28.5601C28.6708 14.5564 28.7859 14.5632 28.8931 14.5994C29.0003 14.6357 29.0958 14.7002 29.1695 14.7862C29.2432 14.8722 29.2923 14.9764 29.3118 15.0879C29.3313 15.1995 29.3203 15.3142 29.2801 15.42L29.0001 16C28.9219 16.2127 28.7738 16.3925 28.5801 16.51L26.0001 18C25.941 18.0352 25.8748 18.057 25.8063 18.0639C25.7379 18.0707 25.6687 18.0623 25.6038 18.0394C25.5389 18.0165 25.4799 17.9796 25.4308 17.9313C25.3818 17.883 25.344 17.8245 25.3201 17.76C25.2941 17.691 25.2525 17.6289 25.1987 17.5786C25.1448 17.5282 25.08 17.491 25.0094 17.4697C24.9388 17.4484 24.8643 17.4437 24.7915 17.4559C24.7188 17.4681 24.6499 17.4969 24.5901 17.54L24.0401 17.94C23.8874 18.0516 23.7695 18.2041 23.7001 18.38L22.9201 20.38C22.8281 20.6146 22.8281 20.8754 22.9201 21.11L23.3801 22.3C23.511 22.6368 23.7308 22.9319 24.016 23.1538C24.3013 23.3756 24.6414 23.516 25.0001 23.56H25.1701C25.6504 23.6228 26.1372 23.5091 26.5401 23.24L27.1001 22.86C27.4055 22.6634 27.621 22.3544 27.7001 22L27.7801 21.59C27.7872 21.5476 27.8093 21.5092 27.8423 21.4817C27.8753 21.4542 27.9171 21.4394 27.9601 21.44C27.9869 21.4397 28.0134 21.4451 28.0379 21.4558C28.0625 21.4665 28.0844 21.4823 28.1024 21.5022C28.1204 21.522 28.1339 21.5455 28.1421 21.571C28.1503 21.5964 28.1531 21.6234 28.1501 21.65L28.0701 22.37C28.0398 22.6037 27.961 22.8285 27.8387 23.03C27.7165 23.2315 27.5534 23.4052 27.3601 23.54L26.6601 24.02C26.4318 24.1766 26.1735 24.2842 25.9016 24.3358C25.6296 24.3874 25.3499 24.3821 25.0801 24.32L23.9401 24.06C23.6451 23.9987 23.3677 23.8715 23.1288 23.6879C22.8898 23.5044 22.6954 23.2692 22.5601 23L21.8101 21.34C21.6914 21.0794 21.63 20.7964 21.6301 20.51V17.14C21.6192 16.7072 21.7491 16.2827 22.0001 15.93L23.6401 13.77C23.7432 13.635 23.8816 13.5312 24.0401 13.47L26.2401 12.47C26.2883 12.4485 26.3291 12.4134 26.3575 12.369C26.386 12.3245 26.4008 12.2727 26.4001 12.22V12.09C26.3869 12.051 26.3639 12.016 26.3333 11.9884C26.3027 11.9609 26.2656 11.9416 26.2254 11.9326C26.1852 11.9236 26.1434 11.925 26.1039 11.9368C26.0645 11.9486 26.0287 11.9704 26.0001 12C25.9876 12.0333 25.9676 12.0634 25.9416 12.0876C25.9155 12.1119 25.8842 12.1299 25.8501 12.14L22.9601 13.09C22.8672 13.1192 22.7686 13.1254 22.6727 13.108C22.5769 13.0905 22.4868 13.0501 22.4101 12.99C22.2946 12.8974 22.2182 12.7647 22.196 12.6184C22.1738 12.4721 22.2073 12.3227 22.2901 12.2ZM10.0001 12.18L7.50008 9C7.39035 8.86043 7.24544 8.7526 7.08024 8.68757C6.91504 8.62255 6.73551 8.60267 6.56008 8.63L6.22008 8.69C6.10322 8.71332 5.99146 8.75734 5.89008 8.82L4.19008 9.89C4.0349 9.98766 3.90741 10.1236 3.81986 10.2847C3.7323 10.4458 3.68762 10.6267 3.69008 10.81V12.73C3.69108 12.95 3.75808 13.166 3.88008 13.35L4.34008 14.02C4.36735 14.0743 4.38155 14.1342 4.38155 14.195C4.38155 14.2558 4.36735 14.3157 4.34008 14.37C4.31485 14.4393 4.2684 14.4988 4.20734 14.5401C4.14629 14.5814 4.07376 14.6023 4.00008 14.6H3.76008C3.64252 14.582 3.52227 14.5956 3.4117 14.6394C3.30112 14.6832 3.2042 14.7557 3.1309 14.8493C3.05759 14.943 3.01054 15.0545 2.99458 15.1724C2.97862 15.2902 2.99433 15.4102 3.04008 15.52L3.23008 16.04C3.30826 16.2527 3.45635 16.4325 3.65008 16.55L6.24008 18C6.29977 18.0347 6.36648 18.0555 6.4353 18.0609C6.50411 18.0662 6.57326 18.0561 6.6376 18.0311C6.70195 18.0061 6.75986 17.967 6.80703 17.9166C6.85419 17.8662 6.88942 17.8059 6.91008 17.74C6.93354 17.6714 6.97285 17.6094 7.02483 17.5589C7.0768 17.5085 7.13996 17.471 7.20916 17.4495C7.27837 17.4281 7.35166 17.4233 7.42307 17.4355C7.49447 17.4478 7.56198 17.4767 7.62008 17.52L8.18009 17.92C8.3371 18.0421 8.45806 18.2046 8.53008 18.39L9.29008 20.3C9.34454 20.4298 9.37259 20.5692 9.37259 20.71C9.37259 20.8508 9.34454 20.9902 9.29008 21.12L8.87008 22.22C8.74499 22.5643 8.52775 22.8675 8.24208 23.0968C7.95641 23.326 7.61327 23.4724 7.25008 23.52H7.03009C6.56904 23.5762 6.10332 23.4624 5.72008 23.2L5.13008 22.8C4.84637 22.6144 4.64288 22.3288 4.56008 22L4.48008 21.61C4.47867 21.5829 4.47147 21.5565 4.45899 21.5324C4.4465 21.5084 4.42901 21.4873 4.40769 21.4705C4.38638 21.4538 4.36172 21.4418 4.33539 21.4354C4.30906 21.4289 4.28166 21.4282 4.25503 21.4333C4.22839 21.4383 4.20315 21.449 4.18098 21.4646C4.15882 21.4802 4.14025 21.5003 4.12652 21.5237C4.11279 21.5471 4.10422 21.5731 4.10139 21.6001C4.09855 21.627 4.10152 21.6543 4.11008 21.68L4.19008 22.37C4.21744 22.6009 4.293 22.8235 4.41187 23.0233C4.53073 23.2231 4.69025 23.3957 4.88008 23.53L5.63008 24.05C5.84533 24.2018 6.09035 24.3061 6.34894 24.3561C6.60752 24.4061 6.87378 24.4006 7.13008 24.34L8.33008 24.07C8.63486 23.9982 8.91851 23.8558 9.1582 23.6543C9.39789 23.4528 9.58692 23.1979 9.71008 22.91L10.4301 21.33C10.5621 21.038 10.6301 20.72 10.6301 20.4V17.23C10.6301 16.743 10.4731 16.27 10.1801 15.88L8.58008 13.78C8.47797 13.6417 8.33951 13.5344 8.18009 13.47L6.00008 12.5C5.95188 12.4758 5.91137 12.4387 5.8831 12.3928C5.85484 12.3468 5.83994 12.2939 5.84008 12.24V12.12C5.83912 12.0645 5.85743 12.0104 5.89188 11.9669C5.92634 11.9233 5.97482 11.8931 6.02907 11.8813C6.08331 11.8695 6.13996 11.8769 6.18938 11.9022C6.2388 11.9275 6.27792 11.9691 6.30008 12.02C6.31256 12.0545 6.33246 12.0858 6.35839 12.1117C6.38431 12.1376 6.41561 12.1575 6.45008 12.17L9.37008 13.17C9.45462 13.1955 9.54398 13.2006 9.63088 13.185C9.71777 13.1693 9.79974 13.1334 9.87008 13.08C9.93917 13.0306 9.99754 12.9677 10.0417 12.8951C10.0858 12.8225 10.1149 12.7418 10.127 12.6577C10.1391 12.5736 10.1342 12.488 10.1124 12.4059C10.0905 12.3238 10.0524 12.247 10.0001 12.18Z" fill="#DFDFDF"/>
<path d="M12.6299 10.6C12.6299 10.3348 12.7352 10.0804 12.9228 9.89287C13.1103 9.70533 13.3647 9.59998 13.6299 9.59998H18.6299C18.8951 9.59998 19.1495 9.70533 19.337 9.89287C19.5245 10.0804 19.6299 10.3348 19.6299 10.6V14.93H12.6299V10.6Z" fill="#171796"/>
<path d="M12.6299 14.93H19.6299V19.26C19.6299 19.5252 19.5245 19.7796 19.337 19.9671C19.1495 20.1546 18.8951 20.26 18.6299 20.26H13.6299C13.3647 20.26 13.1103 20.1546 12.9228 19.9671C12.7352 19.7796 12.6299 19.5252 12.6299 19.26V14.93Z" fill="#D42E12"/>
<path d="M12.6299 22.93C12.6299 22.7885 12.6854 22.6527 12.7845 22.5517C12.8836 22.4507 13.0184 22.3926 13.1599 22.39H19.0999C19.2292 22.4077 19.3477 22.4717 19.4335 22.57C19.5193 22.6684 19.5666 22.7945 19.5666 22.925C19.5666 23.0555 19.5193 23.1816 19.4335 23.28C19.3477 23.3783 19.2292 23.4423 19.0999 23.46H13.1599C13.0193 23.46 12.8845 23.4042 12.7851 23.3048C12.6857 23.2054 12.6299 23.0706 12.6299 22.93Z" fill="#DFDFDF"/>
<path d="M17.5799 11.2C17.5116 11.5341 17.33 11.8344 17.0657 12.0501C16.8015 12.2657 16.4709 12.3835 16.1299 12.3835C15.7888 12.3835 15.4583 12.2657 15.194 12.0501C14.9298 11.8344 14.7482 11.5341 14.6799 11.2C14.664 11.3329 14.664 11.4672 14.6799 11.6C14.6799 11.9978 14.8379 12.3794 15.1192 12.6607C15.4005 12.942 15.7821 13.1 16.1799 13.1C16.5777 13.1 16.9592 12.942 17.2406 12.6607C17.5219 12.3794 17.6799 11.9978 17.6799 11.6C17.6631 11.4631 17.6295 11.3287 17.5799 11.2Z" fill="white"/>
<path d="M14.6299 18.12C14.9059 18.12 15.1299 17.883 15.1299 17.59C15.1299 17.297 14.9059 17.06 14.6299 17.06C14.3539 17.06 14.1299 17.297 14.1299 17.59C14.1299 17.883 14.3539 18.12 14.6299 18.12ZM17.6299 18.12C17.9059 18.12 18.1299 17.883 18.1299 17.59C18.1299 17.297 17.9059 17.06 17.6299 17.06C17.3539 17.06 17.1299 17.297 17.1299 17.59C17.1299 17.883 17.3539 18.12 17.6299 18.12Z" fill="#E9D315"/>
</svg>
