<svg width="32" height="32" viewBox="0 0 32 32" fill="none" xmlns="http://www.w3.org/2000/svg">
<path d="M32 5.32996H0V26.66H32V5.32996Z" fill="#0052B4"/>
<path d="M11.83 18.62L12.51 20.05L14.06 19.7L13.37 21.12L14.61 22.11L13.06 22.46V24.05L11.83 23.05L10.59 24.05V22.46L9.04 22.11L10.29 21.12L9.6 19.7L11.14 20.05L11.83 18.62ZM24.19 20.4L24.52 21.08L25.26 20.91L24.93 21.59L25.52 22.06L24.78 22.23V22.99L24.19 22.51L23.6 22.99V22.23L22.86 22.06L23.46 21.59L23.13 20.91L23.86 21.08L24.19 20.4ZM21.15 13.15L21.48 13.84L22.22 13.66L21.89 14.35L22.48 14.82L21.74 14.98V15.74L21.15 15.27L20.56 15.74L20.57 14.98L19.83 14.82L20.42 14.35L20.09 13.66L20.83 13.84L21.15 13.15ZM24.19 9.00996L24.52 9.69996L25.26 9.52996L24.93 10.21L25.52 10.68L24.78 10.84V11.6L24.19 11.13L23.6 11.6V10.84L22.86 10.68L23.46 10.21L23.13 9.52996L23.86 9.69996L24.19 9.00996ZM26.85 12.12L27.17 12.8L27.91 12.63L27.58 13.31L28.17 13.78L27.43 13.95L27.44 14.71L26.85 14.23L26.26 14.71V13.95L25.52 13.78L26.11 13.31L25.78 12.63L26.52 12.8L26.85 12.12ZM24.95 15.74L25.2 16.53H26.04L25.36 17.02L25.62 17.81L24.95 17.32L24.27 17.81L24.53 17.02L23.86 16.53H24.69L24.95 15.74ZM16 5.32996V7.23996L13.18 8.80996H16V12.52H12.31L16 14.57V16H14.33L9.74 13.45V16H6.26V12.96L0.8 16H0V14.09L2.82 12.52H0V8.80996H3.69L0 6.75996V5.32996H1.67L6.26 7.87996V5.32996H9.74V8.36996L15.2 5.32996H16Z" fill="#F0F0F0"/>
<path d="M9 5.32996H7V9.66996H0V11.67H7V16H9V11.67H16V9.66996H9V5.32996Z" fill="#D80027"/>
<path d="M9.73999 12.52L16 16V15.02L11.51 12.52H9.73999Z" fill="#0052B4"/>
<path d="M9.73999 12.52L16 16V15.02L11.51 12.52H9.73999Z" fill="#F0F0F0"/>
<path d="M9.74 12.52L16 16V15.02L11.51 12.52H9.74ZM4.49 12.52L0 15.02V16L6.26 12.52H4.49Z" fill="#D80027"/>
<path d="M6.26 8.80996L0 5.32996V6.31996L4.49 8.80996H6.26Z" fill="#0052B4"/>
<path d="M6.26 8.80996L0 5.32996V6.31996L4.49 8.80996H6.26Z" fill="#F0F0F0"/>
<path d="M6.26 8.80996L0 5.32996V6.31996L4.49 8.80996H6.26ZM11.51 8.80996L16 6.31996V5.32996L9.74 8.80996H11.51Z" fill="#D80027"/>
</svg>
