<svg width="32" height="32" viewBox="0 0 32 32" fill="none" xmlns="http://www.w3.org/2000/svg">
<path d="M32 5.33002H0V26.66H32V5.33002Z" fill="#496E2D"/>
<path d="M0 26.67V5.33002H32" fill="#0052B4"/>
<path d="M32 9.51002V5.33002H25.73L0 22.49V26.67H6.27L32 9.51002Z" fill="#F0F0F0"/>
<path d="M32 5.33002V7.84002L3.76 26.67H0V24.16L28.24 5.33002H32Z" fill="#A2001D"/>
<path d="M11.73 11.83L10.31 12.49L11.07 13.87L9.53003 13.58L9.33003 15.13L8.26003 13.99L7.18003 15.13L6.98003 13.58L5.44003 13.87L6.20003 12.49L4.78003 11.83L6.20003 11.16L5.44003 9.78002L6.98003 10.08L7.18003 8.52002L8.26003 9.66002L9.33003 8.52002L9.53003 10.08L11.07 9.78002L10.31 11.16L11.73 11.83Z" fill="#FFDA44"/>
</svg>
