<svg width="32" height="32" viewBox="0 0 32 32" fill="none" xmlns="http://www.w3.org/2000/svg">
<path d="M32 5.33002H0V26.66H32V5.33002Z" fill="#0052B4"/>
<path d="M32 5.33002H0V10.66H32V5.33002Z" fill="#FFDA44"/>
<path d="M32 10.67H0V16H32V10.67Z" fill="#F0F0F0"/>
<path d="M32 16H0V21.33H32V16Z" fill="#D80027"/>
<path d="M16 16L0 26.67V5.33002L16 16Z" fill="#6DA544"/>
<path d="M4.28989 16C4.29074 15.2603 4.54389 14.543 5.00753 13.9667C5.47117 13.3903 6.11755 12.9893 6.83989 12.83C6.61023 12.7776 6.37546 12.7507 6.13989 12.75C5.27794 12.75 4.45129 13.0924 3.8418 13.7019C3.2323 14.3114 2.88989 15.138 2.88989 16C2.88989 16.862 3.2323 17.6886 3.8418 18.2981C4.45129 18.9076 5.27794 19.25 6.13989 19.25C6.37589 19.25 6.60989 19.222 6.83989 19.17C6.11755 19.0107 5.47117 18.6097 5.00753 18.0333C4.54389 17.457 4.29074 16.7397 4.28989 16Z" fill="#F0F0F0"/>
<path d="M6.80007 13.22L6.98007 13.75H7.54007L7.08007 14.08L7.26007 14.61L6.80007 14.28L6.35007 14.61L6.53007 14.08L6.07007 13.75H6.63007L6.80007 13.22ZM6.80007 14.61L6.98007 15.14H7.54007L7.08007 15.47L7.26007 16L6.80007 15.67L6.35007 16L6.53007 15.47L6.07007 15.14H6.63007L6.80007 14.61ZM6.80007 16L6.98007 16.53H7.54007L7.08007 16.86L7.26007 17.39L6.80007 17.06L6.35007 17.39L6.53007 16.86L6.07007 16.53H6.63007L6.80007 16ZM6.80007 17.39L6.98007 17.92H7.54007L7.08007 18.25L7.26007 18.78L6.80007 18.45L6.35007 18.78L6.53007 18.25L6.07007 17.92H6.63007L6.80007 17.39Z" fill="#F0F0F0"/>
</svg>
