<svg width="32" height="32" viewBox="0 0 32 32" fill="none" xmlns="http://www.w3.org/2000/svg">
<path d="M32 5.32996H0V26.66H32V5.32996Z" fill="#F0F0F0"/>
<path d="M24.3801 13.91H20.8701C20.8701 13.6023 20.7479 13.3073 20.5304 13.0898C20.3128 12.8722 20.0178 12.75 19.7101 12.75L18.7801 14.61L19.7801 17.39H20.9001C21.2078 17.39 21.5028 17.2678 21.7204 17.0502C21.9379 16.8327 22.0601 16.5377 22.0601 16.23C22.3678 16.23 22.6628 16.1078 22.8804 15.8902C23.0979 15.6727 23.2201 15.3777 23.2201 15.07C23.5246 15.06 23.8139 14.9346 24.0293 14.7192C24.2447 14.5038 24.3701 14.2145 24.3801 13.91ZM7.62012 13.91H11.1301C11.1301 13.6023 11.2523 13.3073 11.4699 13.0898C11.6874 12.8722 11.9825 12.75 12.2901 12.75L13.2201 14.61L12.2201 17.39H11.1001C10.7925 17.39 10.4974 17.2678 10.2799 17.0502C10.0623 16.8327 9.94012 16.5377 9.94012 16.23C9.63247 16.23 9.33742 16.1078 9.11987 15.8902C8.90233 15.6727 8.78012 15.3777 8.78012 15.07C8.47564 15.06 8.18636 14.9346 7.97094 14.7192C7.75553 14.5038 7.63011 14.2145 7.62012 13.91Z" fill="#ACABB1"/>
<path d="M19.7099 20.17V20.64H12.2899V20.17H10.4399V22.03H12.2899V22.49H19.7099V22.03H21.5699V20.17H19.7099Z" fill="#FFDA44"/>
<path d="M12.29 12.75V17.39C12.29 20.23 16 21.1 16 21.1C16 21.1 19.71 20.23 19.71 17.39V12.75L16 12.29L12.29 12.75Z" fill="#0052B4"/>
<path d="M19.71 14.61H12.29V17.39H19.71V14.61Z" fill="#D80027"/>
<path d="M17.86 10.43V11.13L17.39 11.36L16.93 10.9V9.51001H15.07V10.9L14.61 11.36L14.14 11.13V10.43H12.29V12.75H19.71V10.43H17.86Z" fill="#FFDA44"/>
</svg>
