<svg width="32" height="32" viewBox="0 0 32 32" fill="none" xmlns="http://www.w3.org/2000/svg">
<path d="M32 5.33002H0V26.66H32V5.33002Z" fill="#338AF3"/>
<path d="M18.3259 16.01C18.3271 15.4006 18.2082 14.797 17.9762 14.2336C17.7441 13.6702 17.4033 13.1581 16.9732 12.7264C16.5432 12.2947 16.0324 11.9519 15.4699 11.7176C14.9074 11.4833 14.3042 11.3622 13.6949 11.361C13.0856 11.3598 12.482 11.4786 11.9186 11.7107C11.3552 11.9428 10.843 12.2836 10.4113 12.7136C9.9796 13.1437 9.63682 13.6545 9.40255 14.217C9.16828 14.7795 9.04709 15.3826 9.04591 15.992C9.04352 17.2226 9.53009 18.4037 10.3986 19.2756C11.267 20.1474 12.4463 20.6386 13.6769 20.641C14.9075 20.6434 16.0887 20.1568 16.9605 19.2883C17.8324 18.4198 18.3235 17.2406 18.3259 16.01Z" fill="#FFDA44"/>
</svg>
