<svg width="32" height="32" viewBox="0 0 32 32" fill="none" xmlns="http://www.w3.org/2000/svg">
<path d="M32 5.33002H0V26.66H32V5.33002Z" fill="#D80027"/>
<path d="M16 5.33002H0V16H16V5.33002Z" fill="#0052B4"/>
<path d="M11.6501 10.67L10.1601 11.37L10.9601 12.81L9.3401 12.5L9.1301 14.14L8.0001 12.94L6.8701 14.14L6.6701 12.5L5.0501 12.81L5.8401 11.37L4.3501 10.67L5.8401 9.96L5.0501 8.52L6.6701 8.83L6.8701 7.19L8.0001 8.4L9.1301 7.19L9.3401 8.83L10.9601 8.52L10.1601 9.96L11.6501 10.67Z" fill="#F0F0F0"/>
<path d="M7.97992 12.5C8.21761 12.5 8.45298 12.4532 8.67258 12.3622C8.89218 12.2713 9.09171 12.1379 9.25978 11.9699C9.42786 11.8018 9.56118 11.6023 9.65214 11.3827C9.7431 11.1631 9.78992 10.9277 9.78992 10.69C9.78992 10.4523 9.7431 10.2169 9.65214 9.99735C9.56118 9.77775 9.42786 9.57822 9.25978 9.41014C9.09171 9.24207 8.89218 9.10874 8.67258 9.01778C8.45298 8.92682 8.21761 8.88 7.97992 8.88C7.49988 8.88 7.0395 9.0707 6.70006 9.41014C6.36062 9.74958 6.16992 10.21 6.16992 10.69C6.16992 11.17 6.36062 11.6304 6.70006 11.9699C7.0395 12.3093 7.49988 12.5 7.97992 12.5Z" fill="#0052B4"/>
<path d="M8.00017 11.876C8.32108 11.8747 8.62832 11.7459 8.8543 11.5181C9.08028 11.2902 9.20649 10.9819 9.20517 10.661C9.20384 10.3401 9.07509 10.0329 8.84723 9.80687C8.61937 9.58089 8.31108 9.45468 7.99017 9.456C7.66925 9.45733 7.36201 9.58608 7.13603 9.81394C6.91005 10.0418 6.78384 10.3501 6.78517 10.671C6.78649 10.9919 6.91525 11.2992 7.1431 11.5251C7.37096 11.7511 7.67925 11.8773 8.00017 11.876Z" fill="#F0F0F0"/>
</svg>
