<svg width="32" height="32" viewBox="0 0 32 32" fill="none" xmlns="http://www.w3.org/2000/svg">
<path d="M32 5.33002H0V26.66H32V5.33002Z" fill="#0052B4"/>
<path d="M23.9999 13.22C24.2442 13.22 24.486 13.1719 24.7117 13.0784C24.9374 12.9849 25.1424 12.8479 25.3151 12.6752C25.4878 12.5025 25.6248 12.2975 25.7183 12.0718C25.8118 11.8461 25.8599 11.6043 25.8599 11.36C25.8599 11.1157 25.8118 10.8739 25.7183 10.6482C25.6248 10.4225 25.4878 10.2175 25.3151 10.0448C25.1424 9.87206 24.9374 9.73506 24.7117 9.64158C24.486 9.54811 24.2442 9.5 23.9999 9.5C23.5066 9.5 23.0335 9.69596 22.6847 10.0448C22.3359 10.3936 22.1399 10.8667 22.1399 11.36C22.1399 11.8533 22.3359 12.3264 22.6847 12.6752C23.0335 13.024 23.5066 13.22 23.9999 13.22Z" fill="#6DA544"/>
<path d="M27.24 10.9H20.75V13.68H27.24V10.9Z" fill="#D80027"/>
<path d="M20.75 17.85V19.71H21.75C22.3558 20.3048 23.171 20.6381 24.02 20.6381C24.869 20.6381 25.6842 20.3048 26.29 19.71H27.29V17.85H20.75Z" fill="#FFDA44"/>
<path d="M20.75 13.22V16C20.75 18.48 24 19.25 24 19.25C24 19.25 27.25 18.48 27.25 16V13.22H20.75Z" fill="#338AF3"/>
<path d="M24 14.7C23.19 14.7 23.19 15.45 22.38 15.45C21.57 15.45 21.57 14.7 20.75 14.7V16C21.57 16 21.57 16.74 22.38 16.74C23.19 16.74 23.19 16 24 16C24.81 16 24.81 16.74 25.62 16.74C26.43 16.74 26.44 16 27.25 16V14.7C26.44 14.7 26.44 15.45 25.62 15.45C24.8 15.45 24.81 14.7 24 14.7ZM24 12.1C23.19 12.1 23.19 12.85 22.38 12.85C21.57 12.85 21.57 12.1 20.75 12.1V13.4C21.57 13.4 21.57 14.14 22.38 14.14C23.19 14.14 23.19 13.4 24 13.4C24.81 13.4 24.81 14.14 25.62 14.14C26.43 14.14 26.44 13.4 27.25 13.4V12.1C26.44 12.1 26.44 12.85 25.62 12.85C24.8 12.85 24.81 12.1 24 12.1Z" fill="#F3F3F3"/>
<path d="M16 5.33002V6.75002L13.12 8.67002H16V12.67H13.12L16 14.59V16H14.59L10 12.94V16H6V12.94L1.41 16H0V14.59L2.88 12.67H0V8.67002H2.88L0 6.75002V5.33002H1.41L6 8.39002V5.33002H10V8.39002L14.59 5.33002H16Z" fill="#F0F0F0"/>
<path d="M9 5.33002H7V9.67002H0V11.67H7V16H9V11.67H16V9.67002H9V5.33002Z" fill="#D80027"/>
<path d="M0 5.33002V6.28002L3.59 8.67002H5L0 5.33002ZM16 5.33002V6.28002L12.41 8.67002H11L16 5.33002Z" fill="#D80027"/>
<path d="M0 5.33002V6.28002L3.59 8.67002H5L0 5.33002ZM16 5.33002V6.28002L12.41 8.67002H11L16 5.33002ZM0 16V15.06L3.59 12.67H5L0 16ZM16 16V15.06L12.41 12.67H11L16 16Z" fill="#D80027"/>
</svg>
