<svg width="32" height="32" viewBox="0 0 32 32" fill="none" xmlns="http://www.w3.org/2000/svg">
<path d="M32 5.33002H0V26.66H32V5.33002Z" fill="#F0F0F0"/>
<path d="M32 5.33002H0V10.99H32V5.33002Z" fill="black"/>
<path d="M32 21.01H0V26.67H32V21.01Z" fill="#496E2D"/>
<path d="M32 12.41H0V19.58H32V12.41Z" fill="#A2001D"/>
<path d="M20.1998 8.74L18.6098 8L15.9998 13.9L13.3998 8L11.7998 8.74L15.0298 16L11.7998 23.26L13.3998 24L15.9998 18.1L18.6098 24L20.1998 23.26L16.9698 16L20.1998 8.74Z" fill="#F0F0F0"/>
<path d="M17.0899 9.43C16.7479 9.05538 16.3839 8.70142 15.9999 8.37C15.6179 8.7 15.2569 9.054 14.9199 9.43V22.57C15.2569 22.946 15.6179 23.3 15.9999 23.63C16.3839 23.2986 16.7479 22.9446 17.0899 22.57V9.43Z" fill="#F0F0F0"/>
<path d="M13.0698 12V20.1C13.6229 21.0911 14.2945 22.0111 15.0698 22.84V9.21002C14.2912 10.0545 13.6195 10.9915 13.0698 12ZM18.9398 12C18.3648 11.0078 17.6733 10.088 16.8798 9.26002V22.79C17.6733 21.9621 18.3648 21.0422 18.9398 20.05V12Z" fill="#A2001D"/>
<path d="M18.9301 12V20.1C19.6757 18.8602 20.0826 17.4464 20.1101 16C20.0654 14.5877 19.6591 13.2105 18.9301 12ZM13.0701 12V20.1C12.3245 18.8602 11.9176 17.4464 11.8901 16C11.9349 14.5877 12.3411 13.2105 13.0701 12Z" fill="black"/>
</svg>
