<svg width="32" height="32" viewBox="0 0 32 32" fill="none" xmlns="http://www.w3.org/2000/svg">
<path d="M32 5.32996H0V26.66H32V5.32996Z" fill="#0052B4"/>
<path d="M24 9.78996L24.33 10.81H25.4L24.53 11.44L24.86 12.45L24 11.83L23.14 12.45L23.46 11.44L22.6 10.81H23.67L24 9.78996ZM19.61 11.61L20.56 12.1L21.32 11.34L21.15 12.4L22.1 12.88L21.05 13.05L20.88 14.1L20.4 13.15L19.34 13.32L20.1 12.56L19.61 11.61ZM17.79 16L18.81 15.67V14.6L19.44 15.47L20.45 15.14L19.83 16L20.45 16.86L19.44 16.53L18.81 17.4V16.33L17.79 16ZM19.61 20.39L20.1 19.44L19.34 18.68L20.4 18.85L20.88 17.9L21.05 18.95L22.1 19.12L21.15 19.6L21.32 20.66L20.56 19.9L19.61 20.39ZM24 22.2L23.67 21.19H22.6L23.46 20.56L23.14 19.55L24 20.17L24.86 19.55L24.53 20.56L25.4 21.19H24.33L24 22.2ZM28.39 20.39L27.44 19.9L26.68 20.66L26.85 19.6L25.9 19.12L26.95 18.95L27.12 17.9L27.6 18.85L28.66 18.68L27.9 19.44L28.39 20.39ZM30.21 16L29.19 16.33V17.4L28.56 16.53L27.55 16.86L28.18 16L27.55 15.14L28.56 15.47L29.19 14.6V15.67L30.21 16ZM28.39 11.61L27.9 12.56L28.66 13.32L27.6 13.15L27.12 14.1L26.95 13.05L25.9 12.88L26.85 12.4L26.68 11.34L27.44 12.1L28.39 11.61ZM6 16H1.41L6 12.94V16ZM0 11.67V12.67H2.88L0 14.59V15.06L3.59 12.67H5L0 16H7V11.67H0ZM10 5.32996H14.59L10 8.38996V5.32996ZM11 8.66996L16 5.32996H9V9.66996H16V8.66996H13.12L16 6.74996V6.27996L12.41 8.66996H11ZM10 12.94L14.59 16H10V12.94ZM9 16H16L11 12.67H12.41L16 15.06V14.59L13.12 12.67H16V11.67H9V16ZM6 8.38996L1.41 5.32996H6V8.38996ZM7 5.32996H0L5 8.66996H3.59L0 6.27996V6.74996L2.88 8.66996H0V9.66996H7V5.32996Z" fill="#F0F0F0"/>
<path d="M9 5.32996H7V9.66996H0V11.67H7V16H9V11.67H16V9.66996H9V5.32996Z" fill="#D80027"/>
<path d="M5 8.66996L0 5.32996V6.27996L3.59 8.66996H5ZM11 8.66996H12.41L16 6.27996V5.32996L11 8.66996ZM3.59 12.67L0 15.06V16L5 12.67H3.59ZM11 12.67L16 16V15.06L12.41 12.67H11Z" fill="#D80027"/>
</svg>
