<svg width="32" height="32" viewBox="0 0 32 32" fill="none" xmlns="http://www.w3.org/2000/svg">
<path d="M32 5.33002H0V26.66H32V5.33002Z" fill="#D80027"/>
<path d="M32 20.17H0V26.66H32V20.17Z" fill="#6DA544"/>
<path d="M32 5.33002H0V11.86H32V5.33002Z" fill="#338AF3"/>
<path d="M32 13.18H0V18.78H32V13.18Z" fill="#F0F0F0"/>
<path d="M32 5.33002H0V11.86H32V5.33002Z" fill="#338AF3"/>
<path d="M11.7899 8.60001C11.7991 8.13095 11.9659 7.67863 12.2634 7.31585C12.5608 6.95307 12.9717 6.70093 13.4299 6.60001C13.2803 6.58419 13.1295 6.58419 12.9799 6.60001C12.4256 6.60001 11.894 6.82021 11.502 7.21216C11.1101 7.60411 10.8899 8.13571 10.8899 8.69001C10.8899 9.24431 11.1101 9.77591 11.502 10.1679C11.894 10.5598 12.4256 10.78 12.9799 10.78C13.1299 10.796 13.2799 10.796 13.4299 10.78C12.9407 10.6733 12.5061 10.3946 12.2052 9.99448C11.9042 9.5944 11.7568 9.09957 11.7899 8.60001ZM14.6599 9.55001L14.8099 9.98001H15.2599L14.8899 10.25L15.0399 10.69L14.6599 10.42L14.2899 10.69L14.4399 10.25L14.0699 9.98001H14.5199L14.6599 9.55001ZM16.1299 9.55001L16.2699 9.98001H16.7199L16.3499 10.25L16.4999 10.69L16.1299 10.42L15.7599 10.69L15.8999 10.25L15.5299 9.98001H15.9799L16.1299 9.55001ZM17.5799 9.55001L17.7299 9.98001H18.1799L17.8099 10.25L17.9499 10.69L17.5799 10.42L17.2099 10.69L17.3599 10.25L16.9899 9.98001H17.4399L17.5799 9.55001ZM19.0399 9.55001L19.1799 9.98001H19.6399L19.2699 10.25L19.4099 10.69L19.0399 10.42L18.6699 10.69L18.8199 10.25L18.4499 9.98001H18.8999L19.0399 9.55001ZM20.4999 9.55001L20.6399 9.98001H21.0999L20.7299 10.25L20.8699 10.69L20.4999 10.42L20.1299 10.69L20.2699 10.25L19.8999 9.98001H20.3599L20.4999 9.55001ZM16.1299 8.03001L16.2699 8.47001H16.7199L16.3499 8.73001L16.4999 9.17001L16.1299 8.90001L15.7599 9.17001L15.8999 8.73001L15.5299 8.47001H15.9799L16.1299 8.03001ZM17.5799 8.03001L17.7299 8.47001H18.1799L17.8099 8.73001L17.9499 9.17001L17.5799 8.90001L17.2099 9.17001L17.3599 8.73001L16.9899 8.47001H17.4399L17.5799 8.03001ZM19.0399 8.03001L19.1799 8.47001H19.6399L19.2699 8.73001L19.4099 9.17001L19.0399 8.90001L18.6699 9.17001L18.8199 8.73001L18.4499 8.47001H18.8999L19.0399 8.03001ZM20.4999 8.03001L20.6399 8.47001H21.0999L20.7299 8.73001L20.8699 9.17001L20.4999 8.90001L20.1299 9.17001L20.2699 8.73001L19.8999 8.47001H20.3599L20.4999 8.03001ZM17.5799 6.51001L17.7299 6.95001H18.1799L17.8099 7.22001L17.9499 7.65001L17.5799 7.38001L17.2099 7.65001L17.3599 7.22001L16.9899 6.95001H17.4399L17.5799 6.51001ZM19.0399 6.51001L19.1799 6.95001H19.6399L19.2699 7.22001L19.4099 7.65001L19.0399 7.38001L18.6699 7.65001L18.8199 7.22001L18.4499 6.95001H18.8999L19.0399 6.51001ZM20.4999 6.51001L20.6399 6.95001H21.0999L20.7299 7.22001L20.8699 7.65001L20.4999 7.38001L20.1299 7.65001L20.2699 7.22001L19.8999 6.95001H20.3599L20.4999 6.51001Z" fill="#F0F0F0"/>
</svg>
