<svg width="32" height="32" viewBox="0 0 32 32" fill="none" xmlns="http://www.w3.org/2000/svg">
<path d="M32 5.33002H0V26.66H32V5.33002Z" fill="#F0F0F0"/>
<path d="M32 5.33002H0V12.44H32V5.33002Z" fill="#D80027"/>
<path d="M32 19.55H0V26.66H32V19.55Z" fill="#0052B4"/>
<path d="M18.78 12.75H16.93L17.24 10.43L18.47 9.51001L19.71 10.43V12.29L18.78 12.75ZM13.22 12.75H15.07L14.76 10.43L13.53 9.51001L12.29 10.43V12.29L13.22 12.75Z" fill="#338AF3"/>
<path d="M17.24 12.75H14.76V10.43L16 9.51001L17.24 10.43V12.75Z" fill="#0052B4"/>
<path d="M12.2899 12.29V17.39C12.2848 17.972 12.4171 18.547 12.676 19.0682C12.9349 19.5895 13.3131 20.0424 13.7799 20.39L14.4299 20.23L15.2499 21.05C15.4959 21.102 15.7479 21.13 15.9999 21.13C16.2509 21.127 16.5019 21.103 16.7499 21.06L17.6799 20.28L18.2199 20.39C18.685 20.0407 19.0619 19.5875 19.3206 19.0666C19.5793 18.5457 19.7127 17.9716 19.7099 17.39V12.29H12.2899Z" fill="#F0F0F0"/>
<path d="M13.77 12.29H12.29V13.77H13.77V12.29ZM16.74 12.29H15.26V13.77H16.74V12.29ZM19.71 12.29H18.23V13.77H19.71V12.29ZM15.25 13.77H13.77V15.25H15.25V13.77ZM18.22 13.77H16.74V15.25H18.22V13.77ZM13.77 15.26H12.29V16.74H13.77V15.26ZM15.25 16.74H13.77V18.22H15.25V16.74ZM16.74 15.26H15.26V16.74H16.74V15.26ZM19.71 15.26H18.23V16.74H19.71V15.26ZM18.22 16.74H16.74V18.22H18.22V16.74ZM16.74 18.23H15.26V19.71H16.74V18.23ZM13.77 18.23H12.39C12.51 18.773 12.757 19.28 13.11 19.71H13.77V18.23ZM18.23 19.71H18.89C19.243 19.28 19.49 18.773 19.61 18.23H18.23V19.71ZM13.77 19.71V20.36C14.215 20.683 14.723 20.912 15.26 21.03V19.71H13.77ZM16.74 19.71V21C17.2775 20.8815 17.7848 20.6534 18.23 20.33V19.68L16.74 19.71Z" fill="#D80027"/>
</svg>
