<svg width="32" height="32" viewBox="0 0 32 32" fill="none" xmlns="http://www.w3.org/2000/svg">
<path d="M32 5.33002H0V26.66H32V5.33002Z" fill="#D80027"/>
<path d="M12.29 5.33002V26.67H0V5.33002H12.29Z" fill="#6DA544"/>
<path d="M12.29 20C13.3509 20 14.3683 19.5786 15.1185 18.8284C15.8686 18.0783 16.29 17.0609 16.29 16C16.29 14.9391 15.8686 13.9217 15.1185 13.1716C14.3683 12.4214 13.3509 12 12.29 12C11.2292 12 10.2118 12.4214 9.46161 13.1716C8.71147 13.9217 8.29004 14.9391 8.29004 16C8.29004 17.0609 8.71147 18.0783 9.46161 18.8284C10.2118 19.5786 11.2292 20 12.29 20Z" fill="#FFDA44"/>
<path d="M10 14V16.5C10 17.0967 10.2371 17.669 10.659 18.091C11.081 18.5129 11.6533 18.75 12.25 18.75C12.8467 18.75 13.419 18.5129 13.841 18.091C14.2629 17.669 14.5 17.0967 14.5 16.5V14H10Z" fill="#D80027"/>
<path d="M12.29 17.25C12.0919 17.2474 11.9027 17.1676 11.7626 17.0275C11.6225 16.8874 11.5426 16.6981 11.54 16.5V15.5H13V16.5C12.9979 16.6915 12.9236 16.8751 12.792 17.0141C12.6604 17.1532 12.4811 17.2374 12.29 17.25Z" fill="#F0F0F0"/>
</svg>
