<svg width="32" height="32" viewBox="0 0 32 32" fill="none" xmlns="http://www.w3.org/2000/svg">
<path d="M32 5.33002H0V26.66H32V5.33002Z" fill="#338AF3"/>
<path d="M32 5.33002V15.75L0 16.01V5.33002H32Z" fill="#F0F0F0"/>
<path d="M20.2299 12.69L15.9999 16.93L11.7699 12.69C11.2015 13.5317 10.8985 14.5244 10.8999 15.54V16.93C10.9011 17.9927 11.2342 19.0285 11.8528 19.8927C12.4713 20.7568 13.3443 21.4062 14.3499 21.75C14.2123 22.014 14.1541 22.3123 14.1825 22.6087C14.2109 22.9051 14.3247 23.1869 14.5099 23.42L15.9999 22.2L17.5199 23.42C17.7069 23.1838 17.8215 22.8986 17.8499 22.5987C17.8783 22.2988 17.8193 21.9971 17.6799 21.73C18.6702 21.376 19.5272 20.7251 20.1339 19.866C20.7406 19.007 21.0675 17.9817 21.0699 16.93V15.54C21.0802 14.5275 20.7877 13.5351 20.2299 12.69Z" fill="#6DA544"/>
<path d="M16 20.64C15.0169 20.6374 14.0748 20.2457 13.3796 19.5505C12.6844 18.8553 12.2927 17.9132 12.29 16.93V15.54C12.29 14.5561 12.6809 13.6124 13.3767 12.9167C14.0724 12.2209 15.0161 11.83 16 11.83C16.984 11.83 17.9276 12.2209 18.6234 12.9167C19.3192 13.6124 19.71 14.5561 19.71 15.54V16.93C19.7074 17.9132 19.3157 18.8553 18.6205 19.5505C17.9253 20.2457 16.9832 20.6374 16 20.64Z" fill="#FFDA44"/>
<path d="M18.3199 16.93V15.54C18.3199 14.9247 18.0755 14.3346 17.6404 13.8995C17.2053 13.4644 16.6152 13.22 15.9999 13.22C15.3846 13.22 14.7945 13.4644 14.3594 13.8995C13.9244 14.3346 13.6799 14.9247 13.6799 15.54V16.93L15.9999 17.39L18.3199 16.93Z" fill="#338AF3"/>
<path d="M13.6799 16.93C13.6799 17.5453 13.9244 18.1354 14.3594 18.5705C14.7945 19.0056 15.3846 19.25 15.9999 19.25C16.6152 19.25 17.2053 19.0056 17.6404 18.5705C18.0755 18.1354 18.3199 17.5453 18.3199 16.93H13.6799Z" fill="#6DA544"/>
<path d="M18.78 11.83C18.78 11.4604 18.6339 11.1059 18.3735 10.8436C18.1131 10.5813 17.7595 10.4327 17.39 10.43C17.0466 10.4336 16.7163 10.5615 16.46 10.79V10H16.93V9.00002H16.46V8.58002H15.54V9.00002H15.07V10H15.54V10.82C15.3424 10.642 15.0978 10.5244 14.8354 10.4812C14.573 10.438 14.3036 10.471 14.0594 10.5763C13.8151 10.6815 13.6062 10.8547 13.4574 11.0751C13.3086 11.2956 13.2262 11.5541 13.22 11.82C13.2238 12.0094 13.2666 12.1959 13.3458 12.3679C13.4249 12.54 13.5387 12.6939 13.68 12.82V13.64H18.32V12.82C18.4599 12.6949 18.5728 12.5426 18.6519 12.3724C18.731 12.2022 18.7745 12.0176 18.78 11.83Z" fill="#FFDA44"/>
</svg>
