<svg width="32" height="32" viewBox="0 0 32 32" fill="none" xmlns="http://www.w3.org/2000/svg">
<path d="M32 5.33002H0V26.66H32V5.33002Z" fill="#0052B4"/>
<path d="M32 5.33002V15.75L0 16.01V5.33002H32Z" fill="#D80027"/>
<path d="M16 16L0 26.67V5.33002L16 16Z" fill="#F0F0F0"/>
<path d="M3.73006 16C3.72475 16.0966 3.72475 16.1934 3.73006 16.29C3.77946 17.2419 4.19241 18.1386 4.88369 18.7949C5.57497 19.4513 6.49183 19.8172 7.44506 19.8172C8.39828 19.8172 9.31514 19.4513 10.0064 18.7949C10.6977 18.1386 11.1107 17.2419 11.1601 16.29C11.1652 16.1934 11.1652 16.0966 11.1601 16H3.73006ZM7.43006 14.28C7.7324 14.28 8.02237 14.1599 8.23616 13.9461C8.44995 13.7323 8.57006 13.4423 8.57006 13.14C8.57006 12.8377 8.44995 12.5477 8.23616 12.3339C8.02237 12.1201 7.7324 12 7.43006 12C7.12771 12 6.83775 12.1201 6.62395 12.3339C6.41016 12.5477 6.29006 12.8377 6.29006 13.14C6.29006 13.4423 6.41016 13.7323 6.62395 13.9461C6.83775 14.1599 7.12771 14.28 7.43006 14.28Z" fill="#FFDA44"/>
<path d="M4.86011 12.86V16.57C4.86011 18.57 7.43011 19.14 7.43011 19.14C7.43011 19.14 10.0001 18.54 10.0001 16.57V12.86H4.86011Z" fill="#D80027"/>
<path d="M7.43 18C7 17.78 6 17.34 6 16.57V14H8.86V16.57C8.86 17.34 7.9 17.78 7.43 18Z" fill="#338AF3"/>
<path d="M8.00007 15.43V14.86L7.43007 14.57L6.86007 14.86V15.43L6.57007 15.71V16.86H8.29007V15.71L8.00007 15.43Z" fill="#F3F3F3"/>
</svg>
